<?xml version="1.0" encoding="UTF-8"?><svg id="a" xmlns="http://www.w3.org/2000/svg" width="412.51" height="412.51" viewBox="0 0 412.51 412.51"><defs><style>.b{fill:#000;}.b,.c{stroke-width:0px;}.c{fill:#212121;}</style></defs><path class="b" d="M398.26,42.67v140.03c0,.18,0,.36-.01.54-.1,4.96-1.59,9.57-4.09,13.47-.88,1.38-1.88,2.66-3,3.84-.99,1.04-2.06,2.01-3.21,2.88-4.36,3.3-9.79,5.26-15.68,5.26H40.24c-5.89,0-11.32-1.96-15.67-5.26-1.15-.87-2.22-1.83-3.21-2.88-1.11-1.18-2.12-2.46-2.99-3.83-2.51-3.9-4-8.51-4.1-13.47-.01-.18-.01-.37-.01-.55V42.67c0-1.91.21-3.78.61-5.58,2.54-11.67,12.94-20.4,25.37-20.4h332.03c12.43,0,22.83,8.73,25.38,20.4.4,1.8.61,3.67.61,5.58Z"/><path class="b" d="M394.67,43.96c.05-1.64-.56-1.05-.67-1.29.14,2.74.84,1.23.67,1.29Z"/><polygon class="b" points="396.07 70.95 395.82 70.47 396.44 74.45 396.07 70.95"/><path class="b" d="M396.06,96.19c1.05-2.39-.17-9.14.2-13.64l.24-.74-.85-2.03c.13,5.46.7,12.56.4,16.41Z"/><path class="b" d="M393.78,109.65c.41-.83.35,2.91.13-3.14-.04.3-.07.39-.1.57,0,.54,0,1.29-.02,2.57Z"/><path class="b" d="M393.81,107.08c-.03-2.66-.34,1.74,0,0h0Z"/><path class="b" d="M394.04,119.35l-.37-3.5c-.24.73-.3,3.85-.47,2.69.2,3.59.44,2.85.84.81Z"/><path class="b" d="M394.81,122.67l-.15-1.81c-.1.32-.14.8.15,1.81Z"/><path class="b" d="M394.33,117.01l.33,3.85c.17-.51.51-.56-.12-1.77.31.31.01-.45-.21-2.08Z"/><path class="b" d="M394.49,114.83c.23-1.96.37-4.5.74-.99-.14-6.7-.89-5.71-.74.99Z"/><path class="b" d="M397.15,97.48l.31-2.63-.35-2.27c.18,1.13-.29,5.06.04,4.9Z"/><path class="b" d="M393.5,141.16c.22.22.6-1.18.88-1.44l-.26-2.59c-.15,1.33-.29,3.85-.63,4.02Z"/><path class="b" d="M394.38,139.72l.38,3.87c.05-3.46-.14-4.09-.38-3.87Z"/><polygon class="b" points="395.98 123.29 395.17 116.94 395.99 124.52 395.98 123.29"/><polygon class="b" points="393.47 155.94 392.95 153.74 393.73 157.65 393.47 155.94"/><path class="b" d="M393.56,165.74c-.43-1.62-.73,2.23-.99.51.08,2.66.45,4.94.78,6.98-.19-2.17-.14-4.49.21-7.49Z"/><path class="b" d="M393.83,176.67c-.1-1.09-.29-2.21-.48-3.44.1,1.16.24,2.29.48,3.44Z"/><path class="b" d="M394.65,150.18c-.14.3-.49.88-.64,3.04l.63-1.52c0-.46,0-.99,0-1.52Z"/><path class="b" d="M394.67,151.65l-.02.05c-.02,1.65-.03,2.8-.04,3.29,0-.42.02-1.43.06-3.34Z"/><path class="b" d="M394.66,149.8c0,.14,0,.24,0,.38.06-.15.08-.23,0-.38Z"/><path class="b" d="M395.41,133.44c.35,2.27.73,7.01,1.27,2.43-.43-1.63-.74.99-1.27-2.43Z"/><path class="b" d="M395.45,147.91l.14-4.11c-.17.08-.41.82-.58-.3l.44,4.41Z"/><polygon class="b" points="395.65 149.92 395.45 147.91 395.39 149.43 395.65 149.92"/><path class="b" d="M394.42,169.63c.27,1.77.3,3.72.34,5.91.12-2.35.19-4.78.19-7.09-.2-.33-.55-1.34-.53,1.18Z"/><path class="b" d="M394.59,160.89c.01.12.03.28.04.39.05-.24.07-.44-.04-.39Z"/><path class="b" d="M391.37,194.55c.09-.07.17-.13.26-.2-.02-.04-.04-.07-.06-.12l-.2.31Z"/><path class="b" d="M395.07,168.05c.12-1.77-.03-2.82-.23-3.83.06,1.32.1,2.72.11,4.22.09.15.15.17.12-.39Z"/><path class="b" d="M394.12,182.69c.13-.92.24-1.96.35-3.06-.2.9-.51,2.73-.35,3.06Z"/><path class="b" d="M394.46,161.88c0-.09-.02-.17-.03-.26-.14.58-.07.51.03.26Z"/><path class="b" d="M394.46,161.88c.09.91.25,1.62.38,2.34-.05-1.08-.12-2.07-.21-2.94-.04.22-.11.44-.17.6Z"/><path class="b" d="M390.62,201.86c-.09-.33.64-1.37,1.61-2.76.97-1.39,2.2-3.15,3.35-4.8.66-1.89.17-2.41-.64-2.15-.83.26-2.07,1.2-3.3,2.2.08.11.17.2.04.66-.15.46-.48,1.32-1.52,2.83.55-.37,1.94-1.88,2.87-3.11.93-1.21,1.56-2.03,1.07-.45-1.1,2.32-1.85,3.12-2.37,3.61-.55.48-.94.66-1.88,1.44.97-.52.12.87-1.03,2.28-1.12,1.42-2.59,2.77-1.8,2.89,1.25-.99,2.4-2.1,3.43-3.29.19.06-.89,1.44.18.64Z"/><path class="b" d="M394.26,188.18c.09-.48.18-.95.23-1.44-.41,1.6-.94,2.71-2.16,4.49-.69,2.25-.86,2.76-.75,3.01,1.24-2.03,2.17-4.24,2.71-6.56,0,.17-.02.34-.03.5Z"/><path class="b" d="M394.86,179.88c.32.65.54,1.99.78,2.84.11.34.22.64.35.7.13.06.29-.16.47-.68-.04-4.9-.53-3.43-.81-6.36.16,7.91-.35-2.27-.71,3.45-.11-1.56-.14-2.95-.17-4.27-.08,1.43-.17,2.8-.29,4.09.02-.07.03-.12.04-.18v-.04s0,0,0,0c.08-.34.13-.45.08-.07,0,.03.01.12.01.17.09.05.17.2.24.36-.13,2.29-.17.36-.24-.36-.03-.03-.06-.09-.09-.1,0,0,0,.02,0,.03l.16,3.82c.02,1.25-.03,2.32-.18,3.48.18-.71.31-1.52.37-2.57.02-.25.02-.57.03-.88,0-.35,0-.49,0-.92-.01-.75-.03-1.58-.04-2.51Z"/><path class="b" d="M398.04,140.09c-.06.25-.1.24-.15.25.08.51.13.71.15-.25Z"/><path class="b" d="M397.66,143.35c-.09-.58-.34-1.06-.28-2.93.19-1.63.3,0,.51-.08-.17-1.13-.46-3.95-.76-.41l.09.56c-.22,3.19-1.01,7.29-1.1,6.73.57-.93.98-1.75,1.54-3.88Z"/><path class="b" d="M396.42,161.84l.31,6.6.55-3.36-.33.17c.13-3.75-.28-2.94-.53-3.41Z"/><path class="b" d="M390.76,194.94c-.05-.33-.11-.67-.17-.99-.29,1.08-.65,2.12-1.11,3.17.47-.7.9-1.43,1.28-2.18Z"/><path class="b" d="M385.85,200.33l-.15-.62c-.42.47-.87.95-1.34,1.39.5-.23,1-.5,1.49-.77Z"/><path class="b" d="M10.76,88.49l-.17-1.94c.05.92.11,1.51.17,1.94Z"/><path class="b" d="M10.72,102.54l.29.34c-.16-.65-.28-.92-.29-.34Z"/><path class="b" d="M178.63,205.02c-2.83-.55-5.98-1.39-5.64-.73l.87.64c1.97-.11,3.49-.04,4.77.09Z"/><path class="b" d="M34.35,208.17c.25.12.51.25.77.36.72-.08,1.39-.19,1.98-.3-.82.03-1.77.02-2.76-.06Z"/><path class="b" d="M31.63,210.17c-1.27-.54-2.5-1.17-3.66-1.88.76.52,1.91,1.19,3.66,1.88Z"/><path class="b" d="M29,14.7c.72-.56,1.5-1.03,2.29-1.5-2.02.6-2.5,1-2.55,1.13-.05.15.36.16.26.37Z"/><path class="b" d="M301.46,205.19c-2.44-.25-4.38-.36-6.08-.39,2.94.37,5.31.92,6.08.39Z"/><path class="b" d="M17.55,94.02c-.12-1.19-.25-1.69-.39-1.66.11,1.22.23,1.91.39,1.66Z"/><path class="b" d="M288.34,204.8c.43.06.85.1,1.29.15,1.78-.11,3.58-.19,5.75-.15-2.17-.27-4.65-.44-7.04,0Z"/><path class="b" d="M308.48,13.04c.2.03.45.04.63.08.06-.09-.22-.09-.63-.08Z"/><path class="b" d="M386.54,24.43c-.3-.2-.68-.47-1.09-.77-.43-.29-.92-.57-1.38-.86.43.33,1.21.75,2.47,1.63Z"/><path class="b" d="M354.81,204.67c1.82-.04.29-.07,0,0h0Z"/><path class="b" d="M363.66,207.2c-.39.07-.68.16-.73.31.15-.15.4-.25.73-.31Z"/><path class="b" d="M270.21,208.79c-.05,0-.1,0-.16,0,.54.13.45.1.16,0Z"/><path class="b" d="M357.55,204.96c-.68-.08-1.47-.14-2.33-.19.38.05,1.08.11,2.33.19Z"/><path class="b" d="M357.18,204.66c.63.02,1.12.04,1.59.06.23-.11.03-.17-1.59-.06Z"/><path class="b" d="M352.28,204.71c1.04-.01,2.01.02,2.95.07-.36-.04-.51-.08-.41-.1-.53,0-1.29.02-2.53.03Z"/><path class="b" d="M159.44,14.75c.12.02.26.04.39.06,1.84-.27,1.03-.22-.39-.06Z"/><path class="b" d="M131.28,211.66c.09,0,.13-.02.21-.03-.09,0-.19-.02-.27-.02l.06.05Z"/><path class="b" d="M124.74,212.14c2.78-.8,4.37-.7,6.47-.53l-2.16-1.85-4.31,2.38Z"/><path class="b" d="M10.57,54.87l-.57,4.59c-.95-5.54-.62-9.55-1.43-5.24,2,.65.21,17.84,2.21,18.48l-.42,3.03c.02-.87-.1-1.01-.08-1.86-.96,5.88,1.45,4.37,1.16,11.95-.15,2.64-.44,4.49-.68,2.68l.5,5.89c-.04,1.71-.39,1.29-.35-.41l.16,8.98-.06-.07c.31,1.28.8,4.18,1.01,5.6-.29,2.28-.21-1.14-.46-.56l.49,4.97c-.52,2.03-1.02-2.1-.95-5.53-2,4.64.5,4.12-.66,14.15l-.25-4.69c-1.14,3.03-.72,6.69-1.43,12,.37-1.26,1.79-10.63,2.28-5.23-.15,1.52-.22,3.52.18,6.44-.71.03-.54,2.87-.5,6.43l-.94-.24c.27,3.85.75,3.54,1.18,5.8-.09,4.29-.82,5.17-1.44,6.18-.15,6.86,1.17-4.74,1.35,3.38-.36,5.71.02,9.72.59,16.54-.32,3.99-.58-.7-.85.73l.75,3.54c-.02.87-.25.59-.37.44.29,2.98.94.25,1.2,4.94.26.32.29,1.08.22,2.13-.04.53-.1,1.13-.18,1.78-.04.33-.08.67-.13,1.02-.03.39-.07.79-.1,1.2-.12,1.59-.07,3.43.27,5.18.34,1.76.98,3.46,1.87,4.8.39,1.55-.84-.47-.98.11,1.05,2,1.99,3.31,2.73,4.29.75.98,1.36,1.67,1.95,2.27.6.6,1.18,1.14,1.99,1.78.81.64,1.84,1.39,3.37,2.26,1.43,1.38,3.04,2.62,4.78,3.69-.93-.65-1.24-1.05-1.17-1.23.08-.17.55-.12,1.28.03,1.45.32,3.94.93,6.27,1.08-1.35-.66-2.41-1.34-3.11-1.76,2.28.69,4.64,1.03,6.97,1.06.83.2.12.51-1.11.77.5-.03.97-.05,1.34-.1,1.27.26,1.59.45,1.34.7-.25.25-1.08.49-2.07.67-.9-.27-1.77-.6-2.59-.96-1.9.23-3.81.22-3.6.88.52.06,1.49.26,2.55.44-.53.04-.88.1-.67.24.24.16,1.1.16,2.4.13.53.44,1.09.87,1.67,1.27l.48-.38c.85.12,1.77.2,2.59.26l2.39.16,4.78.33c6.84-1.06,12.8-2.62,23.66-3.05-2.7.77-.58,1.26-.73,2.17-2.96-.97-8.41.41-14.04.21,2.94.1,2.29.54,1.54.69l10.04-.88c-.23.75,2.13.56,4.76.87-1.98-1.48,7.48-.98,11.57-1.44.25.5-.73,1-5.71.88,5.5,1.11,7.11-1.74,12.5-.79-1.22.01-1.87-.06-2.35.19,2.84-.44,9.79-.09,8.16.34h-1.21c8.08.19,24.6.02,25.8-1.23.08.16-1.06,1.51-1.55,1.77l14.42-4.22c-1.27,1.08,3.61,3.64-3.1,4.25,1.92.15,4.3.33,8.36-.05-1.31-.15-3.27-1.56-1.48-1.66,4.92,1.2,3.42.64,9.49,1.66-1.97-.23.22-1.92,3.33-1.87-.49.25.26,1.67-.88,1.84l7.74-1.66c-1.93.3-.34,1.41,1.39,1.87-.8-.32,6.69.03,8.75-.13l-3.28-.38c8.74.25,8.63-2.33,17.3-2.25-1.05.34-2.59,2.11,1.82,2.32,2.02-.85,8.94-4.09,16.61-4.74l1.47.49,5.88-.55c-3.66,1.28-13.95,3.97-19.56,5.01,3.27.38.91.57,5.81.53,1.73.46-2.67.69-4.11.72l11.4.29c-.51-.99,8.72-.99,8.28-1.82l-12.38,1.03c-.5-.99,7.16-2.81,15.24-2.64,2.05.39-1.54,1.77-1.37,2.1,1.05-.34,7.67-.65,8.41-.41l-3.43.53c4.5.37,7.34-1.31,12.74-.37,1.86.06,5.57,1.28,5.89.69-3.04-1.13-3.64-4.63-1.61-5.48.65.08,9.79,1.08,11.92,1.64,3.07.89-4.61,2.11-2,2.88.11-.27,1.81-.61,2.52-.71,1.96.23-.81.84,3.45.72.71-1.01,8.66.08,2.01-.85,4.16-.29,4.42.21,9.31.16-1.56-.65,4.39-2.21,8.56-2.5-.25.26.69.59,1.14.74,8.53.09,13.11.55,21.07.56.73.24,4.57.54,2.94.97,1.14-.18,2.2-.52,4.65-.54,4.75.87-5.47.14-1.85,1.18.31-.58,6.35-.81,9.84-1.17-1.08-.9-8.08-.17-11.58.19-.02-1.24,6.08-2.55,14.4-3.12,6.61-.31,2.87.8,4.01.63,12.42.22,10.58-2.17,20.89-1.28,4.09.79.18,1.58,1.09,2.15-5.39.3-8.27-.5-11.92-.47l4.49.38c-1.71.26-5.31.46-7.27.23,3.43.71,20.98.14,30.56.79,1.7-.27,4.64-.54,3.25-.86l-3.03.11c-2.79-.64,5.7-.88,1.87-1.18,4.07-.45,8.62-1.16,14.35-.79l1.08.9c-.12-.26-3.74-.54-5.35-.26,1.19-.2,3.39.11,5.61.31,1.11.1,2.24.19,3.22.16.97-.03,1.82-.22,2.4-.58-1.3-.07-2.47-.26-3.85-.48,4.04-.32,8.11-2.02,12.12-3.92-1.1.08-1.3.2-1.66.37-.35.16-.86.4-2.46.4,1.47.17-1.15,1.19-3.74,1.51-1.3.18-2.52.2-3.22.29-.77.08-.79.26.4.59-3.64-1.2-6.38-.51-11.21-1.54.15.3,1.71.57-2.55.42-.19.09-.65.2-.93.26-.13-.01-.18-.01-.29-.02.09.01.15.02.23.04-.18.04-.2.05.09.01,1.01.13,1.84.29,2.17.45-2.11.68-8.89.66-11.18,1.02-2.53-.14,1.06-.34-.32-.66l-3.42.53c-.34-.66-6.71-1.1-.76-1.49l-5.36-.03c-3.15-.37-7.49-.52-10.17-.24-2.53-.14-6.38.73-4.18.21l-8.4.41-.08-.17c-8.29-.08-17.07,1.1-26.54-.1-2.79.17-5.68.37-10.34.18l-.91-.57c-3.58.2-10.76-.57-12.3.02-3.87-1.54-17.39-.34-23.69-.61l-.24.75c-4.34-.04-8.5.17-13.88.47l.33.66c-4.64.54-11.94-.47-19.28-.4.5-.25,2.36-.19,3.68-.03-8.77-1.49-18.51,1.09-26.47,0-1.98.24-3.42.16-4.81,0,.18,0,.35-.01.49-.03-.2,0-.5,0-.81,0-.88-.11-1.78-.25-2.75-.35.83.16,1.63.29,2.32.35-1.53.01-3.85.1-6.12.26l-.97-.71c-.18,0-.33.01-.53.02-2.23-.26-1.79.34-.6.87-1.14.12-2.19.26-3.01.43-1.81-1.15-5.96.39-8.44-.84-1.53.6-11.43.45-12.64,1.7-.08-.16-.75-.24.48-.25-2.53-.14-5.07-.29-7.34.07l-1.08-.9-5.53,1.21c-3.36-.55-4.76-.87-1.42-1.57-8.06,1.07-6.54.4-13.4,1.46l.33-.58c-2.45.02-6.37.8-7.85.32-5.48-1.11-27.12-.15-41.19-1.18,2.73,1.72-6.54-.77-7.1.56-.82-.41-2.78-.64-.5-.99-7.18.4-10.79-.64-15.75.48-.82-.41,1.54-.6.81-.84-.58.09-2.28.35-3.03.11-.73-.24,1.05-.34,2.19-.52-7.32.06-8.11,1.33-8.57,2.49-1.73-.32-2.97-.62-4.12-.8-1.15-.18-2.21-.25-3.53-.3-.52-.38-1.18-.87-1.23-1.07-.04-.22.5-.05,2.49.52-1.11-.34-4.43-1.72-7.02-3.75-2.66-1.93-4.57-4.31-5.02-4.12-.14-.37-.61-1.03-1.07-1.7-.47-.68-.92-1.33-1.12-1.58-1.22-2.37-1.6-3.78-1.99-5.16-.33-1.4-.68-2.76-.85-5.4-.04.51-.05.99-.06,1.48-.33-.49-.53-1.02-.62-1.62-.05-.31-.08-.57-.08-.9,0-.33,0-.68.02-1.05.06-1.46.25-3.22.18-5.5l.12.13c.82-10.44-.39-4.51.54-14.81l-.71.56c-1.52-.96.9-9.13.32-15.11l-.4,2.16c-.52-3.27,2.07-9.13,2.26-12.41.13-.71.21,1.13.31,2.13.9-8.59-.93-1.11-1.14-7.51.5-1.18,1.27,1.52,1.36-2.79.4-2.15-1.62-12.49-.66-18.37-.39,1.3-.77,2.58-1.06-.39-.14-4.56,1.46-12.32.24-16.43.11-.58.21-.8.3-.82-.31-3.48-.52-11.32-1.18-13.41,2.44-3.22-1.19-21.65,1.07-21.57l-.12-10.71.23.28c.04-1.71.03-3.16,0-4.36-.03-1.09-.03-2-.02-2.8,0-1.59.05-2.71.08-3.86.58-1.35.45-.27.53-.13.43-1.05.77-1.99,1.22-2.78.38-.82.81-1.5,1.19-2.12.77-1.24,1.47-2.2,2.16-3.11.32-.48.69-.9,1.06-1.36.18-.23.36-.47.55-.71.2-.23.41-.46.63-.7.22-.25.44-.51.68-.78.25-.25.52-.51.8-.79.54-.58,1.22-1.12,1.98-1.77.35.06.71.16,1.06.25.2-.16.55-.37,1.01-.6.46-.25,1.07-.43,1.76-.69.69-.25,1.51-.4,2.38-.63.9-.12,1.84-.34,2.87-.37,1.02-.12,2.09-.07,3.19-.08,1.23.04,2.5.07,3.78.08,2.56.02,5.16-.04,7.61-.25-.1.08-.3.22-1.08.33,11.04-.86,26.43,2.03,30.47-.63l7.28-.66c-9.42-.21,1.4-1.16-2.47-1.6,3.71-.16,9.58.8,5.03.94l-.71-.13c-1.67,1.39,11.71.49,11.46,1.44,18.55-.07,36.62.7,53.99.76l-2-1.08,6.06.06c1.59.25,2.13.84-2.19.8,2.27.61,7.25-.51,7.37-.75,8.46.44-3.31,1.26-.71,1.28l3.52-.08-.79-.13c2.86-.44,3.11-.91,8.31-.85,3.29.22,1.69.67,2.98.71,0,.08.43.11,1.98.03l7.63.09-3.05-.85c3.38-.42,7.18.04,3.66-.92,5.17,1.49,28.48.53,31.65,1,4.74-.62,9.42-.61,15.21-.54-1.44-.18-2.3-1.14,2.7-1.02-1.83,1.98,9.15.86,13.19,2.28-3.61-.94,14.21-.23,8.54-1.57,4.17.16.25.74,3.42,1.2,9.93-.77,21.88.5,34.15.24.19-.26-1.86-.66.77-1.04l6.48,1.3c2.42-.13,2.23-1.5,6.66-.6-.63-.22-1.56-.55.07-.63,12.02.63,24.3.37,36.62.25,6.16-.06,12.34-.09,18.5.05l4.62.14,1.15.05c.37.02.7.06,1.05.09l1.03.1c.34.04.68.13,1.02.19,2.7.51,5.26,1.56,7.47,3.05-2.38-1.71-.61-.99,1.37.1-1.2-.85.35-.55.28-.99,2.56,1.88,4.7,4.23,6.3,6.83.47.16,1,.8,1.65,1.6.28.43.57.91.87,1.41.31.5.52,1.07.79,1.61.97,2.2,1.48,4.46,2.02,4.87-.11-.49-.28-.97-.43-1.44-.17-.47-.28-.96-.49-1.42.56.86.85.96,1.07.54.23-.42.24-1.3.22-2.33-.02-1.04-.22-2.17-.27-3.08-.11-.89-.08-1.55.31-1.58-1.81-1.9-3.4-4.84-6.11-7.65-2.63-2.78-6.58-5.25-10.96-5.47-.88-.34-.47-.37.07-.37.53,0,1.16.1.72-.22-.56-.04-1.17,0-1.8-.06-.63-.06-1.31-.13-2.08-.18-.76-.07-1.6-.18-2.57-.21-.48-.03-.98-.07-1.52-.1-.5-.03-1.03-.05-1.59-.08l.51-.15c-12.6.15-18-.45-32.16-.85l1.05.7c-3.04-.09-3.68-.31-5.11-.49-3.49,1.06,8.54.06,5.36,1.23-4.04-1.42-21.45-.02-24.18-1.64-4.68,0,1.37.81-3.31.8l-1.24-.44-1.18.56c-3.07-.09-4.62-.64-4.73-1.01.74.04,2.12-.1,2.91-.14-3.98-.51-11.22.18-12.58,0l4.5.27c-12.77.41-28.36-.16-40.7.72l.94.33c-9.42.61-7.55-.36-17.89-.08l.38-.08c-2.07.33-4.84.49-7.67.46,2.61-.39-4.92-.75-1.49-1.18-10.22.65-5.05.51-11.8,1.74l-1.56-.55c-2.3.49-2.49.76-7.66.9,4.24-.47-3.3-.83,1.45-1.45-10.84-1.2-16.1,1.21-21.07-.54-4.98,1.51,9.38.84,6.59,1.16,2.33.49-4.11,1.13-7.51.98-3.46-.03-5.89-1.94-14.6-1.91.87,0,.93-.11,1.79-.1-3.26-.39-6.39.52-10.39-.1-2.24.92-5.19-.05-5.84,1.11l7.99-.27c-4.53.31-8.78,1.67-16.24,1.01.58-.24,2.8-.55,4.33-.72-2.18-.34-4.2.23-6.46-.13.64-1.17,9.71-.25,14.57-1.15-2.34-.49-9.18.85-6.74-.42-3.51,1.61-8.58-.2-14.48,1.03l.39-.7c-.93.11-2.87.44-4.59.42l3.11-.91c-4.78.77-9.21-.68-13.79-.26,9.59-.02,2.15.84,6.21,1.35-11.83.94-6.8-1.83-20.05-1.5,1.79-.1,6.73.42,3.93.74-2.52-.14-5.85-.41-7.4-.78-8.78.15,1.35.72-2.39,1.15-2.99-.85-4.31.35-8.16.62l-.03-.71c-10-.46-2.65,1.48-11.66.93l3.81-.99-4.69.26.97-.81c-5.11.6-6.7.45-11.7.22,1.16.5-.65,1.29-5.08,1.31-3.02-.42,1.69-.68-4.59-.57,1.42-.45,2.97-1,5.7-.35.28-.23,1.4-.45,1.69-.68-3.25-.49-8.18-.11-10.45-.1.88.03,1.92.06,2.46.17l-9.1.99c-1.43-.27-.3-.48.83-.69-1.84.08-3.12.4-5.83.47.7-.58.53-1.18,4.37-1.45l-8.67.64c-.58-.25-4.45-.69-3.32-.9-1.2-.08-2.54-.06-3.97.02-.72.05-1.45.1-2.21.16-.38.03-.76.06-1.15.1-.38.03-.76.06-1.25.12-3.67.32-7.4,1.35-10.88,2.55-.31.26-.99.61-2.32,1.41-3.06,1.53-5.8,3.36-8.23,5.8-2.4,2.43-4.5,5.52-5.66,9.46l-1.27,2.02c-.38.7-.74,1.42-1.11,2.15-.32,1.6-.23,2.06-.08,1.95.16-.1.44-.73.72-1.2.27-.46.56-.79.61-.36.07.42-.12,1.61-.25,4.2-.03.92-.03,1.65-.04,2.23,0,.54-.02.91-.06,1.2-.07.57-.2.75-.35.79-.3.08-.67-.37-.82.78.52,3.26,1.59,8.93.74,14.95-.2-1.99-.04-3.56-.12-5.42ZM11.03,123.45c-.15-1.33-.61-3.98-.19-4.95.82,1.51.42,2.68.19,4.95ZM44.43,210.2c-.99.23-2.51.12-4.24-.15,1.26-.06,2.67-.03,4.24.15ZM334.87,205.25c-.06.01-.1.02-.14.03-2.96-.28-1.91-.17.14-.03ZM341.02,205.56c.62-.1.58-.2.31-.3-.43.18-1.81.19-3.39.14.44.19,1.23.31,3.07.16ZM178.87,19.54l-1.2-.19c2.71-.21,1.95-.02,1.2.19Z"/><path class="b" d="M32,209.96c-.36-.24-.42-.4-.47-.56-.57-.06-.64.07.47.56Z"/><path class="b" d="M28.59,14.99l.23-.08c.11-.09.16-.16.18-.21l-.4.3Z"/><path class="b" d="M245.67,211.59c-1.27-.1-1.97-.23-2.44-.37-.07.17.51.32,2.44.37Z"/><path class="b" d="M373.42,204.32c-1,.11-2.42.15-3.72.22,1.9-.04,2.64.13,3.41.22-.08-.17-.72-.38.31-.43Z"/><path class="b" d="M397.8,187.91c.03-.58.21-1.21.2-1.78l-.35.11c-.15,1.2-.31,2.22-.33,2.64-.03.42.16.26.48-.97Z"/><path class="b" d="M376.88,206.27c.39.54,2.68-.1,5-1.25-.14.06-.28.12-.42.17.36-1.07-1.96.31-4.58,1.07Z"/><path class="b" d="M382.42,204.76c.71-.35,1.42-.75,2.11-1.11.09-.45-.85.44-2.11,1.11Z"/><path class="b" d="M348.83,205.16c1.31.15.82-.77,1.56-.52,1.46-.76-8.73.92-1.56.52Z"/><path class="b" d="M379.44,207.68c-.39-.15-.76-.29-1.13-.46-.44.31-.89.62-1.36.9.84-.1,1.67-.25,2.5-.44Z"/><path class="b" d="M357.72,208.14l4.41.2c-.07-.12.49-.2,1.18-.25-2.72-.02-5.7-.17-5.6.05Z"/><path class="b" d="M363.32,208.1c1.42.01,2.76,0,3.55-.12-.77,0-2.42.03-3.55.12Z"/><path class="b" d="M373.51,208.88l-1.31-.12-3.12-.05c1.48.06,2.94.16,4.43.18Z"/><path class="b" d="M310.28,208l-4.82.21c-.49.25.82.41,2.62.31,1.15-.18,2.94-.27,2.2-.52Z"/><path class="b" d="M324.84,210.03c-1.3-.15-1.39-.32-2.12-.56l-.15.92,2.27-.35Z"/><path class="b" d="M310.8,210.24c-.48.25-6.99.73-.89.67.49-.25,5.31-.46.89-.67Z"/><polygon class="b" points="238.22 209.08 239.45 209.07 239.27 207.57 238.22 209.08"/><path class="b" d="M174.25,212.67c5.71.36,1.36-.93,6.51-.48,1.34-.36-4.22-.37-2.84-.67-3.45.37-5.25.16-3.67,1.15Z"/><path class="b" d="M177.92,211.52c.55-.06,1.14-.13,1.76-.23-1,.09-1.47.17-1.76.23Z"/><path class="b" d="M392.97,34.18c.26,1.03.54,2.04.66,3.08,0-.69,0-1.4-.11-2.09l-.56-.99Z"/><path class="b" d="M395.6,39.9c-.29.3-.58.58-.87.86.34.61.66,1.25.95,1.91-.03-.75-.21-2.18-.07-2.77Z"/><path class="b" d="M9.1,133.65l.23.28c.25-.57.27-1.43.31-3.15l-.54,2.87Z"/><polygon class="b" points="9.82 83.87 9.8 84.73 10.67 83.13 9.82 83.87"/><path class="b" d="M8.72,41.97c-.01.25-.01.54-.01.78,0,.22,0,.45.01.67.02.45.03.92.05,1.38.04.93.08,1.86.06,2.71-.08-1.86.16-3.33.29-4.28.03-.24.05-.43.07-.62.01-.2,0-.36-.01-.48-.04-.24-.18-.3-.45-.17Z"/><path class="c" d="M295.62,55.94c-3.17-11.91-10.01-21.35-20.31-28.06-1.5-.97-3.15-1.83-4.89-2.55-9.6-3.93-41.82-13.37-64.16,24.23-22.35-37.6-54.57-28.15-64.16-24.23-1.75.72-3.4,1.57-4.9,2.55-10.3,6.71-17.14,16.16-20.31,28.06-1.15,4.32-1.72,8.76-1.72,13.19,0,11.71,3.94,23.38,11.37,32.89l79.72,102.02,79.71-102.02c7.43-9.51,11.37-21.18,11.37-32.88h0c0-4.45-.57-8.87-1.72-13.2ZM281.97,98.9l-22.6,28.92-24.04,30.79-29.07,37.2-29.07-37.2-24.05-30.78-22.61-28.93c-9.27-11.87-12.54-27.44-8.74-41.65,2.84-10.66,8.96-19.11,18.17-25.12,1.24-.8,2.6-1.51,4.06-2.11,3.4-1.39,9.98-3.55,17.95-3.55,12.84,0,29.26,5.61,41.83,29.05.08.13.15.26.22.4l2.24,4.23,2.24-4.23c.07-.14.14-.27.22-.4,20.37-38.01,50.88-29.14,59.78-25.5,1.45.6,2.81,1.31,4.05,2.11,9.21,6.01,15.33,14.46,18.18,25.11,3.79,14.22.52,29.79-8.76,41.66Z"/><path class="c" d="M208.72,55.52c-.81-.04-1.63-.06-2.46-.06s-1.65.02-2.46.06c-29.57,1.28-53.22,25.73-53.22,55.62,0,5.81.89,11.42,2.56,16.69,4.06,12.92,12.72,23.82,24.05,30.78,8.47,5.2,18.42,8.2,29.07,8.2s20.6-3,29.07-8.2c11.33-6.97,19.98-17.87,24.04-30.79,1.67-5.27,2.56-10.87,2.56-16.68,0-29.88-23.65-54.33-53.21-55.62ZM206.26,161.75c-27.91,0-50.61-22.71-50.61-50.61s22.7-50.61,50.61-50.61,50.61,22.7,50.61,50.61-22.71,50.61-50.61,50.61Z"/><path class="c" d="M113.45,55.94c-3.18-11.91-10.01-21.35-20.31-28.06-1.5-.97-3.15-1.83-4.9-2.55-9.59-3.93-41.81-13.37-64.15,24.23-2.93-4.92-6.02-9.04-9.22-12.47-.4,1.8-.61,3.67-.61,5.58v1.53c2.56,3.21,5.03,6.95,7.37,11.32.08.13.15.26.22.4l2.24,4.23,2.24-4.23c.07-.14.14-.27.22-.4,20.37-38.01,50.88-29.14,59.78-25.5,1.45.6,2.81,1.31,4.05,2.11,9.21,6.01,15.33,14.46,18.17,25.11,3.8,14.22.53,29.79-8.75,41.66l-22.6,28.92-24.04,30.79-29.07,37.2-9.82-12.56c.1,4.96,1.59,9.57,4.1,13.47l2.99,3.83,2.73,3.49.48-.61,79.23-101.41c7.43-9.51,11.37-21.19,11.37-32.89,0-4.43-.57-8.87-1.72-13.19Z"/><path class="c" d="M26.55,55.52c-.81-.04-1.63-.06-2.46-.06s-1.65.02-2.46.06c-2.51.1-4.97.38-7.37.81v5.16c3.18-.63,6.47-.96,9.83-.96,27.9,0,50.6,22.7,50.6,50.61s-22.7,50.61-50.6,50.61c-3.36,0-6.65-.33-9.83-.96v5.15c3.19.57,6.48.87,9.83.87,10.65,0,20.6-3,29.07-8.2,11.33-6.97,19.98-17.87,24.04-30.79,1.67-5.27,2.56-10.87,2.56-16.68,0-29.88-23.65-54.33-53.21-55.62Z"/><path class="c" d="M322.14,32.13c1.23-.8,2.59-1.51,4.05-2.11,3.4-1.39,9.98-3.55,17.95-3.55,12.84,0,29.26,5.61,41.83,29.05.08.13.15.26.22.4l2.24,4.23,2.24-4.23c.07-.14.14-.27.22-.4,2.33-4.37,4.81-8.11,7.37-11.32v-1.53c0-1.91-.21-3.78-.61-5.58-3.2,3.43-6.29,7.54-9.22,12.47-22.35-37.6-54.57-28.15-64.16-24.23-1.75.72-3.4,1.57-4.9,2.55-10.3,6.71-17.14,16.16-20.31,28.06-1.15,4.32-1.72,8.76-1.72,13.19h0c0,11.72,3.94,23.38,11.37,32.89l79.24,101.41.48.61,2.73-3.49,3-3.84c2.5-3.9,3.99-8.51,4.09-13.47l-9.82,12.57-29.08-37.21-24.04-30.77-22.61-28.93c-9.26-11.87-12.54-27.44-8.74-41.65,2.84-10.66,8.96-19.11,18.18-25.12Z"/><path class="c" d="M388.43,60.53c3.36,0,6.65.33,9.83.96v-5.16c-2.4-.43-4.86-.71-7.37-.81-.81-.04-1.63-.06-2.46-.06s-1.65.02-2.46.06c-29.56,1.29-53.22,25.74-53.22,55.62,0,5.81.9,11.42,2.56,16.69,4.06,12.91,12.72,23.81,24.04,30.77,8.47,5.21,18.43,8.21,29.08,8.21,3.35,0,6.64-.3,9.83-.87v-5.15c-3.18.63-6.47.96-9.83.96-27.91,0-50.61-22.71-50.61-50.61s22.7-50.61,50.61-50.61Z"/></svg>