<?xml version="1.0" encoding="UTF-8"?><svg id="a" xmlns="http://www.w3.org/2000/svg" width="400" height="400" viewBox="0 0 400 400"><defs><style>.b,.c{stroke-width:0px;}.b,.d{fill:#fcfcfc;}.e{opacity:.5;}.c{fill:#a57425;}.d{stroke:#fcfcfc;stroke-miterlimit:10;}</style></defs><g class="e"><path class="c" d="M257.83,56.33v-15.28h5.73c1.18,0,2.16.22,2.96.66.8.44,1.4,1.04,1.81,1.8s.62,1.63.62,2.6-.21,1.85-.62,2.61c-.41.76-1.02,1.36-1.83,1.79s-1.8.65-2.97.65h-3.79v-2.28h3.42c.69,0,1.26-.12,1.7-.35.44-.24.76-.56.97-.98.21-.42.31-.9.31-1.44s-.1-1.03-.31-1.44c-.21-.41-.53-.73-.97-.96-.44-.23-1.01-.34-1.71-.34h-2.53v12.96h-2.77Z"/><path class="c" d="M270.83,56.33h-2.96l5.39-15.28h3.4l5.38,15.28h-2.95l-4.08-12.14h-.12l-4.06,12.14ZM270.93,50.35h8.05v2.21h-8.05v-2.21Z"/><path class="c" d="M283.27,56.33v-15.28h5.73c1.18,0,2.16.21,2.96.62.8.41,1.4.98,1.81,1.72s.62,1.59.62,2.56-.21,1.83-.62,2.54c-.41.72-1.02,1.27-1.83,1.66s-1.8.58-2.97.58h-4.07v-2.29h3.69c.69,0,1.26-.1,1.7-.29.44-.19.77-.47.97-.85.21-.37.31-.83.31-1.37s-.11-1-.32-1.39-.54-.68-.97-.88-1-.3-1.7-.3h-2.53v12.96h-2.77ZM291.85,56.33l-3.7-6.93h3.01l3.78,6.93h-3.1Z"/><path class="c" d="M302.76,56.54c-1.34,0-2.54-.31-3.59-.93-1.06-.62-1.89-1.52-2.49-2.69-.61-1.17-.91-2.57-.91-4.21s.31-3.06.92-4.23c.61-1.17,1.45-2.07,2.5-2.69,1.06-.62,2.25-.93,3.57-.93.84,0,1.63.12,2.36.36.73.24,1.39.59,1.96,1.05.57.46,1.04,1.03,1.41,1.69.37.67.61,1.42.72,2.27h-2.79c-.08-.46-.22-.88-.44-1.23-.21-.36-.48-.66-.8-.91-.32-.25-.68-.44-1.08-.56-.4-.13-.84-.19-1.3-.19-.83,0-1.57.21-2.21.62-.64.41-1.14,1.02-1.51,1.83-.36.8-.54,1.78-.54,2.93s.18,2.14.55,2.94c.37.8.87,1.4,1.51,1.8.64.41,1.37.61,2.2.61.46,0,.88-.06,1.28-.18.4-.12.76-.3,1.08-.54.32-.24.59-.54.81-.88.22-.35.37-.74.46-1.19h2.79c-.1.73-.33,1.42-.67,2.06-.35.64-.8,1.2-1.35,1.68-.56.48-1.21.86-1.95,1.13s-1.57.41-2.48.41Z"/><path class="c" d="M317.63,56.54c-1.33,0-2.53-.31-3.59-.93-1.06-.62-1.9-1.52-2.51-2.69-.61-1.17-.92-2.57-.92-4.21s.31-3.06.92-4.23c.61-1.17,1.45-2.07,2.51-2.69,1.06-.62,2.26-.93,3.59-.93s2.54.31,3.59.93,1.89,1.52,2.5,2.69.92,2.58.92,4.23-.31,3.05-.92,4.21-1.45,2.06-2.5,2.69-2.25.93-3.59.93ZM317.63,54.06c.83,0,1.56-.21,2.19-.62.64-.41,1.13-1.01,1.5-1.81.36-.8.54-1.77.54-2.93s-.18-2.14-.54-2.94c-.36-.8-.86-1.4-1.5-1.81-.63-.41-1.37-.62-2.19-.62s-1.56.21-2.2.62c-.64.41-1.14,1.02-1.5,1.81s-.54,1.78-.54,2.94.18,2.13.54,2.93.86,1.4,1.5,1.81c.64.41,1.37.62,2.2.62Z"/><path class="c" d="M336.11,41.06h2.76v9.98c0,1.09-.26,2.06-.77,2.89-.51.83-1.23,1.48-2.16,1.95-.93.47-2.02.7-3.26.7s-2.33-.23-3.26-.7c-.93-.47-1.65-1.12-2.17-1.95-.52-.83-.77-1.79-.77-2.89v-9.98h2.77v9.75c0,.64.14,1.21.42,1.7.28.49.68.88,1.19,1.16.52.28,1.12.43,1.82.43s1.3-.14,1.82-.43c.51-.28.91-.67,1.19-1.16.28-.49.43-1.06.43-1.7v-9.75Z"/><path class="c" d="M341.08,56.33v-15.28h5.73c1.17,0,2.16.21,2.96.62.8.41,1.4.98,1.81,1.72s.62,1.59.62,2.56-.21,1.83-.62,2.54c-.41.72-1.02,1.27-1.83,1.66-.81.39-1.8.58-2.97.58h-4.07v-2.29h3.69c.69,0,1.26-.1,1.7-.29.44-.19.77-.47.97-.85.21-.37.31-.83.31-1.37s-.11-1-.32-1.39-.54-.68-.97-.88c-.44-.2-1.01-.3-1.7-.3h-2.53v12.96h-2.77ZM349.66,56.33l-3.7-6.93h3.01l3.78,6.93h-3.1Z"/><path class="c" d="M359.35,56.57c-1.19,0-2.22-.18-3.1-.55s-1.56-.91-2.05-1.61c-.49-.71-.76-1.57-.8-2.58h2.73c.04.53.21.98.49,1.33s.67.62,1.13.79c.47.18.99.27,1.56.27s1.13-.09,1.59-.28.82-.44,1.08-.77c.26-.33.39-.71.39-1.15,0-.4-.12-.72-.35-.98-.23-.26-.55-.47-.96-.65s-.89-.33-1.45-.47l-1.73-.45c-1.26-.32-2.25-.81-2.97-1.47-.72-.66-1.09-1.54-1.09-2.64,0-.9.24-1.69.73-2.36.49-.67,1.15-1.2,1.99-1.57.84-.38,1.8-.56,2.87-.56s2.04.19,2.86.56,1.46.9,1.93,1.56c.46.66.71,1.43.73,2.29h-2.68c-.07-.66-.36-1.16-.87-1.52-.51-.36-1.18-.54-2-.54-.57,0-1.07.09-1.48.26-.41.17-.73.41-.95.71s-.33.64-.33,1.03c0,.42.13.77.38,1.04.26.27.58.49.98.65.4.16.81.3,1.22.41l1.43.36c.57.14,1.13.32,1.66.55.53.23,1.01.52,1.44.86.43.35.77.76,1.02,1.26.25.49.37,1.07.37,1.73,0,.89-.23,1.67-.69,2.35-.46.68-1.12,1.21-1.98,1.59s-1.9.57-3.12.57Z"/></g><rect class="b" x="135.23" y="119.04" width="145.17" height="28.1" rx="5.56" ry="5.56" transform="translate(-33.96 182.51) rotate(-44.19)"/><path class="b" d="M277.64,59.76l-68.81,17.4c-3.37.85-4.55,5.03-2.13,7.52l49.47,50.89c2.42,2.49,6.63,1.43,7.58-1.92l19.34-68.29c.95-3.34-2.08-6.46-5.45-5.6Z"/><rect class="b" x="300.44" y="13.68" width="4" height="11.03" transform="translate(0 38.46) rotate(-7.28)"/><rect class="b" x="271.56" y="13.68" width="4" height="11.03" transform="translate(31.26 147.63) rotate(-31.94)"/><rect class="b" x="335.16" y="17.19" width="11.03" height="4" transform="translate(196.37 328.39) rotate(-68.21)"/><rect class="b" x="372.42" y="22.79" width="11.03" height="4" transform="translate(127.61 309.01) rotate(-52.38)"/><rect class="b" x="241.95" y="21.59" width="4" height="11.03" transform="translate(54.22 182.82) rotate(-45.72)"/><rect class="b" x="235.86" y="38.03" width="4" height="11.03" transform="translate(141.56 265.36) rotate(-76.91)"/><rect class="b" x="233.3" y="59.63" width="11.03" height="4" transform="translate(-6.78 38.93) rotate(-9.19)"/><rect class="b" x="382.18" y="42.81" width="11.03" height="4" transform="translate(-.07 88.99) rotate(-13.09)"/><rect class="b" x="384.75" y="57.38" width="4" height="11.03" transform="translate(262.91 434.64) rotate(-80.81)"/><rect class="b" x="287.69" y="75.3" width="11.03" height="4" transform="translate(179.38 358.36) rotate(-82.72)"/><rect class="b" x="329.44" y="71.79" width="4" height="11.03" transform="translate(-5 128.62) rotate(-21.8)"/><rect class="b" x="367.85" y="70.69" width="4" height="11.03" transform="translate(30.36 241.56) rotate(-37.61)"/><path class="b" d="M153.39,205.01v15.28h-2.77v-15.28h2.77Z"/><path class="b" d="M162.22,220.49c-1.34,0-2.54-.31-3.59-.93-1.06-.62-1.89-1.52-2.49-2.69-.61-1.17-.91-2.57-.91-4.21s.31-3.06.92-4.23c.61-1.17,1.45-2.07,2.5-2.69,1.06-.62,2.25-.93,3.57-.93.84,0,1.63.12,2.36.36.73.24,1.39.59,1.96,1.05.57.46,1.04,1.03,1.41,1.69.37.67.61,1.42.72,2.27h-2.79c-.08-.46-.22-.88-.44-1.23-.21-.36-.48-.66-.8-.91-.32-.25-.68-.44-1.08-.56-.4-.13-.84-.19-1.3-.19-.83,0-1.57.21-2.21.62-.64.41-1.15,1.02-1.51,1.83-.36.8-.54,1.78-.54,2.93s.18,2.14.55,2.94c.37.8.87,1.4,1.51,1.8.64.41,1.37.61,2.2.61.46,0,.89-.06,1.28-.18.4-.12.76-.3,1.08-.54.32-.24.59-.54.81-.88.22-.34.37-.74.46-1.19h2.79c-.1.73-.33,1.42-.67,2.06-.35.64-.8,1.2-1.35,1.68-.56.48-1.21.86-1.95,1.13s-1.57.41-2.48.41Z"/><path class="b" d="M173.21,205.01v15.28h-2.77v-15.28h2.77Z"/><path class="b" d="M181.81,220.46c-.49,0-.89-.15-1.2-.46-.32-.3-.48-.69-.48-1.16s.16-.87.48-1.17c.32-.3.72-.46,1.2-.46s.9.15,1.21.46c.31.3.47.7.47,1.17s-.16.86-.47,1.16c-.31.3-.72.46-1.21.46ZM180.54,215.43l-.19-10.42h2.93l-.19,10.42h-2.54Z"/><line class="d" x1="7.59" y1="388.22" x2="386.75" y2="388.22"/><path class="c" d="M31.64,56.86h-3.25l5.91-16.73h3.73l5.9,16.73h-3.23l-4.47-13.3h-.13l-4.45,13.3ZM31.76,50.3h8.82v2.43h-8.82v-2.43Z"/><path class="c" d="M50.12,56.86v-16.73h6.28c1.29,0,2.37.24,3.24.72.87.48,1.53,1.14,1.98,1.98s.67,1.79.67,2.85-.23,2.02-.68,2.86c-.45.83-1.12,1.49-2,1.96-.88.48-1.97.71-3.26.71h-4.16v-2.49h3.74c.76,0,1.38-.13,1.86-.39.48-.26.84-.62,1.07-1.08.23-.46.34-.99.34-1.58s-.11-1.12-.34-1.58c-.23-.45-.58-.8-1.07-1.06-.48-.25-1.11-.38-1.87-.38h-2.77v14.2h-3.03Z"/><path class="c" d="M64.06,56.86v-16.73h6.28c1.29,0,2.37.22,3.24.67.87.45,1.53,1.08,1.98,1.88.45.81.67,1.74.67,2.8s-.23,2-.68,2.79c-.45.79-1.12,1.39-2,1.82s-1.97.64-3.26.64h-4.46v-2.5h4.04c.76,0,1.38-.1,1.86-.31.48-.21.84-.52,1.07-.93.23-.41.34-.91.34-1.5s-.12-1.1-.35-1.52c-.23-.42-.59-.74-1.07-.97-.48-.22-1.1-.33-1.86-.33h-2.77v14.2h-3.03ZM73.46,56.86l-4.05-7.59h3.3l4.14,7.59h-3.39Z"/><path class="c" d="M85.44,57.08c-1.46,0-2.77-.34-3.94-1.02-1.16-.68-2.08-1.66-2.75-2.94-.67-1.28-1.01-2.82-1.01-4.62s.33-3.35,1.01-4.63c.67-1.28,1.59-2.27,2.75-2.95,1.16-.68,2.48-1.02,3.94-1.02s2.78.34,3.93,1.02,2.07,1.66,2.74,2.95c.67,1.28,1.01,2.83,1.01,4.63s-.34,3.34-1.01,4.62-1.59,2.26-2.74,2.94-2.46,1.02-3.93,1.02ZM85.44,54.36c.91,0,1.71-.22,2.4-.67s1.24-1.11,1.64-1.98c.4-.87.6-1.94.6-3.21s-.2-2.35-.6-3.22-.94-1.54-1.64-1.99-1.5-.67-2.4-.67-1.71.22-2.41.67c-.7.45-1.25,1.11-1.65,1.99s-.6,1.95-.6,3.22.2,2.33.6,3.21c.4.87.95,1.53,1.65,1.98.7.45,1.5.67,2.41.67Z"/><path class="c" d="M95.12,56.86v-16.73h6.28c1.29,0,2.37.24,3.24.72.87.48,1.53,1.14,1.98,1.98s.67,1.79.67,2.85-.23,2.02-.68,2.86c-.45.83-1.12,1.49-2,1.96-.88.48-1.97.71-3.26.71h-4.16v-2.49h3.74c.76,0,1.38-.13,1.86-.39.48-.26.84-.62,1.07-1.08.23-.46.34-.99.34-1.58s-.11-1.12-.34-1.58c-.23-.45-.58-.8-1.07-1.06-.48-.25-1.11-.38-1.87-.38h-2.77v14.2h-3.03Z"/><path class="c" d="M116.33,57.08c-1.46,0-2.77-.34-3.94-1.02-1.16-.68-2.08-1.66-2.75-2.94-.67-1.28-1.01-2.82-1.01-4.62s.33-3.35,1.01-4.63c.67-1.28,1.59-2.27,2.75-2.95,1.16-.68,2.48-1.02,3.94-1.02s2.78.34,3.93,1.02,2.07,1.66,2.74,2.95c.67,1.28,1.01,2.83,1.01,4.63s-.34,3.34-1.01,4.62-1.59,2.26-2.74,2.94-2.46,1.02-3.93,1.02ZM116.33,54.36c.91,0,1.71-.22,2.4-.67s1.24-1.11,1.64-1.98c.4-.87.6-1.94.6-3.21s-.2-2.35-.6-3.22-.94-1.54-1.64-1.99-1.5-.67-2.4-.67-1.71.22-2.41.67c-.7.45-1.25,1.11-1.65,1.99s-.6,1.95-.6,3.22.2,2.33.6,3.21c.4.87.95,1.53,1.65,1.98.7.45,1.5.67,2.41.67Z"/><path class="c" d="M131.92,57.11c-1.3,0-2.43-.2-3.39-.61s-1.71-.99-2.25-1.77c-.54-.77-.83-1.72-.88-2.82h2.99c.04.58.22,1.07.54,1.45.31.39.73.68,1.24.87.51.19,1.08.29,1.71.29s1.24-.1,1.74-.3.89-.48,1.18-.84.43-.78.43-1.26c0-.43-.13-.79-.38-1.07-.25-.28-.61-.52-1.06-.71s-.98-.37-1.58-.52l-1.9-.49c-1.38-.35-2.46-.89-3.26-1.61-.79-.72-1.19-1.69-1.19-2.89,0-.99.27-1.85.8-2.59.53-.74,1.26-1.31,2.18-1.72.92-.41,1.97-.62,3.14-.62s2.23.21,3.13.62,1.6.98,2.11,1.71.77,1.56.8,2.5h-2.93c-.07-.72-.39-1.27-.95-1.67-.56-.39-1.29-.59-2.2-.59-.63,0-1.17.09-1.62.28-.45.19-.8.45-1.04.77s-.36.7-.36,1.12c0,.46.14.84.42,1.14.28.3.64.53,1.08.71.44.18.89.33,1.34.45l1.56.39c.63.15,1.24.35,1.82.6.58.25,1.11.56,1.58.94.47.38.84.84,1.11,1.38.27.54.41,1.17.41,1.9,0,.97-.25,1.83-.75,2.58-.5.75-1.22,1.33-2.17,1.75s-2.08.63-3.41.63Z"/></svg>