<?xml version="1.0" encoding="UTF-8"?><svg id="a" xmlns="http://www.w3.org/2000/svg" width="80" height="80" viewBox="0 0 80 80"><defs><style>.b{fill:#fff;stroke-width:0px;}</style></defs><rect class="b" x="5.81" y="10.9" width="22.32" height="58.06"/><path class="b" d="M6,12.96c-.24-.03-.15.32-.19.39.4-.08.18-.48.19-.39Z"/><polygon class="b" points="9.92 12.16 9.85 12.3 10.42 11.95 9.92 12.16"/><path class="b" d="M13.58,12.16c-.35-.6-1.33.1-1.98-.12l-.11-.14-.29.49c.79-.08,1.82-.4,2.38-.23Z"/><path class="b" d="M15.53,13.47c-.12-.23.42-.2-.46-.07.04.03.06.04.08.06.08,0,.19,0,.37.01Z"/><path class="b" d="M15.16,13.45c-.39.02.25.2,0,0h0Z"/><path class="b" d="M16.94,13.32l-.51.21c.11.14.56.17.39.27.52-.11.41-.25.12-.48Z"/><path class="b" d="M17.42,12.88l-.26.09c.05.06.12.08.26-.09Z"/><path class="b" d="M16.6,13.15l.56-.19c-.07-.1-.08-.29-.26.07.05-.18-.06,0-.3.12Z"/><path class="b" d="M16.29,13.06c-.29-.13-.65-.21-.14-.42-.97.08-.83.51.14.42Z"/><path class="b" d="M13.77,11.54l-.38-.18-.33.2c.16-.1.73.16.71-.03Z"/><path class="b" d="M20.11,13.63c.03-.13-.17-.34-.21-.51l-.38.15c.19.09.56.17.58.36Z"/><path class="b" d="M19.9,13.12l.56-.22c-.5-.03-.59.08-.56.22Z"/><polygon class="b" points="17.52 12.21 16.59 12.67 17.69 12.2 17.52 12.21"/><polygon class="b" points="22.25 13.65 21.94 13.94 22.5 13.5 22.25 13.65"/><path class="b" d="M23.68,13.59c-.24.25.32.42.07.57.39-.04.72-.26,1.01-.45-.32.11-.65.08-1.09-.12Z"/><path class="b" d="M24.96,13.44s-.04.07-.06.12c-.01.05-.01.1-.13.16.11-.03.12-.06.13-.11.02-.05.04-.11.06-.17Z"/><path class="b" d="M21.42,12.97c.04.08.13.28.44.37l-.22-.36c-.07,0-.14,0-.22,0Z"/><path class="b" d="M21.63,12.96h0c.24.02.41.03.48.03-.06,0-.21-.01-.49-.03Z"/><path class="b" d="M21.36,12.97s.04,0,.06,0c-.02-.04-.03-.05-.06,0Z"/><path class="b" d="M18.99,12.54c.33-.2,1.02-.42.35-.73-.24.25.14.42-.35.73Z"/><path class="b" d="M21.09,12.51l-.6-.08c.01.1.12.23-.04.33l.64-.25Z"/><polygon class="b" points="21.38 12.4 21.09 12.51 21.31 12.55 21.38 12.4"/><path class="b" d="M24.24,13.1c.13-.08.26-.12.41-.15.07-.01.14-.02.22-.03l.09-.02s-.05-.03-.12-.05l-.26-.03c-.17-.02-.34-.03-.51-.03-.05.11-.19.32.17.3Z"/><path class="b" d="M22.97,13l.06-.02s-.06-.04-.06.02Z"/><polygon class="b" points="26.12 12.95 26.19 12.87 26.12 12.92 26.12 12.95"/><path class="b" d="M24.01,12.73c-.26-.07-.41.02-.56.13.19-.04.4-.06.61-.06.02-.05.03-.08-.06-.07Z"/><path class="b" d="M25.21,13.27c0-.08-.03-.14-.07-.2.02.11.02.29.07.2Z"/><path class="b" d="M23.12,13.08l-.04.02c.08.08.07.04.04-.02Z"/><path class="b" d="M23.12,13.08c.13-.05.24-.14.34-.22-.16.03-.3.07-.43.12.03.03.06.06.09.1Z"/><path class="b" d="M28.44,11.75c-.29.13-.56-.13-.4-.76-.05-.03-.1-.06-.14-.11-.78.24-1.18,1.27-1.65,1.89l-.07.1c.15-.13.28-.29.48-.14.09-.13.2-.41.32-.68-.03-.12-.04-.26.3-.41.06-.01.11-.02.14-.03.1.39-.16.56-.33.92.21-.27.36-.21.54-.09.18.11.38.3.68.07-.07-.21-.14-.4-.22-.58.1-.08.25.08.33-.18Z"/><path class="b" d="M25.78,12.81l-.13.04c.07.06.07.19-.05.45.2-.13.35-.24.46-.33.02-.01.04-.03.06-.05v-.02s-.41-.04-.41-.04l.07-.05Z"/><path class="b" d="M25.21,12.85c.15-.36.59-.52.52-.91-.49.03-.42.3-.68.46.62-.09-.18.2.16.41-.11.06-.19.08-.26.1.08.04.14.1.19.17v-.02s0,0,0,0h0c0-.05,0-.08,0-.05,0,0,.01,0,.01,0,.02-.05.03-.09.05-.14.11.08,0,.09-.05.14l-.02.05h0c.15-.06.32-.13.51-.19-.07-.05-.21-.04-.44,0Z"/><path class="b" d="M19.95,11.03s.03.06.04.08c.07-.04.1-.08-.04-.08Z"/><path class="b" d="M20.43,11.25c-.08.05-.15.2-.43.16-.24-.11,0-.17-.01-.29-.16.1-.57.26-.06.44l.08-.05c.46.13,1.06.58.98.63-.14-.33-.25-.56-.56-.88Z"/><path class="b" d="M23.11,11.96l.96-.18-.49-.32.02.19c-.55-.07-.43.16-.5.3Z"/><path class="b" d="M25.94,13.16l-.38.33c.18-.14.36-.24.54-.32-.05-.01-.11-.02-.16-.01Z"/><path class="b" d="M25.99,13.55l-.33.17c.07-.01.13-.02.2-.01l.13-.16Z"/><path class="b" d="M14.45,70.97l-.28.09c.13-.03.22-.06.28-.09Z"/><path class="b" d="M16.49,70.99l.05-.16c-.09.09-.13.16-.05.16Z"/><path class="b" d="M26.02,42.95c-.31.41-.8.87-.42.82l.37-.13c-.07-.29-.02-.51.05-.69Z"/><path class="b" d="M28.21,63.9l.11-.12c-.13-.1-.24-.19-.35-.28.07.12.15.26.24.4Z"/><path class="b" d="M29.73,64.19l-.24.54c.08-.12.16-.3.24-.54Z"/><path class="b" d="M3.42,67.03c-.12-.16-.25-.33-.37-.52,0,.95.19.49.37.52Z"/><path class="b" d="M26.12,25.12c-.14.35-.2.64-.22.88.21-.43.53-.77.22-.88Z"/><path class="b" d="M15.25,67.08c-.17.07-.25.14-.24.22.18-.06.28-.13.24-.22Z"/><path class="b" d="M25.9,27.02c.04-.06.06-.12.09-.19-.06-.26-.11-.52-.09-.84-.16.31-.25.68,0,1.02Z"/><path class="b" d="M3.72,26.09s.02-.06.04-.09c-.05,0-.05.03-.04.09Z"/><path class="b" d="M7.42,14.32c.02.12.02.3.03.48.03-.09.02-.23-.03-.48Z"/><path class="b" d="M25.83,17.37c-.02-.26-.04-.04,0,0h0Z"/><path class="b" d="M27.28,16.09c.04.06.09.1.18.11-.09-.02-.14-.06-.18-.11Z"/><path class="b" d="M28.18,29.66v.02c.07-.08.06-.07,0-.02Z"/><path class="b" d="M25.99,16.98c-.05.1-.08.21-.11.34.03-.05.06-.16.11-.34Z"/><path class="b" d="M25.82,17.03c.01-.09.03-.16.04-.23-.06-.03-.1,0-.04.23Z"/><path class="b" d="M25.85,17.74c0-.15.01-.29.04-.43-.02.05-.05.07-.06.06,0,.08.01.19.02.37Z"/><path class="b" d="M4.7,47.72s.02-.04.03-.06c-.15-.27-.13-.15-.03.06Z"/><path class="b" d="M29.83,49.82s-.01-.02-.02-.03c0,.01,0,.03-.01.04h.03Z"/><path class="b" d="M30.1,50.77c-.46-.4-.4-.63-.3-.94l-1.06.31,1.36.63Z"/><path class="b" d="M9.57,71.08l.67.33c-.8.54-1.39.36-.76.82.09-1.15,2.59-.12,2.68-1.26l.44.24c-.13-.01-.15.06-.27.04.85.55.63-.83,1.73-.67.38.09.65.25.39.39l.85-.28c.25.02.19.22-.06.2l1.3-.09v.03c.18-.18.6-.46.8-.58.33.16-.17.12-.08.26l.72-.28c.29.3-.3.59-.8.54.67,1.15.6-.29,2.05.38l-.68.15c.44.65.97.42,1.74.82-.18-.21-1.54-1.02-.76-1.31.22.09.51.13.93-.1,0,.41.42.31.93.28l-.04.54c.56-.16.51-.43.84-.67.62.05.75.47.9.82,1,.09-.69-.67.49-.77.41.1.77.1,1.14.03.26-.05.54-.1.85-.15.3-.07.62-.14.98-.22.96.19-.03.33.35.49.23-.14.43-.29.61-.43.2.01.21.14.22.21.57-.17-.24-.54.59-.69-.09-.26.36-.13,1.03.05.23-.38.52-1.13.14-2.03.15-.22.33.32.54.35-.22-1.03-.3-1.4-.4-1.76-.05-.17-.1-.34-.18-.54-.08-.18-.18-.49-.33-.7l.35-.81c-.41.59-.89-.17-1.28-.83-.2.21-.37.39-.45.51l-.29-1.06c.09-.13.27-.02.5.15-.04-.07-.09-.14-.13-.19.2-.38.51-.18.81.09-.11.13-.22.26-.33.38.33.26.69.51,1.01.45-.06-.07-.12-.2-.15-.35.09.07.17.11.22.08.06-.04-.06-.15-.2-.32l.6-.24-.24-.06.38-1.39c-.61-.99-1.5-1.86-1.75-3.43.44.39.72.08,1.25.11-.55.43.24,1.22.12,2.04.06-.43.31-.33.39-.22l-.5-1.46c.43.03.32-.31.5-.69-.85.29-.56-1.09-.82-1.68.28-.04.57.11.51.83.64-.8-.99-1.03-.45-1.82,0,.18-.04.27.11.34-.25-.41-.05-1.42.2-1.18v.18c.11-1.17.01-3.57-.71-3.75.09-.01.87.15,1.01.22l-2.42-2.09c.62.18,2.09-.52,2.44.45.09-.28.19-.62-.03-1.21-.09.19-.89.47-.95.21.69-.71.37-.5.95-1.38-.13.29-1.1-.03-1.07-.48.14.07.96-.04,1.06.13l-.95-1.12c.17.28.81.05,1.07-.2-.19.12.02-.97-.08-1.27l-.22.48c.14-1.27-1.34-1.25-1.29-2.51.2.15,1.21.38,1.33-.26-.49-.29-2.34-1.3-2.72-2.41l.28-.21-.32-.85c.73.53,2.27,2.02,2.87,2.84.22-.47.33-.13.3-.84.26-.25.4.39.41.6l.17-1.65c-.57.07-.57-1.27-1.04-1.2l.59,1.8c-.57.07-1.61-1.04-1.51-2.21.23-.3,1.01.22,1.2.2-.2-.15-.37-1.11-.23-1.22l.3.5c.21-.65-.75-1.07-.21-1.85.04-.27.73-.81.4-.86-.65.44-2.65.53-3.14.23.04-.09.62-1.42.94-1.73.51-.45,1.21.67,1.65.29-.16-.02-.35-.26-.41-.37.13-.28.48.12.41-.5-.58-.1.05-1.26-.49-.29-.16-.6.12-.64.09-1.35-.37.23-1.27-.64-1.43-1.24.15.04.34-.1.42-.17.05-1.24.31-1.9.32-3.06.14-.11.31-.66.56-.43-.1-.17-.3-.32-.31-.68.5-.69.08.79.68.27-.33-.04-.46-.92-.67-1.43-.52.16-.1,1.17.11,1.68-.71,0-1.46-.88-1.79-2.09-.18-.96.46-.42.36-.58.12-1.8-1.25-1.54-.73-3.03.45-.59.9-.03,1.23-.16.17.78-.29,1.2-.27,1.73l.21-.65c.15.25.27.77.13,1.05.41-.5.08-3.05.46-4.44-.15-.25-.31-.67-.49-.47l.06.44c-.37.4-.51-.83-.68-.27-.26-.59-.66-1.25-.46-2.08l.52-.16c-.15.02-.31.54-.15.78-.23-.35.7-1.27.02-1.65l-.36.58c-.07-.15-.15-.31-.23-.47l-.13-.25c-.04-.1-.08-.17-.12-.19-.15-.17-.25-.28-.16-.47-.51.29.06.09-.54.39.19-.06.28-.07.32-.02.02.02.03.06.04.1v.06s0,.16,0,.16c0,.44,0,.84.39.47-.69.54-.29.93-.89,1.63.17-.02.33-.25.24.37.05.03.11.09.15.14,0,.02,0,.03-.01.04l.02-.03s.03.03,0-.01c.07-.15.16-.27.26-.31.39.31.38,1.29.58,1.62-.08.37-.2-.15-.38.05l.3.5c-.38.05-.63.97-.85.11l-.02.78c-.21.46-.3,1.09-.14,1.48-.08.37.42.93.12.61l.24,1.22h-.09c-.05,1.21.63,2.49-.06,3.86.1.41.21.82.11,1.5l-.33.13c.11.52-.33,1.56.01,1.79-.88.56-.19,2.52-.35,3.44l.43.03c-.02.63.1,1.23.27,2.02l.38-.05c.31.67-.27,1.73-.23,2.8-.14-.07-.11-.34-.02-.53-.86,1.27.62,2.69,0,3.84.14.29.09.5,0,.7,0-.03,0-.05-.02-.07,0,.03,0,.07,0,.12-.07.13-.14.26-.2.4.09-.12.17-.24.2-.34,0,.22.05.56.15.89l-.41.14s0,.05.01.08c-.15.32.19.26.5.09.07.17.15.32.25.44-.66.26.22.87-.48,1.22.34.22.26,1.66.98,1.83-.09.01-.14.11-.14-.07-.08.37-.16.74.04,1.07l-.52.16.7.8c-.32.49-.5.69-.9.21.61,1.17.23.95.84,1.94l-.33-.05c.01.36.46.92.18,1.14-.64.8-.09,3.94-.68,5.98.98-.4-.44.95.32,1.03-.23.12-.36.4-.57.07.23,1.04-.37,1.57.27,2.29-.23.12-.34-.22-.48-.12.05.08.2.33.06.44-.14.11-.2-.15-.3-.32.04,1.06.76,1.17,1.43,1.25-.32.54-.27.81.17,1.2-.22.19-.45.5-.53-.16-.02.19-.1.75-.11,1.28,0,.31,0,.39.06.52.05.11.13.21.27.25-.14.04-.04.32.02.42-.03.54-.08.54-.03,1.12l.09-.07c.23.28.32.46.33.59-.17.03-.57-.16-.84-.11l-.03-.07c-.7-.23-.73-.18-.84-.13-.08.05-.23.09-.74-.18l.08.41c-.02.87-1.29-.51-2.14-.18l.31.23c-.47.3-1.33-1.19-1.8-1.29-.1-.08.16-.12.31-.18-1.25-.51-.16.53-1.09.65-.17-.29.22-.73-.4-.78-.31-.23-1.81.93-2.67.38.19.22.37.44-.06.61-.66.08-1.79-.83-2.39-.14-.08-.06-.12-.12-.12-.17-.51.18-1.64.3-1.95.68-.47-1.4-3.14.68-3.13-.61l-.78.03-.45.03.05-.13c-.44-.09-.75.22-1.22.53-.08-.09.12-.21.17-.28-.16-.06-.26-.11-.37-.13.07-.46-.08-.38-.57-.8.14-.09.28-.17.42-.24-.06-.02-.05-.14,0-.28.02-.07.05-.15.08-.24.03-.09.07-.13.1-.33.13-.66.24-1.46,0-2.17.05.01.13.04.19.16-.49-1.6,1.16-3.84-.36-4.42l-.38-1.06c-.12,1.37-.66-.2-.92.36-.09-.54.46-1.39.54-.73l-.08.1c.8.24.28-1.7.82-1.66-.04-2.69.4-5.32.43-7.84l-.62.29.04-.88c.14-.23.48-.31.46.32.35-.33-.29-1.05-.43-1.07.25-1.23.72.48.74.1l-.05-.51-.07.12c-.25-.41-.52-.45-.49-1.21.12-.48.38-.24.41-.43.04,0,.06-.06.02-.29l.05-1.11-.49.44c-.24-.49.03-1.04-.53-.53.85-.75.31-4.13.57-4.59-.36-.69-.35-1.37-.31-2.21-.1.21-.65.33-.58-.39,1.13.27.49-1.33,1.31-1.92-.54.52-.13-2.06-.9-1.24.09-.61.42-.04.69-.5-.44-1.44.29-3.18.14-4.96-.15-.03-.38.27-.6-.11l.74-.94c-.07-.35-.86-.32-.34-.97-.13.09-.31.23-.36,0,.72-3.49-.59-7.13.77-10.67-.29.48-.32.16-.33-.21-.07.24-.37,0-.57.04l.56-1.48c-.56-.27-.04-1.59-.57-1.75l.1.47c-.63-.62-1.4.87-2.21.78.72.7-1.06,1.84-.04,2.99-.17.25-.26-.22-.45-.08.35.29.42.64.26,1.29l-.09-.07c.08,1.83-.26,2.61-.49,4.67l.4-.15c-.05.44-.18.53-.28.74.61.51.03-1.24.7-.78-.81.59-.01,3.11-.94,3.51,0,.68.46-.2.46.48l-.25.18.32.17c-.05.45-.37.67-.58.69.03-.11-.06-.31-.08-.42-.29.58.1,1.63,0,1.83l.15-.65c.23,1.85-.09,4.12.41,5.91l.19-.14c.35,1.37-.21,1.1-.05,2.6l-.05-.05c.19.3.28.7.26,1.11-.22-.38-.43.71-.67.22.38,1.48.29.73,1,1.71l-.31.23c.28.33.43.36.51,1.11-.27-.62-.48.48-.83-.21-.69,1.57.69,2.34-.31,3.06.87.72.48-1.36.67-.96.28-.34.65.6.56,1.09-.02.5-1.11.85-1.09,2.12,0-.13-.06-.13-.06-.26-.22.47.3.93-.06,1.51.52.33-.03.75.64.85l-.15-1.16c.17.66.96,1.27.58,2.36-.13-.08-.31-.41-.41-.63-.2.32.13.61-.07.94-.67-.09-.15-1.41-.66-2.11-.28.34.48,1.33-.24.98.92.51-.12,1.25.59,2.1l-.4-.06c.06.14.25.42.24.67l-.52-.45c.44.69-.39,1.34-.15,2-.01-1.39.48-.31.78-.9.54,1.72-1.05.99-.86,2.91-.06-.26.24-.98.43-.57-.08.37-.24.85-.45,1.07.08,1.27.41-.2.66.35-.49.43.2.63.36,1.18h-.41c-.26,1.46.85.39.53,1.7l-.57-.55.15.68-.46-.14c.34.74.25.97.12,1.7.29-.17.74.09.75.74-.24.44-.39-.25-.33.67-.26-.21-.58-.43-.2-.83-.13-.04-.26-.2-.39-.24-.28.47-.06,1.19-.06,1.52.02-.13.04-.28.1-.36l.56,1.32c-.15.21-.28.04-.4-.12.04.27.23.45.27.85-.33-.1-.67-.08-.83-.63l.37,1.26c-.14.08-.4.65-.52.48-.1.35.06.78.22,1.23l.11.35c.03.14.06.17.08.42.04.4.04.8-.02,1.21.06.07.13.21.17.52-.06,1.17-.34,2.5-.2,3.72.33-.03.69-.09,1.08-.17.16.2.36.4.59.59.79-.07.52-.25.42-.45-.1-.2-.03-.41,1.07-.52,1.55-.19.37.51.89.67.45-.15,1.07-.38,1.61-.51.37-.13.8-.16,1.24.08-.29.11-.52.02-.79.07ZM19.52,70.81c-.19.09-.58.35-.72.11.22-.47.39-.24.72-.11ZM29,62.43c.13.14.07.37-.09.62-.03-.18-.02-.39.09-.62ZM26.16,20.27s.01.01.02.02c-.16.43-.1.28-.02-.02ZM26.33,19.38c-.06-.09-.11-.08-.17-.05.1.06.11.26.08.49.11-.06.18-.18.09-.45ZM7.44,44.9l-.11.17c-.12-.39-.01-.28.11-.17Z"/><path class="b" d="M29.55,64.15c-.07.05-.14.07-.22.08.07.08.15.08.22-.08Z"/><path class="b" d="M3.48,67.12v-.05s-.04-.03-.07-.03l.07.09Z"/><path class="b" d="M29.79,33.22c-.06.18-.13.29-.21.35.1,0,.18-.07.21-.35Z"/><path class="b" d="M25.64,14.64l.11.57c-.02-.28.07-.38.13-.52-.1.01-.23.12-.24-.06Z"/><path class="b" d="M26.92,10.87c-.11.05-.18,0-.29.06l-.08.19c.33-.01.69-.17.37-.25Z"/><path class="b" d="M27,14.13c.34-.03.23-.31.16-.57,0,.02,0,.03,0,.05-.48.05-.32.24-.16.52Z"/><path class="b" d="M27.15,13.5c-.02-.08-.03-.16,0-.26-.19.05-.04.11,0,.26Z"/><path class="b" d="M26.11,18.24c.09-.19-.44-.12-.3-.23-.44-.21.53,1.27.3.23Z"/><path class="b" d="M28.13,13.79c-.14.06-.28.12-.42.17.11.06.23.12.34.19l.08-.37Z"/><path class="b" d="M27.82,16.95l.12-.64c-.07,0-.11-.07-.14-.17-.01.39-.1.83.03.81Z"/><path class="b" d="M27.79,16.14c0-.21,0-.4-.07-.52,0,.11.02.35.07.52Z"/><polygon class="b" points="28.25 14.66 28.16 14.85 28.13 15.3 28.25 14.66"/><path class="b" d="M27.73,23.84l.12.7c.15.07.23-.12.18-.38-.1-.17-.16-.43-.3-.32Z"/><path class="b" d="M28.89,21.72c-.09.19-.18.2-.32.31l.52.02-.2-.33Z"/><path class="b" d="M29.02,23.76c.15.07.42,1.01.38.13-.14-.07-.27-.77-.38-.13Z"/><polygon class="b" points="28.35 34.3 28.35 34.12 27.48 34.15 28.35 34.3"/><path class="b" d="M30.41,43.59c.21-.83-.53-.2-.27-.95-.2-.19-.21.61-.39.41.21.5.09.76.66.53Z"/><path class="b" d="M29.75,43.05c-.03-.08-.08-.17-.13-.26.05.14.09.21.13.26Z"/><polygon class="b" points="7.88 12.37 8.06 11.84 7.77 12.18 7.88 12.37"/><path class="b" d="M7.24,11.35l.55-.13-.5-.32c.02.12.07.35-.05.45Z"/><path class="b" d="M21,71.92l.04-.13c-.08-.14-.21-.15-.46-.18l.42.31Z"/><polygon class="b" points="13.78 71.51 13.9 71.52 13.67 71.02 13.78 71.51"/><path class="b" d="M6.39,72.14c.48.02,1.09-.09,1.57-.07-1.11.09-1.44-.55-1.57.07Z"/><rect class="b" x="51.84" y="10.9" width="22.35" height="58.06"/><path class="b" d="M52.02,12.96c-.24-.03-.15.32-.19.39.4-.08.18-.48.19-.39Z"/><polygon class="b" points="55.94 12.16 55.87 12.3 56.45 11.95 55.94 12.16"/><path class="b" d="M59.61,12.16c-.35-.6-1.33.1-1.98-.12l-.11-.14-.29.49c.79-.08,1.82-.4,2.38-.23Z"/><path class="b" d="M61.56,13.47c-.12-.23.42-.2-.46-.07.04.03.06.04.08.06.08,0,.19,0,.37.01Z"/><path class="b" d="M61.19,13.45c-.39.02.25.2,0,0h0Z"/><path class="b" d="M62.97,13.32l-.51.21c.11.14.56.17.39.27.52-.11.41-.25.12-.48Z"/><path class="b" d="M63.45,12.88l-.26.09c.05.06.12.08.26-.09Z"/><path class="b" d="M62.63,13.15l.56-.19c-.07-.1-.08-.29-.26.07.05-.18-.06,0-.3.12Z"/><path class="b" d="M62.32,13.06c-.29-.13-.65-.21-.14-.42-.97.08-.83.51.14.42Z"/><path class="b" d="M59.8,11.54l-.38-.18-.33.2c.16-.1.73.16.71-.03Z"/><path class="b" d="M66.14,13.63c.03-.13-.17-.34-.21-.51l-.38.15c.19.09.56.17.58.36Z"/><path class="b" d="M65.93,13.12l.56-.22c-.5-.03-.59.08-.56.22Z"/><polygon class="b" points="63.54 12.21 62.62 12.67 63.72 12.2 63.54 12.21"/><polygon class="b" points="68.29 13.65 67.97 13.94 68.53 13.5 68.29 13.65"/><path class="b" d="M69.71,13.59c-.24.25.32.42.07.57.39-.04.72-.26,1.01-.45-.32.11-.65.08-1.09-.12Z"/><path class="b" d="M71.01,13.44s-.04.07-.06.12l-.02.08-.13.08.13-.05s.02-.04.03-.06c.02-.05.04-.11.06-.17Z"/><path class="b" d="M67.45,12.97c.04.08.13.28.44.37l-.22-.36c-.07,0-.14,0-.22,0Z"/><path class="b" d="M67.66,12.96h0c.24.02.41.03.48.03-.06,0-.21-.01-.49-.03Z"/><path class="b" d="M67.39,12.97s.04,0,.06,0c-.02-.04-.03-.05-.06,0Z"/><path class="b" d="M65.02,12.54c.33-.2,1.02-.42.35-.73-.24.25.14.42-.35.73Z"/><path class="b" d="M67.12,12.51l-.6-.08c.01.1.12.23-.04.33l.64-.25Z"/><polygon class="b" points="67.41 12.4 67.12 12.51 67.34 12.55 67.41 12.4"/><path class="b" d="M70.27,13.1c.13-.08.26-.12.41-.15.07-.01.14-.02.22-.03.06,0,.07-.01.11-.02-.02-.04-.21-.06-.39-.08-.17-.02-.34-.03-.51-.03-.05.11-.19.32.17.3Z"/><path class="b" d="M69.01,13l.06-.02s-.06-.04-.06.02Z"/><polygon class="b" points="72.18 12.94 72.25 12.86 72.19 12.91 72.18 12.94"/><path class="b" d="M70.05,12.73c-.26-.07-.41.02-.56.13.19-.04.4-.06.61-.06.02-.05.03-.08-.06-.07Z"/><path class="b" d="M71.27,13.27c0-.08-.03-.14-.07-.2.02.11.03.29.07.2Z"/><path class="b" d="M69.15,13.08l-.04.02c.08.08.07.04.04-.02Z"/><path class="b" d="M69.15,13.08c.13-.05.24-.14.34-.22-.16.03-.3.07-.43.12.03.03.06.06.09.1Z"/><path class="b" d="M74.5,11.72c-.28.13-.55-.11-.41-.72-.06-.03-.11-.07-.15-.12-.79.25-1.19,1.31-1.65,1.93l-.04.05c.15-.13.28-.3.48-.14.09-.12.19-.39.3-.66-.04-.13-.06-.27.29-.43.07-.01.12-.03.17-.03.09.38-.17.55-.33.91.21-.27.36-.22.54-.1.18.11.38.3.68.07-.07-.21-.14-.4-.22-.57.1-.08.25.08.33-.18Z"/><path class="b" d="M71.83,12.81l-.13.04c.07.06.07.19-.05.45.23-.15.39-.27.5-.37,0,0,.02-.01.03-.02h0s-.42-.05-.42-.05l.07-.05Z"/><path class="b" d="M71.26,12.85c.15-.36.58-.52.52-.91-.49.03-.42.3-.68.46.62-.09-.18.2.17.41-.11.06-.19.08-.26.1.08.04.14.1.19.17v-.02s0,0,0,0h0c0-.05,0-.08,0-.05,0,0,.01,0,.01,0,.01-.05.03-.09.05-.14.11.08,0,.09-.05.14l-.02.05h0c.15-.06.32-.13.51-.19-.07-.05-.21-.04-.44,0Z"/><path class="b" d="M65.98,11.03s.03.06.04.08c.07-.04.1-.08-.04-.08Z"/><path class="b" d="M66.46,11.25c-.08.05-.15.2-.43.16-.24-.11,0-.17-.01-.29-.16.1-.57.26-.06.44l.08-.05c.46.13,1.06.58.98.63-.14-.33-.25-.56-.56-.88Z"/><path class="b" d="M69.14,11.96l.96-.18-.49-.32.02.19c-.55-.07-.43.16-.5.3Z"/><path class="b" d="M72,13.15l-.38.34c.18-.14.36-.25.54-.32-.05-.01-.11-.01-.16-.01Z"/><path class="b" d="M72.05,13.54l-.33.18c.07-.01.13-.02.2-.02l.13-.16Z"/><path class="b" d="M60.5,70.97l-.28.09c.13-.03.22-.06.28-.09Z"/><path class="b" d="M62.54,70.99l.05-.16c-.09.09-.13.16-.05.16Z"/><path class="b" d="M72.08,42.94c-.31.41-.8.87-.42.82l.37-.13c-.07-.29-.02-.51.05-.69Z"/><path class="b" d="M74.27,63.9l.11-.12c-.13-.1-.24-.19-.35-.28.07.12.15.26.24.4Z"/><path class="b" d="M75.79,64.18l-.24.54c.08-.12.16-.3.24-.54Z"/><path class="b" d="M49.44,67.07c-.12-.16-.25-.33-.37-.52,0,.95.19.48.37.52Z"/><path class="b" d="M72.18,25.1c-.14.35-.2.64-.22.88.21-.43.53-.77.22-.88Z"/><path class="b" d="M61.31,67.08c-.17.07-.25.14-.24.22.18-.06.28-.13.24-.22Z"/><path class="b" d="M71.96,27.01c.04-.06.06-.12.09-.19-.06-.26-.11-.52-.09-.84-.16.32-.25.68,0,1.02Z"/><path class="b" d="M49.74,26.09s.02-.06.04-.09c-.05,0-.05.03-.04.09Z"/><path class="b" d="M53.44,14.32c.02.12.02.3.03.48.03-.09.02-.23-.03-.48Z"/><path class="b" d="M71.89,17.35c-.02-.26-.04-.04,0,0h0Z"/><path class="b" d="M73.34,16.07c.04.06.09.1.18.11-.09-.02-.14-.06-.18-.11Z"/><path class="b" d="M74.24,29.64v.02c.07-.08.06-.07,0-.02Z"/><path class="b" d="M72.05,16.95c-.05.1-.08.21-.11.34.03-.05.06-.16.11-.34Z"/><path class="b" d="M71.88,17.01c.01-.09.03-.16.04-.23-.06-.03-.1,0-.04.23Z"/><path class="b" d="M71.91,17.72c0-.15.01-.29.04-.43-.02.05-.05.07-.06.06,0,.08.01.19.02.37Z"/><path class="b" d="M50.72,47.74s.02-.04.03-.06c-.15-.27-.13-.15-.03.06Z"/><path class="b" d="M75.89,49.82s-.01-.02-.02-.03c0,.01,0,.03-.01.04h.03Z"/><path class="b" d="M76.16,50.76c-.46-.4-.4-.63-.3-.94l-1.06.31,1.36.63Z"/><path class="b" d="M55.62,71.08l.67.33c-.8.54-1.39.36-.76.82.09-1.15,2.59-.12,2.68-1.26l.44.24c-.13-.01-.15.06-.27.04.85.55.63-.83,1.74-.67.38.09.65.25.39.39l.85-.28c.25.02.19.22-.06.2l1.3-.09v.03c.18-.18.6-.46.8-.58.33.16-.17.12-.08.26l.72-.28c.29.3-.3.59-.8.54.67,1.15.6-.29,2.05.38l-.68.15c.44.65.97.42,1.74.82-.18-.21-1.54-1.02-.76-1.31.22.09.51.13.93-.1,0,.41.42.31.93.28l-.04.54c.56-.16.51-.43.84-.67.62.05.75.47.9.82,1,.09-.69-.67.49-.77.41.1.77.1,1.14.03.26-.05.54-.1.85-.15.3-.07.62-.14.98-.22.96.19-.03.33.35.49.23-.14.43-.29.61-.43.2.01.21.14.22.21.57-.17-.24-.54.6-.69-.09-.26.36-.13,1.03.05.23-.38.52-1.13.14-2.03.15-.22.33.32.54.35-.22-1.03-.3-1.4-.4-1.76-.05-.17-.1-.34-.18-.54-.08-.18-.18-.49-.33-.7l.35-.81c-.41.59-.89-.17-1.28-.83-.2.21-.37.39-.45.51l-.29-1.06c.09-.13.27-.02.5.15-.04-.07-.09-.14-.13-.19.2-.38.51-.18.81.09-.11.13-.22.26-.33.38.33.26.69.51,1.01.45-.06-.07-.12-.2-.15-.35.09.07.17.11.22.08.06-.04-.06-.15-.2-.32l.6-.24-.24-.06.38-1.39c-.61-.99-1.5-1.86-1.75-3.44.44.39.72.08,1.25.11-.55.43.24,1.22.12,2.04.06-.43.31-.33.39-.22l-.5-1.46c.43.03.32-.31.5-.69-.85.29-.56-1.09-.82-1.68.28-.04.57.11.51.83.64-.8-.99-1.03-.45-1.82,0,.18-.04.27.11.34-.25-.41-.05-1.42.2-1.18v.18c.11-1.17.01-3.57-.71-3.75.09-.01.87.15,1.01.22l-2.42-2.09c.62.18,2.09-.52,2.44.45.09-.28.19-.63-.03-1.21-.09.19-.89.48-.95.21.69-.71.37-.5.95-1.38-.13.29-1.1-.03-1.07-.48.14.07.96-.04,1.06.13l-.95-1.12c.17.28.81.05,1.07-.2-.19.12.02-.97-.08-1.27l-.22.48c.14-1.27-1.34-1.25-1.29-2.51.2.15,1.21.38,1.33-.26-.49-.29-2.34-1.3-2.72-2.41l.28-.21-.32-.85c.73.53,2.27,2.03,2.87,2.84.22-.47.33-.13.3-.84.26-.25.4.39.41.6l.17-1.66c-.57.07-.57-1.27-1.04-1.2l.59,1.8c-.57.07-1.61-1.04-1.51-2.21.23-.3,1.01.22,1.2.2-.2-.15-.37-1.11-.23-1.22l.3.5c.21-.65-.75-1.07-.21-1.85.04-.27.73-.81.4-.86-.65.44-2.65.53-3.14.23.04-.09.62-1.42.94-1.73.51-.45,1.21.67,1.65.29-.16-.02-.35-.26-.41-.37.13-.28.48.12.41-.5-.58-.1.05-1.26-.49-.29-.16-.6.12-.64.09-1.35-.37.23-1.27-.64-1.43-1.24.15.04.34-.1.42-.17.05-1.24.31-1.9.32-3.06.14-.11.31-.66.56-.43-.1-.17-.3-.32-.31-.68.5-.69.08.79.68.27-.33-.04-.46-.92-.67-1.43-.52.16-.1,1.17.11,1.68-.71,0-1.46-.88-1.79-2.09-.18-.96.46-.42.36-.58.12-1.8-1.25-1.54-.73-3.03.45-.59.9-.03,1.23-.16.17.78-.29,1.2-.27,1.73l.21-.65c.15.25.27.77.13,1.06.41-.5.08-3.05.46-4.44-.15-.25-.31-.67-.49-.47l.06.44c-.37.4-.51-.83-.68-.27-.26-.59-.66-1.25-.46-2.08l.52-.16c-.15.02-.31.54-.15.78-.23-.35.7-1.27.02-1.65l-.36.58c-.07-.15-.15-.31-.23-.47-.09-.14-.17-.39-.25-.43-.15-.17-.25-.28-.16-.47-.51.3.06.09-.54.39.19-.06.28-.07.32-.02.02.02.03.06.04.1,0,.03,0,.07,0,.21,0,.44,0,.84.39.47-.69.54-.29.93-.89,1.63.17-.02.33-.25.24.37.05.03.11.09.15.14,0,.02,0,.03-.01.04l.02-.03s.03.03,0-.01c.07-.15.16-.27.26-.32.39.31.38,1.29.58,1.62-.08.37-.2-.15-.38.05l.3.5c-.38.05-.63.97-.85.11l-.02.78c-.21.46-.3,1.09-.14,1.48-.08.37.42.93.12.61l.24,1.22h-.09c-.05,1.22.63,2.49-.06,3.87.1.41.21.82.11,1.5l-.33.13c.11.52-.33,1.56.01,1.79-.88.56-.19,2.53-.35,3.44l.43.03c-.02.63.1,1.23.27,2.02l.38-.05c.31.67-.27,1.73-.23,2.8-.14-.07-.11-.34-.02-.53-.86,1.27.62,2.69,0,3.84.14.29.09.5,0,.7,0-.03,0-.05-.02-.07,0,.03,0,.07,0,.12-.07.13-.14.26-.2.4.09-.12.17-.24.2-.34,0,.22.05.56.15.89l-.41.14s0,.05.01.08c-.15.32.19.26.5.09.07.17.15.32.25.44-.66.26.22.87-.48,1.23.34.22.26,1.66.98,1.84-.09.01-.14.11-.14-.07-.08.37-.16.74.04,1.07l-.52.16.7.8c-.32.49-.5.69-.9.21.61,1.17.23.95.84,1.95l-.33-.05c.01.36.46.92.18,1.14-.64.8-.09,3.94-.68,5.98.98-.4-.44.95.32,1.03-.23.12-.36.4-.57.07.23,1.04-.37,1.57.27,2.29-.23.12-.34-.22-.48-.12.05.08.2.33.06.44-.14.11-.2-.15-.3-.32.04,1.07.76,1.17,1.43,1.25-.32.54-.27.81.17,1.2-.22.19-.45.5-.53-.16-.02.19-.1.75-.11,1.28,0,.31,0,.39.06.52.05.11.13.21.27.25-.14.04-.04.32.02.42-.03.54-.08.54-.03,1.12l.09-.07c.23.28.32.46.33.59-.17.03-.57-.16-.84-.11l-.03-.07c-.7-.23-.73-.18-.84-.13-.08.05-.23.09-.74-.18l.08.41c-.03.87-1.29-.51-2.14-.18l.31.23c-.47.3-1.33-1.19-1.8-1.29-.1-.08.16-.12.31-.18-1.25-.51-.16.53-1.09.65-.17-.29.22-.73-.4-.78-.31-.23-1.81.93-2.67.38.19.22.37.44-.06.61-.66.08-1.79-.83-2.39-.14-.08-.06-.12-.12-.12-.17-.51.18-1.64.3-1.95.68-.47-1.4-3.14.68-3.13-.61l-.78.03-.47.03.05-.13c-.44-.09-.75.22-1.21.53-.08-.09.12-.21.17-.28-.16-.07-.27-.11-.38-.13.06-.45-.09-.37-.57-.78.14-.09.28-.17.42-.25-.06-.02-.05-.14,0-.28.02-.07.05-.15.08-.24.03-.1.07-.12.1-.32.13-.66.24-1.46,0-2.17.05.01.13.04.19.16-.49-1.6,1.16-3.84-.36-4.43l-.38-1.06c-.12,1.37-.66-.2-.92.36-.09-.54.46-1.39.54-.73l-.08.1c.8.24.28-1.7.82-1.66-.04-2.69.4-5.32.43-7.84l-.62.29.04-.88c.14-.23.48-.31.46.32.35-.33-.29-1.05-.43-1.07.25-1.23.72.48.74.1l-.05-.51-.07.12c-.25-.41-.52-.45-.49-1.21.12-.48.38-.24.41-.43.04,0,.06-.06.02-.29l.05-1.11-.49.44c-.24-.49.03-1.04-.53-.53.85-.75.31-4.14.57-4.6-.36-.69-.35-1.37-.31-2.21-.1.21-.65.33-.58-.39,1.13.27.49-1.33,1.31-1.92-.54.52-.13-2.06-.9-1.24.09-.61.42-.04.69-.5-.44-1.44.29-3.18.14-4.96-.15-.03-.38.27-.6-.11l.74-.94c-.07-.35-.86-.32-.34-.97-.13.09-.31.23-.36,0,.72-3.49-.59-7.13.77-10.68-.29.48-.32.16-.33-.21-.07.24-.37,0-.57.04l.56-1.48c-.56-.27-.04-1.59-.57-1.75l.1.47c-.63-.63-1.4.87-2.21.78.72.7-1.06,1.85-.04,2.99-.17.25-.26-.22-.45-.08.35.29.42.64.26,1.29l-.09-.07c.08,1.83-.26,2.61-.49,4.67l.4-.15c-.05.44-.18.53-.28.74.61.51.03-1.24.7-.78-.81.59-.01,3.12-.94,3.51,0,.68.46-.2.46.48l-.25.18.32.17c-.05.45-.37.67-.58.69.03-.11-.06-.31-.08-.42-.29.58.1,1.63,0,1.83l.15-.65c.23,1.85-.09,4.12.41,5.91l.19-.14c.35,1.37-.21,1.1-.05,2.6l-.05-.05c.19.3.28.7.26,1.11-.22-.38-.43.71-.67.22.38,1.48.29.73,1,1.71l-.31.23c.28.33.43.36.51,1.11-.27-.62-.48.48-.83-.21-.69,1.57.69,2.34-.31,3.06.87.72.48-1.36.67-.96.28-.34.65.6.56,1.09-.02.5-1.11.86-1.09,2.12,0-.13-.06-.13-.06-.26-.22.47.3.93-.06,1.51.52.33-.03.75.64.85l-.15-1.16c.17.66.96,1.27.58,2.36-.13-.08-.31-.41-.41-.63-.2.32.13.61-.07.94-.67-.09-.15-1.41-.66-2.12-.28.34.48,1.33-.24.98.92.51-.12,1.25.59,2.1l-.4-.06c.06.14.25.42.24.67l-.52-.45c.44.69-.39,1.34-.15,2-.01-1.39.48-.31.78-.9.54,1.72-1.05.99-.86,2.91-.06-.26.24-.98.43-.57-.08.37-.24.85-.45,1.07.08,1.27.41-.2.66.35-.49.43.2.63.36,1.18h-.41c-.26,1.46.85.39.53,1.7l-.57-.55.15.68-.46-.14c.34.74.25.97.12,1.7.29-.17.74.09.75.74-.24.44-.39-.25-.33.67-.26-.21-.58-.43-.2-.83-.13-.04-.26-.2-.39-.24-.28.47-.06,1.19-.06,1.52.02-.13.04-.28.1-.36l.56,1.32c-.15.21-.28.04-.4-.12.04.27.23.45.27.85-.33-.1-.67-.08-.83-.63l.37,1.26c-.14.08-.4.65-.52.48-.1.35.06.78.22,1.23l.11.35c.03.13.06.2.08.43.04.4.04.8-.02,1.21.06.07.13.21.17.52-.06,1.16-.34,2.48-.2,3.68.34-.03.72-.09,1.13-.18.16.2.36.4.59.59.79-.07.52-.25.42-.45-.11-.2-.03-.41,1.06-.52,1.54-.19.38.51.89.67.44-.15,1.09-.38,1.59-.51.37-.13.8-.16,1.24.08-.29.11-.52.02-.79.07ZM65.58,70.81c-.19.09-.58.35-.72.11.22-.47.39-.24.72-.11ZM75.06,62.43c.13.14.07.37-.09.62-.03-.18-.02-.39.09-.62ZM72.22,20.25s.01.01.02.02c-.16.43-.1.28-.02-.02ZM72.4,19.35c-.06-.09-.11-.08-.17-.05.1.06.11.26.08.49.11-.06.18-.18.09-.45ZM53.47,44.92l-.11.17c-.12-.39-.01-.28.11-.17Z"/><path class="b" d="M75.61,64.15c-.07.05-.14.07-.22.08.07.08.15.08.22-.08Z"/><path class="b" d="M49.51,67.16v-.05s-.04-.03-.07-.03l.07.09Z"/><path class="b" d="M75.85,33.2c-.06.18-.13.29-.21.35.1.01.18-.07.21-.35Z"/><path class="b" d="M71.7,14.62l.11.57c-.02-.28.07-.38.13-.52-.1.01-.23.12-.24-.06Z"/><path class="b" d="M72.95,10.87c-.11.05-.18,0-.29.06l-.08.19c.33-.01.69-.17.37-.25Z"/><path class="b" d="M73.06,14.11c.34-.03.23-.31.16-.57,0,.02,0,.03,0,.05-.48.06-.32.25-.16.52Z"/><path class="b" d="M73.21,13.48c-.02-.08-.03-.16,0-.26-.19.05-.04.11,0,.26Z"/><path class="b" d="M72.17,18.22c.09-.19-.44-.12-.3-.23-.44-.21.53,1.27.3.23Z"/><path class="b" d="M74.19,13.76c-.14.07-.28.12-.42.18.11.06.23.12.34.19l.08-.37Z"/><path class="b" d="M73.88,16.93l.12-.64c-.07,0-.11-.07-.14-.17-.01.39-.1.83.03.81Z"/><path class="b" d="M73.85,16.12c0-.21,0-.4-.07-.52,0,.11.02.35.07.52Z"/><polygon class="b" points="74.31 14.64 74.23 14.83 74.19 15.28 74.31 14.64"/><path class="b" d="M73.79,23.82l.12.7c.15.07.23-.12.18-.38-.1-.17-.16-.43-.3-.32Z"/><path class="b" d="M74.95,21.7c-.09.19-.18.2-.32.31l.52.02-.2-.33Z"/><path class="b" d="M75.08,23.74c.15.07.42,1.02.38.13-.14-.07-.27-.77-.38-.13Z"/><polygon class="b" points="74.41 34.28 74.41 34.11 73.55 34.13 74.41 34.28"/><path class="b" d="M76.47,43.57c.21-.83-.53-.2-.27-.95-.2-.19-.21.61-.39.41.21.5.09.76.66.53Z"/><path class="b" d="M75.81,43.04c-.03-.08-.08-.17-.13-.26.05.14.09.21.13.26Z"/><polygon class="b" points="53.9 12.37 54.08 11.84 53.8 12.18 53.9 12.37"/><path class="b" d="M53.27,11.35l.55-.13-.5-.32c.02.12.07.35-.05.45Z"/><path class="b" d="M67.06,71.92l.04-.13c-.08-.14-.21-.15-.46-.18l.42.31Z"/><polygon class="b" points="59.83 71.51 59.96 71.52 59.72 71.02 59.83 71.51"/><path class="b" d="M52.47,72.14c.49.02,1.09-.09,1.57-.07-1.11.09-1.45-.55-1.57.07Z"/></svg>