<?xml version="1.0" encoding="UTF-8"?><svg id="a" xmlns="http://www.w3.org/2000/svg" width="80" height="80" viewBox="0 0 80 80"><defs><style>.b{fill:#fff;stroke-width:0px;}</style></defs><polygon class="b" points="68.12 40 14.83 13.46 14.83 66.54 68.12 40"/><path class="b" d="M66.86,37.91c.24-.08-.02-.41-.02-.5-.34.27.08.59.02.5Z"/><polygon class="b" points="63.52 40.63 63.51 40.45 63.15 41.1 63.52 40.63"/><path class="b" d="M60.01,42.37c.65.47,1.22-.74,1.96-.82l.18.09.03-.65c-.72.46-1.54,1.29-2.16,1.38Z"/><path class="b" d="M57.45,41.93c.24.19-.3.42.48-.14-.06,0-.08-.02-.11-.02-.07.04-.18.09-.36.16Z"/><path class="b" d="M57.81,41.76c.36-.2-.35-.09,0,0h0Z"/><path class="b" d="M56.18,42.76l.38-.46c-.17-.1-.63.09-.52-.1-.44.37-.26.47.14.56Z"/><path class="b" d="M55.95,43.45l.21-.22c-.07-.04-.15-.03-.21.22Z"/><path class="b" d="M56.59,42.77l-.44.47c.12.07.23.27.21-.19.05.21.07-.02.23-.27Z"/><path class="b" d="M56.94,42.71c.34,0,.74-.09.36.38.89-.55.53-.93-.36-.38Z"/><path class="b" d="M60.16,43.12h.46s.21-.37.21-.37c-.1.18-.79.18-.67.37Z"/><path class="b" d="M52.98,43.94c.04.15.34.28.47.44l.28-.34c-.23,0-.62.09-.75-.1Z"/><path class="b" d="M53.44,44.37l-.42.5c.49-.21.53-.37.42-.5Z"/><polygon class="b" points="56.21 44.2 56.85 43.27 56.05 44.3 56.21 44.2"/><polygon class="b" points="50.91 44.94 51.06 44.48 50.75 45.22 50.91 44.94"/><path class="b" d="M49.57,45.68c.1-.37-.53-.29-.37-.57-.35.23-.55.61-.74.96.25-.26.58-.39,1.11-.39Z"/><path class="b" d="M48.14,46.6c.12-.14.22-.33.33-.53-.13.14-.25.31-.33.53Z"/><path class="b" d="M52.07,45.26c-.08-.06-.27-.24-.62-.18l.4.28c.07-.03.14-.06.21-.1Z"/><path class="b" d="M51.87,45.37h-.01c-.24.1-.4.17-.47.2.06-.02.21-.08.48-.2Z"/><path class="b" d="M52.12,45.24s-.03.02-.05.02c.04.03.06.03.05-.02Z"/><path class="b" d="M54.63,44.56c-.21.37-.76.93.05.94.1-.37-.36-.38-.05-.94Z"/><path class="b" d="M52.63,45.59l.62-.2c-.06-.1-.24-.19-.13-.38l-.48.57Z"/><polygon class="b" points="52.41 45.85 52.63 45.59 52.4 45.66 52.41 45.85"/><path class="b" d="M49.29,46.47c-.16.29-.43.44-.72.62.36-.09.72-.22,1.04-.38-.01-.14.02-.43-.32-.24Z"/><path class="b" d="M50.56,45.97l-.04.05s.08.01.04-.05Z"/><polygon class="b" points="45.57 48.58 45.65 48.62 45.63 48.55 45.57 48.58"/><path class="b" d="M49.71,46.75c.28-.05.38-.22.46-.4-.16.13-.35.25-.55.36,0,.06.02.1.09.04Z"/><path class="b" d="M47.39,47.19c.17.02.35.01.53,0-.19-.06-.53-.12-.53,0Z"/><path class="b" d="M50.38,45.95s.02-.02.03-.04c-.12-.04-.09,0-.03.04Z"/><path class="b" d="M50.38,45.95c-.1.12-.15.26-.21.4.13-.1.25-.21.35-.33-.04-.01-.09-.04-.14-.06Z"/><path class="b" d="M45.88,51.49c-.13-.38.35-1.03,1.1-.92.42-.54-.52-1.53-1.33-1.94.06.16.13.31-.33.8.29.1,1.48-.17,1.16.39-.66.56-.68.18-1.13.17.53.29-.63,1.12-.15,1.69l.54-.56c.06.09-.1.37.13.38Z"/><path class="b" d="M46.74,48.12l.21-.16c-.3.07-.56.02-1.04-.08-.3.37-.32.54-.28.67l1.17-.52-.05.09Z"/><path class="b" d="M48,47.44c.01.48-.47.92.08,1.17.67-.37.32-.56.64-.93-1.05.64.21-.37-.7-.19.18-.17.37-.29.54-.4-.22.05-.44.09-.66.11.01,0,.02,0,.04.01h0s0,0,0,0c.07.02.1.05.03.04,0,0-.01.02-.02.02.02.06.02.11.02.17-.36.08-.1-.08-.02-.17,0-.02,0-.04-.02-.06h0s-1,.76-1,.76c.26-.06.55-.22,1.04-.52Z"/><path class="b" d="M54.5,46.62c-.05-.02-.06-.05-.08-.07-.05.08-.06.13.08.07Z"/><path class="b" d="M53.93,46.61c.05-.09.04-.28.32-.37.28,0,.09.19.17.31.11-.18.41-.55-.17-.49l-.05.09c-.51.09-1.32-.11-1.27-.2.3.28.54.47,1.01.67Z"/><path class="b" d="M50.98,47.14l-.82.65.63.1-.12-.19c.56-.18.33-.37.31-.56Z"/><polygon class="b" points="45.37 48.44 45.29 47.97 45.04 48.81 45.37 48.44"/><polygon class="b" points="44.2 49.08 44.06 48.71 43.86 49.08 44.2 49.08"/><path class="b" d="M12.45,25.35l-.11-.3c.03.14.07.23.11.3Z"/><path class="b" d="M12.43,27.53l.19.05c-.11-.1-.19-.14-.19-.05Z"/><path class="b" d="M17.74,62.31c.1-.46.56-1.33.17-.64l-.35.66c.16-.17.18-.12.18-.02Z"/><path class="b" d="M14.73,45.43l-.13.13c.15.11.29.21.41.3-.09-.13-.18-.27-.28-.43Z"/><path class="b" d="M12.93,45.12l.28-.58c-.1.13-.19.32-.28.58Z"/><path class="b" d="M12.04,8.9c.04-.15.08-.29.14-.42-.91-.45-.28.11-.14.42Z"/><path class="b" d="M32.04,55.32c-.41.02-.72.09-.96.19.52.02,1.02.19.96-.19Z"/><path class="b" d="M17.06,26.21c-.08-.18-.17-.26-.26-.26.07.19.16.3.26.26Z"/><path class="b" d="M30.1,55.99c.08,0,.15,0,.22,0,.22-.19.44-.37.75-.49-.38-.02-.78.05-.98.49Z"/><path class="b" d="M54.67,30.53s.05.06.06.09c.03-.05,0-.07-.06-.09Z"/><path class="b" d="M63.99,40.07c-.12-.03-.3-.12-.48-.2.07.07.21.14.48.2Z"/><path class="b" d="M39.31,51.31c.24-.15.02-.06,0,0h0Z"/><path class="b" d="M41.31,52.23c-.03.07-.05.15,0,.24-.03-.1-.02-.18,0-.24Z"/><path class="b" d="M28.78,59.67h-.02c.11.05.09.04.02,0Z"/><path class="b" d="M39.78,51.29c-.12,0-.25.01-.38.05.07,0,.18,0,.38-.05Z"/><path class="b" d="M39.64,51.14c.1-.03.17-.05.24-.07,0-.08-.05-.11-.24.07Z"/><path class="b" d="M38.97,51.5c.14-.08.29-.13.43-.16-.06,0-.09-.01-.09-.03-.07.04-.17.1-.34.2Z"/><path class="b" d="M33.41,21.24s.03.04.04.06c.34-.03.21-.06-.04-.06Z"/><path class="b" d="M12.81,60.59s.02.03.02.05c0-.02.01-.05.02-.06l-.04.02Z"/><path class="b" d="M12.49,59.48c.27.22.39.39.43.54.04.16,0,.27-.07.55.42-.2.83-.33,1.25-.43l-1.61-.67Z"/><path class="b" d="M12.33,20.12l-.39.71c-.64-.86-.42-1.48-.97-.81,1.36.1.14,2.77,1.5,2.87l-.29.47c.01-.13-.07-.16-.05-.29-.65.91.98.68.79,1.86-.1.41-.3.7-.46.42l.34.92c-.03.27-.26.2-.24-.06l.11,1.4h-.04c.21.19.54.64.68.86-.19.35-.14-.18-.31-.09l.33.77c-.35.31-.69-.33-.64-.86-1.36.72.34.64-.45,2.2l-.17-.73c-.77.47-.49,1.04-.97,1.87.25-.2,1.21-1.65,1.55-.81-.1.24-.15.55.12,1-.48,0-.36.45-.34,1l-.64-.04c.18.6.51.55.8.9-.06.67-.56.8-.98.96-.1,1.07.79-.74.91.53-.24.89.02,1.51.4,2.57-.22.62-.39-.11-.57.11l.51.55c-.01.13-.17.09-.25.07.2.46.64.04.81.77.7.2-1.03,1.5-.23,2.4-.18.22-.39-.11-.64-.04.52,1.24.38,1.06,1.09,2.08l-.42.87c.48-.64,1.05.18,1.52.89.23-.23.44-.42.53-.55l.34,1.14c-.1.14-.32.02-.59-.16.05.08.11.15.15.21-.24.41-.61.2-.96-.1.13-.13.26-.27.39-.41-.39-.28-.82-.54-1.19-.48.07.07.14.22.17.37-.11-.07-.2-.12-.26-.09-.07.04.07.16.24.34l-.71.26.28.06-.45,1.49c.72,1.06,1.77,1.99,2.07,3.68-.52-.42-.85-.09-1.47-.11.66-.46-.28-1.31-.15-2.18-.07.46-.36.36-.47.24l.6,1.56c-.51-.04-.38.33-.59.74,1-.31.67,1.16.97,1.8-.34.04-.68-.11-.6-.89-.75.86,1.18,1.1.54,1.94,0-.19.04-.29-.13-.37.3.44.06,1.52-.23,1.27v-.19c-.13,1.26-.01,3.82.84,4.01-.11.01-1.03-.16-1.2-.24l1.43,1.12c.48.37.95.78,1.43.96-.37-.02-.98.2-1.56.37-.58.16-1.12.21-1.32-.58-.1.45-.23,1.09.03,1.96.1-.38,1.06-1.05,1.12-.72-.41.61-.52.87-.61,1.13-.1.28-.2.57-.52,1.48.16-.55,1.3-.84,1.27-.3-.17.05-1.13,1.02-1.25.86.37.3.75.48,1.12.54-.2-.14-.95.95-1.27,1.77.22-.46-.02,1.62.09,1.96l.26-1.14c-.04.57.04.83.18.89,1.22-1.08,2.23-2.65,3.11-3.04-.25.39-1.35,2.27-.52,2.01.35-.5,1.12-1.65,1.72-2.71.63-1.07,1.05-2.01,1.35-2.41.05.1.11.19.18.28.18-.23.33-.44.45-.64,0,.48-.17,1.32-.71,2.32-.52.99-1.42,2.14-2.13,2.9.61-.01.08.39,1.17-.18.36.16-.69.86-1.05,1.07l2.76-1.15c-.17-.67,1.87-1.69,1.51-2.13-.73.63-1.57,1.3-2.51,2.03-.05-.35.36-1.09.83-1.74.46-.65,1.06-1.26,1.62-1.48.41.1.32,1.18.44,1.37.04-.28.87-.93,1.05-.83l-.32.56c.74-.09.62-1.31,1.66-1.11.28-.09,1.16.39,1.03.01-.77-.48-1.91-2.56-1.88-3.22.11,0,1.69-.02,2.15.17.7.33,0,1.6.59,1.88-.07-.17.07-.49.13-.61.34,0,.14.57.7.2-.21-.66,1.23-.55.02-.66.49-.46.68-.18,1.35-.55-.41-.29-.06-1.65.44-2.11.04.17.27.31.38.37,1.22-.54,1.99-.58,3.1-1.12.18.1.8,0,.7.39.11-.19.15-.47.48-.65.92.2-.72.46.1.84-.13-.38.64-.93,1.02-1.39-.42-.47-1.18.45-1.55.92-.38-.75.08-1.97,1.06-2.89.83-.65.64.29.75.1,1.79-.73.82-2.05,2.52-2.22.81.2.5.94.8,1.23-.66.56-1.3.27-1.8.54l.74-.08c-.16.28-.6.65-.94.65.69.19,2.96-1.37,4.49-1.64.16-.28.48-.65.19-.75l-.39.28c-.58-.2.53-.93-.1-.85.43-.55.85-1.3,1.76-1.48l.42.47c-.1-.15-.68-.07-.82.21.21-.41,1.59.13,1.6-.77l-.75-.1c.43-.56.84-1.49,1.63-1.67-.59-.38-.13.14-.95-.24.83.57-1.82.87-.71,1.35-.88-.48-1.05.13-2.03-.16.11.17.41.23-.23.43,0,.07-.03.16-.05.22-.02,0-.03,0-.05,0h.04s-.01.05.02,0c.18,0,.34.05.44.12-.09.56-1.04,1.02-1.25,1.39-.39.09.04-.28-.24-.38l-.32.56c-.25-.38-1.27-.2-.56-.85l-.75.35c-.55,0-1.2.2-1.49.56-.39.09-.67.89-.52.42l-1.05.83-.06-.1c-1.18.52-2.04,1.85-3.72,1.78-.34.29-.68.62-1.38.83l-.3-.28c-.44.37-1.67.4-1.7.87-1-.67-2.52,1-3.48,1.27l.19.47c-.62.27-1.13.69-1.79,1.25l.25.38c-.24.33-.69.46-1.21.58-.26.06-.53.12-.8.2-.14.04-.27.08-.4.13-.13.05-.29.12-.31.14-.09-.14.19-.24.43-.24-.19-.05-.45,0-.53-.03-.08-.02-.14,0-.19.02-.1.06-.19.22-.31.4-.22.35-.66.85-.76.49-.19.28-.27.25-.28.13.01,0,.03-.02.04-.05,0,0-.03,0-.04.02,0-.08,0-.19,0-.27-.03.14-.05.25-.03.28-.09.06-.26.2-.5.45l.36-.71-.04.03c.07-.23-.31.41-.56.94-.13.14-.27.3-.42.48-.02,0-.03.02-.05.04.39-.7.32-.69.26-.73-.06-.03-.11-.12.3-.73-.4.4-.3-.45-1.15.03.11-.09.16-.2.17-.08.1-.35.19-.63-.05-.75.2-.13.41-.26.61-.38-.27-.03-.55-.13-.82-.29.37-.47.59-.51,1.06-.32-.36-.19-.43-.61-.5-.81-.07-.23-.13-.44-.49-.97l.4.05c-.02-.38-.55-.99-.22-1.22.75-.85.1-4.22.8-6.4-1.17.42.52-1.02-.38-1.1.28-.13.43-.43.67-.08-.27-1.12.44-1.68-.32-2.45.28-.13.4.24.57.13-.06-.09-.24-.35-.08-.47.16-.11.23.16.35.34-.05-1.14-.9-1.26-1.69-1.34.38-.58.32-.87-.2-1.28.26-.2.53-.54.63.17.04-.4.38-2.44-.26-2.48.16-.12.05-.56-.03-.66.04-.89.1-.97.04-1.85l-.1.24c-.77-.35-.17-.73-.26-1.44l.08.02c.56-1.62-.27-.7.37-2.3l-.48.09c-1.03-.15.61-1.42.21-2.35l-.27.34c-.35-.51,1.4-1.42,1.53-1.93.09-.11.14.18.21.33.61-1.33-.63-.17-.77-1.17.34-.18.86.24.92-.43.27-.33-1.1-1.94-.45-2.86-.26.2-.52.4-.72-.06-.09-.71.99-1.91.16-2.55.07-.09.14-.12.2-.13-.21-.54-.35-1.76-.8-2.09,1.66-.5-.81-3.37.72-3.35l-.04-.83-.04-.44.16.06c.1-.47-.27-.81-.63-1.32.1-.09.25.13.33.19.31-.68.24-.51-.52-2.48l.5.65c-.06-.14-.06-.23-.03-.29.25.19.67.59,1,.86.34.28.58.43.8.29,0,.07.01.18-.02.24.32-.17.86.49,1.07.8.04.05.03.07.12.13.09.06.17.12.26.17.17.1.34.18.51.22.34.08.68,0,1.02-.33l1.21.11c-1.25-.78.54-.6.14-1.14.56.16,1.09,1.15.42.92l-.06-.13c-.65.73,1.48,1.11,1.16,1.67,2.6,1.24,4.88,2.96,7.28,4.2l.05-.79.82.46c.15.26.04.66-.55.33.13.53,1.16.19,1.25.06,1.05.85-.84.53-.49.73l.51.2-.07-.13c.53-.07.71-.34,1.41.06.39.36.03.52.2.64-.02.05.03.1.27.16l1.03.59-.17-.73c.6-.02.99.52.79-.31.27,1.26,3.8,2.3,4.1,2.8.85-.05,1.49.28,2.28.73-.15-.21.02-.85.68-.43-.85,1.07,1.01,1.15,1.15,2.3-.22-.82,2.05.84,1.66-.36.53.39-.19.47.11.97,1.61.22,2.89,1.82,4.68,2.51.1-.14-.06-.53.42-.58l.51,1.24c.38.09.76-.75,1.11.1-.02-.18-.05-.44.2-.38,2.96,2.43,7.15,2.78,9.83,5.91-.31-.53.01-.41.37-.25-.19-.19.2-.39.26-.62l1.13,1.3c.55-.46,1.54.72,1.98.23l-.5-.12c.93-.37-.1-1.9.42-2.72-1.05.43-1.21-2.01-2.85-1.47-.16-.3.34-.17.31-.44-.46.23-.84.14-1.38-.34l.12-.06c-1.8-.78-2.37-1.52-4.22-2.74l-.07.5c-.4-.27-.42-.44-.56-.65-.81.4,1.17.63.38,1.12-.13-1.14-2.98-1.5-2.87-2.67-.65-.33-.05.59-.7.26l-.04-.35-.33.26c-.4-.27-.45-.71-.35-.94.09.08.33.08.45.12-.4-.59-1.61-.67-1.75-.87l.54.48c-1.9-.64-3.9-2.07-5.88-2.38l.03.27c-1.5-.28-.94-.74-2.47-1.29l.08-.02c-.39.06-.82-.04-1.2-.25.48-.05-.46-.8.15-.82-1.62-.31-.86-.04-2.17.24l-.05-.44c-.47.14-.58.29-1.34.01.73,0-.21-.73.64-.78-1.15-1.48-2.61-.38-2.77-1.79-1.15.57,1.05,1.16.57,1.16.18.46-.91.4-1.34.07-.47-.26-.23-1.58-1.46-2.17.12.06.16,0,.28.06-.34-.46-1.05-.13-1.41-.78-.59.4-.71-.39-1.15.27l1.19.39c-.72-.13-1.73.41-2.57-.51.15-.1.55-.14.82-.14-.2-.36-.65-.15-.86-.52.44-.66,1.43.52,2.37.31-.18-.46-1.53-.12-.81-.72-.97.73-1.13-.72-2.33-.38l.27-.4c-.16,0-.53.07-.77-.06l.71-.34c-.9.14-1.08-1.05-1.84-1.11,1.34.65.04.66.45,1.25-1.93-.25-.39-1.58-2.34-2.3.28.06.81.72.32.72-.31-.26-.69-.66-.79-.99-1.27-.52-.03.53-.68.53-.16-.72-.7-.09-1.32-.19l.21-.43c-1.25-.97-.82.72-1.9-.24l.83-.34-.73-.17.38-.42c-.89.01-1.07-.19-1.69-.68.01.38-.48.74-1.1.44-.29-.47.44-.29-.46-.67.33-.17.72-.4.9.18.11-.12.33-.17.44-.29-.35-.54-.96-.56-1.68-.92.2.12.44.27.53.39-.8-.15-1.53-.26-2.18-.34-.28-.34-.04-.38.24-.41-.42-.15-.72-.05-1.29-.29.13-.37.05-.87,1.02-.59-.73-.2-1.42-.38-2.06-.54-.16-.27-1.21-1.12-.99-1.18-.66-.46-1.35-.59-2-.71-.66-.13-1.27-.24-2.17-.85.08.21.15.5.2.94-.04.7-.19,1.25-.25,1.97-.06.71-.05,1.61.22,2.75-.23.17-.47.37-.7.61.08.85.3.56.54.47.23-.11.48-.02.62,1.16.22,1.66-.6.38-.8.93.18.5.45,1.13.6,1.77.15.46.19.87-.1,1.35-.13-.31-.03-.55-.08-.84ZM12.64,30.79c-.1-.21-.41-.62-.13-.77.55.24.29.42.13.77ZM13.8,47c-.16-.15-.08-.39.1-.66.04.19.02.41-.1.66ZM36.71,53.04s0,.02,0,.03c-.5.04-.32.03,0-.03ZM37.66,52.8c.06-.1.02-.16-.05-.2,0,.14-.19.24-.43.32.12.08.27.11.47-.12ZM34.67,25.5l-.11-.2c.44.06.28.12.11.2Z"/><path class="b" d="M13.14,45.16c.08-.06.17-.07.26-.09-.08-.08-.17-.08-.26.09Z"/><path class="b" d="M12.07,9.07v-.05s-.01-.08-.03-.12v.04s.03.13.03.13Z"/><path class="b" d="M26.21,63.07c-.21.03-.34,0-.45-.05.04.11.17.16.45.05Z"/><path class="b" d="M41.83,49.81l-.49.39c.25-.15.4-.11.56-.1-.06-.09-.24-.19-.07-.28Z"/><path class="b" d="M47.93,50.11c.05-.09.17-.09.22-.18l-.12-.19c-.34.18-.49.46-.1.37Z"/><path class="b" d="M43.06,50.99c.22.34.51.05.86-.21-.02.01-.04.03-.07.03-.14-.56-.47-.19-.79.18Z"/><path class="b" d="M44,50.72c.11-.08.23-.15.35-.19-.06-.23-.17.03-.35.19Z"/><path class="b" d="M38.63,52.02c.23,0-.12-.52.06-.42-.03-.56-.94,1.16-.06.42Z"/><polygon class="b" points="43.96 52.03 43.6 51.65 43.57 52.12 43.96 52.03"/><path class="b" d="M40.76,53.21l.68-.18c-.05-.07,0-.15.09-.23-.39.17-.85.29-.76.42Z"/><path class="b" d="M41.53,52.8c.2-.09.38-.19.46-.32-.1.06-.33.19-.46.32Z"/><polygon class="b" points="43.19 52.58 42.96 52.58 42.51 52.76 43.19 52.58"/><path class="b" d="M34.12,56.41l-.61.46c0,.19.24.19.46,0,.11-.19.33-.37.15-.47Z"/><path class="b" d="M36.76,56.63c-.23,0-.29-.1-.47-.19l.26.57.21-.37Z"/><path class="b" d="M34.87,57.74c.01.19-.75.93.08.47,0-.19.6-.65-.08-.47Z"/><polygon class="b" points="24.42 62.06 24.58 61.97 24.1 61.07 24.42 62.06"/><path class="b" d="M13.09,70.42c1.17-.31.79-1.1,1.74-1.23.44-.49-.76.1-.31-.36-.91.74-1.22.73-1.43,1.58Z"/><path class="b" d="M14.52,68.84c.14-.12.3-.25.47-.41-.24.19-.38.31-.47.41Z"/><polygon class="b" points="65.62 41.49 66.04 41.94 65.86 41.47 65.62 41.49"/><path class="b" d="M66.94,41.3l-.17.64.57-.37c-.13-.03-.38-.09-.4-.27Z"/><path class="b" d="M11.33,32.37l.16.04c.17-.09.18-.22.21-.49l-.36.45Z"/><polygon class="b" points="11.82 24.63 11.8 24.77 12.39 24.52 11.82 24.63"/><path class="b" d="M11.07,16.62c-.02.52.11,1.17.08,1.68-.11-1.19.65-1.53-.08-1.68Z"/></svg>