<?xml version="1.0" encoding="UTF-8"?><svg id="a" xmlns="http://www.w3.org/2000/svg" width="412.51" height="412.51" viewBox="0 0 412.51 412.51"><defs><style>.b{fill:#000;}.b,.c{stroke-width:0px;}.c{fill:#212121;}</style></defs><rect class="b" x="14.46" y="11.91" width="384" height="384" rx="25.99" ry="25.99"/><path class="b" d="M370.73,392.32c2.2.05,1.41-.56,1.74-.67-3.68.14-1.65.84-1.74.67Z"/><polygon class="b" points="334.39 393.73 335.03 393.47 329.67 394.09 334.39 393.73"/><path class="b" d="M300.4,393.72c3.21,1.05,12.32-.17,18.37.2l1,.24,2.73-.85c-7.36.13-16.92.7-22.1.4Z"/><path class="b" d="M282.28,391.44c1.12.41-3.92.35,4.23.13-.41-.04-.53-.07-.77-.1-.73,0-1.74,0-3.46-.02Z"/><path class="b" d="M285.74,391.46c3.58-.03-2.34-.34,0,0h0Z"/><path class="b" d="M269.21,391.7l4.71-.37c-.98-.24-5.18-.3-3.62-.47-4.84.2-3.84.44-1.09.84Z"/><path class="b" d="M264.74,392.47l2.44-.15c-.43-.1-1.07-.14-2.44.15Z"/><path class="b" d="M272.36,391.98l-5.18.33c.68.17.76.51,2.38-.12-.42.31.6.01,2.8-.21Z"/><path class="b" d="M275.3,392.14c2.65.23,6.06.37,1.33.74,9.02-.14,7.69-.89-1.33-.74Z"/><path class="b" d="M298.66,394.8l3.54.31,3.06-.35c-1.53.18-6.81-.29-6.59.04Z"/><path class="b" d="M239.84,391.15c-.29.22,1.59.6,1.94.88l3.48-.26c-1.79-.15-5.18-.29-5.42-.63Z"/><path class="b" d="M241.77,392.04l-5.21.38c4.65.05,5.51-.14,5.21-.38Z"/><polygon class="b" points="263.9 393.63 272.46 392.83 262.25 393.65 263.9 393.63"/><polygon class="b" points="219.94 391.12 222.89 390.61 217.63 391.39 219.94 391.12"/><path class="b" d="M206.74,391.21c2.19-.43-3-.73-.69-.99-3.59.08-6.65.45-9.4.78,2.93-.19,6.05-.14,10.09.21Z"/><path class="b" d="M192.02,391.48c1.46-.1,2.98-.29,4.63-.48-1.56.1-3.09.24-4.63.48Z"/><path class="b" d="M227.69,392.31c-.4-.14-1.18-.49-4.1-.64l2.05.63c.63,0,1.33,0,2.05,0Z"/><path class="b" d="M225.71,392.32l-.07-.02c-2.22-.02-3.77-.03-4.43-.04.57,0,1.92.02,4.5.06Z"/><path class="b" d="M228.2,392.31c-.19,0-.33,0-.52,0,.2.06.32.08.52,0Z"/><path class="b" d="M250.24,393.06c-3.06.35-9.44.73-3.27,1.27,2.2-.43-1.34-.74,3.27-1.27Z"/><path class="b" d="M230.75,393.1l5.53.14c-.11-.17-1.11-.41.41-.58l-5.94.44Z"/><polygon class="b" points="228.04 393.3 230.75 393.1 228.7 393.05 228.04 393.3"/><path class="b" d="M201.5,392.07c-2.39.27-5.01.3-7.96.34,3.17.12,6.44.19,9.55.19.44-.2,1.8-.55-1.59-.53Z"/><path class="b" d="M213.26,392.25c-.16.01-.38.03-.53.04.33.05.59.07.53-.04Z"/><path class="b" d="M164.45,392.41c.16.04.3.07.47.11.04-.04.06-.07.11-.11h-.58Z"/><path class="b" d="M203.62,392.72c2.38.12,3.8-.03,5.16-.23-1.78.06-3.67.1-5.69.11-.2.09-.23.15.53.12Z"/><path class="b" d="M183.9,391.78c1.24.13,2.65.24,4.12.35-1.21-.2-3.68-.51-4.12-.35Z"/><path class="b" d="M211.93,392.11c.12,0,.23-.02.36-.03-.78-.14-.68-.07-.36.03Z"/><path class="b" d="M211.93,392.11c-1.22.09-2.19.25-3.15.38,1.45-.05,2.79-.12,3.96-.21-.29-.04-.59-.11-.8-.17Z"/><path class="b" d="M155.64,396.46c.42-.58,6.68-1.12,12.08-.5,5.32-.44,1.84-2.36-2.8-3.43-.16.25-.16.49-5.63.84,1.91.32,12.14.75,7.52,1.27-7.24.3-5.94-.21-9.46-.52,2.99.73-9.22,1.06-7.64,2.13l6.35-.38c.12.17-2.18.43-.42.58Z"/><path class="b" d="M175.34,392.59l2.25-.07c-2.57-.1-4.4-.33-7.78-.79-3.74.29-4.52.5-4.78.7l11.08.08-.77.09Z"/><path class="b" d="M187.7,392.51c-1.76.64-7.16.91-3.85,1.59,6.6-.04,4.63-.53,8.57-.81-10.66.16,3.06-.35-4.64-.71,2.09-.11,3.98-.14,5.76-.17-1.92-.08-3.77-.17-5.51-.29.1.02.16.03.24.04h.05s-.01,0-.01,0c.46.08.61.13.09.08-.04,0-.16.01-.22.01-.07.09-.27.17-.48.24-3.09-.13-.49-.17.48-.24.04-.03.12-.06.13-.09-.01,0-.03,0-.04,0l-10.68.35c2.26.09,5.09.07,10.1,0Z"/><path class="b" d="M241.27,395.7c-.33-.06-.32-.1-.34-.15-.69.08-.95.13.34.15Z"/><path class="b" d="M236.88,395.31c.78-.09,1.42-.34,3.95-.28,2.19.19-.01.3.1.51,1.52-.17,5.32-.46.55-.76l-.76.09c-4.3-.22-9.82-1.01-9.07-1.1,1.25.57,2.36.98,5.22,1.54Z"/><path class="b" d="M211.98,394.07l-8.89.31,4.53.55-.23-.33c5.06.13,3.96-.28,4.59-.53Z"/><polygon class="b" points="163.44 392.09 164.62 391.42 159.48 392.37 163.44 392.09"/><polygon class="b" points="151.88 392.18 152.31 391.59 149.26 391.94 151.88 392.18"/><path class="b" d="M167.35,8.41l2.61-.17c-1.24.05-2.03.11-2.61.17Z"/><path class="b" d="M148.43,8.37l-.46.29c.88-.16,1.23-.28.46-.29Z"/><path class="b" d="M18.14,238.42c.55-3.8,1.39-8.06.73-7.6l-.64,1.17c.11,2.66.04,4.7-.09,6.43Z"/><path class="b" d="M14.32,44.09c-.06.36-.13.74-.19,1.11.22.92.43,1.79.61,2.57-.13-1.11-.27-2.36-.42-3.68Z"/><path class="b" d="M11.67,41.4c.16-1.7.22-3.26.49-5.15-.05.31-.1.65-.16,1.02-.06.39-.11.79-.13,1.19-.07.83-.14,1.8-.2,2.94Z"/><path class="b" d="M270.64,7.73l3.05-.65c-4.77,0-2.67.33-3.05.65Z"/><path class="b" d="M34.56,391.6c-2.66-1.01-4.6-2.12-6.22-3.21,2.61,2.14,5.2,3.54,6.22,3.21Z"/><path class="b" d="M159.9,15.2c1.6-.12,2.28-.25,2.23-.39-1.65.11-2.58.23-2.23.39Z"/><path class="b" d="M22.55,382.84c.25.43.5.84.77,1.28,1.43,1.49,2.97,2.85,5.02,4.28-1.93-1.61-3.84-3.6-5.79-5.56Z"/><path class="b" d="M402.12,269.87c-.03.27-.04.6-.08.85.09.08.09-.29.08-.85Z"/><path class="b" d="M394.23,377.86c.14-.46.38-1.04.52-1.72.14-.68.41-1.4.47-2.13-.03.18-.07.38-.12.62-.06.24-.13.51-.22.82-.16.63-.3,1.43-.66,2.41Z"/><path class="b" d="M105.4,391.9c2.45-.04.39-.07,0,0h0Z"/><path class="b" d="M117.31,394.43c-.52.07-.92.16-.98.31.2-.15.54-.25.98-.31Z"/><path class="b" d="M14.37,361.75c0-.07,0-.13,0-.21-.13.73-.1.6,0,.21Z"/><path class="b" d="M109.08,392.19c-.92-.08-1.98-.14-3.13-.19.51.05,1.46.11,3.13.19Z"/><path class="b" d="M108.59,391.88c.84.02,1.51.04,2.14.06.31-.11.04-.17-2.14-.06Z"/><path class="b" d="M101.98,391.93c1.4-.01,2.71.02,3.97.07-.48-.04-.68-.08-.55-.1-.72,0-1.73.02-3.41.03Z"/><path class="b" d="M400.4,69.15c-.02.16-.04.35-.06.53.27,2.47.22,1.39.06-.53Z"/><path class="b" d="M11.49,174.64c.01.11.02.18.03.28,0-.11.02-.26.02-.36l-.05.08Z"/><path class="b" d="M11.02,165.84c.8,3.75.7,5.88.53,8.72l1.85-2.91-2.38-5.81Z"/><path class="b" d="M212.63,8.23l-6.18-.57c7.46-.95,12.86-.62,7.05-1.43-.87,2-24.02.21-24.88,2.21l-4.07-.42c1.17.02,1.35-.1,2.51-.08-7.92-.96-5.89,1.45-16.1,1.16-3.56-.15-6.04-.44-3.62-.68l-7.93.5c-2.31-.04-1.74-.39.55-.35l-12.09.16.09-.06c-1.73.31-5.63.8-7.54,1.01-3.07-.29,1.54-.21.76-.46l-6.7.49c-2.73-.52,2.82-1.02,7.45-.95-6.25-2-5.56.5-19.05-.66l6.32-.25c-4.08-1.14-9.01-.72-16.16-1.43,1.7.37,14.31,1.79,7.04,2.28-2.05-.15-4.75-.22-8.67.18-.04-.71-3.86-.54-8.65-.5l.33-.94c-5.18.27-4.77.75-7.82,1.18-5.77-.09-6.97-.82-8.33-1.44-9.24-.15,6.38,1.17-4.56,1.35-7.69-.36-13.08.02-22.28.59-5.38-.32.94-.58-.99-.85l-4.77.75c-1.17-.02-.79-.25-.6-.37-4.02.29-.33.94-6.65,1.2-.43.26-1.45.29-2.87.22-.71-.04-1.52-.1-2.4-.18-.44-.04-.9-.08-1.37-.13-.51-.02-1.04-.04-1.59-.06-2.19-.12-4.61.2-6.95.79-2.3.73-4.53,1.72-6.17,3.14-1.96.88.57-1.03-.16-1.01-2.53,1.68-4.02,3.25-5.18,4.46-.6.58-1,1.2-1.42,1.69-.41.51-.77.97-1.06,1.46-.61.96-1.2,1.85-1.76,3.13-.15.31-.3.64-.47.99-.16.36-.28.76-.44,1.18-.15.42-.31.87-.48,1.35-.16.49-.27,1.03-.42,1.61-.61,1.2-.97,2.5-1.42,3.78-.29,1.32-.68,2.64-.8,4,.22-1.49.58-2.09.75-2.09.1,0,.17.16.22.43.04.27.1.67.18,1.16.22,2,.68,5.22,1,8.33.34-1.96.64-3.63.78-4.75l.51,9.85c-.15,1.19-.48.2-.87-1.42.08.67.16,1.31.23,1.8-.35,3.52-.89,1.7-1.42-.83.2-1.2.39-2.39.58-3.55-.57-2.43-1.21-4.71-1.76-4.2.11.64.2,1.87.25,3.23-.16-.64-.29-1.04-.39-.75-.1.33.11,1.36.35,2.97l-1.05,2.24.42.54-.66,12.88c1.06,9.22,2.62,17.23,3.05,31.86-.77-3.63-1.26-.78-2.17-.98.97-3.99-.41-11.33-.21-18.91-.1,3.96-.54,3.09-.69,2.08l.88,13.52c-.75-.3-.56,2.87-.87,6.4,1.48-2.67.98,10.08,1.44,15.58-.5.34-1-.98-.88-7.69-1.11,7.41,1.74,9.57.79,16.84-.01-1.64.06-2.52-.19-3.17.44,3.83.09,13.19-.34,10.99v-1.64c-.19,10.88-.02,33.13,1.23,34.75-.16.11-1.51-1.43-1.77-2.08l4.22,19.42c-1.08-1.71-3.64,4.86-4.25-4.17-.15,2.59-.33,5.8.05,11.26.15-1.77,1.56-4.41,1.66-1.99-1.2,6.63-.64,4.6-1.66,12.77.23-2.65,1.92.29,1.87,4.48-.25-.65-1.67.35-1.84-1.18l1.66,10.42c-.3-2.6-1.41-.46-1.87,1.87.32-1.08-.03,9.01.13,11.79l.38-4.42c-.25,11.77,2.33,11.62,2.25,23.29-.34-1.41-2.11-3.49-2.32,2.45.85,2.72,4.09,12.05,4.74,22.37l-.49,1.98.55,7.92c-1.28-4.93-3.97-18.78-5.01-26.34-.38,4.4-.57,1.23-.53,7.82-.46,2.33-.69-3.59-.72-5.53l-.29,15.35c.99-.68.99,11.74,1.82,11.15l-1.03-16.67c.99-.68,2.81,9.64,2.64,20.52-.39,2.77-1.77-2.07-2.1-1.84.34,1.41.65,10.32.41,11.32l-.53-4.61c-.37,6.06,1.31,9.88.37,17.16-.06,2.51-1.28,7.5-.69,7.93,1.13-4.1,4.63-4.9,5.48-2.17-.08.88-1.08,13.19-1.64,16.06-.89,4.14-2.11-6.21-2.88-2.69.27.15.61,2.44.71,3.39-.23,2.64-.84-1.09-.72,4.64,1.01.96-.08,11.66.85,2.71.29,5.61-.21,5.96-.16,12.54.65-2.1,2.21,5.91,2.5,11.53-.26-.33-.59.93-.74,1.54-.02,2.87-.07,5.41-.12,7.78,0,1.18.01,2.34.1,3.46.15,1.11.22,2.22.51,3.28.12.53.23,1.07.37,1.6.17.52.35,1.04.53,1.57l.27.79.34.77c.23.51.47,1.03.71,1.56,1.12,2.02,2.47,4.1,4.4,6.06.12.24.48.62.88,1.08.41.45.85,1.01,1.29,1.41.85.83,1.38,1.46.32.93.36.2.71.4,1.08.61.39.18.8.36,1.26.58.47.2.95.49,1.55.73.6.25,1.28.55,2.06.91,1.48.78,1.79,1.01,1.45.96-.17-.02-.5-.12-.91-.25-.42-.12-.91-.3-1.4-.54-2-.81-4.03-2.1-2.05-.26.36-.18,2.47.77,5.22,1.48.7.14,1.43.28,2.17.43.73.18,1.51.18,2.26.28.38.03.75.08,1.11.1.37,0,.73,0,1.08,0,.7-.01,1.39,0,1.97-.05-.73-.48-3.53-.5-6.68-1.16-3.16-.6-6.62-1.95-8.77-3.2.36-.57,2.43.21,5.76.96.85.15,1.74.4,2.74.48.49.07,1,.13,1.53.2.53.02,1.08.05,1.64.08.28.02.56.03.85.05.29-.01.58-.02.87-.03.59-.02,1.19-.04,1.8-.06,1.3-.09,2.65-.18,4.05-.25,8.9-.31,3.86.8,5.4.63,16.72.22,14.25-2.17,28.13-1.28,5.51.79.25,1.58,1.47,2.15-7.25.3-11.13-.5-16.05-.47l6.05.38c-2.31.26-7.15.46-9.79.23,4.62.71,28.25.14,41.15.79,2.29-.27,6.25-.54,4.38-.86l-4.08.11c-3.75-.64,7.68-.88,2.52-1.18,5.48-.45,11.61-1.16,19.32-.79l1.45.9c-.16-.26-5.04-.54-7.21-.26,3.21-.4,11.82,1.22,15.34.04l-5.4-.63c5.5-.45,12.29-1.41,19.12-1.13-3.11-.89-1.57.1-6.43-.94,4.21,1.3-17.48-.05-10.72,1.31-4.98-1.21-8.62-.51-15.13-1.55.2.3,2.31.57-3.43.42-.26.09-.87.2-1.26.26-.18-.01-.24-.01-.39-.02.11.01.2.02.32.04-.25.04-.27.05.12.01,1.37.13,2.47.29,2.92.45-2.85.68-11.97.66-15.05,1.02-3.4-.14,1.42-.34-.43-.66l-4.61.53c-.46-.66-9.04-1.1-1.02-1.49l-7.22-.03c-4.25-.37-10.09-.52-13.69-.24-3.4-.14-8.6.73-5.63.21l-11.32.41-.1-.17c-2.79-.02-5.62.04-8.5.12-1.44.04-2.89.09-4.35.13-.64-.01-1.28-.02-1.93-.03-.65.02-1.28-.14-1.93-.19-2.57-.37-5.13-1.22-7.44-2.6-2.31-1.38-4.38-3.28-5.89-5.58-.51-.62-1.06-1.23-1.56-1.92-.45-.72-1.02-1.42-1.42-2.3-.94-1.68-1.67-3.81-2.02-6.49l.41-1.11c-.28-1.8-.08-5.62,0-8.87.09-3.28.14-6.21-.16-7.25,1.54-5.21.34-23.42.61-31.91l-.75-.32c.04-5.84-.17-11.44-.47-18.7l-.66.45c-.54-6.25.47-16.08.4-25.96.25.67.19,3.18.03,4.96,1.49-11.82-1.09-24.93,0-35.64-.24-2.67-.16-4.6,0-6.48,0,.25.01.47.03.66,0-.27,0-.68,0-1.1.11-1.18.23-2.39.35-3.71-.16,1.12-.29,2.19-.35,3.12-.01-2.06-.1-5.18-.26-8.24l.71-1.3c0-.25-.01-.45-.02-.71.26-3-.34-2.42-.87-.81-.12-1.54-.26-2.95-.43-4.05,1.15-2.44-.39-8.03.84-11.36-.6-2.06-.45-15.39-1.7-17.02.16-.1.24-1.01.25.65.14-3.41.29-6.82-.07-9.89l.9-1.45-1.21-7.45c.55-4.53.87-6.4,1.57-1.91-1.07-10.86-.4-8.81-1.46-18.04l.58.45c-.02-3.3-.8-8.58-.32-10.57,1.11-7.38.15-36.53,1.18-55.47-1.72,3.68.77-8.81-.56-9.56.41-1.1.64-3.74.99-.68-.4-9.67.64-14.53-.48-21.21.41-1.11.6,2.07.84,1.08-.09-.78-.35-3.07-.11-4.08.24-.98.34,1.42.52,2.95-.07-9.88-1.32-10.88-2.5-11.6.56-5.01.48-7.5-.29-11.12.38-1.74.79-4.65.93,1.49,0-.43.02-1.08.04-1.9.02-.8.01-1.83.11-2.76.03-.49.07-.99.11-1.52.09-.52.18-1.05.27-1.59.07-.54.21-1.08.36-1.61.16-.53.26-1.08.45-1.6.39-1.03.72-2.06,1.19-2.95.39-.93.87-1.72,1.25-2.43.35-.72.76-1.25.97-1.69.22-.43.32-.72.26-.83.41-.31,1.17-1.12,1.9-1.93.8-.74,1.52-1.55,1.85-1.82,2.87-2.16,4.71-2.91,6.51-3.57.46-.16.9-.34,1.38-.49.49-.13,1-.26,1.56-.4.55-.18,1.18-.25,1.87-.36.35-.06.71-.12,1.1-.18.39-.02.81-.05,1.24-.08-.65-.02-1.31-.06-1.96.02,2.63-1.49,6.11-.46,12.21-.63l-.18.12c14.06.82,6.07-.39,19.95.54l-.76-.71c1.29-1.52,12.29.9,20.35.32l-2.91-.4c4.4-.52,12.29,2.07,16.71,2.26.96.13-1.52.21-2.86.31,11.56.9,1.5-.93,10.12-1.14,1.59.5-2.05,1.27,3.75,1.36,2.89.4,16.82-1.62,24.74-.66-1.74-.39-3.48-.77.53-1.06,6.14-.14,16.59,1.46,22.13.24.78.11,1.07.21,1.11.3,4.69-.31,15.24-.52,18.07-1.18,4.33,2.44,29.15-1.19,29.05,1.07l14.42-.12-.38.23c9.22.15,12.48-.39,15.72-.93,2.13.15.58.36.4.48,13.47.45,14.81.36,26.11-.76l1.17.73c3.06-.42,19.48,1.15,32.69.29-.13.08-.4.22-1.45.33,14.87-.86,35.59,2.03,41.04-.63l9.81-.66c-12.69-.21,1.89-1.16-3.33-1.6,4.99-.16,12.9.8,6.77.94l-.96-.13c-2.25,1.39,15.77.49,15.43,1.44,1.56,0,3.12,0,4.68,0h1.16s1.06.06,1.06.06c.71.04,1.41.05,2.1.2,2.78.39,5.49,1.28,7.93,2.63,4.88,2.72,8.65,7.19,10.52,12.28.94,2.54,1.45,5.23,1.43,7.91l.02.5v.56s-.03,1.13-.03,1.13l-.03,2.25c-.02,1.5-.04,2.99-.06,4.48-.08,5.96-.14,11.87-.15,17.72l1.08-2.7-.06,8.16c-.25,2.14-.84,2.87-.8-2.95-.61,3.06.51,9.76.75,9.93-.44,11.4-1.26-4.45-1.28-.96l.08,4.75.13-1.07c.44,3.85.91,4.19.85,11.19-.22,4.43-.67,2.27-.71,4.01-.08-.01-.11.58-.03,2.67l-.09,10.28.85-4.11c.42,4.56-.04,9.67.92,4.92-1.49,6.96-.53,38.35-1,42.63.62,6.38.61,12.68.54,20.49.18-1.94,1.14-3.1,1.02,3.63-1.98-2.46-.86,12.33-2.28,17.77.94-4.86.23,19.14,1.57,11.51-.16,5.62-.74.34-1.2,4.6.77,13.37-.5,29.46-.24,45.98.26.26.66-2.51,1.04,1.03l-1.3,8.72c.13,3.26,1.5,3,.6,8.97.22-.84.55-2.1.63.09-.63,16.19-.37,32.72-.25,49.32.06,8.3.09,16.62-.05,24.91-.07,4.15-.18,8.29-.35,12.42-.1,2.07-.2,4.13-.3,6.19l-.18,3.09c-.08,1-.22,1.82-.33,2.73.34-1.91.51-2.26.55-1.71.02.27.02.76,0,1.37,0,.61-.17,1.33-.25,2.08.42-1.94.63.14,1.03-.18-.94,4.17-3.16,7.9-5.96,10.87-.1.28-.31.65-.61,1.09-.15.22-.32.45-.51.7-.19.24-.44.46-.68.71-.49.49-1.02,1.04-1.67,1.49-.62.48-1.27.99-1.98,1.38-2.75,1.72-5.74,2.65-6.29,3.21l.97-.29c.32-.11.62-.25.94-.38.61-.27,1.26-.47,1.84-.82-1.1.82-1.24,1.09-.69,1.24.55.17,1.68-.08,3.02-.35,2.61-.65,5.71-2.29,5.81-1.51,1.1-1.38,2.5-2.78,3.89-4.49.35-.43.71-.86,1.08-1.31.33-.47.68-.96,1.02-1.45.17-.25.35-.5.53-.75.16-.27.31-.53.47-.8.31-.54.65-1.09.95-1.67,1.16-2.33,2.04-4.99,2.39-7.81.24-2.94.01-5.49-.42-8.17.29-2.35.46,2,.78.75-.61-2.7-.73-5.96-.46-12l.15.68c-.15-16.97.45-24.25.85-43.31l-.7,1.41c.09-4.1.31-4.96.49-6.88-1.06-4.7-.06,11.51-1.23,7.22,1.42-5.43.02-28.89,1.64-32.56,0-6.3-.81,1.85-.8-4.45l.44-1.67-.56-1.59c.09-4.13.64-6.22,1.01-6.37-.04,1,.1,2.85.14,3.92.51-5.36-.18-15.11,0-16.95l-.27,6.06c-.41-17.2.16-38.2-.72-54.82l-.33,1.26c-.61-12.69.36-10.16.08-24.1l.08.51c-.33-2.79-.49-6.51-.46-10.32.39,3.52.75-6.62,1.18-2-.65-13.76-.51-6.81-1.74-15.89l.55-2.1c-.49-3.1-.76-3.36-.9-10.31.47,5.71.83-4.44,1.45,1.95,1.2-14.6-1.21-21.68.54-28.38-1.51-6.7-.84,12.64-1.16,8.88-.49,3.14-1.13-5.53-.98-10.12.03-4.66,1.94-7.93,1.91-19.66,0,1.17.11,1.25.1,2.41.39-4.39-.52-8.6.1-13.99-.92-3.02.05-6.99-1.11-7.86l.27,10.76c-.31-6.1-1.67-11.82-1.01-21.87.24.78.55,3.77.72,5.83.34-2.94-.23-5.66.13-8.71,1.17.87.25,13.08,1.15,19.62.49-3.15-.85-12.37.42-9.08-1.61-4.72.2-11.56-1.03-19.51l.7.52c-.11-1.26-.44-3.86-.42-6.18l.91,4.19c-.39-3.22-.22-6.32,0-9.38l.16-2.3c.03-.36.03-.81.03-1.25v-1.32c0-.89-.14-1.76-.27-2.64-.07-.44-.14-.88-.23-1.31-.12-.43-.25-.86-.38-1.28.11.45.22.88.32,1.28.06.41.12.8.18,1.16.11.73.2,1.37.26,1.92.04,1.12.05,1.92.03,2.47-.01.57-.07.82-.13.96-.06.14-.12.15-.19.09-.28-.21-.62-1.35-.88,1.38-.1-1.92-.23-3.82-.41-5.29-.11-.75-.21-1.42-.3-2.04-.08-.62-.24-1.16-.33-1.67-.1-.51-.18-.98-.25-1.42-.1-.43-.19-.83-.28-1.21-.18-.75-.24-1.47-.45-2.16-.19-.7-.38-1.42-.64-2.25-.33-.79-.72-1.72-1.31-2.79-1.25-2.08-3.28-4.94-7.56-7.89.57.4,1.39,1,2.18,1.69.75.74,1.53,1.49,2.07,2.17,1.05,1.38,1.42,2.11-.13.64-.6-.76-1.39-1.43-2.13-2.2-.76-.74-1.62-1.39-2.4-2.07-.84-.61-1.65-1.19-2.37-1.7-.75-.47-1.42-.88-1.92-1.22-.77-.39-1.49-.59-2.09-.81-.61-.2-1.11-.39-1.54-.5-.87-.2-1.39-.29-1.66-.32-.54-.05-.07.17.63.46.35.15.75.3,1.11.47.35.19.67.36.85.49.37.26.23.33-1.13-.04-1.03-.48-1.96-.83-2.85-1.03-.91-.15-1.77-.2-2.67-.22-.9.04-1.84.16-2.9.24-.99.12-2.05.26-3.35.32l-.04-.71c-13.47-.46-3.57,1.48-15.7.93l5.13-.99-6.32.26,1.3-.81c-6.88.6-9.02.45-15.76.22,1.57.5-.88,1.29-6.85,1.31-4.07-.42,2.28-.68-6.18-.57,1.91-.45,4-1,7.68-.35.38-.23,1.88-.45,2.27-.68-4.38-.49-11.01-.11-14.07-.1,1.18.03,2.59.06,3.31.17l-12.26.99c-1.93-.27-.4-.48,1.12-.69-2.48.08-4.2.4-7.85.47.94-.58.72-1.18,5.89-1.45l-11.68.64c-.78-.25-5.99-.69-4.48-.9-6.48-.34-15.88,1.12-24.47.67-.45.11-1.34.22-3.17.3-8.07-.13-15.22-.84-24.78-.05l-5.43-1.04c-7.49.24,7.34,1.31-5.13,1.7-8.83.33-3.3-.88-6.39-1.17-4.39.52-12.02,1.59-20.13.74,2.68-.2,4.79-.04,7.3-.12ZM120.27,8.69c1.79-.15,5.36-.61,6.67-.19-2.04.82-3.62.42-6.67.19ZM12.95,57.69c-.24-1.33-.12-3.39.15-5.71.06,1.69.03,3.59-.15,5.71ZM78.54,392.47c-.08.01-.13.02-.19.03-3.99-.28-2.58-.17.19-.03ZM86.83,392.78c.83-.1.78-.2.42-.3-.58.18-2.44.19-4.56.14.59.19,1.66.31,4.14.16ZM395.61,95.32l.19-1.61c.21,3.64.02,2.62-.19,1.61Z"/><path class="b" d="M11.98,41.77c.12-.51.25-.65.39-.77-.12-.7-.26-.72-.39.77Z"/><path class="b" d="M270.08,7.85h.28c.15-.03.24-.08.28-.12l-.56.12Z"/><path class="b" d="M11.56,328.7c.1-1.71.23-2.66.37-3.29-.17-.09-.32.68-.37,3.29Z"/><path class="b" d="M130.76,391.57l-5.31.19c2.57-.04,3.49.12,4.78.23-.12-.17-1.13-.41.53-.42Z"/><path class="b" d="M176.85,395.98c.78-.09,1.65,0,2.41-.1l-.21-.33c-3.31.02-5.62.29-2.2.43Z"/><path class="b" d="M135.68,393.94c.42.6,3.75.4,7.47.28h-.66c1.1-.84-2.87-.56-6.81-.28Z"/><path class="b" d="M144.01,394.2c1.15-.03,2.32-.04,3.44-.02.44-.34-1.39-.07-3.44.02Z"/><path class="b" d="M97.34,392.39c1.76.15,1.11-.77,2.1-.52,1.97-.76-11.76.92-2.1.52Z"/><polygon class="b" points="138.69 395.91 137.35 395.17 135.27 395.77 138.69 395.91"/><path class="b" d="M109.32,395.37l5.94.2c-.09-.12.67-.2,1.59-.25-3.66-.02-7.68-.17-7.54.05Z"/><path class="b" d="M116.85,395.32c1.91.01,3.72,0,4.78-.12-1.03,0-3.25.03-4.78.12Z"/><polygon class="b" points="130.56 396.13 128.81 395.98 124.61 395.92 130.56 396.13"/><path class="b" d="M45.42,395.23l-3.24.11-1.62.05-1.59-.02c-.67.2,1.07.53,3.49.38,1.55-.18,3.96-.27,2.96-.52Z"/><path class="b" d="M65.04,397.25c-1.75-.15-1.87-.32-2.86-.56l-.2.92,3.06-.35Z"/><path class="b" d="M46.12,397.46c-.65.25-9.41.73-1.19.67.66-.25,7.16-.46,1.19-.67Z"/><polygon class="b" points="14.07 318.67 14.09 320.32 15.59 320.08 14.07 318.67"/><path class="b" d="M10.48,232.52c-.36,7.69.93,1.83.48,8.77.35,1.8.37-5.68.67-3.83-.37-4.64-.16-7.08-1.15-4.94Z"/><path class="b" d="M11.63,237.46c.06.74.13,1.53.23,2.37-.09-1.34-.17-1.98-.23-2.37Z"/><path class="b" d="M383.67,389.28c-1.28.62-2.6,1.12-3.96,1.47l1.37-.23c.45-.1.89-.24,1.35-.36.43-.27.86-.54,1.25-.88Z"/><path class="b" d="M376.2,393.09c-.4-.26-.78-.53-1.15-.79-.82.38-1.68.67-2.57,1.03.5-.05,1.24-.12,1.95-.15.71-.01,1.37-.15,1.77-.08Z"/><path class="b" d="M106.53,6.76l-.38.23c.77.25,1.92.27,4.24.31l-3.86-.54Z"/><polygon class="b" points="173.57 7.47 172.42 7.46 174.58 8.32 173.57 7.47"/><path class="b" d="M229.84,6.37c-2.3-.04-5,.16-7.3.12,5.01-.16,7.92.96,7.3-.12Z"/><path class="c" d="M206.46,395.81L49.2,194.54c-20.21-25.86-27.33-59.84-19.04-90.89,6.27-23.49,19.75-42.12,40.07-55.36,2.96-1.93,6.22-3.63,9.67-5.04,18.93-7.74,82.5-26.38,126.58,47.8,44.08-74.18,107.64-55.54,126.58-47.8,3.45,1.41,6.7,3.11,9.67,5.04,20.32,13.24,33.8,31.86,40.07,55.34,8.29,31.06,1.17,65.05-19.05,90.92l-157.26,201.26ZM119.1,45.49c-15.72,0-28.7,4.27-35.42,7.02-2.87,1.17-5.56,2.57-7.99,4.16-18.19,11.85-30.25,28.52-35.87,49.56-7.48,28.04-1.03,58.76,17.26,82.16l149.39,191.19,149.38-191.18c18.29-23.41,24.75-54.14,17.26-82.18-5.61-21.03-17.68-37.7-35.86-49.54-2.44-1.59-5.12-2.99-7.99-4.16-17.6-7.2-78.17-24.81-118.37,51.1l-4.42,8.34-4.42-8.34c-24.85-46.93-57.49-58.12-82.95-58.12Z"/><path class="c" d="M206.46,322.38c-60.57,0-109.84-49.28-109.84-109.84s49.28-109.84,109.84-109.84,109.84,49.28,109.84,109.84-49.28,109.84-109.84,109.84ZM206.46,112.69c-55.05,0-99.84,44.79-99.84,99.84s44.79,99.84,99.84,99.84,99.84-44.79,99.84-99.84-44.79-99.84-99.84-99.84Z"/></svg>