<?xml version="1.0" encoding="UTF-8"?><svg id="a" xmlns="http://www.w3.org/2000/svg" width="1920" height="1080" viewBox="0 0 1920 1080"><defs><style>.c{fill:#f2cb9b;stroke-width:0px;}.d{fill:none;stroke:#f2cb9b;stroke-miterlimit:10;stroke-width:14px;}</style></defs><path class="c" d="M621.07,564.14c0-1.05,0-1.62.03-1.71-.23.26-.77,3-1.63,8.21-.86,5.21-1.35,8.04-1.46,8.5s-.29,1.08-.54,1.87c-.51,1.64-.78,2.91-.82,3.79,1.6.43,2.94.65,3.99.65s1.81-.06,2.27-.17c-.06-.7-.25-2.78-.57-6.26-.85-8.87-1.27-13.83-1.27-14.88Z"/><path class="c" d="M700.51,556.51l-.31,11.84c0,1.19.02,2.08.06,2.66.64-.62,1.26-1.37,1.87-2.24l.85-5.01c0-2-.26-3.68-.79-5.04-.53-1.36-1.09-2.1-1.67-2.21Z"/><path class="c" d="M759.05,515.69c-.06-.7-.25-2.78-.57-6.26-.85-8.87-1.27-13.83-1.27-14.88s0-1.62.03-1.71c-.23.26-.77,3-1.63,8.21-.86,5.21-1.35,8.04-1.46,8.5s-.29,1.08-.54,1.87c-.51,1.64-.78,2.91-.82,3.79,1.6.43,2.94.65,3.99.65s1.81-.06,2.27-.17Z"/><path class="c" d="M683.94,556.63c.02,2.04.11,5.1.27,9.18.16,4.08.24,7.14.24,9.18,2.93-2.78,4.39-6.05,4.39-9.83v-.03c0-2.79-.51-4.72-1.53-5.78-.64-.66-1.77-1.57-3.37-2.72Z"/><path class="c" d="M889.75,497.66l-143.81-143.8c-23.38-23.38-61.29-23.38-84.67,0l-143.8,143.8c-23.39,23.39-23.39,61.3,0,84.68l143.8,143.8c23.38,23.39,61.29,23.39,84.67,0l143.81-143.8c23.38-23.38,23.38-61.29,0-84.68ZM732.74,485.57c.92-.33,2.05-.57,3.39-.72,2.33-.27,4.28-.4,5.87-.4.47,0,.9.16,1.28.47.39.31.58.7.58,1.17s-.16.85-.5,1.12c-.34.28-.76.41-1.25.41l-2.07-.11c-.26,0-.46.01-.59.03.26,2.23.39,4.61.39,7.14l-.11,7.47c0,3.53.3,6.5.91,8.89v.03c-.27,1.23-.4,2.7-.4,4.42l.48,10.42c0,1.89-.56,2.83-1.67,2.83-.64,0-1.11-.3-1.42-.9-.3-.61-.45-1.28-.45-2.01l.45-9.26c0-2-.13-5.02-.39-9.04-.27-4.02-.4-7.03-.4-9.03l.09-5.07c0-2.78-.18-4.58-.54-5.41l-3.15.31c-.49,0-.93-.14-1.31-.44-.39-.29-.58-.67-.58-1.13s.46-.86,1.39-1.19ZM582.3,524.52c0,1.18-.34,2.13-1.02,2.87-1.12,1.26-2.89,1.89-5.33,1.89-1.3,0-2.58-.44-3.85-1.31-1.26-.88-2.23-2.02-2.89-3.42-.66-1.39-1.18-4.99-1.55-10.79-.38-5.79-.57-10.26-.57-13.39s.13-5.38.4-6.74c-.12-.63-.17-1.23-.17-1.82,0-2.37.88-4.27,2.66-5.67,1.77-1.41,3.96-2.11,6.57-2.11.92,0,1.83.26,2.72.78.88.52,1.33,1.2,1.33,2.05,0,.41-.16.74-.48.96-.32.23-.77.34-1.35.34s-1-.23-1.29-.71v.12h-.9v-.23c-2.99,0-4.86,1.27-5.61,3.8-.38,1.24-.57,2.88-.57,4.92l.17,4-.51,4.05c0,1.96.26,5.56.78,10.79.52,5.23,1.03,8.2,1.52,8.92.87,1.26,2.2,1.89,3.99,1.89s3.16-.55,4.11-1.67c.66,0,1.27-.09,1.84-.28v.76ZM600.59,518.18v.26c-.24,1.07-.37,2.23-.37,3.48s-.21,2.45-.63,3.61c-.43,1.16-1.08,2.19-1.96,3.09-.87.89-1.83,1.34-2.87,1.34s-1.99-.36-2.85-1.07c-.86-.72-1.57-1.64-2.12-2.77-.56-1.12-1.05-2.46-1.49-4.02-.43-1.55-.76-3.07-.99-4.56-.23-1.48-.42-3.04-.57-4.68-.2-2.51-.31-4.58-.31-6.19s.03-2.94.09-3.98c.07-1.91.16-3.6.25-5.08.1-1.49.15-2.62.17-3.42.02-.79.04-1.46.06-2.01.02-.54.07-1.22.17-2.02.09-.8.21-1.49.34-2.06.13-.56.33-1.16.61-1.78.27-.62.6-1.13.97-1.53.87-.89,1.85-1.33,2.92-1.33s1.94.1,2.58.31c.64.21,1.18.48,1.63.81.44.33.85.76,1.21,1.3.37.54.67,1.06.91,1.57.24.51.45,1.13.64,1.84.24.91.49,2.2.73,3.88.93,6.61,1.39,12.5,1.39,17.68l-.51,7.33ZM609.26,528.46c-.96,0-1.62-.32-1.96-.96-.34-.64-.51-1.51-.51-2.61l.2-9.68-.2-22.46c0-2.51.03-5.01.09-7.51l1.61-.9c1.08.11,2.28,3.51,3.6,10.19,1.06,5.29,1.92,10.16,2.59,14.62.67,4.45,1.04,6.85,1.09,7.19,2.61-14.82,4.21-25.14,4.82-30.95v-.34c.09-.51.34-.91.75-1.21.4-.29.81-.44,1.21-.44s.72.08.93.23c.45.32.67.74.67,1.25,0,4.58.13,11.46.37,20.61.25,9.16.37,16.03.37,20.62,0,1.15-.39,2.06-1.16,2.72-.42.28-.67.34-.76.17-.78.21-1.21.05-1.31-.48-.04-.23-.05-.51-.05-.85l.02-.94c-.07-2.94-.11-5.24-.11-6.91s.02-3.95.04-6.88c.03-2.92.03-8.48-.01-16.65-.21,1.21-.65,3.49-1.32,6.84-.67,3.35-1.13,5.79-1.37,7.31-.25,1.52-.44,2.78-.6,3.8-.15,1.02-.29,1.94-.43,2.74-.15.8-.32,1.62-.53,2.45-.43,1.75-1.06,2.63-1.87,2.63-1.21,0-1.81-1.8-1.81-5.41-.23-1.85-.85-5.55-1.87-11.11-1.02-5.56-1.7-9.38-2.04-11.46-.04,3.59-.06,6.28-.06,8.07l.49,24.13c0,.83-.3,1.56-.88,2.18ZM622.65,549.04c0,.32-.14.59-.42.81-.28.21-.55.32-.81.32s-.57-.06-.96-.17c-.39-.11-.84-.26-1.36-.45-.52-.19-.99-.37-1.42-.53-.42-.16-.89-.34-1.4-.55s-.82-.33-.93-.37c-.42.04-.75.06-.99.06-1.68,0-2.52-.58-2.52-1.76,0-.96.26-1.6.79-1.92,1.3,0,2.12.08,2.46.25.34.17.57.3.7.37.12.08.56.24,1.31.48.76.25,1.38.47,1.86.65.48.19,1.04.44,1.68.74,1.34.62,2.01,1.31,2.01,2.07ZM624.86,597.92c-1.26,0-1.89-.5-1.89-1.5v-7.56c-.55-.38-1.53-.7-2.94-.97-1.4-.26-2.65-.43-3.75-.51-.47.8-.83,2.42-1.09,4.86-.25,2.45-.66,4.13-1.23,5.06-1.87,0-2.9-.39-3.09-1.16.87-1.27,2.64-9.33,5.3-24.19,1.04-5.87,1.66-9.28,1.87-10.22,1.04-4.99,2.16-7.48,3.37-7.48.72,0,1.29.17,1.73.51v-.11c.75,5.41,1.54,12.47,2.37,21.15.83,8.69,1.25,15.41,1.25,20.17,0,1.3-.63,1.95-1.9,1.95ZM637.81,516.65c-.23-1.85-.85-5.55-1.87-11.11-1.02-5.56-1.7-9.38-2.04-11.46-.04,3.59-.06,6.28-.06,8.07l.48,24.13c0,.83-.29,1.56-.88,2.18-.96,0-1.61-.32-1.95-.96-.34-.64-.51-1.51-.51-2.61l.2-9.68-.2-22.46c0-2.51.03-5.01.09-7.51l1.61-.9c1.08.11,2.27,3.51,3.6,10.19,1.05,5.29,1.92,10.16,2.59,14.62.67,4.45,1.03,6.85,1.09,7.19,2.6-14.82,4.21-25.14,4.81-30.95v-.34c.1-.51.35-.91.75-1.21.41-.29.81-.44,1.22-.44s.71.08.92.23c.45.32.68.74.68,1.25,0,4.58.12,11.46.37,20.61.24,9.16.37,16.03.37,20.62,0,1.15-.39,2.06-1.16,2.72-.42.28-.67.34-.77.17-.77.21-1.21.05-1.3-.48-.04-.23-.06-.51-.06-.85l.03-.94c-.08-2.94-.11-5.24-.11-6.91s.01-3.95.04-6.88c.03-2.92.02-8.48-.01-16.65-.21,1.21-.65,3.49-1.32,6.84-.67,3.35-1.13,5.79-1.38,7.31-.24,1.52-.44,2.78-.59,3.8-.15,1.02-.3,1.94-.44,2.74-.14.8-.32,1.62-.52,2.45-.44,1.75-1.06,2.63-1.87,2.63-1.21,0-1.81-1.8-1.81-5.41ZM649.33,597.57c-.28.33-.57.49-.88.49s-.65-.07-1.04-.2c-.33.08-.69.12-1.11.12l-1.87-.09c-.39.47-.89.71-1.48.71s-1.1-.19-1.51-.55c-.4-.37-.6-.8-.6-1.29l.36-2.55c0-4.4-.19-10.99-.58-19.78-.38-8.79-.58-15.38-.58-19.78,0-.36.14-.65.43-.87.28-.21.63-.32,1.06-.32s.81.16,1.16.48c.35.32.52.72.52,1.19l.6,20.87c0,.68-.04,1.29-.11,1.84v.26c.05,1.11.14,2.7.25,4.75.28,4.59.43,8.05.43,10.37v1.84h4.13c.64.38,1.01.65,1.1.82.1.17.15.41.15.72s-.15.64-.43.97ZM660.91,555.89l-.11.4c0,.89-.24,1.94-.72,3.17-.48,1.23-1.15,2.32-2,3.27-.85.95-1.69,1.43-2.52,1.43h-1.73v-2.01c.16-.15.53-.47,1.14-.96,1.26-1,1.96-1.86,2.09-2.58-1.11-.81-1.67-1.67-1.67-2.58s.3-1.59.89-2.06c.6-.48,1.25-.71,1.96-.71s1.26.22,1.66.65c.39.43.73,1.04,1.01,1.81v.17ZM664.91,526.93c-.27.53-.71.94-1.35,1.22-.63.28-1.18.44-1.65.48-.48.04-1.1.06-1.87.06h-1.82c-1.47,0-2.37-.29-2.71-.85-.16-.27-.23-.62-.23-1.05v-41.86l5.01-.51c.59,0,1.18.18,1.77.53.6.35.89.8.89,1.37,0,1.15-.87,1.73-2.63,1.73l-1.67-.06c-.28,0-.49.01-.62.03l.45,9.57c0,.78-.05,1.9-.14,3.39-.1,1.48-.14,2.56-.14,3.24.2-.04.49-.1.85-.2.79-.21,1.41-.31,1.85-.31s.84.16,1.19.48c.35.32.52.71.52,1.16s-.14.86-.42,1.22c-.28.36-.65.54-1.11.54l-1.44-.06c-.45,0-.79.14-1.02.43v17.89c1.98-.11,3-.17,3.06-.17,2.15,0,3.23.51,3.23,1.53v.2ZM676.43,596.47c-.26.53-.71.94-1.34,1.22-.63.29-1.19.45-1.66.48-.47.04-1.09.06-1.87.06h-1.81c-1.47,0-2.38-.28-2.72-.85-.15-.26-.22-.61-.22-1.05v-41.85l5.01-.51c.58,0,1.17.17,1.77.52.59.35.89.81.89,1.37,0,1.16-.88,1.73-2.63,1.73l-1.67-.06c-.29,0-.5.01-.63.03l.46,9.58c0,.77-.05,1.9-.15,3.38-.09,1.48-.14,2.56-.14,3.24.21-.04.49-.1.85-.2.79-.2,1.41-.31,1.86-.31s.84.16,1.19.48c.35.33.52.71.52,1.16s-.14.86-.42,1.22c-.29.36-.66.54-1.11.54l-1.44-.06c-.46,0-.8.15-1.02.43v17.9c1.98-.12,3-.17,3.06-.17,2.15,0,3.22.51,3.22,1.53v.19ZM677.26,544.9c-1.25.51-2.6,1.26-4.04,2.26-1.44.99-2.63,1.96-3.55,2.93-1.31,0-1.96-.51-1.96-1.53v-.06c.04-.75,1.76-2.34,5.16-4.76,1.34-.94,2.15-1.55,2.43-1.81,1.47,0,2.21.53,2.21,1.59,0,.02-.08.48-.25,1.38ZM680.26,526.76c-.21-1.38-.93-4.26-2.15-8.66-2.38-8.46-3.9-14.83-4.56-19.12-.04-.13-.07-.31-.08-.54,0-.22-.02-.41-.04-.56-.02-.42-.12-.76-.31-1.02.02-.8-.15-1.81-.49-3.05-.35-1.23-.55-1.98-.59-2.22v36.7h-2.03v-1.07c.07-.29.06-.88-.03-1.79-.1-.91-.14-1.98-.14-3.23s-.13-4.11-.37-8.61c-.25-4.49-.37-7.24-.37-8.24v-7.39l.4-10.65c0-1.43.1-2.24.31-2.41.49-.37,1-.56,1.53-.56s.93.07,1.21.22c.67.36,1,.86,1,1.51s.07,1.28.22,1.91c.15.63.37,1.34.65,2.12.29.79.48,1.38.6,1.8.11.42.21.9.3,1.44.08.55.14,1.04.18,1.48.13,1.45.3,2.71.5,3.76.19,1.06.58,2.63,1.14,4.72.57,2.09,1.11,3.93,1.62,5.54,1.28,4.11,2.01,7.8,2.18,11.07.3.56.49,1.25.56,2.07l.17-20.22v-17.17c.23-.96.87-1.44,1.92-1.44s1.57.75,1.57,2.26v.34c-.25.51-.37,1.08-.37,1.7l-.23,21.44v17.73c0,.93-.38,1.6-1.13,2.01-.4.21-.81.31-1.23.31s-.75-.06-.97-.2c-.21-.13-.38-.29-.49-.48s-.21-.42-.3-.7c-.08-.29-.14-.55-.18-.8ZM690,572.39c-1.23,2.31-3.03,4.11-5.41,5.39l.45,18.07c0,1.61-.64,2.41-1.92,2.41-.47,0-.82-.2-1.05-.61-.23-.41-.34-.85-.34-1.34l.28-20.71c0-9.17-.49-16.07-1.47-20.7.6-.87,1.34-1.3,2.21-1.3,1.43,0,2.74.32,3.92.96,1.18.64,2.14,1.49,2.88,2.55,1.53,2.23,2.29,4.75,2.29,7.58s-.61,5.39-1.84,7.7ZM692.58,524.55c-.66-1.39-1.18-4.99-1.56-10.79-.38-5.79-.57-10.26-.57-13.39s.13-5.38.4-6.74c-.11-.63-.17-1.23-.17-1.82,0-2.37.89-4.27,2.66-5.67,1.78-1.41,3.97-2.11,6.57-2.11.93,0,1.83.26,2.72.78.89.52,1.33,1.2,1.33,2.05,0,.41-.16.74-.48.96-.32.23-.77.34-1.35.34s-1-.23-1.28-.71v.12h-.91v-.23c-2.98,0-4.85,1.27-5.61,3.8-.38,1.24-.56,2.88-.56,4.92l.17,4-.51,4.05c0,1.96.26,5.56.78,10.79.51,5.23,1.02,8.2,1.51,8.92.87,1.26,2.2,1.89,3.99,1.89s3.17-.55,4.11-1.67c.66,0,1.27-.09,1.84-.28v.76c0,1.18-.34,2.13-1.02,2.87-1.11,1.26-2.89,1.89-5.32,1.89-1.31,0-2.59-.44-3.85-1.31-1.27-.88-2.23-2.02-2.89-3.42ZM709.4,596.64c0,1.27-.46,1.9-1.39,1.9-.72,0-1.41-.52-2.09-1.56v-.19c-.1-1.55-.58-3.68-1.43-6.38-.86-2.7-1.4-4.52-1.6-5.46-.21-.95-.55-2.72-1.01-5.34-.46-2.61-.86-4.61-1.2-5.99v22.85c0,1.23-.64,1.85-1.9,1.85-.45,0-.84-.16-1.16-.47s-.48-.7-.48-1.15v-.45l.39-34.01v-7.14c0-.45.1-.77.29-.96.18-.19.73-.29,1.64-.29s1.83.3,2.77.89c.95.6,1.7,1.37,2.27,2.31,1.17,1.95,1.76,4.09,1.76,6.43,0,1.89-.48,4.05-1.42,6.49-.11.26-.34.82-.68,1.67-.34.85-.54,1.35-.59,1.5.01,1.51.26,3.39.75,5.65.48,2.26.93,4.08,1.34,5.46.42,1.39,1.11,3.56,2.08,6.5.97,2.95,1.53,4.63,1.66,5.05v.84ZM710.84,527.84c-.15-.27-.22-.62-.22-1.05v-41.86l5.01-.51c.58,0,1.17.18,1.77.53.59.35.89.8.89,1.37,0,1.15-.88,1.73-2.63,1.73l-1.67-.06c-.29,0-.49.01-.63.03l.46,9.57c0,.78-.05,1.9-.14,3.39-.1,1.48-.15,2.56-.15,3.24.21-.04.49-.1.85-.2.8-.21,1.41-.31,1.86-.31s.84.16,1.19.48c.35.32.52.71.52,1.16s-.14.86-.42,1.22c-.29.36-.65.54-1.11.54l-1.44-.06c-.45,0-.79.14-1.02.43v17.89c1.98-.11,3-.17,3.06-.17,2.15,0,3.23.51,3.23,1.53v.2c-.27.53-.72.94-1.35,1.22-.63.28-1.18.44-1.66.48-.47.04-1.09.06-1.87.06h-1.81c-1.47,0-2.38-.29-2.72-.85ZM724.01,596.53c-.26.53-.71.94-1.34,1.22-.64.28-1.19.44-1.66.48-.47.04-1.09.06-1.87.06h-1.81c-1.47,0-2.38-.29-2.72-.85-.15-.27-.23-.62-.23-1.05v-41.86l5.02-.51c.58,0,1.17.18,1.77.53.59.35.89.8.89,1.37,0,1.15-.88,1.73-2.64,1.73l-1.67-.06c-.28,0-.49.01-.62.03l.45,9.57c0,.78-.04,1.9-.14,3.39-.09,1.48-.14,2.56-.14,3.24.21-.04.49-.1.85-.2.79-.21,1.41-.31,1.86-.31s.83.16,1.18.48c.35.32.53.71.53,1.16s-.14.86-.43,1.22c-.28.36-.65.54-1.1.54l-1.45-.06c-.45,0-.79.14-1.01.43v17.89c1.98-.11,3-.17,3.05-.17,2.16,0,3.23.51,3.23,1.53v.2ZM744.01,585.8l-.15.62.03,3.37c0,3.4-.48,5.81-1.44,7.22-.91,1.32-2.31,1.99-4.22,1.99-2.32,0-4.09-.84-5.3-2.53-1.05-1.43-1.83-3.36-2.32-5.77-.62-2.91-1.12-4.97-1.5-6.18-.04-.09-.25-4.41-.64-12.97-.38-8.55-.58-13.3-.58-14.24-.28-.32-.42-.72-.42-1.19s.16-.89.49-1.25c.33-.36.73-.54,1.18-.54,1.4,0,2.09,1.38,2.09,4.14l.54,20.16c.23.51.42,1.54.58,3.09.16,1.55.24,2.75.24,3.61s.14,1.92.41,3.17c.28,1.26.65,2.53,1.12,3.81.47,1.29,1.11,2.38,1.91,3.29.81.9,1.66,1.36,2.57,1.36,1.47,0,2.24-1.33,2.32-4,.02-.34.03-.74.03-1.21v-26.03c0-1.1-.21-2.75-.63-4.97-.41-2.22-.62-3.72-.62-4.5s.2-1.33.58-1.62c.39-.29.83-.44,1.32-.44l1.76,1.36v.96l-.51,3.55c0,2.24.14,5.53.42,9.86.28,4.34.43,7.55.45,9.65v.08l.12,1.7.17,3.57v.88ZM747.01,526.54c.87-1.27,2.63-9.33,5.29-24.19,1.04-5.87,1.67-9.28,1.87-10.22,1.04-4.99,2.17-7.48,3.37-7.48.72,0,1.3.17,1.73.51v-.11c.76,5.42,1.55,12.47,2.38,21.15.83,8.69,1.25,15.41,1.25,20.17,0,1.3-.64,1.95-1.9,1.95s-1.9-.5-1.9-1.5v-7.56c-.55-.38-1.52-.7-2.93-.97-1.41-.26-2.66-.43-3.75-.51-.47.8-.84,2.42-1.09,4.86-.26,2.45-.67,4.13-1.23,5.06-1.87,0-2.9-.39-3.09-1.16ZM761.71,569.97c-1.12,8.46-1.78,13.99-2,16.59-.22,2.61-.33,4.38-.34,5.33-.01.94-.03,1.77-.07,2.48-.04.7-.11,1.43-.23,2.16-.24,1.59-.82,2.38-1.72,2.38-.55,0-1.01-.21-1.36-.62-.89-3.68-2.21-11.05-3.97-22.11-1.75-11.05-2.99-18.17-3.71-21.36.23-.76.79-1.14,1.7-1.14.43,0,.73.1.89.3.16.2.28.35.36.47.07.11.14.28.19.49.06.22.1.39.13.51.03.13.06.31.09.56.03.24.13.93.32,2.08.19,1.14.62,3.93,1.28,8.37,1.39,9.62,2.6,16.92,3.62,21.89.25-2.19.72-5.68,1.42-10.45,1.41-9.92,2.12-17.66,2.12-23.23.61-.77,1.31-1.16,2.13-1.16h1.21c-.26,2.51-.95,8-2.06,16.46ZM778.42,596.53c-.27.53-.72.94-1.35,1.22-.63.28-1.19.44-1.66.48-.47.04-1.09.06-1.87.06h-1.81c-1.47,0-2.38-.29-2.72-.85-.15-.27-.22-.62-.22-1.05v-41.86l5.01-.51c.58,0,1.17.18,1.77.53.59.35.89.8.89,1.37,0,1.15-.88,1.73-2.63,1.73l-1.67-.06c-.29,0-.49.01-.63.03l.46,9.57c0,.78-.05,1.9-.14,3.39-.1,1.48-.15,2.56-.15,3.24.21-.04.49-.1.85-.2.8-.21,1.41-.31,1.86-.31s.84.16,1.19.48c.35.32.52.71.52,1.16s-.14.86-.42,1.22c-.29.36-.65.54-1.11.54l-1.44-.06c-.45,0-.79.14-1.02.43v17.89c1.98-.11,3-.17,3.06-.17,2.15,0,3.23.51,3.23,1.53v.2ZM788.75,510.44c-.24,1.52-.44,2.78-.59,3.8-.15,1.02-.3,1.94-.44,2.74-.14.8-.32,1.62-.52,2.45-.44,1.75-1.06,2.63-1.87,2.63-1.21,0-1.82-1.8-1.82-5.41-.22-1.85-.85-5.55-1.87-11.11-1.01-5.56-1.69-9.38-2.03-11.46-.04,3.59-.06,6.28-.06,8.07l.48,24.13c0,.83-.29,1.56-.88,2.18-.96,0-1.61-.32-1.95-.96-.34-.64-.51-1.51-.51-2.61l.2-9.68-.2-22.46c0-2.51.03-5.01.08-7.51l1.62-.9c1.07.11,2.27,3.51,3.59,10.19,1.06,5.29,1.92,10.16,2.59,14.62.68,4.45,1.04,6.85,1.1,7.19,2.6-14.82,4.21-25.14,4.81-30.95v-.34c.09-.51.34-.91.75-1.21.41-.29.81-.44,1.22-.44s.71.08.92.23c.45.32.68.74.68,1.25,0,4.58.12,11.46.37,20.61.24,9.16.37,16.03.37,20.62,0,1.15-.39,2.06-1.17,2.72-.41.28-.67.34-.76.17-.78.21-1.21.05-1.3-.48-.04-.23-.06-.51-.06-.85l.03-.94c-.08-2.94-.12-5.24-.12-6.91s.02-3.95.05-6.88c.02-2.92.02-8.48-.02-16.65-.21,1.21-.64,3.49-1.31,6.84-.67,3.35-1.13,5.79-1.38,7.31ZM792.38,599.42v-.4c-.95-.24-1.68-.91-2.21-2.01,0-.66.23-1.26.71-1.8.47-.53,1.05-.8,1.75-.8s1.26.27,1.69.82c.42.55.63,1.21.63,1.98,0,1.36-.86,2.1-2.57,2.21ZM794.66,568.72c-.48,6.16-.73,10.77-.73,13.85l-.11,3.2c0,2.4-.3,3.6-.9,3.6s-.91-1.69-.91-5.07l-.03-9.6-.48-19.03c0-.61.25-1.13.76-1.58.51-.44,1.02-.66,1.53-.66s.9.14,1.18.41c.27.27.41.61.41,1,0,3.1-.24,7.73-.72,13.88ZM809.81,527.4c-.29.27-.71.41-1.23.41h-7.28c-1.12,0-1.67-.44-1.67-1.33s.58-1.33,1.75-1.33l1.79.03c.19,0,.28-.97.28-2.89s-.18-5.87-.54-11.83c-.36-5.95-.54-10.42-.54-13.41l.12-5.91c0-1.25-.05-2.33-.14-3.23-.51.17-.97.25-1.36.25-.91,0-1.36-.46-1.36-1.39,0-.47.29-.88.88-1.23.58-.35,1.31-.6,2.18-.75,1.62-.28,2.82-.42,3.61-.42s1.34.15,1.68.46c.34.32.51.68.51,1.11s-.13.79-.38,1.1c-.26.31-.58.47-.98.47l-1.02-.03c-.38,0-.65.08-.83.24s-.27.48-.27.95c0,3.78.24,9.43.73,16.97.5,7.53.74,13.18.74,16.96v2.49l1.19-.03c1.57,0,2.35.32,2.35.97.15.64.08,1.1-.21,1.37ZM825.47,522.34c-.33,1.25-.8,2.43-1.42,3.53-.61,1.1-1.44,2.01-2.49,2.7-1.05.7-2.02,1.05-2.93,1.05s-1.67-.04-2.29-.14c-.63-.09-1.25-.3-1.87-.62-.63-.32-.94-.72-.94-1.19,0-1.04.44-1.56,1.31-1.56.43,0,1,.15,1.71.44.71.29,1.32.44,1.84.44s1.08-.33,1.68-.99c.61-.66,1.08-1.48,1.42-2.47.7-1.98,1.05-3.78,1.05-5.41s-.28-3.36-.85-5.21-1.26-3.58-2.08-5.21c-.82-1.62-1.64-3.24-2.45-4.87-1.95-3.89-2.92-7.42-2.92-10.59s.95-5.39,2.86-7.11c1.02-.91,2.22-1.36,3.6-1.36.7,0,1.38.2,2.04.58.66.39,1.12.89,1.38,1.52v1.24c-1.62,0-2.7-.18-3.25-.56-.72.07-1.34.41-1.87,1.02-.96,1.13-1.45,2.44-1.45,3.92s.22,3.01.66,4.59c.43,1.57.95,3.06,1.55,4.44.61,1.39,1.22,2.68,1.83,3.87.61,1.19,1.14,2.16,1.57,2.92.44.75.65,1.15.65,1.19v.45c.13.49.36,1.26.68,2.32s.58,1.9.77,2.52c.47,1.7.71,3.24.71,4.62s-.17,2.69-.5,3.93ZM840.92,526.93c-.27.53-.71.94-1.35,1.22-.63.28-1.18.44-1.65.48-.48.04-1.1.06-1.87.06h-1.82c-1.47,0-2.37-.29-2.71-.85-.16-.27-.23-.62-.23-1.05v-41.86l5.01-.51c.59,0,1.18.18,1.77.53.6.35.89.8.89,1.37,0,1.15-.87,1.73-2.63,1.73l-1.67-.06c-.28,0-.49.01-.62.03l.45,9.57c0,.78-.05,1.9-.14,3.39-.1,1.48-.14,2.56-.14,3.24.2-.04.49-.1.85-.2.79-.21,1.41-.31,1.85-.31s.84.16,1.19.48c.35.32.52.71.52,1.16s-.14.86-.42,1.22c-.28.36-.65.54-1.11.54l-1.44-.06c-.45,0-.79.14-1.02.43v17.89c1.98-.11,3-.17,3.06-.17,2.15,0,3.23.51,3.23,1.53v.2Z"/><path class="c" d="M598.37,504.51c-.05-1.37-.13-2.65-.24-3.85-.11-1.2-.25-2.52-.42-3.98-.17-1.45-.4-2.75-.69-3.88-.29-1.13-.63-2.19-1.01-3.19-.38-.99-.85-1.76-1.4-2.29-.56-.54-1.1-.81-1.61-.81s-.94.13-1.26.4c-.32.26-.59.66-.82,1.19-.23.53-.43,1.09-.62,1.69-.19.59-.34,1.32-.47,2.18-.12.86-.23,1.64-.33,2.34-.09.7-.17,1.53-.23,2.49s-.1,1.75-.14,2.35c-.04.6-.06,1.33-.07,2.18,0,.85-.01,1.42-.01,1.7v1.19c0,3.12.29,6.68.88,10.71,1.17,7.91,2.82,11.87,4.96,11.87.75,0,1.4-.72,1.93-2.17.53-1.44.9-3.25,1.1-5.42.38-3.68.57-6.35.57-8s0-2.84-.01-3.55c0-.72-.04-1.76-.08-3.13Z"/><path class="d" d="M889.75,582.34l-143.81,143.8c-23.38,23.39-61.29,23.39-84.67,0l-143.8-143.8c-23.39-23.38-23.39-61.29,0-84.68l143.8-143.8c23.38-23.38,61.29-23.38,84.67,0l143.81,143.8c23.38,23.39,23.38,61.3,0,84.68Z"/></svg>