<?xml version="1.0" encoding="UTF-8"?><svg id="a" xmlns="http://www.w3.org/2000/svg" width="1920" height="1080" viewBox="0 0 1920 1080"><defs><style>.c{fill:#f2cb9b;stroke-width:0px;}</style></defs><path class="c" d="M592,500.05l-.51,4.05c0,1.96.26,5.56.78,10.79.52,5.23,1.02,8.2,1.52,8.92.87,1.27,2.2,1.9,3.99,1.9s3.16-.56,4.11-1.67c.66,0,1.27-.09,1.84-.28v.76c0,1.17-.34,2.12-1.02,2.86-1.11,1.26-2.89,1.9-5.32,1.9-1.3,0-2.59-.44-3.85-1.32-1.27-.88-2.23-2.02-2.89-3.41-.66-1.4-1.18-4.99-1.56-10.79-.38-5.8-.57-10.26-.57-13.4s.13-5.38.4-6.74c-.11-.62-.17-1.23-.17-1.81,0-2.38.89-4.27,2.66-5.68,1.77-1.41,3.96-2.11,6.57-2.11.92,0,1.83.26,2.72.78.89.52,1.33,1.2,1.33,2.05,0,.42-.16.74-.48.96-.32.23-.77.34-1.35.34s-1-.24-1.29-.71v.11h-.91v-.23c-2.98,0-4.85,1.27-5.61,3.79-.38,1.25-.57,2.89-.57,4.93l.17,3.99Z"/><path class="c" d="M622.53,510.84l-.51,7.33v.25c-.25,1.08-.37,2.24-.37,3.48s-.21,2.45-.64,3.61-1.08,2.19-1.95,3.09-1.84,1.35-2.87,1.35-1.99-.36-2.85-1.08-1.57-1.64-2.12-2.76c-.56-1.12-1.05-2.46-1.49-4.02-.43-1.56-.76-3.08-.99-4.56-.23-1.48-.42-3.04-.57-4.69-.21-2.51-.31-4.57-.31-6.19s.03-2.94.08-3.98c.08-1.91.16-3.6.25-5.08.09-1.48.15-2.62.17-3.41.02-.79.04-1.46.06-2.01.02-.55.08-1.22.17-2.02.09-.8.21-1.49.34-2.05.13-.57.33-1.16.61-1.78s.6-1.13.98-1.53c.87-.89,1.84-1.33,2.92-1.33s1.93.1,2.58.31c.64.21,1.18.48,1.63.81.44.33.85.76,1.22,1.3s.67,1.06.91,1.57.45,1.12.64,1.84c.25.91.49,2.2.74,3.88.92,6.61,1.39,12.5,1.39,17.67ZM617.44,489.62c-.38-.99-.85-1.76-1.4-2.29s-1.09-.81-1.61-.81-.94.13-1.26.4c-.32.26-.59.66-.82,1.19-.23.53-.43,1.09-.62,1.69-.19.59-.34,1.32-.47,2.18-.12.86-.23,1.64-.33,2.34-.09.7-.17,1.53-.23,2.49s-.1,1.75-.14,2.35c-.04.6-.06,1.33-.07,2.18s-.01,1.42-.01,1.7v1.19c0,3.12.29,6.68.88,10.71,1.17,7.91,2.82,11.87,4.96,11.87.75,0,1.4-.72,1.93-2.17.53-1.44.9-3.25,1.1-5.42.38-3.68.57-6.35.57-8s0-2.84-.01-3.55c0-.72-.04-1.76-.08-3.13-.05-1.37-.13-2.65-.24-3.85-.11-1.2-.25-2.52-.42-3.98-.17-1.45-.4-2.75-.69-3.88s-.63-2.19-1-3.19Z"/><path class="c" d="M637.2,516.34c2.61-14.82,4.21-25.14,4.81-30.95v-.34c.09-.51.34-.91.75-1.2.41-.29.81-.44,1.22-.44s.71.08.92.23c.45.32.68.74.68,1.25,0,4.59.12,11.46.37,20.62.25,9.16.37,16.03.37,20.62,0,1.15-.39,2.06-1.16,2.72-.42.28-.67.34-.76.17-.77.21-1.21.05-1.3-.48-.04-.23-.06-.51-.06-.85l.03-.93c-.08-2.95-.11-5.25-.11-6.91s.01-3.96.04-6.88c.03-2.93.02-8.48-.01-16.65-.21,1.21-.65,3.49-1.32,6.84-.67,3.35-1.13,5.79-1.37,7.31-.25,1.52-.44,2.79-.59,3.81-.15,1.02-.3,1.93-.44,2.73-.14.8-.32,1.62-.52,2.45-.43,1.76-1.06,2.63-1.87,2.63-1.21,0-1.81-1.8-1.81-5.41-.23-1.85-.85-5.56-1.87-11.12-1.02-5.56-1.7-9.38-2.04-11.46-.04,3.59-.06,6.28-.06,8.07l.48,24.13c0,.83-.29,1.56-.88,2.18-.96,0-1.61-.32-1.95-.96-.34-.64-.51-1.51-.51-2.61l.2-9.69-.2-22.46c0-2.51.03-5.01.08-7.5l1.61-.91c1.08.11,2.27,3.51,3.6,10.2,1.06,5.29,1.92,10.16,2.59,14.61.67,4.46,1.03,6.85,1.09,7.19Z"/><path class="c" d="M661.39,516.34c2.61-14.82,4.21-25.14,4.81-30.95v-.34c.09-.51.34-.91.75-1.2.41-.29.81-.44,1.22-.44s.71.08.92.23c.45.32.68.74.68,1.25,0,4.59.12,11.46.37,20.62.25,9.16.37,16.03.37,20.62,0,1.15-.39,2.06-1.16,2.72-.42.28-.67.34-.76.17-.77.21-1.21.05-1.3-.48-.04-.23-.06-.51-.06-.85l.03-.93c-.08-2.95-.11-5.25-.11-6.91s.01-3.96.04-6.88c.03-2.93.02-8.48-.01-16.65-.21,1.21-.65,3.49-1.32,6.84-.67,3.35-1.13,5.79-1.37,7.31-.25,1.52-.44,2.79-.59,3.81-.15,1.02-.3,1.93-.44,2.73-.14.8-.32,1.62-.52,2.45-.43,1.76-1.06,2.63-1.87,2.63-1.21,0-1.81-1.8-1.81-5.41-.23-1.85-.85-5.56-1.87-11.12-1.02-5.56-1.7-9.38-2.04-11.46-.04,3.59-.06,6.28-.06,8.07l.48,24.13c0,.83-.29,1.56-.88,2.18-.96,0-1.61-.32-1.95-.96-.34-.64-.51-1.51-.51-2.61l.2-9.69-.2-22.46c0-2.51.03-5.01.08-7.5l1.61-.91c1.08.11,2.27,3.51,3.6,10.2,1.06,5.29,1.92,10.16,2.59,14.61.67,4.46,1.03,6.85,1.09,7.19Z"/><path class="c" d="M682.52,507.1l-1.44-.06c-.45,0-.79.14-1.02.42v17.9c1.98-.11,3-.17,3.06-.17,2.15,0,3.23.51,3.23,1.53v.2c-.26.53-.71.93-1.35,1.22s-1.18.44-1.66.48c-.47.04-1.1.06-1.87.06h-1.81c-1.47,0-2.38-.28-2.72-.85-.15-.26-.23-.61-.23-1.05v-41.86l5.01-.51c.58,0,1.17.17,1.77.52.59.35.89.81.89,1.37,0,1.15-.88,1.73-2.63,1.73l-1.67-.06c-.28,0-.49,0-.62.03l.45,9.57c0,.77-.05,1.9-.14,3.38-.09,1.48-.14,2.56-.14,3.24.21-.04.49-.1.85-.2.79-.21,1.41-.31,1.85-.31s.84.16,1.19.48c.35.32.52.71.52,1.16s-.14.86-.42,1.22c-.28.36-.65.54-1.1.54Z"/><path class="c" d="M706.22,487.45l-.23,21.44v17.73c0,.93-.38,1.6-1.13,2.01-.4.21-.81.31-1.23.31s-.75-.07-.96-.2c-.22-.13-.38-.29-.5-.48s-.21-.42-.3-.71-.15-.55-.18-.79c-.21-1.38-.93-4.27-2.15-8.67-2.38-8.46-3.9-14.83-4.56-19.12-.04-.13-.06-.31-.07-.54s-.02-.42-.04-.57c-.02-.42-.12-.75-.31-1.02.02-.79-.15-1.81-.5-3.04-.35-1.24-.54-1.98-.58-2.22v36.7h-2.04v-1.08c.08-.28.07-.88-.03-1.78-.09-.91-.14-1.98-.14-3.23s-.12-4.12-.37-8.61c-.25-4.49-.37-7.24-.37-8.24v-7.39l.4-10.65c0-1.43.1-2.24.31-2.41.49-.38,1-.57,1.53-.57s.93.08,1.22.23c.66.36.99.86.99,1.5s.08,1.28.23,1.91c.15.63.37,1.34.65,2.12.28.78.48,1.38.59,1.8.11.42.21.9.3,1.44.08.55.15,1.04.18,1.47.13,1.45.3,2.71.5,3.77.2,1.06.58,2.63,1.15,4.72.57,2.09,1.1,3.93,1.61,5.54,1.28,4.12,2.01,7.81,2.18,11.07.3.57.49,1.26.57,2.07l.17-20.22v-17.16c.23-.96.86-1.44,1.91-1.44s1.57.76,1.57,2.27v.34c-.25.51-.37,1.08-.37,1.7Z"/><path class="c" d="M715.37,500.05l-.51,4.05c0,1.96.26,5.56.78,10.79.52,5.23,1.02,8.2,1.52,8.92.87,1.27,2.2,1.9,3.99,1.9s3.16-.56,4.11-1.67c.66,0,1.27-.09,1.84-.28v.76c0,1.17-.34,2.12-1.02,2.86-1.11,1.26-2.89,1.9-5.32,1.9-1.3,0-2.59-.44-3.85-1.32-1.27-.88-2.23-2.02-2.89-3.41-.66-1.4-1.18-4.99-1.56-10.79-.38-5.8-.57-10.26-.57-13.4s.13-5.38.4-6.74c-.11-.62-.17-1.23-.17-1.81,0-2.38.89-4.27,2.66-5.68,1.77-1.41,3.96-2.11,6.57-2.11.92,0,1.83.26,2.72.78.89.52,1.33,1.2,1.33,2.05,0,.42-.16.74-.48.96-.32.23-.77.34-1.35.34s-1-.24-1.29-.71v.11h-.91v-.23c-2.98,0-4.85,1.27-5.61,3.79-.38,1.25-.57,2.89-.57,4.93l.17,3.99Z"/><path class="c" d="M737.85,507.1l-1.44-.06c-.45,0-.79.14-1.02.42v17.9c1.98-.11,3-.17,3.06-.17,2.15,0,3.23.51,3.23,1.53v.2c-.26.53-.71.93-1.35,1.22s-1.18.44-1.66.48c-.47.04-1.1.06-1.87.06h-1.81c-1.47,0-2.38-.28-2.72-.85-.15-.26-.23-.61-.23-1.05v-41.86l5.01-.51c.58,0,1.17.17,1.77.52.59.35.89.81.89,1.37,0,1.15-.88,1.73-2.63,1.73l-1.67-.06c-.28,0-.49,0-.62.03l.45,9.57c0,.77-.05,1.9-.14,3.38-.09,1.48-.14,2.56-.14,3.24.21-.04.49-.1.85-.2.79-.21,1.41-.31,1.85-.31s.84.16,1.19.48c.35.32.52.71.52,1.16s-.14.86-.42,1.22c-.28.36-.65.54-1.1.54Z"/><path class="c" d="M761.27,494.67l-.11,7.48c0,3.53.3,6.5.91,8.89v.03c-.26,1.23-.4,2.7-.4,4.42l.48,10.42c0,1.89-.56,2.83-1.67,2.83-.64,0-1.11-.3-1.42-.91-.3-.6-.45-1.27-.45-2.01l.45-9.26c0-2-.13-5.01-.4-9.03-.26-4.02-.4-7.03-.4-9.03l.08-5.07c0-2.78-.18-4.58-.54-5.41l-3.14.31c-.49,0-.93-.15-1.32-.44-.39-.29-.58-.67-.58-1.13s.46-.86,1.39-1.19c.92-.33,2.06-.57,3.4-.72,2.32-.26,4.28-.4,5.86-.4.47,0,.9.16,1.29.47s.58.7.58,1.18-.17.85-.51,1.12c-.34.27-.76.41-1.25.41l-2.07-.11c-.26,0-.46,0-.59.03.26,2.23.4,4.61.4,7.14Z"/><path class="c" d="M783.79,510.84l-.51,7.33v.25c-.25,1.08-.37,2.24-.37,3.48s-.21,2.45-.64,3.61c-.43,1.16-1.08,2.19-1.96,3.09-.88.9-1.84,1.35-2.87,1.35s-1.99-.36-2.85-1.08c-.86-.72-1.57-1.64-2.12-2.76-.56-1.12-1.05-2.46-1.49-4.02-.44-1.56-.77-3.08-.99-4.56-.23-1.48-.42-3.04-.57-4.69-.21-2.51-.31-4.57-.31-6.19s.03-2.94.08-3.98c.08-1.91.16-3.6.26-5.08.09-1.48.15-2.62.17-3.41.02-.79.04-1.46.06-2.01.02-.55.07-1.22.17-2.02.09-.8.21-1.49.34-2.05.13-.57.33-1.16.61-1.78.28-.62.6-1.13.98-1.53.87-.89,1.84-1.33,2.92-1.33s1.94.1,2.58.31c.64.21,1.18.48,1.63.81.45.33.85.76,1.22,1.3.37.54.67,1.06.91,1.57s.45,1.12.64,1.84c.25.91.49,2.2.74,3.88.93,6.61,1.39,12.5,1.39,17.67ZM778.69,489.62c-.38-.99-.85-1.76-1.4-2.29s-1.1-.81-1.62-.81-.94.13-1.26.4c-.32.26-.59.66-.82,1.19-.23.53-.44,1.09-.62,1.69-.19.59-.35,1.32-.47,2.18-.12.86-.23,1.64-.32,2.34-.1.7-.17,1.53-.23,2.49s-.1,1.75-.14,2.35c-.04.6-.06,1.33-.07,2.18s-.01,1.42-.01,1.7v1.19c0,3.12.29,6.68.88,10.71,1.17,7.91,2.82,11.87,4.96,11.87.75,0,1.4-.72,1.93-2.17.53-1.44.9-3.25,1.1-5.42.38-3.68.57-6.35.57-8s0-2.84-.01-3.55c0-.72-.04-1.76-.09-3.13-.05-1.37-.13-2.65-.24-3.85-.11-1.2-.25-2.52-.42-3.98-.17-1.45-.4-2.75-.7-3.88-.29-1.13-.63-2.19-1-3.19Z"/><path class="c" d="M804.8,487.45l-.23,21.44v17.73c0,.93-.38,1.6-1.13,2.01-.4.21-.81.31-1.23.31s-.75-.07-.96-.2c-.22-.13-.38-.29-.5-.48s-.21-.42-.3-.71c-.09-.28-.15-.55-.18-.79-.21-1.38-.92-4.27-2.15-8.67-2.38-8.46-3.9-14.83-4.56-19.12-.04-.13-.06-.31-.07-.54,0-.23-.02-.42-.04-.57-.02-.42-.12-.75-.31-1.02.02-.79-.15-1.81-.5-3.04-.35-1.24-.54-1.98-.58-2.22v36.7h-2.04v-1.08c.08-.28.07-.88-.03-1.78s-.14-1.98-.14-3.23-.12-4.12-.37-8.61c-.25-4.49-.37-7.24-.37-8.24v-7.39l.4-10.65c0-1.43.1-2.24.31-2.41.49-.38,1-.57,1.53-.57s.93.08,1.22.23c.66.36.99.86.99,1.5s.08,1.28.23,1.91c.15.63.37,1.34.65,2.12.28.78.48,1.38.59,1.8.11.42.21.9.3,1.44.09.55.15,1.04.18,1.47.13,1.45.3,2.71.5,3.77.2,1.06.58,2.63,1.15,4.72.57,2.09,1.1,3.93,1.61,5.54,1.28,4.12,2.01,7.81,2.18,11.07.3.57.49,1.26.57,2.07l.17-20.22v-17.16c.23-.96.86-1.44,1.91-1.44s1.57.76,1.57,2.27v.34c-.25.51-.37,1.08-.37,1.7Z"/><path class="c" d="M630.62,554.64c.75,5.42,1.55,12.47,2.38,21.16s1.25,15.41,1.25,20.16c0,1.3-.63,1.95-1.9,1.95s-1.9-.5-1.9-1.5v-7.56c-.55-.38-1.52-.7-2.93-.96-1.41-.26-2.66-.43-3.75-.51-.47.79-.83,2.41-1.09,4.86-.25,2.45-.67,4.13-1.23,5.06-1.87,0-2.9-.39-3.09-1.16.87-1.26,2.63-9.33,5.3-24.19,1.04-5.87,1.66-9.28,1.87-10.22,1.04-4.98,2.16-7.48,3.37-7.48.72,0,1.29.17,1.73.51v-.11ZM630.39,585.29c-.06-.7-.25-2.79-.57-6.26-.85-8.87-1.27-13.83-1.27-14.88s0-1.62.03-1.71c-.23.26-.77,3-1.63,8.21-.86,5.21-1.35,8.04-1.46,8.5s-.29,1.08-.54,1.87c-.51,1.64-.78,2.91-.82,3.79,1.6.43,2.94.65,3.99.65s1.81-.06,2.27-.17Z"/><path class="c" d="M652.51,553.51h1.22c-.26,2.51-.95,8-2.07,16.45s-1.78,13.99-2,16.6c-.22,2.61-.33,4.38-.34,5.32,0,.94-.03,1.77-.07,2.48s-.11,1.43-.23,2.17c-.25,1.59-.82,2.38-1.73,2.38-.55,0-1-.21-1.36-.62-.89-3.68-2.21-11.05-3.96-22.1-1.76-11.05-2.99-18.18-3.71-21.37.23-.75.79-1.13,1.7-1.13.43,0,.73.1.89.3.16.2.28.35.35.47s.14.28.2.5c.06.22.1.39.13.51.03.12.06.31.08.55s.14.94.33,2.08c.19,1.14.61,3.93,1.27,8.37,1.4,9.63,2.61,16.93,3.62,21.89.25-2.19.72-5.67,1.42-10.45,1.42-9.91,2.12-17.65,2.12-23.22.6-.77,1.31-1.16,2.12-1.16Z"/><path class="c" d="M664.55,576.71l-1.44-.06c-.45,0-.79.14-1.02.42v17.9c1.98-.11,3-.17,3.06-.17,2.15,0,3.23.51,3.23,1.53v.2c-.26.53-.71.93-1.34,1.22-.63.28-1.19.44-1.66.48-.47.04-1.09.06-1.87.06h-1.81c-1.47,0-2.38-.28-2.72-.85-.15-.26-.23-.61-.23-1.05v-41.86l5.01-.51c.58,0,1.18.17,1.77.52.59.35.89.81.89,1.37,0,1.15-.88,1.73-2.63,1.73l-1.67-.06c-.28,0-.49,0-.62.03l.45,9.57c0,.77-.05,1.9-.14,3.38-.09,1.48-.14,2.56-.14,3.24.21-.04.49-.1.85-.2.79-.21,1.41-.31,1.86-.31s.84.16,1.19.48c.35.32.52.71.52,1.16s-.14.86-.42,1.22-.65.54-1.1.54Z"/><path class="c" d="M688.25,557.05l-.23,21.44v17.73c0,.92-.38,1.6-1.13,2.01-.4.21-.81.31-1.23.31s-.75-.07-.96-.2c-.22-.13-.38-.29-.5-.48s-.21-.42-.3-.71-.15-.55-.18-.79c-.21-1.38-.92-4.27-2.15-8.67-2.38-8.46-3.9-14.83-4.56-19.12-.04-.13-.06-.31-.07-.54,0-.23-.02-.42-.04-.57-.02-.42-.12-.75-.31-1.02.02-.79-.15-1.81-.5-3.04-.35-1.24-.54-1.98-.58-2.22v36.7h-2.04v-1.08c.08-.28.07-.88-.03-1.78s-.14-1.98-.14-3.23-.12-4.12-.37-8.61-.37-7.24-.37-8.24v-7.39l.4-10.65c0-1.43.1-2.24.31-2.41.49-.38,1-.57,1.53-.57s.93.08,1.22.23c.66.36.99.86.99,1.5s.08,1.28.23,1.91c.15.63.37,1.34.65,2.12.28.78.48,1.38.59,1.8s.21.9.3,1.44.15,1.04.18,1.47c.13,1.45.3,2.71.5,3.77s.58,2.63,1.15,4.71c.57,2.09,1.1,3.93,1.61,5.54,1.28,4.12,2.01,7.81,2.18,11.07.3.57.49,1.26.57,2.07l.17-20.22v-17.16c.23-.96.86-1.44,1.91-1.44s1.57.75,1.57,2.27v.34c-.25.51-.37,1.08-.37,1.7Z"/><path class="c" d="M701.39,564.27l-.11,7.48c0,3.53.3,6.5.91,8.89v.03c-.26,1.23-.4,2.7-.4,4.42l.48,10.42c0,1.89-.56,2.83-1.67,2.83-.64,0-1.11-.3-1.42-.91-.3-.6-.45-1.27-.45-2.01l.45-9.26c0-2-.13-5.01-.4-9.03s-.4-7.03-.4-9.03l.08-5.07c0-2.78-.18-4.58-.54-5.41l-3.14.31c-.49,0-.93-.15-1.32-.44-.39-.29-.58-.67-.58-1.13s.46-.86,1.39-1.19c.92-.33,2.06-.57,3.4-.72,2.32-.26,4.28-.4,5.86-.4.47,0,.9.16,1.29.47.39.31.58.7.58,1.18s-.17.84-.51,1.12c-.34.27-.75.41-1.25.41l-2.07-.11c-.26,0-.46,0-.59.03.26,2.23.4,4.61.4,7.14Z"/><path class="c" d="M725.21,581.35l.17,3.57v.88l-.14.62.03,3.37c0,3.4-.48,5.81-1.44,7.22-.91,1.32-2.31,1.98-4.22,1.98-2.32,0-4.09-.84-5.3-2.52-1.06-1.43-1.83-3.36-2.32-5.78-.62-2.91-1.12-4.97-1.5-6.17-.04-.09-.25-4.42-.64-12.97-.39-8.55-.58-13.3-.58-14.25-.28-.32-.42-.72-.42-1.19s.17-.89.5-1.25c.33-.36.72-.54,1.17-.54,1.4,0,2.1,1.38,2.1,4.13l.54,20.16c.23.51.42,1.54.58,3.09.16,1.55.24,2.75.24,3.61s.14,1.92.41,3.17c.27,1.26.65,2.53,1.12,3.81s1.11,2.38,1.91,3.29c.8.91,1.66,1.36,2.56,1.36,1.47,0,2.25-1.33,2.32-3.99.02-.34.03-.75.03-1.22v-26.03c0-1.09-.21-2.75-.62-4.97-.42-2.22-.62-3.72-.62-4.5s.19-1.32.58-1.61c.39-.29.83-.44,1.32-.44l1.76,1.36v.96l-.51,3.54c0,2.25.14,5.54.42,9.87s.43,7.55.45,9.64v.08l.11,1.7Z"/><path class="c" d="M743.39,596.64c0,1.26-.46,1.9-1.39,1.9-.72,0-1.42-.52-2.1-1.56v-.2c-.09-1.55-.57-3.67-1.43-6.37-.86-2.7-1.39-4.52-1.6-5.47s-.54-2.72-1-5.34c-.46-2.61-.86-4.61-1.2-5.99v22.85c0,1.23-.63,1.84-1.9,1.84-.45,0-.84-.16-1.16-.47s-.48-.69-.48-1.15v-.45l.4-34.01v-7.14c0-.45.09-.77.28-.96s.74-.28,1.64-.28,1.83.3,2.78.89,1.7,1.36,2.27,2.31c1.17,1.94,1.76,4.09,1.76,6.43,0,1.89-.47,4.05-1.42,6.49-.11.26-.34.82-.68,1.67s-.54,1.35-.59,1.5c.02,1.51.27,3.39.75,5.65.48,2.26.93,4.08,1.34,5.47s1.11,3.55,2.08,6.5c.97,2.95,1.52,4.63,1.66,5.04v.85ZM734.5,556.51l-.31,11.84c0,1.19.02,2.08.06,2.66.64-.62,1.26-1.37,1.87-2.24l.85-5.01c0-2-.26-3.68-.79-5.04s-1.09-2.1-1.67-2.21Z"/><path class="c" d="M754.18,576.71l-1.44-.06c-.45,0-.79.14-1.02.42v17.9c1.98-.11,3-.17,3.06-.17,2.15,0,3.23.51,3.23,1.53v.2c-.26.53-.71.93-1.34,1.22-.63.28-1.19.44-1.66.48-.47.04-1.09.06-1.87.06h-1.81c-1.47,0-2.38-.28-2.72-.85-.15-.26-.23-.61-.23-1.05v-41.86l5.01-.51c.58,0,1.18.17,1.77.52.59.35.89.81.89,1.37,0,1.15-.88,1.73-2.63,1.73l-1.67-.06c-.28,0-.49,0-.62.03l.45,9.57c0,.77-.05,1.9-.14,3.38-.09,1.48-.14,2.56-.14,3.24.21-.04.49-.1.85-.2.79-.21,1.41-.31,1.86-.31s.84.16,1.19.48c.35.32.52.71.52,1.16s-.14.86-.42,1.22-.65.54-1.1.54Z"/><path class="c" d="M771.97,599.02c-.94-.25-1.68-.92-2.21-2.01,0-.66.24-1.26.71-1.8s1.06-.81,1.76-.81,1.26.27,1.68.82c.43.55.64,1.21.64,1.98,0,1.36-.86,2.1-2.58,2.21v-.4ZM773.52,582.57l-.11,3.2c0,2.4-.3,3.6-.91,3.6s-.91-1.69-.91-5.07l-.03-9.6-.48-19.03c0-.6.25-1.13.76-1.57.51-.44,1.02-.67,1.53-.67s.9.14,1.18.41c.27.27.41.61.41,1.01,0,3.1-.24,7.72-.72,13.88-.48,6.16-.72,10.77-.72,13.85Z"/><path class="c" d="M697.14,750.68c-17.86,0-34.66-6.96-47.29-19.59l-143.81-143.81c-26.07-26.07-26.07-68.5,0-94.57l143.81-143.81c12.63-12.63,29.42-19.59,47.29-19.59s34.66,6.96,47.29,19.59l143.81,143.81c26.07,26.07,26.07,68.5,0,94.57l-143.81,143.81c-12.63,12.63-29.42,19.59-47.29,19.59ZM697.14,343.32c-14.12,0-27.4,5.5-37.39,15.49l-143.81,143.81c-20.62,20.62-20.62,54.16,0,74.77l143.81,143.81c9.99,9.99,23.26,15.49,37.39,15.49s27.4-5.5,37.39-15.49l143.81-143.81c20.62-20.62,20.62-54.16,0-74.77l-143.81-143.81c-9.99-9.99-23.26-15.49-37.39-15.49Z"/></svg>