<?xml version="1.0" encoding="UTF-8"?><svg id="a" xmlns="http://www.w3.org/2000/svg" width="412.51" height="412.51" viewBox="0 0 412.51 412.51"><defs><style>.b{fill:#110f8a;stroke-width:0px;}</style></defs><path class="b" d="M401.1,148.61v115.6c0,.15,0,.3-.01.45-.1,4.09-1.59,7.9-4.09,11.12-.88,1.14-1.88,2.2-3,3.17-.99.86-2.06,1.66-3.21,2.38-4.36,2.72-9.79,4.34-15.68,4.34H43.08c-5.89,0-11.32-1.62-15.67-4.34-1.15-.72-2.22-1.51-3.21-2.38-1.11-.97-2.12-2.03-2.99-3.16-2.51-3.22-4-7.03-4.1-11.12-.01-.15-.01-.31-.01-.45v-115.6c0-1.58.21-3.12.61-4.61,2.54-9.63,12.94-16.84,25.37-16.84h332.03c12.43,0,22.83,7.21,25.38,16.84.4,1.49.61,3.03.61,4.61Z"/><path class="b" d="M397.51,149.68c.05-1.35-.56-.87-.67-1.07.14,2.26.84,1.01.67,1.07Z"/><polygon class="b" points="398.91 171.96 398.66 171.57 399.28 174.85 398.91 171.96"/><path class="b" d="M398.9,192.79c1.05-1.97-.17-7.55.2-11.26l.24-.61-.85-1.67c.13,4.51.7,10.37.4,13.55Z"/><path class="b" d="M396.62,203.9c.41-.69.35,2.4.13-2.59-.04.25-.07.32-.1.47,0,.45,0,1.07-.02,2.12Z"/><path class="b" d="M396.65,201.78c-.03-2.19-.34,1.44,0,0h0Z"/><path class="b" d="M396.88,211.91l-.37-2.89c-.24.6-.3,3.18-.47,2.22.2,2.96.44,2.35.84.67Z"/><path class="b" d="M397.65,214.65l-.15-1.5c-.1.26-.14.66.15,1.5Z"/><path class="b" d="M397.17,209.98l.33,3.18c.17-.42.51-.46-.12-1.46.31.26.01-.37-.21-1.72Z"/><path class="b" d="M397.33,208.18c.23-1.62.37-3.72.74-.81-.14-5.53-.89-4.71-.74.81Z"/><path class="b" d="M399.99,193.86l.31-2.17-.35-1.87c.18.94-.29,4.18.04,4.04Z"/><path class="b" d="M396.34,229.92c.22.18.6-.97.88-1.19l-.26-2.13c-.15,1.1-.29,3.18-.63,3.32Z"/><path class="b" d="M397.22,228.73l.38,3.19c.05-2.85-.14-3.37-.38-3.19Z"/><polygon class="b" points="398.82 215.17 398.01 209.92 398.83 216.18 398.82 215.17"/><polygon class="b" points="396.31 242.12 395.79 240.3 396.57 243.53 396.31 242.12"/><path class="b" d="M396.4,250.21c-.43-1.34-.73,1.84-.99.42.08,2.2.45,4.07.78,5.76-.19-1.8-.14-3.71.21-6.18Z"/><path class="b" d="M396.67,259.23c-.1-.9-.29-1.83-.48-2.84.1.95.24,1.89.48,2.84Z"/><path class="b" d="M397.5,237.36c-.14.25-.49.72-.64,2.51l.63-1.26c0-.38,0-.82,0-1.26Z"/><path class="b" d="M397.51,238.58l-.02.04c-.02,1.36-.03,2.31-.04,2.71,0-.35.02-1.18.06-2.76Z"/><path class="b" d="M397.5,237.05c0,.12,0,.2,0,.32.06-.12.08-.19,0-.32Z"/><path class="b" d="M398.25,223.54c.35,1.88.73,5.79,1.27,2-.43-1.35-.74.82-1.27-2Z"/><path class="b" d="M398.29,235.49l.14-3.39c-.17.07-.41.68-.58-.25l.44,3.64Z"/><polygon class="b" points="398.49 237.15 398.29 235.49 398.23 236.75 398.49 237.15"/><path class="b" d="M397.26,253.42c.27,1.47.3,3.07.34,4.88.12-1.94.19-3.95.19-5.85-.2-.27-.55-1.11-.53.97Z"/><path class="b" d="M397.43,246.21c.01.1.03.23.04.33.05-.2.07-.36-.04-.33Z"/><path class="b" d="M394.21,273.99c.09-.06.17-.11.26-.16-.02-.03-.04-.06-.06-.1l-.2.26Z"/><path class="b" d="M397.91,252.12c.12-1.46-.03-2.33-.23-3.16.06,1.09.1,2.25.11,3.49.09.12.15.14.12-.33Z"/><path class="b" d="M396.96,264.2c.13-.76.24-1.62.35-2.53-.2.74-.51,2.26-.35,2.53Z"/><path class="b" d="M397.3,247.02c0-.07-.02-.14-.03-.22-.14.48-.07.42.03.22Z"/><path class="b" d="M397.3,247.02c.09.75.25,1.34.38,1.93-.05-.89-.12-1.71-.21-2.43-.04.18-.11.36-.17.49Z"/><path class="b" d="M393.46,280.03c-.09-.27.64-1.13,1.61-2.28.97-1.15,2.2-2.6,3.35-3.96.66-1.56.17-1.99-.64-1.77-.83.21-2.07.99-3.3,1.81.08.09.17.16.04.55-.15.38-.48,1.09-1.52,2.34.55-.3,1.94-1.55,2.87-2.57.93-1,1.56-1.67,1.07-.37-1.1,1.92-1.85,2.57-2.37,2.98-.55.4-.94.54-1.88,1.19.97-.43.12.72-1.03,1.89-1.12,1.17-2.59,2.28-1.8,2.39,1.25-.82,2.4-1.73,3.43-2.71.19.05-.89,1.19.18.53Z"/><path class="b" d="M397.1,268.74c.09-.39.18-.79.23-1.19-.41,1.32-.94,2.24-2.16,3.7-.69,1.85-.86,2.27-.75,2.48,1.24-1.67,2.17-3.5,2.71-5.42,0,.14-.02.28-.03.42Z"/><path class="b" d="M397.7,261.88c.32.54.54,1.64.78,2.34.11.28.22.52.35.58.13.05.29-.13.47-.56-.04-4.04-.53-2.83-.81-5.25.16,6.53-.35-1.88-.71,2.84-.11-1.28-.14-2.44-.17-3.53-.08,1.18-.17,2.31-.29,3.38.02-.06.03-.1.04-.15v-.03s0,0,0,0c.08-.28.13-.37.08-.06,0,.02.01.1.01.14.09.04.17.17.24.3-.13,1.89-.17.3-.24-.3-.03-.02-.06-.07-.09-.08,0,0,0,.02,0,.02l.16,3.15c.02,1.03-.03,1.91-.18,2.87.18-.58.31-1.26.37-2.12.02-.21.02-.47.03-.72,0-.29,0-.41,0-.76-.01-.62-.03-1.3-.04-2.07Z"/><path class="b" d="M400.88,229.04c-.06.2-.1.19-.15.21.08.42.13.58.15-.21Z"/><path class="b" d="M400.5,231.73c-.09-.48-.34-.87-.28-2.42.19-1.34.3,0,.51-.06-.17-.93-.46-3.26-.76-.34l.09.46c-.22,2.63-1.01,6.02-1.1,5.56.57-.77.98-1.45,1.54-3.2Z"/><path class="b" d="M399.26,246.99l.31,5.45.55-2.78-.33.14c.13-3.1-.28-2.43-.53-2.81Z"/><path class="b" d="M393.6,274.31c-.05-.27-.11-.55-.17-.82-.29.89-.65,1.75-1.11,2.62.47-.58.9-1.18,1.28-1.8Z"/><path class="b" d="M388.69,278.76l-.15-.51c-.42.39-.87.78-1.34,1.15.5-.19,1-.41,1.49-.64Z"/><path class="b" d="M13.6,186.44l-.17-1.6c.05.76.11,1.25.17,1.6Z"/><path class="b" d="M13.56,198.03l.29.28c-.16-.54-.28-.76-.29-.28Z"/><path class="b" d="M181.47,282.63c-2.83-.45-5.98-1.15-5.64-.61l.87.53c1.97-.09,3.49-.04,4.77.08Z"/><path class="b" d="M37.2,285.23c.25.1.51.21.77.3.72-.06,1.39-.16,1.98-.25-.82.02-1.77.02-2.76-.05Z"/><path class="b" d="M34.47,286.88c-1.27-.45-2.5-.97-3.66-1.55.76.43,1.91.98,3.66,1.55Z"/><path class="b" d="M31.84,125.52c.72-.46,1.5-.85,2.29-1.24-2.02.5-2.5.82-2.55.93-.05.13.36.13.26.31Z"/><path class="b" d="M304.3,282.77c-2.44-.21-4.38-.29-6.08-.32,2.94.3,5.31.76,6.08.32Z"/><path class="b" d="M20.39,191c-.12-.98-.25-1.4-.39-1.37.11,1.01.23,1.58.39,1.37Z"/><path class="b" d="M291.18,282.45c.43.05.85.08,1.29.12,1.78-.09,3.58-.16,5.75-.13-2.17-.23-4.65-.37-7.04,0Z"/><path class="b" d="M311.32,124.15c.2.02.45.04.63.06.06-.07-.22-.08-.63-.06Z"/><path class="b" d="M389.38,133.55c-.3-.16-.68-.39-1.09-.64-.43-.24-.92-.47-1.38-.71.43.27,1.21.62,2.47,1.35Z"/><path class="b" d="M357.65,282.35c1.82-.03.29-.06,0,0h0Z"/><path class="b" d="M366.5,284.43c-.39.06-.68.14-.73.26.15-.13.4-.21.73-.26Z"/><path class="b" d="M273.06,285.74c-.05,0-.1,0-.16,0,.54.1.45.08.16,0Z"/><path class="b" d="M360.39,282.59c-.68-.06-1.47-.12-2.33-.16.38.04,1.08.09,2.33.16Z"/><path class="b" d="M360.02,282.34c.63.02,1.12.04,1.59.05.23-.09.03-.14-1.59-.05Z"/><path class="b" d="M355.12,282.37c1.04,0,2.01.02,2.95.05-.36-.04-.51-.07-.41-.08-.53,0-1.29.01-2.53.03Z"/><path class="b" d="M162.28,125.57c.12.02.26.03.39.05,1.84-.22,1.03-.18-.39-.05Z"/><path class="b" d="M134.12,288.12c.09,0,.13-.02.21-.03-.09,0-.19-.01-.27-.02l.06.04Z"/><path class="b" d="M127.58,288.51c2.78-.66,4.37-.58,6.47-.44l-2.16-1.52-4.31,1.96Z"/><path class="b" d="M13.41,158.68l-.57,3.79c-.95-4.57-.62-7.88-1.43-4.32,2,.54.21,14.73,2.21,15.25l-.42,2.5c.02-.72-.1-.83-.08-1.54-.96,4.86,1.45,3.61,1.16,9.87-.15,2.18-.44,3.7-.68,2.22l.5,4.86c-.04,1.41-.39,1.07-.35-.34l.16,7.41-.06-.06c.31,1.06.8,3.45,1.01,4.62-.29,1.88-.21-.94-.46-.46l.49,4.1c-.52,1.67-1.02-1.73-.95-4.56-2,3.83.5,3.41-.66,11.68l-.25-3.88c-1.14,2.5-.72,5.52-1.43,9.9.37-1.04,1.79-8.77,2.28-4.32-.15,1.26-.22,2.91.18,5.31-.71.02-.54,2.37-.5,5.3l-.94-.2c.27,3.17.75,2.92,1.18,4.79-.09,3.54-.82,4.27-1.44,5.1-.15,5.67,1.17-3.91,1.35,2.79-.36,4.71.02,8.02.59,13.66-.32,3.3-.58-.58-.85.61l.75,2.92c-.02.72-.25.48-.37.37.29,2.46.94.2,1.2,4.08.26.26.29.89.22,1.76-.04.43-.1.93-.18,1.47-.04.27-.08.55-.13.84-.03.32-.07.65-.1.99-.12,1.31-.07,2.83.27,4.28.34,1.45.98,2.85,1.87,3.96.39,1.28-.84-.39-.98.09,1.05,1.65,1.99,2.73,2.73,3.54.75.81,1.36,1.38,1.95,1.87.6.5,1.18.94,1.99,1.47.81.53,1.84,1.15,3.37,1.87,1.43,1.14,3.04,2.16,4.78,3.05-.93-.54-1.24-.87-1.17-1.01.08-.14.55-.1,1.28.02,1.45.26,3.94.76,6.27.89-1.35-.55-2.41-1.1-3.11-1.45,2.28.57,4.64.85,6.97.87.83.16.12.42-1.11.63.5-.02.97-.04,1.34-.08,1.27.21,1.59.37,1.34.58-.25.2-1.08.41-2.07.55-.9-.22-1.77-.49-2.59-.79-1.9.19-3.81.18-3.6.72.52.05,1.49.22,2.55.36-.53.03-.88.08-.67.2.24.13,1.1.13,2.4.11.53.36,1.09.72,1.67,1.05l.48-.31c.85.1,1.77.17,2.59.21l2.39.14,4.78.27c6.84-.87,12.8-2.16,23.66-2.52-2.7.64-.58,1.04-.73,1.79-2.96-.8-8.41.34-14.04.18,2.94.08,2.29.44,1.54.57l10.04-.73c-.23.62,2.13.46,4.76.72-1.98-1.22,7.48-.81,11.57-1.19.25.41-.73.83-5.71.73,5.5.92,7.11-1.43,12.5-.65-1.22.01-1.87-.05-2.35.16,2.84-.36,9.79-.08,8.16.28h-1.21c8.08.15,24.6.02,25.8-1.02.08.13-1.06,1.25-1.55,1.46l14.42-3.48c-1.27.89,3.61,3.01-3.1,3.51,1.92.13,4.3.27,8.36-.04-1.31-.13-3.27-1.29-1.48-1.37,4.92.99,3.42.53,9.49,1.37-1.97-.19.22-1.59,3.33-1.54-.49.21.26,1.38-.88,1.52l7.74-1.37c-1.93.25-.34,1.16,1.39,1.55-.8-.27,6.69.02,8.75-.11l-3.28-.32c8.74.21,8.63-1.93,17.3-1.85-1.05.28-2.59,1.74,1.82,1.91,2.02-.7,8.94-3.37,16.61-3.91l1.47.4,5.88-.46c-3.66,1.06-13.95,3.28-19.56,4.14,3.27.32.91.47,5.81.44,1.73.38-2.67.57-4.11.59l11.4.24c-.51-.82,8.72-.82,8.28-1.5l-12.38.85c-.5-.82,7.16-2.32,15.24-2.18,2.05.33-1.54,1.46-1.37,1.73,1.05-.28,7.67-.54,8.41-.34l-3.43.44c4.5.31,7.34-1.09,12.74-.3,1.86.05,5.57,1.05,5.89.57-3.04-.93-3.64-3.82-1.61-4.53.65.06,9.79.89,11.92,1.35,3.07.73-4.61,1.75-2,2.37.11-.22,1.81-.5,2.52-.59,1.96.19-.81.69,3.45.59.71-.83,8.66.07,2.01-.7,4.16-.24,4.42.17,9.31.13-1.56-.54,4.39-1.83,8.56-2.06-.25.21.69.49,1.14.61,8.53.07,13.11.45,21.07.46.73.2,4.57.44,2.94.8,1.14-.15,2.2-.43,4.65-.45,4.75.72-5.47.11-1.85.97.31-.48,6.35-.67,9.84-.97-1.08-.74-8.08-.14-11.58.16-.02-1.03,6.08-2.1,14.4-2.58,6.61-.26,2.87.66,4.01.52,12.42.18,10.58-1.79,20.89-1.05,4.09.65.18,1.3,1.09,1.77-5.39.25-8.27-.42-11.92-.39l4.49.31c-1.71.22-5.31.38-7.27.19,3.43.59,20.98.11,30.56.66,1.7-.22,4.64-.45,3.25-.71l-3.03.09c-2.79-.53,5.7-.73,1.87-.98,4.07-.37,8.62-.95,14.35-.66l1.08.75c-.12-.22-3.74-.44-5.35-.22,1.19-.17,3.39.09,5.61.26,1.11.08,2.24.16,3.22.13.97-.02,1.82-.18,2.4-.48-1.3-.05-2.47-.22-3.85-.39,4.04-.26,8.11-1.67,12.12-3.24-1.1.07-1.3.16-1.66.3-.35.13-.86.33-2.46.33,1.47.14-1.15.98-3.74,1.24-1.3.15-2.52.17-3.22.24-.77.07-.79.22.4.49-3.64-.99-6.38-.42-11.21-1.27.15.25,1.71.47-2.55.35-.19.07-.65.16-.93.22-.13,0-.18-.01-.29-.02.09.01.15.02.23.03-.18.04-.2.04.09.01,1.01.11,1.84.24,2.17.37-2.11.57-8.89.55-11.18.84-2.53-.12,1.06-.28-.32-.55l-3.42.44c-.34-.55-6.71-.91-.76-1.23l-5.36-.02c-3.15-.31-7.49-.43-10.17-.2-2.53-.12-6.38.61-4.18.18l-8.4.34-.08-.14c-8.29-.07-17.07.91-26.54-.08-2.79.14-5.68.31-10.34.15l-.91-.47c-3.58.17-10.76-.47-12.3.02-3.87-1.27-17.39-.28-23.69-.5l-.24.62c-4.34-.04-8.5.14-13.88.39l.33.55c-4.64.45-11.94-.39-19.28-.33.5-.21,2.36-.15,3.68-.03-8.77-1.23-18.51.9-26.47,0-1.98.2-3.42.13-4.81,0,.18,0,.35-.01.49-.03-.2,0-.5,0-.81,0-.88-.09-1.78-.2-2.75-.29.83.13,1.63.24,2.32.29-1.53.01-3.85.08-6.12.22l-.97-.59c-.18,0-.33.01-.53.02-2.23-.22-1.79.28-.6.72-1.14.1-2.19.21-3.01.35-1.81-.95-5.96.32-8.44-.69-1.53.49-11.43.37-12.64,1.41-.08-.13-.75-.2.48-.21-2.53-.12-5.07-.24-7.34.06l-1.08-.75-5.53,1c-3.36-.45-4.76-.72-1.42-1.29-8.06.88-6.54.33-13.4,1.21l.33-.48c-2.45.02-6.37.66-7.85.27-5.48-.92-27.12-.13-41.19-.98,2.73,1.42-6.54-.64-7.1.46-.82-.34-2.78-.53-.5-.82-7.18.33-10.79-.53-15.75.4-.82-.34,1.54-.49.81-.69-.58.07-2.28.29-3.03.09-.73-.2,1.05-.28,2.19-.43-7.32.05-8.11,1.1-8.57,2.05-1.73-.26-2.97-.51-4.12-.66-1.15-.15-2.21-.2-3.53-.25-.52-.31-1.18-.72-1.23-.89-.04-.18.5-.05,2.49.43-1.11-.28-4.43-1.42-7.02-3.1-2.66-1.6-4.57-3.56-5.02-3.4-.14-.3-.61-.85-1.07-1.4-.47-.56-.92-1.1-1.12-1.31-1.22-1.95-1.6-3.12-1.99-4.26-.33-1.15-.68-2.28-.85-4.46-.04.42-.05.81-.06,1.22-.33-.4-.53-.84-.62-1.34-.05-.26-.08-.47-.08-.75,0-.28,0-.56.02-.86.06-1.21.25-2.66.18-4.54l.12.11c.82-8.62-.39-3.72.54-12.23l-.71.46c-1.52-.79.9-7.54.32-12.47l-.4,1.78c-.52-2.7,2.07-7.54,2.26-10.24.13-.59.21.93.31,1.76.9-7.09-.93-.92-1.14-6.2.5-.97,1.27,1.26,1.36-2.3.4-1.77-1.62-10.31-.66-15.16-.39,1.07-.77,2.13-1.06-.32-.14-3.76,1.46-10.17.24-13.56.11-.48.21-.66.3-.68-.31-2.87-.52-9.34-1.18-11.07,2.44-2.66-1.19-17.87,1.07-17.81l-.12-8.84.23.23c.04-1.41.03-2.61,0-3.6-.03-.9-.03-1.65-.02-2.31,0-1.31.05-2.24.08-3.19.58-1.11.45-.22.53-.1.43-.87.77-1.64,1.22-2.29.38-.67.81-1.23,1.19-1.75.77-1.02,1.47-1.82,2.16-2.57.32-.39.69-.74,1.06-1.12.18-.19.36-.38.55-.58.2-.19.41-.38.63-.58.22-.21.44-.42.68-.64.25-.21.52-.42.8-.65.54-.48,1.22-.93,1.98-1.46.35.05.71.13,1.06.21.2-.14.55-.3,1.01-.5.46-.2,1.07-.35,1.76-.57.69-.21,1.51-.33,2.38-.52.9-.1,1.84-.28,2.87-.31,1.02-.1,2.09-.06,3.19-.07,1.23.04,2.5.06,3.78.07,2.56.02,5.16-.03,7.61-.21-.1.07-.3.19-1.08.27,11.04-.71,26.43,1.67,30.47-.52l7.28-.54c-9.42-.17,1.4-.95-2.47-1.32,3.71-.13,9.58.66,5.03.78l-.71-.11c-1.67,1.15,11.71.41,11.46,1.19,18.55-.06,36.62.58,53.99.63l-2-.89,6.06.05c1.59.21,2.13.7-2.19.66,2.27.5,7.25-.42,7.37-.62,8.46.36-3.31,1.04-.71,1.06l3.52-.07-.79-.1c2.86-.36,3.11-.75,8.31-.71,3.29.18,1.69.55,2.98.58,0,.06.43.09,1.98.03l7.63.08-3.05-.7c3.38-.35,7.18.04,3.66-.76,5.17,1.23,28.48.44,31.65.82,4.74-.51,9.42-.5,15.21-.44-1.44-.15-2.3-.94,2.7-.84-1.83,1.63,9.15.71,13.19,1.88-3.61-.78,14.21-.19,8.54-1.3,4.17.13.25.61,3.42.99,9.93-.63,21.88.41,34.15.2.19-.21-1.86-.54.77-.86l6.48,1.07c2.42-.11,2.23-1.24,6.66-.49-.63-.18-1.56-.45.07-.52,12.02.52,24.3.31,36.62.21,6.16-.05,12.34-.07,18.5.04l4.62.11,1.15.04c.37.02.7.05,1.05.08l1.03.08c.34.03.68.1,1.02.15,2.7.42,5.26,1.29,7.47,2.52-2.38-1.42-.61-.82,1.37.09-1.2-.7.35-.45.28-.82,2.56,1.55,4.7,3.49,6.3,5.63.47.13,1,.66,1.65,1.32.28.35.57.75.87,1.17.31.41.52.88.79,1.33.97,1.82,1.48,3.68,2.02,4.02-.11-.4-.28-.8-.43-1.19-.17-.39-.28-.79-.49-1.17.56.71.85.79,1.07.45.23-.34.24-1.07.22-1.93-.02-.85-.22-1.79-.27-2.54-.11-.73-.08-1.28.31-1.31-1.81-1.57-3.4-3.99-6.11-6.31-2.63-2.3-6.58-4.33-10.96-4.52-.88-.28-.47-.3.07-.31.53,0,1.16.08.72-.18-.56-.03-1.17,0-1.8-.05-.63-.05-1.31-.11-2.08-.15-.76-.06-1.6-.15-2.57-.17-.48-.03-.98-.06-1.52-.09-.5-.02-1.03-.04-1.59-.07l.51-.12c-12.6.12-18-.37-32.16-.7l1.05.58c-3.04-.08-3.68-.26-5.11-.4-3.49.87,8.54.05,5.36,1.01-4.04-1.17-21.45-.02-24.18-1.35-4.68,0,1.37.67-3.31.66l-1.24-.36-1.18.47c-3.07-.08-4.62-.53-4.73-.83.74.04,2.12-.09,2.91-.11-3.98-.43-11.22.15-12.58,0l4.5.22c-12.77.34-28.36-.14-40.7.6l.94.27c-9.42.5-7.55-.3-17.89-.07l.38-.06c-2.07.27-4.84.41-7.67.38,2.61-.32-4.92-.62-1.49-.97-10.22.54-5.05.42-11.8,1.44l-1.56-.45c-2.3.41-2.49.62-7.66.74,4.24-.39-3.3-.69,1.45-1.2-10.84-.99-16.1,1-21.07-.45-4.98,1.25,9.38.69,6.59.96,2.33.41-4.11.93-7.51.81-3.46-.03-5.89-1.6-14.6-1.57.87,0,.93-.09,1.79-.08-3.26-.32-6.39.43-10.39-.09-2.24.76-5.19-.04-5.84.92l7.99-.22c-4.53.25-8.78,1.38-16.24.83.58-.19,2.8-.45,4.33-.59-2.18-.28-4.2.19-6.46-.1.64-.96,9.71-.21,14.57-.95-2.34-.41-9.18.7-6.74-.35-3.51,1.33-8.58-.17-14.48.85l.39-.58c-.93.09-2.87.36-4.59.35l3.11-.75c-4.78.64-9.21-.56-13.79-.21,9.59-.02,2.15.7,6.21,1.12-11.83.77-6.8-1.51-20.05-1.23,1.79-.08,6.73.35,3.93.61-2.52-.12-5.85-.34-7.4-.64-8.78.12,1.35.59-2.39.95-2.99-.7-4.31.29-8.16.51l-.03-.59c-10-.38-2.65,1.22-11.66.77l3.81-.81-4.69.21.97-.67c-5.11.5-6.7.37-11.7.18,1.16.41-.65,1.07-5.08,1.08-3.02-.35,1.69-.56-4.59-.47,1.42-.37,2.97-.83,5.7-.29.28-.19,1.4-.37,1.69-.56-3.25-.4-8.18-.09-10.45-.09.88.02,1.92.05,2.46.14l-9.1.81c-1.43-.22-.3-.4.83-.57-1.84.06-3.12.33-5.83.38.7-.48.53-.97,4.37-1.2l-8.67.53c-.58-.21-4.45-.57-3.32-.75-1.2-.07-2.54-.05-3.97.02-.72.04-1.45.09-2.21.13-.38.03-.76.05-1.15.08-.38.03-.76.05-1.25.1-3.67.27-7.4,1.11-10.88,2.1-.31.21-.99.5-2.32,1.17-3.06,1.26-5.8,2.77-8.23,4.79-2.4,2.01-4.5,4.55-5.66,7.81l-1.27,1.67c-.38.58-.74,1.17-1.11,1.77-.32,1.32-.23,1.7-.08,1.61.16-.08.44-.6.72-.99.27-.38.56-.65.61-.3.07.35-.12,1.33-.25,3.47-.03.76-.03,1.36-.04,1.84,0,.45-.02.75-.06.99-.07.47-.2.62-.35.65-.3.07-.67-.31-.82.64.52,2.69,1.59,7.37.74,12.34-.2-1.65-.04-2.94-.12-4.47ZM13.87,215.3c-.15-1.1-.61-3.28-.19-4.09.82,1.25.42,2.22.19,4.09ZM47.27,286.91c-.99.19-2.51.1-4.24-.13,1.26-.05,2.67-.03,4.24.13ZM337.71,282.82c-.06,0-.1.02-.14.03-2.96-.23-1.91-.14.14-.03ZM343.86,283.08c.62-.08.58-.16.31-.25-.43.15-1.81.16-3.39.12.44.15,1.23.26,3.07.13ZM181.71,129.52l-1.2-.15c2.71-.17,1.95-.02,1.2.15Z"/><path class="b" d="M34.84,286.72c-.36-.2-.42-.33-.47-.46-.57-.05-.64.06.47.46Z"/><path class="b" d="M31.43,125.77l.23-.07c.11-.07.16-.13.18-.17l-.4.24Z"/><path class="b" d="M248.51,288.06c-1.27-.08-1.97-.19-2.44-.3-.07.14.51.27,2.44.3Z"/><path class="b" d="M376.26,282.05c-1,.09-2.42.13-3.72.18,1.9-.03,2.64.1,3.41.18-.08-.14-.72-.32.31-.36Z"/><path class="b" d="M400.64,268.51c.03-.48.21-1,.2-1.47l-.35.09c-.15.99-.31,1.83-.33,2.18-.03.35.16.22.48-.8Z"/><path class="b" d="M379.73,283.66c.39.44,2.68-.08,5-1.03-.14.05-.28.1-.42.14.36-.88-1.96.26-4.58.88Z"/><path class="b" d="M385.26,282.42c.71-.29,1.42-.62,2.11-.92.09-.37-.85.36-2.11.92Z"/><path class="b" d="M351.67,282.75c1.31.13.82-.63,1.56-.43,1.46-.63-8.73.76-1.56.43Z"/><path class="b" d="M382.28,284.83c-.39-.13-.76-.24-1.13-.38-.44.26-.89.51-1.36.74.84-.08,1.67-.21,2.5-.36Z"/><path class="b" d="M360.56,285.21l4.41.17c-.07-.1.49-.16,1.18-.21-2.72-.02-5.7-.14-5.6.04Z"/><path class="b" d="M366.16,285.17c1.42.01,2.76,0,3.55-.1-.77,0-2.42.03-3.55.1Z"/><path class="b" d="M376.35,285.82l-1.31-.1-3.12-.04c1.48.05,2.94.14,4.43.15Z"/><path class="b" d="M313.12,285.09l-4.82.17c-.49.21.82.34,2.62.25,1.15-.15,2.94-.23,2.2-.43Z"/><path class="b" d="M327.68,286.77c-1.3-.13-1.39-.26-2.12-.46l-.15.76,2.27-.29Z"/><path class="b" d="M313.64,286.94c-.48.21-6.99.6-.89.55.49-.21,5.31-.38.89-.55Z"/><polygon class="b" points="241.06 285.99 242.29 285.98 242.11 284.74 241.06 285.99"/><path class="b" d="M177.09,288.95c5.71.3,1.36-.77,6.51-.39,1.34-.29-4.22-.3-2.84-.56-3.45.31-5.25.13-3.67.95Z"/><path class="b" d="M180.76,288c.55-.05,1.14-.11,1.76-.19-1,.08-1.47.14-1.76.19Z"/><path class="b" d="M395.81,141.6c.26.85.54,1.68.66,2.54,0-.57,0-1.16-.11-1.73l-.56-.82Z"/><path class="b" d="M398.44,146.33c-.29.24-.58.48-.87.71.34.5.66,1.03.95,1.58-.03-.62-.21-1.8-.07-2.28Z"/><path class="b" d="M11.94,223.72l.23.23c.25-.47.27-1.18.31-2.6l-.54,2.37Z"/><polygon class="b" points="12.66 182.62 12.64 183.33 13.51 182.01 12.66 182.62"/><path class="b" d="M11.56,148.03c-.01.21-.01.44-.01.64,0,.18,0,.37.01.56.02.38.03.76.05,1.14.04.77.08,1.53.06,2.24-.08-1.53.16-2.75.29-3.53.03-.2.05-.36.07-.51.01-.17,0-.3-.01-.4-.04-.19-.18-.25-.45-.14Z"/></svg>