<?xml version="1.0" encoding="UTF-8"?><svg id="a" xmlns="http://www.w3.org/2000/svg" width="200" height="200" viewBox="0 0 200 200"><defs><style>.b{fill:#fff;stroke:#fff;stroke-miterlimit:10;}</style></defs><polygon class="b" points="135.23 155.1 135.23 129.05 7.49 129.05 7.49 76.32 135.23 76.32 135.23 50.27 198.15 102.68 135.23 155.1"/><path class="b" d="M195.03,98.86c0,.21.6.52,0,1.03.2.1-.81-.1,0-1.03Z"/><polygon class="b" points="185.26 110.65 186.27 108.89 186.27 109.3 185.26 110.65"/><path class="b" d="M182.75,111.58l-.1,1.34h-.4c-1.91,1.03-3.52,4.14-5.13,3.93,1.51-.83,3.72-3.52,5.64-5.27Z"/><path class="b" d="M171.47,118.19q.1,0,.3-.1c-2.01,2.07-.6.93-1.21.83.4-.31.7-.52.91-.72Z"/><path class="b" d="M171.47,118.19c-.91.31.91-.83,0,0h0Z"/><path class="b" d="M166.84,121.19c-.3.52.91-.41,1.31-.41l-1.01,1.45c-1.01.21-1.41.21-.3-1.03Z"/><path class="b" d="M167.04,123.15l-.5.72c.1-.62.3-.72.5-.72Z"/><path class="b" d="M168.25,121.71c-.4.72-.5,1.24-.6.83,0,.93-.3.62-.6.62l1.21-1.45h0Z"/><path class="b" d="M170.06,121.6c1.01-1.45,0-.72-.91-.31,2.32-2.27,3.22-1.86.91.31Z"/><path class="b" d="M177.31,118.3c-.3-.21,1.51-1.03,1.71-1.55l-.6,1.03-1.11.52h0Z"/><path class="b" d="M160.7,127.6l-.81,1.03c-.3-.21-1.11-.1-1.11-.31.3.21,1.41-.41,1.91-.72Z"/><path class="b" d="M158.89,130.18l1.11-1.55c.3.21.2.52-1.11,1.55Z"/><polygon class="b" points="166.64 125.53 168.86 122.43 167.15 125.12 166.64 125.53"/><polygon class="b" points="153.05 133.49 153.86 131.63 153.46 132.77 153.05 133.49"/><path class="b" d="M149.93,135.87c-1.31.62-2.21,1.24-2.92,2.07.5-.93,1.11-1.96,2.01-2.79-.4.72,1.21-.21.91.72h0Z"/><path class="b" d="M147.11,137.94c-.3.52-.6,1.03-.91,1.45.2-.52.5-1.03.91-1.45Z"/><path class="b" d="M155.87,132.56l-1.01-.1c.91-.52,1.41-.41,1.61-.31-.3.1-.5.31-.6.41Z"/><path class="b" d="M154.56,133.49c.2-.1.6-.52,1.21-.93h0c-.6.52-1.01.83-1.21.93Z"/><path class="b" d="M156.37,132.05c.1,0,.1-.1.1-.1q0,.1-.1.1Z"/><path class="b" d="M163.02,129.56c-2.01.93-.6-.83,0-1.86-.91,1.55.3.93,0,1.86Z"/><path class="b" d="M159.09,130.39c-.3.52.1.52.3.62l-1.61,1.14,1.31-1.76Z"/><polygon class="b" points="157.18 132.56 157.78 132.15 157.18 132.87 157.18 132.56"/><path class="b" d="M149.93,137.94c-.81.72-1.81,1.34-2.72,1.96.81-.72,1.51-1.34,1.91-2.07.91-.83.81-.21.81.1Z"/><path class="b" d="M152.35,135.46l.1-.1c.1,0,0,.1-.1.1Z"/><path class="b" d="M141.78,144.45v.1-.1Z"/><path class="b" d="M150.13,137.94c-.2.21-.2.1-.2,0,.5-.41,1.01-.93,1.51-1.34-.3.41-.5.83-1.31,1.34h0Z"/><path class="b" d="M145.5,140.83c-.5.21-.91.41-1.41.62.1-.21,1.01-.52,1.41-.62Z"/><path class="b" d="M152.05,135.35h0c-.2.1-.3.1,0,0Z"/><path class="b" d="M151.95,135.46h.3c-.2.31-.6.72-.91,1.03.2-.31.4-.62.6-1.03h0Z"/><path class="b" d="M139.26,152.52c-.5.1.3-.93.3-1.14l-1.91,2.17c.1-.93,1.11-2.27,1.81-3.31s1.21-1.86,1.01-2.27c.6,0,.3.93,1.81-.72.4-.72.1-.83-.3-.83s-.91.1-1.01,0c.91-1.24.81-1.55.81-1.86.3.62.81,1.24,1.11,1.96.4.72.5,1.45-.2,2.38-.81.21-1.51.72-2.11,1.45-.6.72-1.11,1.65-1.31,2.17h0Z"/><path class="b" d="M142.99,143.52l-1.21.93c0-.31.1-.72.3-1.34.4.31.7.41,1.11.31l-.2.31v-.21Z"/><path class="b" d="M145.7,141.25c-.6.62-1.21,1.03-1.61,1.45-.4.31-.91.72-.91.72q0-.1.1-.21l.3-.31.7-.72,1.31-1.34h0v.1c-.2.31-.81.93.1.31v-.41c.2-.1.1-.1-.1,0h-.1c.5-.31,1.11-.62,1.71-1.03-.5.52-1.01.93-1.51,1.45,2.42-1.34-.91,2.17,1.81-.41-.91,1.14,0,1.14-1.71,2.69-1.41.21-.1-1.24-.1-2.27h0Z"/><path class="b" d="M162.31,132.05s.1.1.2,0c-.4.31-.4.21-.2,0Z"/><path class="b" d="M161,132.67c-1.21.1-1.71,0-2.52-.21-.1.21,1.91-.31,3.22-1.03l.1-.21c1.51-.83.7.31.4.83-.2-.21.3-.72-.4-.41-.7.41-.7.83-.81,1.03h0Z"/><path class="b" d="M152.55,138.77l.3.21-1.61.52,2.21-2.27c0,.41.5.52-.91,1.55Z"/><path class="b" d="M141.68,144.04c-.1.21-.3.52-.4.72.2-.72.4-1.24.5-1.86-.1.41-.1.83-.1,1.14h0Z"/><path class="b" d="M140.57,145.07c0-.1-.1-.21-.1-.31.2-.31.3-.62.4-.93l-.3,1.24h0Z"/><path class="b" d="M26.92,72.08l-.91.21c.2-.1.5-.1.91-.21Z"/><path class="b" d="M19.27,72.6l.2-.31c.2,0,.1.1-.2.31Z"/><path class="b" d="M65.88,124.71c-.6-.1-1.31-.21-2.21-.1l-.4-.72c-.2-.72,1.31.21,2.62.83h0Z"/><path class="b" d="M7.79,120.78c-.2-.31-.4-.62-.7-.93.1-.1.1-.21.2-.41.2.52.3.93.5,1.34Z"/><path class="b" d="M4.77,116.74l-.5,1.76c.2-.83.3-1.34.5-1.76Z"/><path class="b" d="M63.06,70.74l-1.11.72c.2-.31-.5-.72,1.11-.72Z"/><path class="b" d="M120.64,124.5c.81,0,1.71.1,2.82.41-.3.62-1.41,0-2.82-.41Z"/><path class="b" d="M24.2,79.73c0,.1-.2.31-.81.41-.1-.21.2-.31.81-.41Z"/><path class="b" d="M120.64,124.5c-1.01,0-1.91,0-2.72.21-.2,0-.4-.1-.6-.21,1.21-.52,2.32-.31,3.32,0Z"/><path class="b" d="M162.82,67.84c0-.1-.1-.21-.2-.21.2.1.2.21.2.21Z"/><path class="b" d="M186.27,97.1c.4.41.91.72,1.21.93-.6-.41-1.01-.72-1.21-.93Z"/><path class="b" d="M139.76,141.66c.1,0,.1.21,0,0h0Z"/><path class="b" d="M136.64,145.49c.2-.1.3,0,.3,0-.1-.1-.2-.1-.3,0Z"/><path class="b" d="M108.76,129.15q.1,0,0,0,.3.1,0,0Z"/><path class="b" d="M139.66,141.76c0,.1-.1.31-.2.41.1-.21.2-.41.2-.41Z"/><path class="b" d="M139.76,142.28q0-.1.1-.21c.1.1,0,.1-.1.21Z"/><path class="b" d="M139.76,141.25v.31s-.1,0-.1.1c.1-.1.1-.21.1-.41h0Z"/><path class="b" d="M122.75,74.15c-.1,0-.2-.1-.2-.1.7-.1,1.11-.21.2.1Z"/><path class="b" d="M43.63,132.36h.1s0,.1-.1,0c.1.1,0,0,0,0Z"/><path class="b" d="M42.62,130.18l1.01,2.17c-1.01-.21-1.71-.31-3.02.62l2.01-2.79Z"/><path class="b" d="M39.2,71.98c.91-.21,1.61,0,2.52-.1l-2.11-.62c2.62-1.14,4.53-.72,2.42-1.65-.3,2.27-8.36.21-8.66,2.58l-1.41-.52c.4,0,.5-.1.91-.1-2.82-1.14-2.01,1.65-5.64,1.34-1.21-.21-2.11-.52-1.31-.83l-2.72.62c-.81,0-.6-.41.2-.41l-4.23.21v-.1c-.6.31-1.91.93-2.62,1.14-1.11-.31.5-.21.3-.52l-2.32.52c-.91-.62,1.01-1.14,2.62-1.14-1.11-1.14-1.61-1.03-2.42-.72-.6.31-2.42.62-6.54,0l3.62-.31c-1.31-.62-2.72-.83-4.43-1.03-1.71-.1-3.62-.21-6.14-.52,0,.21-.1.41-.1.62,0-.1.1-.31.2-.52,1.41.31,3.83.83,5.34,1.24,1.41.52,2.01.93.4,1.24-.91-.1-2.11-.21-3.32,0,.1.52.1,1.03.2,1.65-.81-.72-.6,1.76-.6,4.55l-1.01-.62c.1,1.76.4,2.48.6,3.1.2.52.5,1.14.7,1.76-.1,2.07-.91,2.48-1.61,3-.2,3.31,1.31-2.27,1.51,1.65-.4,2.79,0,4.65.7,7.96-.3,1.96-.6-.31-.91.41l.81,1.65c0,.41-.3.31-.4.21.3,1.45,1.11.1,1.31,2.38,1.21.62-1.71,4.65-.4,7.44-.3.72-.6-.31-1.11-.1.91,3.83.6,3.31,1.81,6.41l-.6,2.69c.81-1.96,1.71.52,2.52,2.79.4-.72.7-1.34.91-1.65l.6,3.52c-.2.41-.5.1-1.01-.52.1.21.2.52.2.62-.4,1.24-1.01.62-1.61-.31.2-.41.4-.83.6-1.24-.6-.83-1.41-1.65-2.01-1.55.1.21.2.72.3,1.14-.2-.21-.3-.41-.4-.31s.1.52.4,1.03l-1.21.83.5.21-.2,1.14-.2,1.76-.4,3.62c.4,1.45.81,2.48,1.21,3.52,3.93-.93,7.15-1.96,10.47-2.27-1.31.93-.3,1.45-.3,2.48-.91-1.14-5.13.52-8.86.21,1.91.1,1.21.62.5.83,2.62-.31,5.23-.72,7.25-1.03-.1.83,1.01.62,2.21,1.03-.91-1.65,3.52-1.14,5.44-1.65.1.62-.3,1.14-2.72,1.03,2.62,1.24,3.32-1.96,5.84-.93-.6,0-.91-.1-1.11.21,1.31-.52,4.63-.1,3.83.41h-.6c3.83.21,11.58,0,12.08-1.45,0,.21-.5,1.76-.7,2.07l6.74-4.86c-.6,1.24,1.71,4.24-1.41,4.96.91.21,2.01.41,3.93,0-.6-.21-1.51-1.76-.7-1.86,2.32,1.45,1.61.72,4.43,1.96-.91-.31.1-2.27,1.61-2.17-.2.31.1,1.96-.4,2.17l3.62-1.86c-.91.31-.2,1.65.6,2.17-.4-.41,3.12,0,4.13-.1l-1.51-.41c4.13.31,4.03-2.69,8.15-2.58-.5.41-1.21,2.48.81,2.69.91-.93,4.23-4.76,7.75-5.48l.7.52,2.72-.62c-1.71,1.45-6.54,4.55-9.16,5.79,1.51.41.4.62,2.72.62.81.52-1.21.83-1.91.83l5.34.31c-.2-1.14,4.13-1.14,3.93-2.07l-5.84,1.24c-.2-1.14,3.32-3.31,7.15-3.1,1.01.41-.7,2.07-.6,2.38.5-.41,3.62-.72,3.93-.52l-1.61.62c2.11.41,3.42-1.55,5.94-.41.91.1,2.62,1.45,2.72.83-1.41-1.34-1.71-5.38-.7-6.31.3.1,4.63,1.24,5.64,1.86,1.41,1.03-2.11,2.48-.91,3.31,0-.31.81-.72,1.21-.83.91.31-.4.93,1.61.83.3-1.14,4.03.1.91-1.03,1.91-.31,2.11.21,4.33.21-.7-.72,2.01-2.58,4.03-2.89-.1.31.3.72.5.83,4.03.1,6.14.62,9.87.62.3.31,2.11.62,1.41,1.14.5-.21,1.01-.62,2.21-.62,2.21,1.03-2.52.1-.91,1.34.1-.62,3.02-.93,4.63-1.34-.5-1.03-3.83-.21-5.44.21,0-1.45,2.82-3,6.74-3.62.81-.1,1.21-.1,1.51,0,.4.1.5.21.5.31,0,.21-.4.52,0,.41,2.11.1,3.52-.1,4.93-.41,1.31-.31,2.52-.62,3.72-.93.3.93.5,2.48.1,5.48-.4,1.55-.91,1.65-1.31,1.55s-.81-.31-1.11,0c-.2-1.86.2-3.41.4-5.07-.4-.1-.81-.1-1.31-.1l1.21.21-.2,1.03c-.1-.21-.1-.41-.2-.72-1.01.21-2.11.21-2.72,0,.3.21,1.21.31,2.32.41-.1,1.65-.1,3.83-.1,5.89,0,2.17-.1,4.34-.4,6,.3.93.6,2.27,1.01,1.55l-.1-1.45c.4-.72.6.1.81.52.2.52.3.93.5.1.3.72.6,1.34.81,1.96.2.62.3,1.24.1,2.27-.3.52-.7,1.03-1.01,1.65.3-.52.6-1.96.3-2.27.2.21-.1,1.24-.3,2.48-.2,1.14-.3,2.38.3,1.65.2-.93.5-1.65.7-2.48.3.41,1.01.1,1.21.31.3-.41.6-.72.81-.72.2-.83.2-.72.1-.72s-.2.1.2-.93v-.1c0,.1-.1.1-.1.21-.1.41-.3.72-.4.93-.5.72.3-2.69-1.01.1.7-1.45.81-1.86.91-2.38.1-.41.2-.93.81-1.55-.3.21-.6.72-.5,0h-.3c-.1.21-.3.52-.5.72-.81,0-.7-1.55-1.11-3.2.2-1.24.4.52.7-.1l-.6-1.65c.7-.1,1.21-3.2,1.71-.31v-3c.4-2.58.6-6.51.3-8.48,0-.62,0-1.34-.1-1.86-1.71.21-3.22.62-1.61.21l-6.74.52v-.21h-2.42c-.6,0-1.01.1-1.51.1-1.01.1-2.01.21-3.02.31-2.11.1-4.23.1-6.44-.52-1.31.21-2.62.41-4.83.21l-.4-.62c-1.71.21-5.03-.62-5.74,0-1.81-1.76-8.15-.41-11.07-.72l-.1.83c-2.01,0-4.03.21-6.54.52l.1.72c-2.21.62-5.64-.52-9.06-.41.2-.31,1.11-.21,1.71,0-4.13-1.76-8.66,1.24-12.38,0-.91.31-1.61.21-2.21,0h.2-.4c-.4-.1-.81-.31-1.31-.41.4.21.7.31,1.11.41-.7,0-1.81.1-2.92.31l-.4-.83h-.2c-1.01-.31-.81.41-.3,1.03-.5.1-1.01.31-1.41.52-.81-1.34-2.82.41-3.93-.93-.7.72-5.34.52-5.94,1.96,0-.21-.3-.31.2-.31-1.21-.1-2.42-.31-3.42.1l-.5-1.03-2.62,1.45c-1.61-.62-2.21-1.03-.7-1.76-3.72,1.24-3.02.41-6.24,1.65l.1-.72c-1.21,0-3.02.93-3.72.41-2.62-1.24-12.78-.21-19.33-1.34.6,1.03-.1.72-1.11.52-.2-.1-.5-.1-.7-.21-.1-.1-.2-.1-.3-.1-.2,0-.4.1-.5.52-.1-.41-.4-.72.2-1.14-.91.31-1.41,0-1.81-.1,0-.41-.1-.52-.6-.72.5-.41.7-.1.91-.41-.1,0-.4-.21-.1-.41.3-.21.4,0,.6,0,0-.41-.4-.62-.91-.83-.5-.1-1.21-.52-1.91-.52.6-1.76.5-2.69-.3-3.93.4-.62.91-1.65,1.01.52,0-1.24.6-7.55-.4-7.65.3-.41.1-1.76,0-2.07.1-2.79.2-3,.1-5.69l-.2.72c-1.31-1.03-.3-2.27-.4-4.45l.1.1c.91-5.07-.4-2.17.6-7.13l-.81.31c-1.71-.41,1.01-4.45.3-7.24l-.4,1.03c-.3-.83.3-1.86,1.01-3,.3-.62.7-.83,1.01-1.03s.5-.31.6-.41.2.31.3.41c.5-.52.2-.52-.2-.83-.4-.21-1.01-.52-1.11-1.34.5.21,1.41,1.34,1.51.83h0c.3.1.2-.31.7-.72.2-.21.6-.31.91-.41h1.11c.4,0,.7.1,1.11.21-.6-.41-1.21-.93.2-1.24,2.11-.21,5.74,1.65,7.75.31.3.1.4.21.4.31,1.61-.31,5.34-.62,6.34-1.34,1.51,2.79,10.17-1.34,10.07,1.24l5.03-.1-.1.31c3.22.21,4.33-.41,5.44-1.03.7.21.2.41.1.52,4.73.52,5.13.41,9.06-.93l.4.83c1.11-.52,6.74,1.34,11.38.31,0,.1-.1.21-.5.41,5.13-1.03,12.38,2.38,14.29-.72l3.42-.72c-4.43-.21.7-1.34-1.21-1.86,1.71-.21,4.53.93,2.32,1.14l-.3-.1c-.81,1.65,5.54.52,5.34,1.65,8.66-.1,17.21.83,25.37.83l-.91-1.24,2.82.1c.7.31,1.01.93-1.01.93,1.11.72,3.42-.62,3.42-.83,3.93.52-1.51,1.45-.3,1.45l1.61-.1-.4-.1c.7-.21,1.01-.52,1.51-.72s1.01-.31,2.82-.31c2.32.21,1.41.72,2.32.83,0,.1.4.1,1.51,0l4.73.1v-1.03c-.1.21-.3.41-.4.62l-1.61-.52c.3-.1.6-.1,1.01-.21-.2-2.07,0-3.2-.91-2.07.4-.41.7-1.76.81-3.72.1-.93.1-2.07.1-3.2v-2.48c0-3.83-.1-5.17.1-5.58-.7-1.76-.7-3.52-.6-5.17-.2.1-1.31-1.24-1.11-3.1.91,1.96,1.21,2.17,1.41,1.96.91,1.14,2.01,1.96,2.92,3.93-1.11-2.38,2.62,1.76,1.51-1.03.5.62.5.83.4,1.14-.1.21-.1.62.1,1.14.3.1.5.21.81.41.1.1.3.21.4.31l.7.52c1.01.83,1.91,1.76,2.92,2.69,1.91,1.86,4.03,4.03,6.34,5.69.2-.21-.2-1.14,1.01-.72l1.41,3.1c1.01.62,1.91-.62,2.82,1.45-.1-.41-.2-.93.5-.52,7.85,8.48,18.62,13.96,25.87,23.57-.81-1.45,0-.83.91-.1-.5-.62.5-.52.6-.93l3.02,3.93c1.41-.31,4.03,3.31,5.03,2.79l-1.31-.83c2.32.31-.4-4.03.81-5.07-2.62-.31-3.32-5.48-7.45-6.31-.4-.83.91,0,.81-.52-1.21-.1-2.11-.72-3.52-2.27h.3c-4.73-3.72-6.24-5.89-11.07-10.55l-.1.93c-1.01-1.03-1.11-1.45-1.51-1.96-2.01-.1,3.12,2.69,1.11,2.69-.4-2.48-7.75-6.51-7.65-8.79-1.71-1.45-.1,1.14-1.81-.31l-.1-.72-.81.1c-1.11-1.03-1.21-1.96-1.01-2.38.2.31.81.52,1.21.72-1.11-1.65-4.23-3.31-4.63-3.83l1.41,1.65c-2.52-1.76-5.03-3.93-7.65-6.1-1.31-1.03-2.62-2.07-3.83-3.1-1.91-1.45-3.83-2.89-5.44-3.93l.4.83c-2.42-1.55-3.32-2.38-4.43-3.52-1.11-1.03-2.32-2.38-4.93-4.34h.1c-.3,0-.6-.21-1.01-.41.1,1.34.2,2.58.2,3.72-.2-1.24-.4-.83-.6-.41-.2.41-.4.83-.7-.83.4,4.45.5,5.38.7,6.2s.5,1.55,1.21,4.14c-.2.21-.4.31-.6.52.6,1.86.81,2.07,1.01,5.07-.2-1.24-.5-.83-.7-.41-.2.41-.5.93-.91-.72-1.31,6.31,1.41,8.48-.6,8.89,1.71,2.38.91-2.27,1.31-1.45.3-.52.6,0,.81.62.2.72.4,1.76.3,2.38,0,.72-.7.93-1.21,1.14-1.11-.52-2.01-.93-2.92-.93.2,0,.2-.1.4-.1-.91-.41-.91.62-3.22-.1-1.01,1.03-2.42,0-2.72,1.34l3.72-.31c-2.11.31-4.13,1.96-7.65,1.14.3-.31,1.31-.62,2.01-.83-1.01-.41-2.01.31-3.02-.1.3-1.34,4.53-.31,6.85-1.34-1.11-.52-4.33,1.03-3.12-.52-1.61,1.86-4.03-.21-6.74,1.24l.2-.83c-.4.1-1.31.52-2.11.52l1.51-1.03c-2.21.93-4.33-.83-6.44-.31,4.53,0,1.01.93,2.92,1.55-5.54,1.14-3.22-2.07-9.36-1.76.81-.1,3.12.52,1.81.83-1.21-.21-2.72-.52-3.42-.93-4.13.21.6.83-1.11,1.34-1.41-1.03-2.01.41-3.83.72v-.83c-4.73-.52-1.21,1.65-5.44,1.03l1.81-1.14-2.21.31.4-.93c-2.42.72-3.12.52-5.54.21.5.62-.3,1.45-2.42,1.55-1.41-.52.81-.83-2.11-.62.7-.52,1.41-1.14,2.72-.41.1-.31.7-.52.81-.83-1.51-.52-3.83-.1-4.93-.1.4,0,.91.1,1.11.21l-4.73,1.14c-.7-.31-.1-.52.4-.83-.91.1-1.51.52-2.72.52.3-.62.2-1.34,2.01-1.65l-4.03.72c-.3-.31-2.11-.83-1.61-1.03-2.21-.41-5.54,1.34-8.56.83-.1.1-.5.21-1.11.31-2.82-.1-5.34-.93-8.66,0l-1.91-1.24c-2.62.31,2.52,1.55-1.81,1.96-3.12.41-1.11-1.03-2.21-1.34-1.51.62-4.23,1.86-7.05.83l.1-.21ZM7.29,72.6c.81-.21,2.72-.72,3.52-.21-.81.93-1.71.52-3.52.21ZM5.78,124.81c-.3-.52-.1-1.55.2-2.58,0,.72,0,1.65-.2,2.58ZM139.16,131.53q0-.1,0,0c.3-2.58.1-1.76,0,0ZM138.76,134.73c0,.31,0,.93.1,1.34.1.31.2.31.3.1-.1-.1-.2-.31-.2-.62v-1.65c-.1.21-.2.41-.2.83h0ZM133.12,79.63l-.91-.21c1.71-.21,1.31,0,.91.21Z"/><path class="b" d="M5.08,118.4c-.1,0-.3.1-.4.31.1-.62.3-.62.4-.31Z"/><path class="b" d="M62.05,71.46l-.1.1h-.1c0,.1.2-.1.2-.1Z"/><path class="b" d="M96.18,131.94c.2.1.5.31,1.11.41-.81-.1-1.11-.21-1.11-.41Z"/><path class="b" d="M140.17,143.73c0-.1-.3.41-.5.72.1-.31.3-.72.3-.93.1.1.2.21.2.21h0Z"/><path class="b" d="M145.2,146.83c-1.01.62-.5-.21.3-.93l.3.21c-.1.41-.4.52-.6.72h0Z"/><path class="b" d="M137.45,149.21c.1.1.2.21.3.41.4-.41.4-.31-.2.93l.1-.1-.7.72c.1-.41.1-.93.5-1.96h0Z"/><path class="b" d="M138.56,149.72c-.2.1-.4.31-.7.62.6-.62,1.11-1.45.7-.62Z"/><path class="b" d="M139.87,140.52c.3-.31-.7-.1-.6-.72-.5-3.52,1.41,1.45.6.72Z"/><path class="b" d="M135.23,154.48l.2-1.55c.2-.21.4-.41.7-.62l-.91,2.17h0Z"/><path class="b" d="M135.94,146.11c-.1-.21-.1-.41-.3-.31l.2-2.07c.3-.1.1,1.24.1,2.38Z"/><path class="b" d="M136.04,147.55c-.1-.21-.1-.72-.1-1.34.1.31.1,1.03.1,1.34Z"/><polygon class="b" points="135.23 149.52 135.23 151.17 135.03 152 135.23 149.52"/><path class="b" d="M126.58,128.84c-.81.1-1.51-.1-1.21-.31l2.21-.21c.4.1-.4.31-1.01.52Z"/><path class="b" d="M132.11,130.91l.81-1.03c.1.31,0,.52.3.62-.1,0-1.11.41-1.11.41Z"/><path class="b" d="M127.48,131.53c-2.82,0,.2-.52.4-.83,2.11.31-.2.62-.4.83Z"/><polygon class="b" points="94.37 127.7 94.47 129.46 93.86 129.46 94.37 127.7"/><path class="b" d="M65.58,132.25c-.6.31,1.91.41,1.31.83-2.42-.52-.4.93-3.02.52-.7-1.14.1-.93,1.71-1.34Z"/><path class="b" d="M66.38,132.05c-.3.1-.6.21-.81.21.1,0,.4-.1.81-.21Z"/><polygon class="b" points="192.41 103.1 193.02 104.24 191.81 102.79 192.41 103.1"/><path class="b" d="M195.23,104.03c.1.41.7.83,1.01,1.03l-1.41.1.4-1.14h0Z"/><path class="b" d="M1.65,75.49l.6-2.17c0,1.45-.1,2.17-.3,2.58l-.3-.41h0Z"/><polygon class="b" points="28.53 72.19 27.83 71.15 28.23 71.15 28.53 72.19"/><path class="b" d="M45.24,70.02c.81,0,1.71-.21,2.52-.1.3,1.24-.7,0-2.52.1Z"/></svg>