<?xml version="1.0" encoding="UTF-8"?><svg id="a" xmlns="http://www.w3.org/2000/svg" width="200" height="200" viewBox="0 0 200 200"><defs><style>.b{fill:#fff;stroke:#fff;stroke-miterlimit:10;}</style></defs><polygon class="b" points="135.04 153.26 135.04 128.05 8.08 128.05 8.08 77.11 135.04 77.11 135.04 51.89 197.45 102.58 135.04 153.26"/><path class="b" d="M194.45,98.87c-.02.18.63.54,0,.97.15.12-.89-.05,0-.97Z"/><polygon class="b" points="184.67 110.34 185.67 108.64 185.67 108.98 184.67 110.34"/><path class="b" d="M182.19,111.23l-.13,1.34h-.45c-1.9.99-3.48,4.04-5.08,3.83,1.6-.87,3.78-3.45,5.66-5.16Z"/><path class="b" d="M171.01,117.64c.08-.03.13-.03.28-.08-2.03,1.96-.63.92-1.22.81.48-.35.74-.56.94-.73Z"/><path class="b" d="M171.01,117.64c-.87.21.94-.81,0,0h0Z"/><path class="b" d="M166.44,120.48c-.3.49.87-.38,1.3-.38l-1.01,1.35c-1.02.25-1.45.26-.3-.97Z"/><path class="b" d="M166.62,122.43l-.54.66c.16-.54.36-.66.54-.66Z"/><path class="b" d="M167.79,121.01c-.45.68-.51,1.15-.61.79,0,.91-.26.63-.56.63l1.15-1.42h.02Z"/><path class="b" d="M169.56,120.86c1.02-1.35,0-.73-.87-.35,2.31-2.1,3.2-1.75.87.35Z"/><path class="b" d="M176.85,117.73c-.3-.25,1.45-1.01,1.73-1.48l-.58.97-1.17.51h.02Z"/><path class="b" d="M160.35,126.73l-.76.99c-.3-.18-1.06-.08-1.14-.35.3.23,1.3-.38,1.9-.64Z"/><path class="b" d="M158.49,129.19l1.12-1.47c.26.15.16.49-1.12,1.47Z"/><polygon class="b" points="166.24 124.65 168.4 121.72 166.67 124.29 166.24 124.65"/><polygon class="b" points="152.66 132.44 153.52 130.61 153.09 131.7 152.66 132.44"/><path class="b" d="M149.59,134.67c-1.32.58-2.19,1.22-2.85,2.01.51-.89,1.07-1.88,1.98-2.72-.43.73,1.17-.13.89.71h-.02Z"/><path class="b" d="M146.76,136.66c-.31.53-.59,1.02-.91,1.44.25-.54.56-1.01.91-1.44Z"/><path class="b" d="M155.45,131.48l-.99-.1c.89-.51,1.35-.38,1.55-.35-.2.16-.4.31-.56.45Z"/><path class="b" d="M154.23,132.43c.18-.15.61-.48,1.22-.94h.03c-.73.54-1.09.82-1.25.94Z"/><path class="b" d="M155.99,131.04c.07-.05.15-.12.15-.12,0,.12-.05.12-.15.12Z"/><path class="b" d="M162.59,128.6c-2.03.87-.58-.84,0-1.81-.87,1.47.28.96,0,1.81Z"/><path class="b" d="M158.68,129.37c-.3.48.15.48.3.59l-1.58,1.09s1.29-1.68,1.29-1.68Z"/><polygon class="b" points="156.8 131.45 157.4 131.06 156.8 131.83 156.8 131.45"/><path class="b" d="M149.61,136.66c-.84.68-1.77,1.34-2.71,1.91.76-.68,1.45-1.27,1.9-2.03.91-.76.79-.15.81.12Z"/><path class="b" d="M151.97,134.29s.12-.15.12-.15c.1.08.02.12-.12.15Z"/><polygon class="b" points="141.53 142.97 141.53 143.12 141.46 143 141.53 142.97"/><path class="b" d="M149.84,136.66c-.18.18-.23.12-.23,0,.54-.45,1.02-.89,1.45-1.34-.21.46-.49.91-1.22,1.32v.02Z"/><path class="b" d="M145.22,139.54c-.48.23-.92.45-1.35.59,0-.23.89-.49,1.35-.59Z"/><path class="b" d="M151.72,134.21l-.08.1c-.15-.02-.21-.05.08-.1Z"/><path class="b" d="M151.62,134.31c.12.02.23.02.35-.02-.25.33-.56.68-.91,1.04.16-.33.31-.68.58-1.02h-.02Z"/><path class="b" d="M138.97,150.82c-.46.13.33-.87.33-1.12l-1.95,2.13c.15-.89,1.09-2.16,1.78-3.17.73-1.02,1.22-1.81,1.04-2.19.56,0,.3.94,1.81-.73.43-.73.07-.76-.33-.76-.4.03-.86.13-.96-.02.86-1.19.76-1.47.79-1.85.28.56.78,1.24,1.14,1.9.36.68.49,1.42-.2,2.29-.78.2-1.47.73-2.1,1.42-.61.68-1.17,1.55-1.35,2.11l-.02-.02Z"/><path class="b" d="M142.71,142.11l-1.19.86c0-.3.1-.69.3-1.25.38.35.73.41,1.06.28l-.2.26.03-.15Z"/><path class="b" d="M145.4,139.95c-.64.58-1.15,1.02-1.58,1.39-.41.35-.86.68-.92.68.05-.07.05-.1.13-.18l.33-.33.66-.66,1.3-1.32h0s.03.08.03.12c-.21.28-.89.87.03.31.02-.12.02-.21-.03-.31.02-.02.05-.07.05-.07.16-.07.1-.08-.08-.05h0s-.07.02-.1.02c.54-.28,1.11-.61,1.68-.96-.46.41-.96.86-1.44,1.4,2.33-1.37-1.01,2.06,1.75-.4-.86,1.11.02,1.09-1.73,2.57-1.37.12-.1-1.29-.08-2.23v.02Z"/><path class="b" d="M161.85,130.97s.07.07.2.05c-.36.26-.33.16-.2-.05Z"/><path class="b" d="M160.58,131.65c-1.17.13-1.75.03-2.49-.2-.13.25,1.91-.28,3.22-1.02l.15-.25c1.5-.76.69.31.4.79-.18-.16.33-.74-.4-.43-.71.49-.71.86-.86,1.11h-.02Z"/><path class="b" d="M152.18,137.47l.3.23-1.6.51,2.16-2.21c.02.36.59.48-.86,1.47Z"/><path class="b" d="M141.38,142.62c-.13.23-.26.46-.41.73.23-.66.4-1.24.48-1.77-.02.35-.05.69-.08,1.04h.02Z"/><path class="b" d="M140.31,143.59c-.03-.08-.07-.16-.08-.26.16-.3.31-.58.45-.86l-.36,1.14v-.02Z"/><path class="b" d="M27.43,73.02l-.91.18c.2-.07.48-.13.91-.18Z"/><path class="b" d="M19.81,73.46l.16-.31c.26,0,.13.13-.16.31Z"/><path class="b" d="M66.13,123.93c-.59-.15-1.3-.23-2.23-.1l-.41-.71c-.16-.73,1.3.21,2.62.82l.02-.02Z"/><path class="b" d="M8.38,120.12c-.2-.28-.43-.58-.68-.89.07-.13.15-.25.21-.38.16.45.31.89.46,1.27Z"/><path class="b" d="M5.41,116.18l-.46,1.73c.15-.79.3-1.34.46-1.73Z"/><path class="b" d="M63.33,71.72l-1.06.73c.13-.35-.59-.73,1.06-.73Z"/><path class="b" d="M120.53,123.7c.79.03,1.7.15,2.84.43-.36.59-1.47-.02-2.84-.43Z"/><path class="b" d="M24.73,80.36c.02.15-.21.3-.78.43-.12-.16.2-.31.78-.43Z"/><path class="b" d="M120.54,123.7c-1.02-.05-1.86.05-2.69.16-.2-.05-.4-.1-.59-.16,1.12-.49,2.28-.31,3.28,0Z"/><path class="b" d="M162.36,68.93c-.05-.08-.13-.16-.18-.25.18.1.26.2.18.25Z"/><path class="b" d="M185.71,97.15c.45.36.92.74,1.24.94-.69-.43-1.06-.73-1.24-.94Z"/><path class="b" d="M139.53,140.29c.08.02.05.23,0,0h0Z"/><path class="b" d="M136.36,143.97c.16-.12.35-.03.35-.03-.07-.05-.18-.05-.35.03Z"/><path class="b" d="M108.75,128.15h.07c.15.12.18.13-.07,0Z"/><path class="b" d="M139.41,140.38c-.05.13-.13.28-.21.43.08-.23.16-.36.21-.43Z"/><path class="b" d="M139.48,140.86c.02-.07.03-.15.07-.25.13.16.05.21-.07.25Z"/><path class="b" d="M139.51,139.95c.02.16.03.28.03.35-.03-.02-.07.02-.12.08.05-.15.07-.28.07-.43h.02Z"/><path class="b" d="M122.64,75.02c-.07-.03-.18-.07-.18-.07.66-.18,1.04-.23.18.07Z"/><path class="b" d="M44.03,131.3s.1.03.13.03c-.03,0-.1.03-.1.03,0,0-.03-.07-.03-.07Z"/><path class="b" d="M43.02,129.24l1.01,2.06c-.99-.18-1.72-.3-3.02.59l2.01-2.66Z"/><path class="b" d="M39.64,72.94c.92-.21,1.65-.05,2.52-.13l-2.14-.64c2.57-1.06,4.45-.69,2.44-1.6-.3,2.24-8.31.23-8.61,2.47l-1.4-.48c.41.03.48-.1.87-.08-2.76-1.07-2.05,1.62-5.58,1.3-1.24-.16-2.1-.49-1.25-.76l-2.74.56c-.79-.05-.59-.45.2-.4l-4.19.18.03-.07c-.59.35-1.95.89-2.61,1.12-1.06-.31.53-.23.26-.51l-2.31.54c-.94-.58.97-1.14,2.57-1.06-1.09-1.12-1.57-.99-2.36-.73-.56.26-2.39.64-6.47-.02l3.61-.28c-1.27-.59-2.74-.81-4.4-.96-1.68-.15-3.56-.21-6.1-.54-.03.18-.07.38-.1.58.03-.08.1-.26.18-.49,1.44.3,3.84.76,5.26,1.22,1.44.46,1.96.91.38,1.15-.92-.12-2.08-.2-3.32-.03.07.49.13,1.04.25,1.63-.81-.69-.61,1.7-.56,4.39l-1.06-.61c.15,1.67.36,2.43.59,3,.23.54.49,1.06.73,1.73-.12,2-.92,2.43-1.62,2.89-.16,3.2,1.32-2.19,1.52,1.58-.4,2.66.03,4.52.66,7.7-.36,1.86-.64-.31-.94.35l.84,1.65c-.02.41-.28.28-.41.21.31,1.39,1.06.1,1.34,2.29,1.15.59-1.7,4.49-.38,7.19-.3.68-.64-.31-1.06-.12.87,3.71.63,3.18,1.8,6.24l-.69,2.59c.79-1.9,1.73.54,2.51,2.67.38-.68.71-1.25.87-1.65l.56,3.41c-.16.41-.53.07-.97-.49.08.23.16.46.25.63-.38,1.22-.99.59-1.58-.28.21-.4.43-.82.64-1.22-.64-.84-1.35-1.63-1.96-1.45.12.23.21.66.28,1.12-.16-.23-.33-.36-.43-.26-.1.12.13.46.4,1.02l-1.17.78.46.18-.18,1.14-.18,1.67-.36,3.55c.36,1.35.79,2.44,1.22,3.4,3.94-.94,7.06-1.86,10.39-2.19-1.27.86-.28,1.4-.35,2.43-.92-1.07-5.08.46-8.84.25,1.88.12,1.17.61.49.78,2.62-.33,5.18-.66,7.19-.99-.12.84.99.63,2.21.97-.92-1.65,3.5-1.09,5.39-1.6.12.56-.33,1.12-2.66.99,2.56,1.24,3.3-1.95,5.82-.89-.58.02-.87-.07-1.11.21,1.32-.49,4.55-.1,3.79.4h-.56c3.76.2,11.47.02,12.03-1.39.03.18-.49,1.7-.73,1.98l6.71-4.72c-.58,1.2,1.68,4.07-1.44,4.75.89.18,2,.38,3.89-.05-.61-.16-1.53-1.73-.69-1.85,2.29,1.35,1.6.73,4.42,1.86-.92-.26.1-2.16,1.55-2.1-.23.28.12,1.86-.41,2.06l3.61-1.85c-.91.33-.16,1.57.64,2.1-.38-.36,3.12.03,4.07-.15l-1.53-.43c4.07.28,4.03-2.61,8.07-2.51-.49.38-1.22,2.36.84,2.59.94-.94,4.16-4.57,7.74-5.3l.69.54,2.74-.63c-1.72,1.44-6.5,4.44-9.12,5.61,1.52.43.43.64,2.71.59.81.51-1.24.78-1.91.81l5.31.33c-.23-1.11,4.06-1.11,3.86-2.03l-5.77,1.15c-.25-1.11,3.33-3.15,7.09-2.95.96.45-.73,1.98-.64,2.34.49-.38,3.58-.73,3.93-.46l-1.6.59c2.1.41,3.41-1.47,5.94-.41.86.08,2.59,1.44,2.74.78-1.4-1.27-1.68-5.18-.74-6.14.31.08,4.57,1.2,5.56,1.83,1.44.99-2.14,2.36-.92,3.22.05-.3.84-.68,1.17-.79.91.26-.38.94,1.6.81.33-1.14,4.04.08.94-.96,1.95-.33,2.06.23,4.34.18-.73-.73,2.05-2.47,3.99-2.79-.12.28.31.66.53.82,3.98.1,6.1.63,9.82.63.35.28,2.13.61,1.37,1.09.53-.2,1.02-.58,2.16-.61,2.21.97-2.54.15-.86,1.32.15-.64,2.95-.89,4.59-1.3-.49-1.01-3.76-.2-5.39.21,0-1.4,2.84-2.85,6.71-3.5.78-.08,1.22-.07,1.53,0,.38.07.48.18.48.3,0,.25-.38.51-.05.41,2.13.08,3.55-.12,4.87-.4,1.3-.28,2.46-.64,3.7-.91.35.89.51,2.41.12,5.31-.43,1.53-.87,1.62-1.29,1.53s-.79-.33-1.11,0c-.25-1.85.18-3.33.41-4.95-.4-.07-.82-.12-1.34-.12l1.2.25-.16,1.04c-.08-.16-.15-.4-.21-.66-1.04.16-2.13.23-2.71.05.33.21,1.15.31,2.28.38-.08,1.65-.08,3.66-.12,5.69-.05,2.06-.13,4.21-.4,5.82.3.87.59,2.18.96,1.45l-.13-1.35c.36-.68.61.07.81.53.2.49.35.86.51.15.26.71.58,1.29.79,1.86.2.59.3,1.15.1,2.21-.33.49-.68,1.02-1.01,1.58.3-.46.61-1.95.3-2.21.23.2-.12,1.24-.35,2.38-.23,1.11-.35,2.28.31,1.62.23-.86.46-1.65.69-2.38.35.38.97.12,1.22.26.35-.43.59-.69.78-.69.2-.79.16-.74.1-.68-.07.05-.18.15.18-.86,0-.03.03-.07.03-.1-.03.07-.07.12-.08.16-.15.4-.28.69-.43.92-.53.71.31-2.59-.96.13.68-1.44.82-1.85.94-2.28.12-.4.21-.86.79-1.53-.33.25-.64.68-.48-.03-.1.03-.23.02-.3,0,.03-.02.03-.05.03-.05l-.03.05s-.05-.02,0,.02c-.15.23-.33.48-.51.66-.76-.05-.74-1.53-1.14-3.07.16-1.17.38.49.74-.15l-.59-1.6c.74-.15,1.24-3.12,1.67-.35l.03-2.85c.41-2.49.58-6.29.26-8.18.05-.63,0-1.27-.08-1.8-1.72.2-3.15.58-1.6.16l-6.71.46v-.18c-.79-.02-1.58,0-2.39.02-.59.03-1.01.07-1.53.12-.99.1-2.01.18-3.04.28-2.06.15-4.19.15-6.4-.53-1.3.18-2.64.41-4.82.2l-.43-.64c-1.68.23-5.02-.63-5.74.03-1.8-1.72-8.1-.36-11.04-.68l-.12.84c-2.01-.05-3.96.2-6.47.53l.15.74c-2.16.61-5.58-.53-8.99-.45.23-.28,1.11-.2,1.72-.03-4.09-1.67-8.63,1.22-12.34,0-.92.28-1.6.18-2.24,0,.08,0,.16-.02.23-.03h-.38c-.41-.13-.82-.28-1.29-.4.38.18.74.33,1.07.4-.71.02-1.8.12-2.85.3l-.45-.79c-.08.02-.16.02-.25.02-1.04-.3-.84.38-.28.97-.53.13-1.02.28-1.4.48-.84-1.29-2.77.43-3.93-.94-.71.66-5.33.49-5.89,1.9-.03-.18-.35-.28.23-.28-1.17-.15-2.36-.31-3.41.08l-.49-1.01-2.57,1.35c-1.57-.61-2.21-.97-.66-1.75-3.74,1.19-3.04.45-6.24,1.63l.15-.66c-1.15.03-2.97.91-3.66.36-2.56-1.24-12.65-.16-19.2-1.32.64.96-.12.74-1.07.48-.23-.07-.48-.13-.73-.2-.13-.07-.25-.12-.35-.12-.21-.02-.38.08-.51.46-.13-.45-.4-.71.16-1.11-.91.26-1.37-.03-1.78-.07.03-.38-.08-.54-.59-.69.46-.41.68-.1.94-.41-.1,0-.4-.16-.13-.41.26-.21.38.02.58.03-.05-.41-.41-.58-.94-.78-.53-.15-1.2-.46-1.86-.54.63-1.73.53-2.59-.33-3.84.43-.61.89-1.62,1.04.51.05-1.2.63-7.31-.43-7.42.26-.36.07-1.67-.05-1.98.07-2.67.16-2.9.07-5.54l-.16.73c-1.27-1.04-.28-2.18-.43-4.31l.13.07c.92-4.87-.43-2.1.61-6.9l-.79.26c-1.72-.45.99-4.26.35-7.04l-.45,1.01c-.28-.76.3-1.81.97-2.89.33-.64.69-.76.99-.97.28-.18.51-.3.56-.41.15-.07.23.28.35.45.51-.46.25-.53-.16-.79-.41-.25-.99-.46-1.11-1.34.54.23,1.42,1.3,1.52.81h.03c.28.12.23-.33.73-.69.23-.18.58-.33.94-.38h.49c.2,0,.4.02.58.03.38.03.74.12,1.07.25-.61-.43-1.2-.86.18-1.19,2.13-.16,5.74,1.62,7.65.26.26.12.38.23.38.33,1.62-.35,5.28-.58,6.25-1.32,1.5,2.72,10.08-1.34,10.05,1.19l5-.13-.13.26c3.2.16,4.32-.43,5.44-1.04.73.18.2.41.13.54,4.67.51,5.13.4,9.04-.86l.41.82c1.06-.48,6.75,1.29,11.32.33-.03.08-.13.25-.49.36,5.15-.96,12.32,2.28,14.2-.71l3.4-.73c-4.39-.23.66-1.29-1.15-1.78,1.73-.16,4.47.91,2.34,1.06l-.33-.15c-.78,1.55,5.46.54,5.35,1.6,8.64-.08,17.06.78,25.16.84l-.94-1.2,2.82.07c.74.28.99.94-1.02.89,1.06.68,3.38-.58,3.43-.84,3.94.49-1.53,1.4-.33,1.44l1.65-.08-.36-.15c.68-.25,1.04-.51,1.53-.69.53-.18.96-.3,2.82-.26,2.26.25,1.37.74,2.29.79.03.08.36.13,1.45.03l4.65.08v-.97c-.15.2-.28.38-.43.56l-1.65-.53c.31-.08.64-.13.96-.16-.16-1.98.03-3.05-.86-2.01.43-.4.66-1.75.81-3.61.08-.92.12-1.98.15-3.07,0-.81.03-1.63.03-2.44.02-3.71-.13-4.98.13-5.38-.69-1.72-.68-3.45-.59-5.05-.2.08-1.27-1.22-1.14-3,.87,1.9,1.2,2.1,1.39,1.9.94,1.12,2.05,1.91,2.85,3.81-1.12-2.28,2.57,1.75,1.52-1.04.53.56.49.79.43,1.06-.07.25-.13.58.08,1.09.26.07.53.2.81.36.13.08.28.18.41.28l.68.54c.97.81,1.93,1.7,2.9,2.62,1.95,1.85,3.96,3.86,6.27,5.54.25-.16-.21-1.12,1.01-.68l1.44,3.04c.97.59,1.86-.64,2.84,1.44-.08-.38-.18-.94.46-.53,7.8,8.17,18.49,13.53,25.65,22.77-.84-1.42,0-.81.92-.08-.51-.58.46-.54.59-.94l3,3.84c1.35-.3,4.01,3.17,5.05,2.67l-1.29-.81c2.34.31-.45-3.89.78-4.93-2.62-.33-3.28-5.33-7.41-6.1-.43-.76.86.05.76-.51-1.15-.07-2.11-.66-3.55-2.19h.3c-4.67-3.56-6.2-5.68-11.04-10.18l-.12.91c-1.04-.97-1.11-1.35-1.5-1.93-2.01-.12,3.05,2.56,1.07,2.64-.45-2.43-7.74-6.32-7.59-8.53-1.7-1.39-.08,1.11-1.77-.28l-.15-.74-.82.15c-1.06-.97-1.22-1.9-1.01-2.26.25.26.84.53,1.15.74-1.07-1.62-4.17-3.15-4.55-3.7l1.44,1.55c-2.46-1.7-5-3.83-7.56-5.87-1.27-1.02-2.56-2.05-3.84-2.97-1.86-1.42-3.81-2.8-5.44-3.81l.45.84c-2.43-1.52-3.27-2.34-4.36-3.41-1.06-1.04-2.29-2.31-4.85-4.19h.12c-.28-.05-.61-.18-.99-.38.15,1.3.21,2.52.18,3.61-.21-1.2-.43-.81-.64-.4-.21.4-.45.82-.68-.79.36,4.27.49,5.21.73,6.04.21.76.51,1.47,1.2,4.01-.2.16-.41.33-.61.53.56,1.77.84,2,1.01,4.9-.25-1.2-.49-.82-.74-.38-.25.41-.53.92-.87-.73-1.34,6.14,1.35,8.23-.61,8.63,1.7,2.28.94-2.24,1.3-1.37.28-.46.59-.03.82.59.23.66.36,1.72.28,2.33-.02.73-.66.91-1.24,1.06-1.11-.48-2.01-.89-2.89-.89.21,0,.16-.12.36-.12-.94-.43-.89.59-3.18-.12-1.04,1.02-2.43-.05-2.72,1.25l3.73-.3c-2.11.33-4.09,1.86-7.57,1.12.26-.26,1.3-.61,2.01-.81-1.02-.38-1.96.26-3.02-.13.3-1.32,4.52-.3,6.78-1.29-1.09-.54-4.27.96-3.13-.46-1.63,1.81-3.99-.21-6.75,1.15l.18-.78c-.45.13-1.34.49-2.14.48l1.45-1.02c-2.23.87-4.31-.76-6.43-.28,4.47-.02.99.94,2.89,1.52-5.51,1.06-3.17-2.05-9.34-1.67.84-.12,3.13.46,1.83.82-1.17-.16-2.72-.46-3.45-.87-4.07.16.64.81-1.11,1.29-1.39-.96-2.01.38-3.81.69v-.79c-4.65-.51-1.24,1.65-5.43,1.04l1.78-1.11-2.19.28.45-.91c-2.39.68-3.13.49-5.46.25.53.56-.31,1.44-2.38,1.47-1.42-.48.78-.76-2.14-.64.66-.51,1.39-1.12,2.66-.4.13-.26.66-.49.79-.76-1.52-.54-3.81-.12-4.87-.12.4.03.89.07,1.14.18l-4.24,1.11c-.68-.3-.15-.54.38-.78-.86.1-1.45.46-2.72.53.31-.64.25-1.32,2.03-1.62l-4.04.73c-.26-.28-2.08-.78-1.55-1.01-2.24-.38-5.49,1.25-8.46.76-.15.12-.46.23-1.09.33-2.79-.15-5.26-.94-8.58-.05l-1.88-1.15c-2.61.26,2.54,1.45-1.78,1.9-3.05.36-1.14-.99-2.21-1.32-1.52.58-4.16,1.77-6.96.82l-.03-.18ZM7.85,73.5c.81-.16,2.66-.68,3.55-.21-.82.91-1.68.48-3.55.21ZM6.4,124.04c-.26-.49-.13-1.53.16-2.47.07.68.03,1.5-.16,2.47ZM138.89,130.46s-.03-.1-.03-.1c.3-2.36.18-1.52.03.1ZM138.47,133.58c-.03.31-.02.91.07,1.25.12.3.21.26.33.15-.1-.12-.16-.3-.18-.61-.02-.45-.02-.99.02-1.57-.1.18-.2.41-.23.76v.02ZM132.91,80.31l-.91-.21c1.73-.23,1.32-.02.91.21Z"/><path class="b" d="M5.72,117.78c-.15.03-.3.08-.43.26.15-.51.3-.51.43-.26Z"/><path class="b" d="M62.27,72.44s-.1.13-.1.13h-.1s.2-.13.2-.13Z"/><path class="b" d="M96.23,130.87c.21.15.54.3,1.14.41-.91-.05-1.17-.21-1.14-.41Z"/><path class="b" d="M139.88,142.31c0-.12-.28.38-.46.69.13-.35.3-.68.26-.86.08.07.21.16.21.16h-.02Z"/><path class="b" d="M144.92,145.33c-1.01.61-.51-.16.3-.86l.3.25c-.13.25-.43.36-.58.61h-.02Z"/><path class="b" d="M137.24,147.6c.13.13.25.21.3.4.36-.36.45-.28-.16.92.05-.02.08-.07.13-.1-.23.25-.46.48-.68.69-.07-.43-.05-.94.43-1.9l-.02-.02Z"/><path class="b" d="M138.34,148.1c-.18.12-.41.33-.66.56.48-.51.99-1.32.66-.56Z"/><path class="b" d="M139.56,139.19c.28-.35-.74-.12-.58-.73-.46-3.35,1.44,1.4.58.73Z"/><path class="b" d="M135.04,152.73l.16-1.47c.21-.16.45-.36.66-.59l-.82,2.08v-.02Z"/><path class="b" d="M135.7,144.65c-.07-.23-.15-.41-.28-.28l.23-2.03c.25-.15.08,1.14.05,2.31Z"/><path class="b" d="M135.83,145.99c-.13-.18-.13-.73-.13-1.34.1.4.13,1.04.13,1.34Z"/><polygon class="b" points="135.03 147.9 134.96 149.45 134.8 150.34 135.03 147.9"/><path class="b" d="M126.45,127.86c-.84.12-1.45-.07-1.22-.35l2.24-.23c.35.26-.48.38-1.02.58Z"/><path class="b" d="M131.86,129.93l.79-1.02c.08.26-.02.46.3.63,0,0-1.09.4-1.09.4Z"/><path class="b" d="M127.31,130.54c-2.84.05.18-.48.41-.76,2.06.25-.18.48-.41.76Z"/><polygon class="b" points="94.38 126.8 94.46 128.47 93.9 128.48 94.38 126.8"/><path class="b" d="M65.8,131.22c-.64.35,1.95.36,1.32.76-2.41-.51-.38.92-3.04.53-.73-1.11.12-.87,1.72-1.29Z"/><path class="b" d="M66.61,130.97c-.3.1-.56.18-.82.25.15-.07.36-.15.82-.25Z"/><polygon class="b" points="191.84 102.96 192.35 104.1 191.23 102.75 191.84 102.96"/><path class="b" d="M194.58,103.87c.07.36.71.76,1.04.97l-1.4.1.36-1.09v.02Z"/><path class="b" d="M2.32,76.3l.59-2.06c-.05,1.42-.07,2.13-.35,2.46l-.26-.4h.02Z"/><polygon class="b" points="29.03 73.08 28.27 72.13 28.69 72.14 29.03 73.08"/><path class="b" d="M45.63,71.04c.79.05,1.73-.16,2.52-.13.21,1.2-.79-.05-2.52.13Z"/></svg>