<?xml version="1.0" encoding="UTF-8"?><svg id="a" xmlns="http://www.w3.org/2000/svg" viewBox="0 0 200 200"><defs><style>.b{fill:#000;}.b,.c{stroke-width:0px;}.c{fill:#070706;}</style></defs><polygon class="b" points="2.92 98.89 65.33 48.19 65.33 73.41 192.29 73.41 192.29 124.36 65.33 124.36 65.33 149.56 2.92 98.89"/><path class="c" d="M5.92,96.15c-.63-.43.02-.79,0-.97.89.92-.15,1.09,0,.97Z"/><polygon class="c" points="14.7 105.29 14.7 104.94 15.7 106.64 14.7 105.29"/><path class="c" d="M23.84,112.69c-1.6.21-3.18-2.84-5.08-3.83h-.45l-.13-1.34c1.88,1.72,4.06,4.29,5.66,5.16Z"/><path class="c" d="M30.3,114.67c-.59.12.81,1.15-1.22-.81.15.05.2.05.28.08.2.16.46.38.94.73Z"/><path class="c" d="M29.36,113.95c-.94-.81.87.21,0,0h0Z"/><path class="c" d="M33.64,117.76l-1.01-1.35c.43,0,1.6.87,1.3.38,1.15,1.24.73,1.22-.3.97Z"/><path class="c" d="M34.3,119.39l-.54-.66c.18,0,.38.12.54.66Z"/><path class="c" d="M32.6,117.31l1.15,1.42c-.3,0-.56.28-.56-.63-.1.36-.16-.12-.61-.79h.02Z"/><path class="c" d="M31.69,116.82c-.87-.38-1.9-1.01-.87.35-2.33-2.1-1.44-2.44.87-.35Z"/><path class="c" d="M23.54,114.03l-1.17-.51-.58-.97c.28.48,2.03,1.24,1.73,1.48h.02Z"/><path class="c" d="M41.92,123.68c-.08.26-.84.16-1.14.35l-.76-.99c.59.26,1.6.87,1.9.64Z"/><path class="c" d="M40.76,124.03l1.12,1.47c-1.29-.97-1.39-1.32-1.12-1.47Z"/><polygon class="c" points="33.7 120.6 31.97 118.02 34.13 120.96 33.7 120.6"/><polygon class="c" points="47.28 128 46.85 126.91 47.71 128.75 47.28 128"/><path class="c" d="M50.76,130.97c-.28-.84,1.32.02.89-.71.91.84,1.47,1.83,1.98,2.72-.66-.79-1.53-1.44-2.85-2.01h-.02Z"/><path class="c" d="M54.52,134.4c-.31-.41-.59-.91-.91-1.44.35.43.66.89.91,1.44Z"/><path class="c" d="M44.36,127.34c.2-.03.66-.16,1.55.35l-.99.1c-.16-.13-.36-.28-.56-.45Z"/><path class="c" d="M44.89,127.79h.03c.61.46,1.04.79,1.22.94-.16-.12-.53-.4-1.25-.94Z"/><path class="c" d="M44.23,127.23s.08.07.15.12c-.1,0-.15,0-.15-.12Z"/><path class="c" d="M37.78,123.09c.58.97,2.03,2.69,0,1.81-.28-.86.87-.35,0-1.81Z"/><path class="c" d="M42.97,127.36l-1.58-1.09c.15-.12.59-.12.3-.59,0,0,1.29,1.68,1.29,1.68Z"/><polygon class="c" points="43.57 128.14 42.97 127.36 43.57 127.76 43.57 128.14"/><path class="c" d="M51.57,132.85c.45.76,1.14,1.35,1.9,2.03-.94-.58-1.86-1.24-2.71-1.91.02-.26-.1-.87.81-.12Z"/><path class="c" d="M48.28,130.44s.08.1.12.15c-.13-.03-.21-.07-.12-.15Z"/><polygon class="c" points="58.91 139.3 58.84 139.42 58.84 139.27 58.91 139.3"/><path class="c" d="M50.53,132.95c-.73-.41-1.01-.86-1.22-1.32.43.45.91.89,1.45,1.34,0,.12-.05.18-.23,0v-.02Z"/><path class="c" d="M56.5,136.43c-.43-.15-.87-.36-1.35-.59.46.1,1.35.36,1.35.59Z"/><path class="c" d="M48.73,130.61l-.08-.1c.3.05.23.08.08.1Z"/><path class="c" d="M48.73,130.61c.26.35.41.69.58,1.02-.35-.36-.66-.71-.91-1.04.12.03.23.03.35.02h-.02Z"/><path class="c" d="M61.38,147.14c-.18-.56-.74-1.44-1.35-2.11-.63-.69-1.32-1.22-2.1-1.42-.69-.87-.56-1.62-.2-2.29.36-.66.86-1.34,1.14-1.9.03.38-.07.66.79,1.85-.1.15-.56.05-.96.02-.4,0-.76.03-.33.76,1.52,1.67,1.25.73,1.81.73-.18.38.31,1.17,1.04,2.19.69,1.01,1.63,2.28,1.78,3.17l-1.95-2.13c0,.25.79,1.25.33,1.12l-.02.02Z"/><path class="c" d="M57.69,138.56l-.2-.26c.33.13.68.07,1.06-.28.2.56.3.96.3,1.25l-1.19-.86.03.15Z"/><path class="c" d="M54.97,136.24c.02.94,1.29,2.34-.08,2.23-1.75-1.48-.87-1.47-1.73-2.57,2.76,2.46-.58-.97,1.75.4-.48-.54-.97-.99-1.44-1.4.58.35,1.14.68,1.68.96-.03,0-.07,0-.1-.02h0c-.18-.03-.25-.02-.08.05,0,0,.03.05.05.07-.05.1-.05.2-.03.31.92.56.25-.03.03-.31,0-.03,0-.08.03-.12h0l1.3,1.32.66.66.33.33c.08.08.08.12.13.18-.07,0-.51-.33-.92-.68-.43-.36-.94-.81-1.58-1.39v-.02Z"/><path class="c" d="M38.32,127.33c.13.02.15-.02.2-.05.13.21.16.31-.2.05Z"/><path class="c" d="M39.77,127.95c-.15-.25-.15-.61-.86-1.11-.73-.31-.21.26-.4.43-.3-.48-1.11-1.55.4-.79l.15.25c1.3.74,3.35,1.27,3.22,1.02-.74.23-1.32.33-2.49.2h-.02Z"/><path class="c" d="M47.33,132.31l2.16,2.21-1.6-.51.3-.23c-1.45-.99-.87-1.11-.86-1.47Z"/><path class="c" d="M59.01,138.92c-.03-.35-.07-.69-.08-1.04.08.53.25,1.11.48,1.77-.15-.26-.28-.49-.41-.73h.02Z"/><path class="c" d="M60.06,139.91l-.36-1.14c.13.28.28.56.45.86-.02.1-.05.18-.08.26v.02Z"/><path class="c" d="M173.84,69.5l-.91-.18c.43.05.71.12.91.18Z"/><path class="c" d="M180.39,69.45l.16.31c-.3-.18-.43-.31-.16-.31Z"/><path class="c" d="M134.25,120.25c1.32-.61,2.79-1.55,2.62-.82l-.41.71c-.92-.13-1.63-.05-2.23.1l.02.02Z"/><path class="c" d="M192.45,115.15c.07.13.15.25.21.38-.25.31-.48.61-.68.89.15-.38.3-.82.46-1.27Z"/><path class="c" d="M195.42,114.21l-.46-1.73c.16.4.31.94.46,1.73Z"/><path class="c" d="M138.1,68.75l-1.06-.73c1.65,0,.92.38,1.06.73Z"/><path class="c" d="M77.01,120.43c1.14-.28,2.05-.4,2.84-.43-1.37.41-2.47,1.02-2.84.43Z"/><path class="c" d="M176.42,77.09c-.56-.13-.79-.28-.78-.43.58.12.89.26.78.43Z"/><path class="c" d="M83.11,120c-.2.07-.4.12-.59.16-.82-.12-1.67-.21-2.69-.16,1.01-.31,2.16-.49,3.28,0Z"/><path class="c" d="M38.19,64.98c-.05.08-.13.16-.18.25-.08-.05,0-.15.18-.25Z"/><path class="c" d="M13.43,94.4c.31-.2.79-.58,1.24-.94-.18.21-.54.51-1.24.94Z"/><path class="c" d="M60.84,136.6c-.05.23-.08.02,0,0h0Z"/><path class="c" d="M63.66,140.24s.18-.08.35.03c-.16-.08-.28-.08-.35-.03Z"/><path class="c" d="M91.56,124.46h.07c-.25.13-.21.12-.07,0Z"/><path class="c" d="M61.17,137.11c-.08-.15-.16-.3-.21-.43.05.07.13.2.21.43Z"/><path class="c" d="M60.82,136.91c.03.1.05.18.07.25-.12-.03-.2-.08-.07-.25Z"/><path class="c" d="M60.87,136.25c0,.15.02.28.07.43-.05-.07-.08-.1-.12-.08,0-.07.02-.18.03-.35h.02Z"/><path class="c" d="M77.91,71.25s-.12.03-.18.07c-.86-.3-.48-.25.18-.07Z"/><path class="c" d="M156.31,127.67s-.07-.03-.1-.03c.03,0,.08-.02.13-.03,0,0-.03.07-.03.07Z"/><path class="c" d="M159.36,128.2c-1.3-.89-2.03-.78-3.02-.59l1.01-2.06,2.01,2.66Z"/><path class="c" d="M160.7,69.42c-2.8.94-5.44-.25-6.96-.82-1.07.33.84,1.68-2.21,1.32-4.32-.45.82-1.63-1.78-1.9l-1.88,1.15c-3.32-.89-5.79-.1-8.58.05-.63-.1-.94-.21-1.09-.33-2.97.49-6.22-1.14-8.46-.76.53.23-1.29.73-1.55,1.01l-4.04-.73c1.78.3,1.72.97,2.03,1.62-1.27-.07-1.86-.43-2.72-.53.53.23,1.06.48.38.78l-4.24-1.11c.25-.12.74-.15,1.14-.18-1.06,0-3.35-.43-4.87.12.13.26.66.49.79.76,1.27-.73,2-.12,2.66.4-2.92-.12-.73.16-2.14.64-2.06-.03-2.9-.91-2.38-1.47-2.33.25-3.07.43-5.46-.25l.45.91-2.19-.28,1.78,1.11c-4.19.61-.78-1.55-5.43-1.04v.79c-1.8-.31-2.43-1.65-3.81-.69-1.75-.48,2.97-1.12-1.11-1.29-.73.41-2.28.71-3.45.87-1.3-.36.99-.94,1.83-.82-6.17-.38-3.83,2.72-9.34,1.67,1.9-.58-1.58-1.53,2.89-1.52-2.13-.48-4.21,1.15-6.43.28l1.45,1.02c-.81.02-1.7-.35-2.14-.48l.18.78c-2.76-1.37-5.11.66-6.75-1.15,1.14,1.42-2.05-.08-3.13.46,2.26.99,6.48-.03,6.78,1.29-1.06.4-2-.25-3.02.13.71.2,1.75.54,2.01.81-3.48.74-5.46-.79-7.57-1.12l3.73.3c-.3-1.3-1.68-.23-2.72-1.25-2.29.71-2.24-.31-3.18.12.2,0,.15.12.36.12-.87,0-1.78.41-2.89.89-.58-.15-1.22-.33-1.24-1.06-.08-.61.05-1.67.28-2.33.23-.63.54-1.06.82-.59.36-.87-.4,3.65,1.3,1.37-1.96-.4.73-2.49-.61-8.63-.35,1.65-.63,1.14-.87.73-.25-.45-.49-.82-.74.38.16-2.9.45-3.13,1.01-4.9-.2-.2-.41-.36-.61-.53.69-2.54.99-3.25,1.2-4.01.23-.82.36-1.77.73-6.04-.23,1.62-.46,1.19-.68.79-.21-.41-.43-.81-.64.4-.03-1.09.03-2.31.18-3.61-.38.2-.71.33-.99.38h.12c-2.56,1.88-3.79,3.15-4.85,4.19-1.09,1.07-1.93,1.9-4.36,3.41l.45-.84c-1.63,1.01-3.58,2.39-5.44,3.81-1.29.92-2.57,1.95-3.84,2.97-2.56,2.05-5.1,4.17-7.56,5.87l1.44-1.55c-.38.54-3.48,2.08-4.55,3.7.31-.21.91-.48,1.15-.74.21.36.05,1.29-1.01,2.26l-.82-.15-.15.74c-1.68,1.39-.07-1.11-1.77.28.15,2.21-7.14,6.1-7.59,8.53-1.98-.08,3.08-2.76,1.07-2.64-.4.58-.46.96-1.5,1.93l-.12-.91c-4.83,4.5-6.37,6.62-11.04,10.18h.3c-1.44,1.53-2.39,2.13-3.55,2.19-.1.56,1.19-.25.76.51-4.12.78-4.78,5.77-7.41,6.1,1.22,1.04-1.57,5.25.78,4.93l-1.29.81c1.04.49,3.7-2.97,5.05-2.67l3-3.84c.13.4,1.11.36.59.94.92-.73,1.77-1.34.92.08,7.16-9.24,17.85-14.6,25.65-22.77.64-.41.54.15.46.53.97-2.08,1.86-.84,2.84-1.44l1.44-3.04c1.22-.45.76.51,1.01.68,2.31-1.68,4.32-3.7,6.27-5.54.97-.92,1.93-1.81,2.9-2.62l.68-.54c.13-.1.28-.2.41-.28.28-.16.54-.3.81-.36.21-.51.15-.84.08-1.09-.07-.26-.1-.49.43-1.06-1.06,2.79,2.64-1.24,1.52,1.04.81-1.9,1.91-2.69,2.85-3.81.18.2.51,0,1.39-1.9.13,1.78-.94,3.08-1.14,3,.08,1.6.1,3.33-.59,5.05.26.4.12,1.67.13,5.38,0,.81.03,1.63.03,2.44.03,1.09.07,2.14.15,3.07.15,1.86.38,3.22.81,3.61-.89-1.04-.69.03-.86,2.01.31.03.64.08.96.16l-1.65.53c-.15-.18-.28-.36-.43-.56v.97l4.65-.08c1.09.1,1.42.05,1.45-.03.92-.05.03-.54,2.29-.79,1.86-.03,2.29.08,2.82.26.49.18.86.45,1.53.69l-.36.15,1.65.08c1.2-.03-4.27-.94-.33-1.44.05.26,2.38,1.52,3.43.84-2.01.05-1.77-.61-1.02-.89l2.82-.07-.94,1.2c8.1-.07,16.51-.92,25.16-.84-.12-1.06,6.12-.05,5.35-1.6l-.33.15c-2.13-.15.61-1.22,2.34-1.06-1.81.49,3.23,1.55-1.15,1.78l3.4.73c1.88,2.99,9.06-.25,14.2.71-.36-.12-.46-.28-.49-.36,4.57.96,10.26-.81,11.32-.33l.41-.82c3.91,1.25,4.37,1.37,9.04.86-.07-.13-.59-.36.13-.54,1.12.61,2.24,1.2,5.44,1.04l-.13-.26,5,.13c-.03-2.52,8.55,1.53,10.05-1.19.97.74,4.64.97,6.25,1.32,0-.1.12-.21.38-.33,1.91,1.35,5.53-.43,7.65-.26,1.39.33.79.76.18,1.19.33-.13.69-.21,1.07-.25.18-.02.38-.03.58-.03h.49c.36.05.71.2.94.38.49.36.45.81.73.69h.03c.1.49.97-.58,1.52-.81-.12.87-.69,1.09-1.11,1.34-.41.26-.68.33-.16.79.12-.16.2-.51.35-.45.05.12.28.23.56.41.3.21.66.33.99.97.68,1.07,1.25,2.13.97,2.89l-.45-1.01c-.64,2.79,2.06,6.6.35,7.04l-.79-.26c1.04,4.8-.31,2.03.61,6.9l.13-.07c-.15,2.13.84,3.27-.43,4.31l-.16-.73c-.1,2.64,0,2.87.07,5.54-.12.31-.31,1.62-.05,1.98-1.06.12-.48,6.22-.43,7.42.15-2.13.61-1.12,1.04-.51-.86,1.25-.96,2.11-.33,3.84-.66.08-1.34.4-1.86.54-.53.2-.89.36-.94.78.2-.02.31-.25.58-.03.26.25-.03.41-.13.41.26.31.48,0,.94.41-.51.15-.63.31-.59.69-.41.03-.87.33-1.78.07.56.4.3.66.16,1.11-.13-.38-.3-.48-.51-.46-.1,0-.21.05-.35.12-.25.07-.49.13-.73.2-.96.26-1.72.48-1.07-.48-6.55,1.15-16.65.08-19.2,1.32-.69.54-2.51-.33-3.66-.36l.15.66c-3.2-1.19-2.49-.45-6.24-1.63,1.55.78.91,1.14-.66,1.75l-2.57-1.35-.49,1.01c-1.06-.4-2.24-.23-3.41-.08.58,0,.26.1.23.28-.56-1.4-5.18-1.24-5.89-1.9-1.15,1.37-3.08-.35-3.93.94-.38-.2-.87-.35-1.4-.48.56-.59.76-1.27-.28-.97-.08,0-.16,0-.25-.02l-.45.79c-1.06-.18-2.14-.28-2.85-.3.33-.07.69-.21,1.07-.4-.46.12-.87.26-1.29.4h-.38c.07.02.15.03.23.03-.64.18-1.32.28-2.24,0-3.71,1.22-8.25-1.67-12.34,0,.61-.16,1.48-.25,1.72.03-3.41-.08-6.83,1.06-8.99.45l.15-.74c-2.51-.33-4.45-.58-6.47-.53l-.12-.84c-2.94.31-9.24-1.04-11.04.68-.73-.66-4.06.2-5.74-.03l-.43.64c-2.18.21-3.51-.02-4.82-.2-2.21.68-4.34.68-6.4.53-1.02-.1-2.05-.18-3.04-.28-.53-.05-.94-.08-1.53-.12-.81-.02-1.6-.03-2.39-.02v.18l-6.71-.46c1.55.41.12.03-1.6-.16-.08.53-.13,1.17-.08,1.8-.31,1.9-.15,5.69.26,8.18l.03,2.85c.43-2.77.92.2,1.67.35l-.59,1.6c.36.64.58-1.02.74.15-.4,1.53-.38,3.02-1.14,3.07-.18-.18-.36-.43-.51-.66.05-.03.03-.03,0-.02l-.03-.05s0,.03.03.05c-.07.02-.2.03-.3,0,.16.71-.15.28-.48.03.58.68.68,1.14.79,1.53.12.43.26.84.94,2.28-1.27-2.72-.43.58-.96-.13-.15-.23-.28-.53-.43-.92-.02-.05-.05-.1-.08-.16,0,.03.03.07.03.1.36,1.01.25.91.18.86-.07-.07-.1-.12.1.68.18,0,.43.26.78.69.25-.15.87.12,1.22-.26.23.73.46,1.52.69,2.38.66.66.54-.51.31-1.62-.23-1.14-.58-2.18-.35-2.38-.31.26,0,1.75.3,2.21-.33-.56-.68-1.09-1.01-1.58-.2-1.06-.1-1.62.1-2.21.21-.58.53-1.15.79-1.86.16.71.31.35.51-.15.2-.46.45-1.2.81-.53l-.13,1.35c.36.73.66-.58.96-1.45-.26-1.62-.35-3.76-.4-5.82-.03-2.03-.03-4.04-.12-5.69,1.12-.07,1.95-.16,2.28-.38-.58.18-1.67.12-2.71-.05-.07.26-.13.49-.21.66l-.16-1.04,1.2-.25c-.51,0-.94.05-1.34.12.23,1.62.66,3.1.41,4.95-.31-.33-.69-.08-1.11,0s-.86,0-1.29-1.53c-.4-2.9-.23-4.42.12-5.31,1.24.26,2.39.63,3.7.91,1.32.28,2.74.48,4.87.4.33.1-.05-.16-.05-.41,0-.12.1-.23.48-.3.31-.07.76-.08,1.53,0,3.88.64,6.71,2.1,6.71,3.5-1.63-.41-4.9-1.22-5.39-.21,1.63.41,4.44.66,4.59,1.3,1.68-1.17-3.07-.35-.86-1.32,1.14.03,1.63.41,2.16.61-.76-.48,1.02-.81,1.37-1.09,3.71,0,5.84-.53,9.82-.63.21-.16.64-.54.53-.82,1.95.31,4.72,2.06,3.99,2.79,2.28.05,2.39-.51,4.34-.18-3.1,1.04.61-.18.94.96,1.98.13.69-.54,1.6-.81.33.12,1.12.49,1.17.79,1.22-.86-2.36-2.23-.92-3.22.99-.63,5.25-1.75,5.56-1.83.94.96.66,4.87-.74,6.14.15.66,1.88-.69,2.74-.78,2.52-1.06,3.84.82,5.94.41l-1.6-.59c.35-.26,3.43.08,3.93.46.08-.36-1.6-1.9-.64-2.34,3.76-.2,7.34,1.85,7.09,2.95l-5.77-1.15c-.2.92,4.09.92,3.86,2.03l5.31-.33c-.68-.03-2.72-.3-1.91-.81,2.28.05,1.19-.16,2.71-.59-2.62-1.17-7.41-4.17-9.12-5.61l2.74.63.69-.54c3.58.73,6.8,4.36,7.74,5.3,2.06-.23,1.34-2.21.84-2.59,4.04-.1,3.99,2.79,8.07,2.51l-1.53.43c.96.18,4.45-.21,4.07.15.81-.53,1.55-1.77.64-2.1l3.61,1.85c-.53-.2-.18-1.78-.41-2.06,1.45-.07,2.47,1.83,1.55,2.1,2.82-1.14,2.13-.51,4.42-1.86.84.12-.08,1.68-.69,1.85,1.9.43,3,.23,3.89.05-3.12-.68-.86-3.55-1.44-4.75l6.71,4.72c-.23-.28-.76-1.8-.73-1.98.56,1.4,8.27,1.58,12.03,1.39h-.56c-.76-.49,2.47-.89,3.79-.4-.23-.28-.53-.2-1.11-.21,2.52-1.06,3.27,2.13,5.82.89-2.33.13-2.77-.43-2.66-.99,1.9.51,6.32-.05,5.39,1.6,1.22-.35,2.33-.13,2.21-.97,2.01.33,4.57.66,7.19.99-.68-.16-1.39-.66.49-.78-3.76.21-7.92-1.32-8.84-.25-.07-1.02.92-1.57-.35-2.43,3.33.33,6.45,1.25,10.39,2.19.43-.96.86-2.05,1.22-3.4l-.36-3.55-.18-1.67-.18-1.14.46-.18-1.17-.78c.26-.56.49-.91.4-1.02-.1-.1-.26.03-.43.26.07-.46.16-.89.28-1.12-.61-.18-1.32.61-1.96,1.45.21.4.43.82.64,1.22-.59.87-1.2,1.5-1.58.28.08-.16.16-.4.25-.63-.45.56-.81.91-.97.49l.56-3.41c.16.4.49.97.87,1.65.78-2.13,1.72-4.57,2.51-2.67l-.69-2.59c1.17-3.05.92-2.52,1.8-6.24-.41-.2-.76.79-1.06.12,1.32-2.71-1.53-6.6-.38-7.19.28-2.19,1.02-.91,1.34-2.29-.13.07-.4.2-.41-.21l.84-1.65c-.3-.66-.58,1.52-.94-.35.63-3.18,1.06-5.05.66-7.7.2-3.78,1.68,1.62,1.52-1.58-.69-.46-1.5-.89-1.62-2.89.23-.68.49-1.19.73-1.73.23-.58.45-1.34.59-3l-1.06.61c.05-2.69.25-5.08-.56-4.39.12-.59.18-1.14.25-1.63-1.24-.16-2.39-.08-3.32.03-1.58-.25-1.06-.69.38-1.15,1.42-.46,3.83-.92,5.26-1.22.08.23.15.41.18.49-.03-.2-.07-.4-.1-.58-2.54.33-4.42.4-6.1.54-1.67.15-3.13.36-4.4.96l3.61.28c-4.07.66-5.91.28-6.47.02-.79-.26-1.27-.4-2.36.73,1.6-.08,3.51.48,2.57,1.06l-2.31-.54c-.26.28,1.32.2.26.51-.66-.23-2.01-.78-2.61-1.12l.03.07-4.19-.18c.79-.05.99.35.2.4l-2.74-.56c.84.26-.02.59-1.25.76-3.53.31-2.82-2.38-5.58-1.3.4-.02.46.12.87.08l-1.4.48c-.3-2.24-8.31-.23-8.61-2.47-2.01.91-.13.54,2.44,1.6l-2.14.64c.87.08,1.6-.08,2.52.13l-.03.18ZM188.97,69.59c.89-.46,2.74.05,3.55.21-1.86.26-2.72.69-3.55-.21ZM193.81,117.87c.3.94.43,1.98.16,2.47-.2-.97-.23-1.8-.16-2.47ZM61.52,126.67s-.03.05-.03.1c-.15-1.62-.26-2.46.03-.1ZM61.89,129.87c-.03-.35-.13-.58-.23-.76.03.58.03,1.12.02,1.57-.02.31-.08.49-.18.61.12.12.21.15.33-.15.08-.35.1-.94.07-1.25v-.02ZM68.36,76.4l-.91.21c-.41-.23-.82-.45.91-.21Z"/><path class="c" d="M195.08,114.34c-.13-.18-.28-.23-.43-.26.13-.25.28-.25.43.26Z"/><path class="c" d="M138.29,68.88h-.1s-.08-.08-.1-.13c0,0,.2.13.2.13Z"/><path class="c" d="M103.01,127.59c.59-.12.92-.26,1.14-.41.03.2-.23.36-1.14.41Z"/><path class="c" d="M60.48,138.61s.13-.1.21-.16c-.03.18.13.51.26.86-.18-.31-.46-.81-.46-.69h-.02Z"/><path class="c" d="M55.43,141.63c-.15-.25-.45-.36-.58-.61l.3-.25c.81.69,1.3,1.47.3.86h-.02Z"/><path class="c" d="M63.12,143.92c.48.96.49,1.47.43,1.9-.21-.21-.45-.45-.68-.69.05.03.08.08.13.1-.61-1.2-.53-1.29-.16-.92.05-.18.16-.26.3-.4l-.02.02Z"/><path class="c" d="M62.69,144.96c-.25-.23-.48-.45-.66-.56-.33-.76.18.05.66.56Z"/><path class="c" d="M61.38,134.77c.16.61-.86.38-.58.73-.86.68,1.04-4.07.58-.73Z"/><path class="c" d="M65.33,149.05l-.82-2.08c.21.23.45.43.66.59l.16,1.47v.02Z"/><path class="c" d="M64.72,138.64l.23,2.03c-.13-.13-.21.05-.28.28-.03-1.17-.2-2.46.05-2.31Z"/><path class="c" d="M64.67,140.95c0,.61,0,1.15-.13,1.34,0-.3.03-.94.13-1.34Z"/><polygon class="c" points="65.57 146.64 65.41 145.75 65.34 144.2 65.57 146.64"/><path class="c" d="M72.9,123.58l2.24.23c.23.28-.38.46-1.22.35-.54-.2-1.37-.31-1.02-.58Z"/><path class="c" d="M67.42,125.84c.31-.16.21-.36.3-.63l.79,1.02s-1.09-.4-1.09-.4Z"/><path class="c" d="M72.65,126.09c.23.28,3.25.81.41.76-.23-.28-2.47-.51-.41-.76Z"/><polygon class="c" points="106.47 124.79 105.91 124.77 105.99 123.1 106.47 124.79"/><path class="c" d="M136.28,128.81c-2.66.4-.63-1.04-3.04-.53-.63-.4,1.96-.41,1.32-.76,1.6.41,2.44.18,1.72,1.29Z"/><path class="c" d="M134.58,127.52c-.26-.07-.53-.15-.82-.25.46.1.68.18.82.25Z"/><polygon class="c" points="9.14 99.05 8.02 100.4 8.53 99.27 9.14 99.05"/><path class="c" d="M5.79,100.16l.36,1.09-1.4-.1c.33-.21.97-.61,1.04-.97v-.02Z"/><path class="c" d="M198.06,72.61l-.26.4c-.28-.33-.3-1.04-.35-2.46l.59,2.06h.02Z"/><polygon class="c" points="171.68 68.45 172.1 68.43 171.34 69.39 171.68 68.45"/><path class="c" d="M152.22,67.21c.79-.03,1.73.18,2.52.13-1.73-.18-2.74,1.07-2.52-.13Z"/></svg>