<?xml version="1.0" encoding="UTF-8"?><svg id="a" xmlns="http://www.w3.org/2000/svg" width="200" height="200" viewBox="0 0 200 200"><defs><style>.b{fill:#fff;stroke:#fff;stroke-miterlimit:10;}</style></defs><polygon class="b" points="1.15 102.68 64.07 50.27 64.07 76.32 191.81 76.32 191.81 129.05 64.07 129.05 64.07 155.1 1.15 102.68"/><path class="b" d="M4.27,99.89c-.6-.52,0-.83,0-1.03.81.93-.2,1.14,0,1.03Z"/><polygon class="b" points="13.03 109.3 13.03 108.89 14.04 110.65 13.03 109.3"/><path class="b" d="M22.19,116.85c-1.61.21-3.22-2.89-5.13-3.93h-.4l-.1-1.34c1.91,1.76,4.13,4.45,5.64,5.27Z"/><path class="b" d="M28.73,118.92c-.6.1.81,1.24-1.21-.83q.2.1.3.1c.2.21.5.41.91.72Z"/><path class="b" d="M27.83,118.19c-.91-.83.91.31,0,0h0Z"/><path class="b" d="M32.15,122.22l-1.01-1.45c.4,0,1.61.93,1.31.41,1.11,1.24.7,1.24-.3,1.03Z"/><path class="b" d="M32.76,123.88l-.5-.72c.2,0,.4.1.5.72Z"/><path class="b" d="M31.05,121.71l1.21,1.45c-.3,0-.6.31-.6-.62-.1.41-.2-.1-.6-.83h0Z"/><path class="b" d="M30.14,121.29c-.91-.41-1.91-1.14-.91.31-2.32-2.17-1.41-2.58.91-.31Z"/><path class="b" d="M21.99,118.3l-1.11-.52-.6-1.03c.2.52,2.01,1.34,1.71,1.55h0Z"/><path class="b" d="M40.51,128.32c0,.21-.81.1-1.11.31l-.81-1.03c.5.31,1.61.93,1.91.72Z"/><path class="b" d="M39.3,128.63l1.11,1.55c-1.31-1.03-1.41-1.34-1.11-1.55Z"/><polygon class="b" points="32.15 125.12 30.44 122.43 32.66 125.53 32.15 125.12"/><polygon class="b" points="45.84 132.77 45.44 131.63 46.25 133.49 45.84 132.77"/><path class="b" d="M49.37,135.87c-.3-.93,1.31,0,.91-.72.91.83,1.51,1.86,2.01,2.79-.7-.83-1.61-1.45-2.92-2.07h0Z"/><path class="b" d="M53.09,139.39c-.3-.41-.6-.93-.91-1.45.4.41.7.93.91,1.45Z"/><path class="b" d="M42.83,132.15c.2-.1.7-.21,1.61.31l-1.01.1c-.1-.1-.3-.31-.6-.41Z"/><path class="b" d="M43.53,132.56h0c.6.41,1.01.83,1.21.93-.2-.1-.6-.41-1.21-.93Z"/><path class="b" d="M42.83,131.94s0,.1.1.1q-.1,0-.1-.1Z"/><path class="b" d="M36.28,127.7c.6,1.03,2.01,2.79,0,1.86-.3-.93.91-.31,0-1.86Z"/><path class="b" d="M41.52,132.15l-1.61-1.14c.2-.1.6-.1.3-.62l1.31,1.76Z"/><polygon class="b" points="42.12 132.87 41.52 132.15 42.12 132.56 42.12 132.87"/><path class="b" d="M50.17,137.83c.4.72,1.11,1.34,1.91,2.07-.91-.62-1.91-1.24-2.72-1.96,0-.31-.1-.93.81-.1Z"/><path class="b" d="M46.85,135.35l.1.1c-.1,0-.2-.1-.1-.1Z"/><path class="b" d="M57.52,144.55v-.1s0,.1,0,.1Z"/><path class="b" d="M49.17,137.94c-.81-.52-1.01-.93-1.31-1.34.5.41,1.01.93,1.51,1.34,0,.1,0,.21-.2,0h0Z"/><path class="b" d="M55.21,141.45c-.5-.21-.91-.41-1.41-.62.4.1,1.31.41,1.41.62Z"/><path class="b" d="M47.25,135.35h0c.3.1.2.1,0,0Z"/><path class="b" d="M47.35,135.46c.2.41.4.72.6,1.03-.3-.31-.7-.72-.91-1.03h.3Z"/><path class="b" d="M60.04,152.52c-.2-.52-.7-1.45-1.31-2.17-.6-.72-1.31-1.24-2.11-1.45-.7-.93-.6-1.65-.2-2.38.3-.72.81-1.34,1.11-1.96,0,.31-.1.62.81,1.86-.1.1-.6,0-1.01,0s-.7.1-.3.83c1.51,1.65,1.21.72,1.81.72-.2.41.3,1.24,1.01,2.27s1.71,2.38,1.81,3.31l-1.91-2.17c0,.21.81,1.24.3,1.14h0Z"/><path class="b" d="M56.31,143.73l-.2-.31c.4.1.7,0,1.11-.31.2.62.3,1.03.3,1.34l-1.21-.93v.21Z"/><path class="b" d="M53.6,141.25c0,1.03,1.31,2.48-.1,2.27-1.71-1.55-.81-1.55-1.71-2.69,2.72,2.58-.6-.93,1.81.41-.5-.52-1.01-.93-1.51-1.45.6.41,1.21.72,1.71,1.03h-.1c-.2-.1-.3-.1-.1,0v.41c.91.62.3,0,.1-.31v-.1h0l1.31,1.34.7.72.3.31q.1.1.1.21s-.5-.41-.91-.72c-.4-.41-1.01-.83-1.61-1.45h0Z"/><path class="b" d="M36.79,132.05c.1.1.2,0,.2,0,.2.21.2.31-.2,0Z"/><path class="b" d="M38.3,132.67c-.1-.21-.1-.62-.81-1.03-.7-.31-.2.21-.4.41-.3-.52-1.11-1.65.4-.83l.1.21c1.31.72,3.32,1.24,3.22,1.03-.81.21-1.31.31-2.52.21h0Z"/><path class="b" d="M45.84,137.21l2.21,2.27-1.61-.52.3-.21c-1.41-1.03-.91-1.14-.91-1.55Z"/><path class="b" d="M57.62,144.04c0-.31,0-.72-.1-1.14.1.62.3,1.14.5,1.86-.1-.21-.3-.52-.4-.72h0Z"/><path class="b" d="M58.73,145.07l-.3-1.24c.1.31.2.62.4.93,0,.1-.1.21-.1.31h0Z"/><path class="b" d="M173.29,72.29l-.91-.21c.4.1.7.1.91.21Z"/><path class="b" d="M179.83,72.29l.2.31c-.3-.21-.4-.31-.2-.31Z"/><path class="b" d="M133.42,124.71c1.31-.62,2.82-1.55,2.62-.83l-.4.72c-.91-.1-1.61,0-2.21.1h0Z"/><path class="b" d="M192.01,119.43c.1.21.1.31.2.41-.3.31-.5.62-.7.93.2-.41.3-.83.5-1.34Z"/><path class="b" d="M195.03,118.5l-.5-1.76c.2.41.3.93.5,1.76Z"/><path class="b" d="M137.35,71.46l-1.11-.72c1.61,0,.91.41,1.11.72Z"/><path class="b" d="M75.84,124.91c1.11-.31,2.01-.41,2.82-.41-1.41.41-2.52,1.03-2.82.41Z"/><path class="b" d="M175.9,80.15c-.6-.1-.81-.31-.81-.41.6.1.91.21.81.41Z"/><path class="b" d="M81.98,124.5c-.2.1-.4.21-.6.21-.81-.21-1.71-.21-2.72-.21,1.01-.31,2.11-.52,3.32,0Z"/><path class="b" d="M36.68,67.64c-.1,0-.2.1-.2.21,0,0,0-.1.2-.21Z"/><path class="b" d="M11.82,98.03c.3-.21.81-.52,1.21-.93-.2.21-.6.52-1.21.93Z"/><path class="b" d="M59.54,141.66c-.1.21-.1,0,0,0h0Z"/><path class="b" d="M62.35,145.49s.1-.1.3,0c-.1-.1-.2-.1-.3,0Z"/><path class="b" d="M90.54,129.15q-.1,0,0,0-.3.1,0,0Z"/><path class="b" d="M59.84,142.18c-.1-.1-.2-.31-.2-.41,0,0,.1.21.2.41Z"/><path class="b" d="M59.43,142.07q.1.1.1.21c-.1-.1-.2-.1-.1-.21Z"/><path class="b" d="M59.54,141.25c0,.21,0,.31.1.41,0-.1-.1-.1-.1-.1v-.31h0Z"/><path class="b" d="M76.75,74.05s-.1.1-.2.1c-.91-.31-.5-.21.2-.1Z"/><path class="b" d="M155.67,132.36c-.1.1-.1,0-.1,0h.1s-.1.1,0,0Z"/><path class="b" d="M158.69,132.98c-1.31-.93-2.01-.83-3.02-.62l1.01-2.17,2.01,2.79Z"/><path class="b" d="M160.2,72.19c-2.82,1.03-5.54-.21-7.05-.83-1.11.31.91,1.76-2.21,1.34-4.33-.41.81-1.65-1.81-1.96l-1.91,1.24c-3.32-.93-5.84-.1-8.66,0-.6-.1-1.01-.21-1.11-.31-3.02.52-6.34-1.24-8.56-.83.5.21-1.31.72-1.61,1.03l-4.03-.72c1.81.31,1.71,1.03,2.01,1.65-1.21,0-1.81-.41-2.72-.52.5.31,1.11.52.4.83l-4.73-1.14c.2-.1.7-.21,1.11-.21-1.11,0-3.42-.41-4.93.1.1.31.7.52.81.83,1.31-.72,2.01-.1,2.72.41-2.92-.21-.7.1-2.11.62-2.11-.1-2.92-.93-2.42-1.55-2.42.31-3.12.52-5.54-.21l.4.93-2.21-.31,1.81,1.14c-4.23.62-.7-1.55-5.44-1.03v.83c-1.81-.31-2.42-1.76-3.83-.72-1.71-.52,3.02-1.14-1.11-1.34-.7.41-2.21.72-3.42.93-1.31-.31,1.01-.93,1.81-.83-6.14-.31-3.83,2.89-9.36,1.76,1.91-.62-1.61-1.55,2.92-1.55-2.11-.52-4.23,1.24-6.44.31l1.51,1.03c-.81,0-1.71-.41-2.11-.52l.2.83c-2.72-1.45-5.13.62-6.74-1.24,1.21,1.55-2.01,0-3.12.52,2.32,1.03,6.54,0,6.85,1.34-1.01.41-2.01-.31-3.02.1.7.21,1.71.52,2.01.83-3.52.83-5.54-.83-7.65-1.14l3.72.31c-.3-1.34-1.71-.31-2.72-1.34-2.32.72-2.32-.31-3.22.1.2,0,.2.1.4.1-.91,0-1.81.41-2.92.93-.5-.21-1.21-.41-1.21-1.14-.1-.62.1-1.65.3-2.38.2-.62.5-1.14.81-.62.4-.83-.4,3.83,1.31,1.45-2.01-.41.7-2.58-.6-8.89-.4,1.65-.7,1.14-.91.72-.2-.41-.5-.83-.7.41.2-3,.4-3.2,1.01-5.07-.2-.21-.4-.31-.6-.52.7-2.58,1.01-3.31,1.21-4.14s.3-1.76.7-6.2c-.3,1.65-.5,1.24-.7.83-.2-.41-.4-.83-.6.41,0-1.14.1-2.38.2-3.72-.4.21-.7.41-1.01.41h.1c-2.62,1.96-3.83,3.31-4.93,4.34-1.11,1.14-2.01,1.96-4.43,3.52l.4-.83c-1.61,1.03-3.52,2.48-5.44,3.93-1.21,1.03-2.52,2.07-3.83,3.1-2.62,2.17-5.13,4.34-7.65,6.1l1.41-1.65c-.4.52-3.52,2.17-4.63,3.83.4-.21,1.01-.41,1.21-.72.2.41.1,1.34-1.01,2.38l-.81-.1-.1.72c-1.71,1.45-.1-1.14-1.81.31.1,2.27-7.25,6.31-7.65,8.79-2.01,0,3.12-2.79,1.11-2.69-.4.52-.5.93-1.51,1.96l-.1-.93c-4.83,4.65-6.34,6.82-11.07,10.55h.3c-1.41,1.55-2.32,2.17-3.52,2.27-.1.52,1.21-.31.81.52-4.13.83-4.83,6-7.45,6.31,1.21,1.03-1.51,5.38.81,5.07l-1.31.83c1.01.52,3.62-3.1,5.03-2.79l3.02-3.93c.1.41,1.11.31.6.93.91-.72,1.71-1.34.91.1,7.25-9.61,18.02-15.09,25.87-23.57.7-.41.6.1.5.52.91-2.07,1.81-.83,2.82-1.45l1.41-3.1c1.21-.41.81.52,1.01.72,2.32-1.65,4.43-3.83,6.34-5.69,1.01-.93,1.91-1.86,2.92-2.69l.7-.52c.1-.1.3-.21.4-.31.3-.21.5-.31.81-.41.2-.52.2-.93.1-1.14-.1-.31-.1-.52.4-1.14-1.11,2.79,2.62-1.34,1.51,1.03.91-1.96,2.01-2.79,2.92-3.93.2.21.5,0,1.41-1.96.2,1.86-.91,3.2-1.11,3.1.1,1.65.1,3.41-.6,5.17.2.41.1,1.76.1,5.58v2.48c0,1.14,0,2.27.1,3.2.1,1.96.4,3.31.81,3.72-.91-1.14-.7,0-.91,2.07.4.1.7.1,1.01.21l-1.61.52c-.1-.21-.3-.41-.4-.62v1.03s4.73-.1,4.73-.1c1.11.1,1.51.1,1.51,0,.91-.1,0-.62,2.32-.83,1.81,0,2.32.1,2.82.31s.81.52,1.51.72l-.4.1,1.61.1c1.21,0-4.23-.93-.3-1.45,0,.21,2.32,1.55,3.42.83-2.01,0-1.71-.62-1.01-.93l2.82-.1-.91,1.24c8.15,0,16.71-.93,25.37-.83-.2-1.14,6.14,0,5.34-1.65l-.3.1c-2.21-.21.6-1.34,2.32-1.14-1.91.52,3.22,1.65-1.21,1.86l3.42.72c1.91,3.1,9.16-.31,14.29.72-.4-.21-.5-.31-.5-.41,4.63,1.03,10.27-.83,11.38-.31l.4-.83c3.93,1.34,4.33,1.45,9.06.93-.1-.1-.6-.31.1-.52,1.11.62,2.21,1.24,5.44,1.03l-.1-.31,5.03.1c-.1-2.58,8.56,1.55,10.07-1.24,1.01.72,4.73,1.03,6.34,1.34,0-.1.1-.21.4-.31,2.01,1.34,5.64-.52,7.75-.31,1.41.31.81.83.2,1.24.4-.1.7-.21,1.11-.21h1.11c.3.1.7.21.91.41.5.41.4.83.7.72h0c.1.52,1.01-.62,1.51-.83-.1.83-.7,1.14-1.11,1.34-.4.31-.7.31-.2.83.1-.1.2-.52.3-.41s.3.21.6.41.7.41,1.01,1.03c.7,1.14,1.31,2.17,1.01,3l-.4-1.03c-.7,2.79,2.01,6.82.3,7.24l-.81-.31c1.01,4.96-.3,2.07.6,7.13l.1-.1c-.1,2.17.91,3.41-.4,4.45l-.2-.72c-.1,2.69,0,2.89.1,5.69-.1.31-.3,1.65,0,2.07-1.01.1-.4,6.41-.4,7.65.1-2.17.6-1.14,1.01-.52-.81,1.24-.91,2.17-.3,3.93-.7,0-1.41.41-1.91.52-.5.21-.91.41-.91.83.2,0,.3-.21.6,0,.3.21,0,.41-.1.41.2.31.4,0,.91.41-.5.21-.6.31-.6.72-.4.1-.91.41-1.81.1.6.41.3.72.2,1.14-.1-.41-.3-.52-.5-.52-.1,0-.2,0-.3.1-.2.1-.5.1-.7.21-1.01.21-1.71.52-1.11-.52-6.54,1.14-16.71.1-19.33,1.34-.7.52-2.52-.41-3.72-.41l.1.72c-3.22-1.24-2.52-.41-6.24-1.65,1.51.72.91,1.14-.7,1.76l-2.62-1.45-.5,1.03c-1.01-.41-2.21-.21-3.42-.1.5,0,.2.1.2.31-.6-1.45-5.23-1.24-5.94-1.96-1.11,1.34-3.12-.41-3.93.93-.4-.21-.91-.41-1.41-.52.5-.62.7-1.34-.3-1.03h-.2s-.4.83-.4.83c-1.11-.21-2.21-.31-2.92-.31.4-.1.7-.21,1.11-.41-.5.1-.91.31-1.31.41h-.4s.1,0,.2,0c-.6.21-1.31.31-2.21,0-3.72,1.24-8.25-1.76-12.38,0,.6-.21,1.51-.31,1.71,0-3.42-.1-6.85,1.03-9.06.41l.1-.72c-2.52-.31-4.53-.52-6.54-.52l-.1-.83c-2.92.31-9.26-1.03-11.07.72-.7-.62-4.03.21-5.74,0l-.4.62c-2.21.21-3.52,0-4.83-.21-2.21.62-4.33.62-6.44.52-1.01-.1-2.01-.21-3.02-.31-.5,0-.91-.1-1.51-.1h-2.42s0,.21,0,.21l-6.74-.52c1.61.41.1,0-1.61-.21-.1.52-.1,1.24-.1,1.86-.3,1.96-.1,5.89.3,8.48v3c.5-2.89,1.01.21,1.71.31l-.6,1.65c.3.62.5-1.14.7.1-.4,1.65-.3,3.2-1.11,3.2-.2-.21-.4-.52-.5-.72h-.3c.1.72-.2.21-.5,0,.6.62.7,1.14.81,1.55.1.52.2.93.91,2.38-1.31-2.79-.5.62-1.01-.1-.1-.21-.3-.52-.4-.93,0-.1-.1-.1-.1-.21v.1c.4,1.03.3.93.2.93s-.1-.1.1.72c.2,0,.5.31.81.72.2-.21.91.1,1.21-.31.2.83.5,1.55.7,2.48.6.72.5-.52.3-1.65-.2-1.24-.5-2.27-.3-2.48-.3.31,0,1.76.3,2.27-.3-.62-.7-1.14-1.01-1.65-.2-1.03-.1-1.65.1-2.27.2-.62.5-1.24.81-1.96.2.83.3.41.5-.1.2-.41.4-1.24.81-.52l-.1,1.45c.4.72.7-.62,1.01-1.55-.3-1.65-.4-3.83-.4-6,0-2.07,0-4.24-.1-5.89,1.11-.1,2.01-.21,2.32-.41-.6.21-1.71.21-2.72,0-.1.31-.1.52-.2.72l-.2-1.03,1.21-.21c-.5,0-.91,0-1.31.1.2,1.65.6,3.2.4,5.07-.3-.31-.7-.1-1.11,0s-.91,0-1.31-1.55c-.4-3-.2-4.55.1-5.48,1.21.31,2.42.62,3.72.93,1.41.31,2.82.52,4.93.41.4.1,0-.21,0-.41,0-.1.1-.21.5-.31.3-.1.7-.1,1.51,0,3.93.62,6.74,2.17,6.74,3.62-1.61-.41-4.93-1.24-5.44-.21,1.61.41,4.53.72,4.63,1.34,1.61-1.24-3.12-.31-.91-1.34,1.21,0,1.71.41,2.21.62-.7-.52,1.11-.83,1.41-1.14,3.72,0,5.84-.52,9.87-.62.2-.1.6-.52.5-.83,2.01.31,4.73,2.17,4.03,2.89,2.21,0,2.42-.52,4.33-.21-3.12,1.14.6-.1.91,1.03,2.01.1.7-.52,1.61-.83.4.1,1.21.52,1.21.83,1.21-.83-2.32-2.27-.91-3.31,1.01-.62,5.34-1.76,5.64-1.86,1.01.93.7,4.96-.7,6.31.1.62,1.81-.72,2.72-.83,2.52-1.14,3.83.83,5.94.41l-1.61-.62c.3-.21,3.42.1,3.93.52.1-.31-1.61-1.96-.6-2.38,3.83-.21,7.35,1.96,7.15,3.1l-5.84-1.24c-.2.93,4.13.93,3.93,2.07l5.34-.31c-.7,0-2.72-.31-1.91-.83,2.32,0,1.21-.21,2.72-.62-2.62-1.24-7.45-4.34-9.16-5.79l2.72.62.7-.52c3.52.72,6.85,4.55,7.75,5.48,2.01-.21,1.31-2.27.81-2.69,4.13-.1,4.03,2.89,8.15,2.58l-1.51.41c1.01.1,4.53-.31,4.13.1.81-.52,1.51-1.86.6-2.17l3.62,1.86c-.5-.21-.2-1.86-.4-2.17,1.51-.1,2.52,1.86,1.61,2.17,2.82-1.24,2.11-.52,4.43-1.96.81.1-.1,1.65-.7,1.86,1.91.41,3.02.21,3.93,0-3.12-.72-.81-3.72-1.41-4.96l6.74,4.86c-.2-.31-.7-1.86-.7-2.07.5,1.45,8.25,1.65,12.08,1.45h-.6c-.81-.52,2.52-.93,3.83-.41-.2-.31-.5-.21-1.11-.21,2.52-1.03,3.22,2.17,5.84.93-2.42.1-2.82-.41-2.72-1.03,1.91.52,6.34,0,5.44,1.65,1.21-.41,2.32-.21,2.21-1.03,2.01.31,4.63.72,7.25,1.03-.7-.21-1.41-.72.5-.83-3.72.31-7.95-1.34-8.86-.21,0-1.03,1.01-1.55-.3-2.48,3.32.31,6.54,1.34,10.47,2.27.4-1.03.81-2.07,1.21-3.52l-.4-3.62-.2-1.76-.2-1.14.5-.21-1.21-.83c.3-.52.5-.93.4-1.03s-.2.1-.4.31c.1-.41.2-.93.3-1.14-.6-.1-1.41.72-2.01,1.55.2.41.4.83.6,1.24-.6.93-1.21,1.55-1.61.31,0-.1.1-.41.2-.62-.5.62-.81.93-1.01.52l.6-3.52c.2.31.5.93.91,1.65.81-2.27,1.71-4.76,2.52-2.79l-.6-2.69c1.21-3.1.91-2.58,1.81-6.41-.5-.21-.81.83-1.11.1,1.31-2.79-1.61-6.82-.4-7.44.2-2.27,1.01-.93,1.31-2.38-.1.1-.4.21-.4-.21l.81-1.65c-.3-.72-.6,1.55-.91-.41.7-3.31,1.11-5.17.7-7.96.2-3.93,1.71,1.65,1.51-1.65-.7-.52-1.51-.93-1.61-3,.2-.62.5-1.24.7-1.76.2-.62.5-1.34.6-3.1l-1.01.62c0-2.79.2-5.27-.6-4.55.1-.62.1-1.14.2-1.65-1.21-.21-2.42-.1-3.32,0-1.61-.31-1.01-.72.4-1.24,1.51-.41,3.93-.93,5.34-1.24.1.21.2.41.2.52,0-.21-.1-.41-.1-.62-2.52.31-4.43.41-6.14.52-1.71.21-3.12.41-4.43,1.03l3.62.31c-4.13.62-5.94.31-6.54,0-.81-.31-1.31-.41-2.42.72,1.61,0,3.52.52,2.62,1.14l-2.32-.52c-.2.31,1.41.21.3.52-.7-.21-2.01-.83-2.62-1.14v.1l-4.23-.21c.81,0,1.01.41.2.41l-2.72-.62c.81.31-.1.62-1.31.83-3.62.31-2.82-2.48-5.64-1.34.4,0,.5.1.91.1l-1.41.52c-.3-2.38-8.36-.31-8.66-2.58-2.11.93-.2.52,2.42,1.65l-2.11.62c.91.1,1.61-.1,2.52.1l.1.21ZM188.49,72.39c.81-.52,2.72,0,3.52.21-1.81.31-2.72.72-3.52-.21ZM193.32,122.22c.3,1.03.5,2.07.2,2.58-.2-.93-.2-1.86-.2-2.58ZM60.14,131.53q0-.1,0,0c-.1-1.76-.3-2.58,0,0ZM60.54,134.73c0-.41-.1-.62-.2-.83v1.65c0,.31-.1.52-.2.62.1.21.2.21.3-.1.1-.41.1-1.03.1-1.34h0ZM67.09,79.42l-.91.21c-.4-.21-.81-.41.91-.21Z"/><path class="b" d="M194.63,118.71c-.1-.21-.3-.31-.4-.31.1-.31.3-.31.4.31Z"/><path class="b" d="M137.45,71.57h-.1l-.1-.1s.2.21.2.1Z"/><path class="b" d="M102.02,132.36c.6-.1.91-.31,1.11-.41,0,.21-.3.31-1.11.41Z"/><path class="b" d="M59.13,143.73s.1-.1.2-.21c0,.21.2.62.3.93-.2-.31-.5-.83-.5-.72h0Z"/><path class="b" d="M54.1,146.83c-.2-.21-.5-.31-.6-.72l.3-.21c.81.72,1.31,1.55.3.93h0Z"/><path class="b" d="M61.85,149.21c.4,1.03.4,1.55.5,1.96l-.7-.72.1.1c-.6-1.24-.6-1.34-.2-.93.1-.21.2-.31.3-.41h0Z"/><path class="b" d="M61.45,150.34c-.3-.31-.5-.52-.7-.62-.4-.83.1,0,.7.62Z"/><path class="b" d="M60.04,139.8c.1.62-.91.41-.6.72-.81.72,1.11-4.24.6-.72Z"/><path class="b" d="M64.07,154.48l-.91-2.17c.3.21.5.41.7.62l.2,1.55h0Z"/><path class="b" d="M63.46,143.73l.2,2.07c-.2-.1-.2.1-.3.31,0-1.14-.2-2.48.1-2.38Z"/><path class="b" d="M63.36,146.21c0,.62,0,1.14-.1,1.34,0-.31,0-1.03.1-1.34Z"/><polygon class="b" points="64.27 152 64.07 151.17 64.07 149.52 64.27 152"/><path class="b" d="M71.72,128.32l2.21.21c.3.21-.4.41-1.21.31-.6-.21-1.41-.41-1.01-.52Z"/><path class="b" d="M66.08,130.49c.3-.1.2-.31.3-.62l.81,1.03s-1.01-.41-1.11-.41Z"/><path class="b" d="M71.41,130.7c.2.31,3.22.83.4.83-.2-.21-2.52-.52-.4-.83Z"/><polygon class="b" points="105.44 129.46 104.83 129.46 104.93 127.7 105.44 129.46"/><path class="b" d="M135.44,133.6c-2.62.41-.6-1.03-3.02-.52-.6-.41,1.91-.52,1.31-.83,1.61.41,2.42.21,1.71,1.34Z"/><path class="b" d="M133.72,132.25c-.2,0-.5-.1-.81-.21.4.1.7.21.81.21Z"/><polygon class="b" points="7.49 102.79 6.28 104.24 6.89 103.1 7.49 102.79"/><path class="b" d="M4.07,104.03l.4,1.14-1.41-.1c.3-.21.91-.62,1.01-1.03h0Z"/><path class="b" d="M197.65,75.49l-.3.41c-.2-.41-.3-1.14-.3-2.58l.6,2.17h0Z"/><polygon class="b" points="171.07 71.15 171.47 71.15 170.77 72.19 171.07 71.15"/><path class="b" d="M151.54,69.91c.81-.1,1.71.1,2.52.1-1.81-.1-2.82,1.14-2.52-.1Z"/></svg>