<?xml version="1.0" encoding="UTF-8"?><svg id="a" xmlns="http://www.w3.org/2000/svg" width="89.44" height="95.46" viewBox="0 0 89.44 95.46"><defs><style>.b{fill:#000;stroke-width:0px;}</style></defs><ellipse class="b" cx="16.45" cy="75.45" rx="12.9" ry="10.72" transform="translate(-12.96 4.05) rotate(-10.09)"/><path class="b" d="M30.31,72.89c.01.12.2.04.25.06-.09-.2-.3-.04-.25-.06Z"/><polygon class="b" points="29.29 71.1 29.38 71.1 29.09 70.91 29.29 71.1"/><path class="b" d="M28.45,69.48c-.19.32.39.53.43.89l-.05.08h.32c-.23-.34-.62-.7-.7-.97Z"/><path class="b" d="M28.5,68.21c-.07.14-.23-.1.12.22,0-.03,0-.04,0-.06-.03-.03-.06-.08-.12-.16Z"/><path class="b" d="M28.62,68.37c.13.16.01-.18,0,0h0Z"/><path class="b" d="M27.95,67.7l.27.13c.03-.1-.12-.29-.02-.26-.23-.17-.25-.07-.25.14Z"/><path class="b" d="M27.6,67.68l.13.07s0-.08-.13-.07Z"/><path class="b" d="M27.99,67.9l-.27-.15c-.02.07-.1.15.12.07-.09.05.02.03.15.07Z"/><path class="b" d="M28.06,68.06c.04.16.12.34-.14.21.36.35.51.14.14-.21Z"/><path class="b" d="M28.1,69.6v.21s.2.07.2.07c-.09-.03-.12-.35-.2-.28Z"/><path class="b" d="M26.88,66.4c-.06.05-.06.21-.11.29l.2.07c-.04-.11-.15-.27-.09-.36Z"/><path class="b" d="M26.78,66.69l-.31-.08c.19.17.27.15.31.08Z"/><path class="b" d="M27.28,67.91l.5.17c-.19-.08-.37-.17-.57-.23l.07.06Z"/><path class="b" d="M25.99,65.69l.24-.04c-.13,0-.26.02-.4.04h.16Z"/><path class="b" d="M25.35,65.31c.18-.06-.02-.3.14-.3-.19-.09-.4-.08-.59-.06.17.03.32.14.45.36Z"/><path class="b" d="M24.59,64.97c.09,0,.19,0,.31-.02-.09-.01-.19,0-.31.02Z"/><path class="b" d="M26.1,66.28s.05-.17-.05-.31l-.04.24s.06.05.09.07Z"/><path class="b" d="M26.01,66.22h0c-.09-.09-.16-.14-.19-.17.02.02.08.07.19.17Z"/><path class="b" d="M26.12,66.3l-.02-.02s0,.03.02.02Z"/><path class="b" d="M26.88,67.27c-.2-.03-.53-.17-.41.19.18-.03.11-.23.41-.19Z"/><path class="b" d="M26.07,66.59l.21.22s.04-.14.14-.14l-.35-.08Z"/><polygon class="b" points="25.92 66.56 26.07 66.59 26 66.51 25.92 66.56"/><path class="b" d="M24.95,65.4c-.16,0-.28-.06-.44-.12.14.11.27.23.42.32.05-.04.18-.11.02-.2Z"/><path class="b" d="M25.47,65.8h-.03s.01.03.03,0Z"/><polygon class="b" points="23.08 64.61 23.09 64.65 23.11 64.62 23.08 64.61"/><path class="b" d="M24.94,65.65c.09.1.18.1.28.09-.09-.03-.19-.08-.28-.13-.02.02-.04.04,0,.05Z"/><path class="b" d="M24.14,64.86c.04.07.09.14.15.21-.03-.09-.1-.24-.15-.21Z"/><path class="b" d="M25.43,65.72h.02c-.01-.06-.02-.04-.02,0Z"/><path class="b" d="M25.43,65.72c-.07-.01-.15,0-.22.02.08.03.15.05.22.06,0-.02,0-.05,0-.07Z"/><path class="b" d="M22.17,65.7c.08-.18.45-.23.62.07.3-.04.41-.69.31-1.12-.04.08-.07.15-.38.15.06.14.5.47.21.54-.38-.04-.26-.18-.39-.34.05.29-.56.15-.6.53.11,0,.22,0,.34,0-.01.05-.15.1-.09.18Z"/><path class="b" d="M23.61,64.89l.12.03c-.11-.1-.17-.21-.28-.42-.23.01-.3.06-.33.12.18.09.37.16.54.26h-.05Z"/><path class="b" d="M24.22,65.17c-.18.15-.48.1-.43.38.31.14.3-.05.53-.03-.53-.21.2-.03-.11-.33.12.02.22.06.31.09-.08-.07-.16-.14-.22-.22v.02s0,0,0,0h0s0,.06,0,.03h-.01s-.04.04-.06.06c-.13-.12,0-.06.06-.06l.02-.02h0s-.57-.16-.57-.16c.1.08.24.15.49.25Z"/><path class="b" d="M25.95,67.6s0-.04.02-.05c-.04,0-.07,0-.02.05Z"/><path class="b" d="M25.86,67.37s.13-.04.22.05c.05.12-.07.08-.11.13.1,0,.3.07.19-.18h-.05c-.12-.19-.19-.58-.14-.58-.07.19-.11.33-.11.57Z"/><path class="b" d="M25.07,66.28l-.45-.16.1.28.05-.1c.2.18.22.03.3-.02Z"/><polygon class="b" points="23.07 64.49 23.22 64.31 22.84 64.5 23.07 64.49"/><path class="b" d="M22.47,64.28l.09-.18c-.07.02-.13.03-.2.06.04.04.07.08.11.12Z"/><path class="b" d="M7.61,82.23l.12.04c-.05-.02-.09-.04-.12-.04Z"/><path class="b" d="M7.02,81.64l-.08.05c.06,0,.1-.02.08-.05Z"/><path class="b" d="M7.85,66.38c-.27-.03-.63-.11-.48.05l.18.13c.09-.12.2-.17.3-.18Z"/><path class="b" d="M3.69,75.38l.07-.05c-.07-.05-.13-.1-.19-.15.04.06.08.13.12.2Z"/><path class="b" d="M4.56,75.58c-.05.07-.09.14-.14.22.05-.05.09-.12.14-.22Z"/><path class="b" d="M11.72,84.25l.19-.17c-.2-.06-.15.07-.19.17Z"/><path class="b" d="M16.17,63.53c-.18-.07-.33-.11-.45-.1.23.1.41.29.45.1Z"/><path class="b" d="M5.8,83.64c.09.03.15.03.18-.01-.09-.04-.16-.04-.18.01Z"/><path class="b" d="M15.21,63.5s.07.02.1.04c.12-.05.25-.1.41-.11-.16-.07-.35-.1-.51.07Z"/><path class="b" d="M26.72,79.27s.03-.02.04-.02c-.02-.02-.03,0-.04.02Z"/><path class="b" d="M30.22,74.77c.01.06.01.16.01.25.02-.04.01-.12-.01-.25Z"/><path class="b" d="M20.05,63.55c.13.01.02-.02,0,0h0Z"/><path class="b" d="M20.5,64.52s-.06.04-.07.09c.02-.05.05-.08.07-.09Z"/><path class="b" d="M14.18,65.02h-.01s.04.03.01,0Z"/><path class="b" d="M20.23,63.69s-.1-.07-.16-.1c.02.02.07.05.16.1Z"/><path class="b" d="M20.22,63.58s.08.03.11.04c.02-.03.01-.06-.11-.04Z"/><path class="b" d="M19.86,63.53c.08,0,.14.04.21.06-.02-.02-.03-.03-.02-.04-.04,0-.09-.01-.18-.02Z"/><path class="b" d="M19.66,85.02s.02,0,.03.01c.09-.12.04-.09-.03-.01Z"/><polygon class="b" points="6.96 70.16 6.96 70.15 6.95 70.16 6.96 70.16"/><path class="b" d="M6.84,70.58c-.1-.3-.03-.37.11-.42l-.56-.3c.15.25.3.49.45.72Z"/><path class="b" d="M9.28,83.36l-.13-.31c.44-.1.57.12.5-.25-.37.55-.9-.47-1.3.03l-.06-.22s.07.01.1.05c-.08-.47-.5.23-.81-.14-.08-.15-.1-.3.03-.28l-.37-.12c-.07-.08.03-.15.1-.07-.14-.11-.29-.22-.43-.34h.02c-.13,0-.36-.02-.47-.05-.02-.17.1,0,.14-.08l-.32-.13c.06-.2.35-.12.46.05.34-.65-.31-.07-.35-.79.08.06.14.12.23.17.19-.36-.02-.46.01-.83-.07.11-.16.84-.47.67,0-.1-.05-.21-.26-.29.21-.13.04-.23-.06-.41l.28-.14c-.18-.15-.31-.06-.5-.11-.09-.24.11-.39.27-.53-.13-.37-.24.41-.49,0,0-.36-.22-.52-.52-.86.05-.26.2-.01.26-.12l-.29-.14c0-.05.07-.05.11-.06-.14-.15-.31.06-.46-.2-.38-.02.39-.66-.03-.95.08-.09.2.02.32-.02-.32-.45-.23-.38-.58-.78l.21-.34c-.23.25-.54-.08-.73-.41-.13.09-.24.16-.28.22-.05-.17-.08-.34-.12-.52.06-.06.16,0,.28.1-.02-.03-.04-.07-.06-.1.14-.16.31-.05.47.09-.07.05-.14.1-.22.15.18.14.38.26.56.24-.03-.03-.06-.09-.07-.15.05.03.09.06.13.04.04-.01-.03-.06-.1-.15l.36-.07-.14-.04.29-.54c-.23-.45-.72-.98-.58-1.71.18.25.39.18.67.29-.38.07-.05.53-.18.85.08-.17.21-.09.25-.03-.05-.22-.1-.45-.11-.67.23.09.22-.06.37-.18-.5-.05-.17-.56-.17-.84.16.06.28.18.12.44.47-.15-.34-.64.1-.81-.03.07-.07.1,0,.16-.06-.23.25-.57.33-.4-.01.02-.03.04-.03.07.15-.2.36-.52.48-.84.14-.31.22-.59.08-.76.05.03.36.36.41.44-.19-.52-.38-1.08-.5-1.63.22.3,1.07.65.94,1.09.12-.05.26-.12.34-.39-.09.02-.52-.2-.47-.31.51.05.3-.02.81-.05-.15.03-.44-.47-.28-.59.03.08.4.4.38.49v-.74c-.04.16.29.37.47.42-.11-.05.31-.27.39-.38l-.25.02c.49-.26-.04-.95.45-1.27,0,.14.26.67.54.58-.06-.3-.26-1.46.11-1.94l.17.1.28-.35c-.05.49-.2,1.62-.29,2.11.24,0,.15.13.4-.04.17.08-.02.28-.09.34.21-.09.42-.19.64-.27-.19-.28.32-.54.17-.77-.18.23-.36.43-.52.67-.21-.28-.07-1.04.44-1.23.18.06.17.58.23.67,0-.13.33-.42.41-.36-.04.08-.08.17-.12.25.3-.01.25-.58.68-.42.12-.03.48.27.42.08-.3-.29-.78-1.36-.74-1.68.05,0,.77.11.96.25.28.22-.07.77.17.96-.02-.09.05-.23.08-.28.14.04.04.28.28.16-.05-.34.54-.14.04-.31.23-.17.29-.03.59-.11-.15-.19.1-.78.37-.94,0,.09.09.18.13.23.56-.11.9.04,1.41-.04.06.07.32.14.23.3.07-.07.13-.19.29-.21.33.28-.35.06-.09.4,0-.2.39-.29.61-.42-.08-.3-.54-.03-.75.11-.04-.42.33-.87.9-1.1.46-.13.2.26.28.2.85.09.76-.71,1.47-.38.26.3-.03.53.02.73-.37.07-.55-.19-.8-.2l.3.14c-.12.08-.36.14-.49.06.11.12.46.15.86.17.4.06.85.12,1.15.26.13-.08.33-.12.26-.25-.07,0-.14,0-.21,0-.15-.25.43-.22.19-.37.3-.09.67-.26,1.04-.06v.31c.02-.09-.21-.23-.34-.16.2-.1.49.52.77.2l-.22-.28c.31-.07.75-.27,1.08-.07-.07-.33-.09,0-.24-.4.09.48-.91-.29-.68.26-.16-.47-.41-.27-.68-.69,0,.1.08.21-.21.1-.02.03-.06.06-.08.07h-.02s.01,0,.01,0c-.02.01-.02.01,0,0,.06.06.11.12.13.18-.19.19-.66.08-.84.2-.17-.07.09-.1,0-.22l-.27.15c0-.22-.44-.42,0-.5l-.39-.06c-.22-.16-.53-.23-.74-.14-.18-.05-.48.23-.31.06l-.61.12v-.06c-.61,0-1.21.39-1.93.09-.19.08-.39.18-.73.16l-.1-.18c-.25.1-.81-.03-.88.19-.19-.22-.52-.19-.85-.07-.32.13-.65.31-.89.34l.06.24c-.31.07-.57.26-.89.5l.11.2c-.24.29-.85.17-1.31.45,0-.09.12-.13.23-.13-.39-.08-.66.15-.89.4-.23.27-.43.54-.77.54-.08.14-.18.17-.3.18.01,0,.02-.02.02-.03-.01,0-.03.02-.05.03-.07,0-.15,0-.23.02.08,0,.15,0,.2,0-.09.07-.21.19-.3.34l-.2-.15s-.02.02-.03.03c-.18.03-.04.17.14.26-.04.08-.07.16-.08.24-.34-.22-.26.35-.65.16.05.23-.52.67-.29,1.03-.04-.04-.1-.02-.03-.08-.17.08-.32.19-.35.38l-.27-.15.03.56c-.3.05-.45.06-.46-.28-.12.66-.2.46-.22,1.05l-.14-.14c-.1.15-.06.52-.25.51-.25.06-.53.46-.83.95-.26.51-.56,1.07-.88,1.51.61,0-.41.37,0,.55-.15.01-.26.14-.33-.06,0,.55-.41.74-.12,1.18-.15.04-.17-.15-.26-.11.01.05.08.19,0,.23-.09.04-.11-.1-.15-.2-.06.57.36.68.74.76-.22.24-.21.39.03.59-.13.08-.27.24-.3-.1-.03.18-.2,1.15.12,1.16-.09.06,0,.26.04.3.03.41,0,.45.08.85l.04-.12c.39.1.14.31.26.62h-.04c-.07.79.16.28.12,1.07l.21-.12c.51-.12-.08.72.3,1.03l.05-.19c.26.12-.33.89-.26,1.15-.01.07-.1-.04-.17-.09.05.73.3-.07.61.29-.09.16-.43.13-.27.42-.02.23.96.47,1.01.98.04-.16.08-.31.29-.21.23.23.25,1.01.76.92,0,.05,0,.09-.03.12.25.11.73.42.99.33-.16.39.2.57.56.68.36.1.69.18.5.5.22.13.45.24.69.34l-.05.06c.42.27.66.19.88.1.08.09-.02.12-.05.16.6.4.69.42,1.37.26l-.02.25c.19-.1.88.7,1.65.53-.01.03-.04.07-.1.09.42-.05.85.2,1.25.33.4.14.76.21.93-.24l.52-.2c-.65-.09.11-.38-.15-.54.25-.04.64.29.33.33l-.05-.05c-.13.47.81.19.8.48,1.3-.04,2.61-.02,3.83-.29l-.23-.32c.14-.02.28-.06.41-.09.13.05.22.23-.08.3.21.15.45-.32.43-.4.62-.04-.1.47.08.43l.23-.1-.07-.02c.15-.2.12-.36.47-.45.24-.02.19.16.28.14,0,.02.04.02.14-.04l.52-.18-.31-.18c.17-.22.47-.18.12-.38.55.35,1.88-.71,2.12-.72.17-.36.46-.51.8-.74-.12.01-.35-.22-.05-.39.29.6.69-.14,1.21.03-.4-.07.71-.74.1-.8.25-.16.18.17.46.13.33-.67,1.22-1.03,1.68-1.82-.06-.06-.26-.02-.25-.25.22-.03.41-.09.62-.15.06-.18-.34-.41.09-.52-.09,0-.22,0-.18-.11.63-.63.91-1.51,1.16-2.36.09-.44.2-.87.33-1.3.09-.44.29-.87.48-1.32-.17.24-.19.07-.19-.11-.04.12-.21,0-.33.01l.33-.75c-.33-.12-.11-.8-.43-.84l.08.22c-.4-.25-.77.51-1.25.48.46.3-.6.79-.02,1.29-.11.1-.14-.1-.26-.05.19.13.21.29.09.56l-.05-.04c0,.39-.13.65-.25.92-.11.27-.28.53-.5.9l.24.02c-.09.16-.17.17-.26.23.26.33.2-.48.5-.16-.49.07-.55,1.23-1.1,1.13-.15.24.28.06.13.3h-.17s.12.15.12.15c-.13.15-.33.13-.44.07.04-.03.04-.13.05-.17-.27.11-.3.6-.41.63.08-.05.16-.11.24-.17-.35.72-1.09,1.32-1.47,2.04l.12.04c-.32.54-.41.25-.88.71v-.04c-.03.17-.14.32-.29.41.06-.2-.39-.02-.3-.27-.4.55-.16.31-.3.9l-.18-.1c-.04.22,0,.3-.27.52.15-.28-.32-.13-.16-.47-.78-.03-.72.83-1.26.44-.08.6.65,0,.54.17.21.08-.07.47-.3.51-.22.08-.61-.45-1.11-.24.05-.02.04-.06.09-.07-.23-.04-.32.31-.63.18-.04.33-.32.08-.24.47l.46-.24c-.24.18-.37.71-.91.63.02-.08.13-.23.21-.31-.16-.07-.24.16-.41.07-.05-.37.58-.25.78-.63-.19-.12-.47.44-.44,0-.06.6-.53.08-.79.55l-.03-.23s-.14.18-.25.2l.13-.34c-.24.32-.6-.09-.85.08.58-.09.18.27.46.39-.69.43-.52-.55-1.3-.32.1-.05.43.08.27.22-.16-.03-.37-.09-.48-.21-.53.07.1.24-.12.39-.2-.28-.26.13-.5.23v-.24c-.64-.13-.17.52-.74.32l.24-.32-.29.07.07-.27c-.32.19-.42.13-.72.05.06.17-.07.44-.35.41-.18-.16.13-.21-.27-.23.11-.14.22-.31.37-.07.02-.08.1-.14.12-.21-.18-.19-.49-.1-.63-.11.05.02.11.04.14.07l-.61.26c-.08-.1,0-.16.09-.22-.12.02-.21.1-.38.09.08-.18.1-.38.34-.42l-.55.11c-.02-.09-.22-.28-.13-.34-.25-.15-.78.19-1.11-.06-.03.03-.08.05-.17.06-.34-.14-.53-.51-1.04-.41-.03-.14-.06-.27-.08-.41-.33-.08.11.55-.45.41-.41-.08,0-.33-.08-.48-.25.08-.74.22-.9-.23.14,0,.19.1.3.14ZM6.16,80.73c.09.04.3.08.21.21-.27.09-.2-.05-.21-.21ZM4.23,74.79c.07.07.02.16-.08.26,0-.08.01-.17.08-.26ZM18.58,63.56h-.01c-.21-.1-.13-.06.01,0ZM19.01,63.71s.05-.06.03-.1c-.04.06-.14.05-.25.02.03.07.08.12.21.08ZM21.42,86.14l-.1-.03c.15-.14.13-.06.1.03Z"/><path class="b" d="M4.46,75.55s-.09.02-.13.03c.04.04.08.04.13-.03Z"/><path class="b" d="M11.68,84.28s.01,0,.01,0c.01-.01.02-.02.03-.04l-.04.03Z"/><path class="b" d="M12.87,66.33c-.09,0-.14-.04-.19-.07.01.06.06.09.19.07Z"/><path class="b" d="M21.43,63.75c-.1,0-.2-.02-.3-.02.14.02.17.09.23.15,0-.06-.02-.15.06-.13Z"/><path class="b" d="M23.2,65.96s.07.03.12.02l.04-.1c-.15-.07-.29-.04-.16.08Z"/><path class="b" d="M21.47,64.59c-.03.2.15.18.35.2-.01,0-.02,0-.03,0,.14-.25-.09-.22-.31-.19Z"/><path class="b" d="M21.86,64.8c.06,0,.12.02.17.05.06-.1-.06-.04-.17-.05Z"/><path class="b" d="M19.59,63.65c.09.06.1-.25.14-.16.14-.24-.68.23-.14.16Z"/><polygon class="b" points="21.43 65.27 21.43 65.01 21.28 65.17 21.43 65.27"/><path class="b" d="M20.04,64.74l.28.13s.05-.06.1-.07c-.18-.05-.37-.14-.38-.06Z"/><path class="b" d="M20.42,64.8c.09.02.18.04.25,0-.05,0-.16-.02-.25,0Z"/><path class="b" d="M21.02,65.22l-.07-.08c-.06-.03-.13-.05-.2-.07.09.04.18.09.27.14Z"/><path class="b" d="M16.83,64.45l-.32.09c-.03.09.06.13.18.09.08-.06.2-.1.14-.18Z"/><path class="b" d="M17.8,65.13c-.08-.05-.09-.11-.13-.19l-.02.31.15-.11Z"/><path class="b" d="M16.89,65.19c-.03.09-.44.27-.05.23.03-.09.34-.17.05-.23Z"/><polygon class="b" points="12.14 65.68 12.22 65.65 12.04 65.18 12.14 65.68"/><path class="b" d="M9.12,68.64c.35-.11-.12-.3.22-.37,0-.15-.28.06-.27-.08-.1.23-.23.24.05.45Z"/><path class="b" d="M9.07,68.19s.03-.08.04-.13c-.03.06-.04.1-.04.13Z"/><polygon class="b" points="30.44 73.75 30.51 73.45 30.36 73.65 30.44 73.75"/><path class="b" d="M30,73.27l.31-.11-.31-.11c.02.06.06.17,0,.23Z"/><path class="b" d="M6.38,79.9l-.08.03c-.05.07-.03.11.01.2l.06-.23Z"/><polygon class="b" points="8.02 82.17 7.99 82.13 7.88 82.41 8.02 82.17"/><path class="b" d="M10.24,83.16c-.08-.05-.21-.05-.3-.1.21.05.16.44.3.1Z"/><ellipse class="b" cx="67.33" cy="70.89" rx="12.9" ry="10.72" transform="translate(-11.38 12.89) rotate(-10.09)"/><path class="b" d="M81.2,68.32c.01.12.2.04.25.06-.09-.2-.3-.04-.25-.06Z"/><polygon class="b" points="80.17 66.54 80.26 66.54 79.97 66.35 80.17 66.54"/><path class="b" d="M79.34,64.92c-.19.32.39.53.43.89l-.05.08h.32c-.23-.34-.62-.7-.7-.97Z"/><path class="b" d="M79.38,63.65c-.07.14-.23-.1.12.22,0-.03,0-.04,0-.06-.03-.03-.06-.08-.12-.16Z"/><path class="b" d="M79.5,63.81c.13.16.01-.18,0,0h0Z"/><path class="b" d="M78.83,63.13l.27.13c.03-.1-.12-.29-.02-.26-.23-.17-.25-.07-.25.14Z"/><path class="b" d="M78.48,63.12l.13.07s0-.08-.13-.07Z"/><path class="b" d="M78.87,63.33l-.27-.15c-.02.07-.1.15.12.07-.09.05.02.03.15.07Z"/><path class="b" d="M78.94,63.5c.04.16.12.34-.14.21.36.35.51.14.14-.21Z"/><path class="b" d="M78.98,65.04v.21s.2.07.2.07c-.09-.03-.12-.35-.2-.28Z"/><path class="b" d="M77.76,61.83c-.06.05-.06.21-.11.29l.2.07c-.04-.11-.15-.27-.09-.36Z"/><path class="b" d="M77.66,62.13l-.31-.08c.19.17.27.15.31.08Z"/><path class="b" d="M78.16,63.35l.5.17c-.19-.08-.37-.17-.57-.23l.07.06Z"/><path class="b" d="M76.87,61.13l.24-.04c-.13,0-.26.02-.4.04h.16Z"/><path class="b" d="M76.23,60.75c.18-.06-.02-.3.14-.3-.19-.09-.4-.08-.59-.06.17.03.32.14.45.36Z"/><path class="b" d="M75.47,60.41c.09,0,.19,0,.31-.02-.09-.01-.19,0-.31.02Z"/><path class="b" d="M76.98,61.72s.05-.17-.05-.31l-.04.24s.06.05.09.07Z"/><path class="b" d="M76.9,61.65h0c-.09-.09-.16-.14-.19-.17.02.02.08.07.19.17Z"/><path class="b" d="M77.01,61.74l-.02-.02s0,.03.02.02Z"/><path class="b" d="M77.77,62.71c-.2-.03-.53-.17-.41.19.18-.03.11-.23.41-.19Z"/><path class="b" d="M76.95,62.03l.21.22s.04-.14.14-.14l-.35-.08Z"/><polygon class="b" points="76.8 61.99 76.95 62.03 76.88 61.95 76.8 61.99"/><path class="b" d="M75.83,60.84c-.16,0-.28-.06-.44-.12.14.11.27.23.42.32.05-.04.18-.11.02-.2Z"/><path class="b" d="M76.35,61.24h-.03s.01.03.03,0Z"/><polygon class="b" points="73.96 60.05 73.97 60.09 73.99 60.06 73.96 60.05"/><path class="b" d="M75.82,61.09c.09.1.18.1.28.09-.09-.03-.19-.08-.28-.13-.02.02-.04.04,0,.05Z"/><path class="b" d="M75.02,60.29c.04.07.09.14.15.21-.03-.09-.1-.24-.15-.21Z"/><path class="b" d="M76.31,61.16h.02c-.01-.06-.02-.04-.02,0Z"/><path class="b" d="M76.31,61.16c-.07-.01-.15,0-.22.02.08.03.15.05.22.06,0-.02,0-.05,0-.07Z"/><path class="b" d="M73.05,61.14c.08-.18.45-.23.62.07.3-.04.41-.69.31-1.12-.04.08-.07.15-.38.15.06.14.5.47.21.54-.38-.04-.26-.18-.39-.34.05.29-.56.15-.6.53.11,0,.22,0,.34,0-.01.05-.15.1-.09.18Z"/><path class="b" d="M74.49,60.33l.12.03c-.11-.1-.17-.21-.28-.42-.23.01-.3.06-.33.12.18.09.37.16.54.26h-.05Z"/><path class="b" d="M75.1,60.61c-.18.15-.48.1-.43.38.31.14.3-.05.53-.03-.53-.21.2-.03-.11-.33.12.02.22.06.31.09-.08-.07-.16-.14-.22-.22v.02s0,0,0,0h0s0,.06,0,.03h-.01s-.04.04-.06.06c-.13-.12,0-.06.06-.06l.02-.02h0s-.57-.16-.57-.16c.1.08.24.15.49.25Z"/><path class="b" d="M76.83,63.04s0-.04.02-.05c-.04,0-.07,0-.02.05Z"/><path class="b" d="M76.74,62.81s.13-.04.22.05c.05.12-.07.08-.11.13.1,0,.3.07.19-.18h-.05c-.12-.19-.19-.58-.14-.58-.07.19-.11.33-.11.57Z"/><path class="b" d="M75.95,61.71l-.45-.16.1.28.05-.1c.2.18.22.03.3-.02Z"/><polygon class="b" points="73.95 59.93 74.1 59.74 73.72 59.93 73.95 59.93"/><path class="b" d="M73.36,59.72l.09-.18c-.07.02-.13.03-.2.06.04.04.07.08.11.12Z"/><path class="b" d="M58.49,77.66l.12.04c-.05-.02-.09-.04-.12-.04Z"/><path class="b" d="M57.9,77.07l-.08.05c.06,0,.1-.02.08-.05Z"/><path class="b" d="M58.73,61.82c-.27-.03-.63-.11-.48.05l.18.13c.09-.12.2-.17.3-.18Z"/><path class="b" d="M54.57,70.82l.07-.05c-.07-.05-.13-.1-.19-.15.04.06.08.13.12.2Z"/><path class="b" d="M55.44,71.02c-.05.07-.09.14-.14.22.05-.05.09-.12.14-.22Z"/><path class="b" d="M62.6,79.69l.19-.17c-.2-.06-.15.07-.19.17Z"/><path class="b" d="M67.05,58.97c-.18-.07-.33-.11-.45-.1.23.1.41.29.45.1Z"/><path class="b" d="M56.68,79.08c.09.03.15.03.18-.01-.09-.04-.16-.04-.18.01Z"/><path class="b" d="M66.09,58.94s.07.02.1.04c.12-.05.25-.1.41-.11-.16-.07-.35-.1-.51.07Z"/><path class="b" d="M77.6,74.71s.03-.02.04-.02c-.02-.02-.03,0-.04.02Z"/><path class="b" d="M81.1,70.21c.01.06.01.16.01.25.02-.04.01-.12-.01-.25Z"/><path class="b" d="M70.93,58.99c.13.01.02-.02,0,0h0Z"/><path class="b" d="M71.38,59.95s-.06.04-.07.09c.02-.05.05-.08.07-.09Z"/><path class="b" d="M65.06,60.46h-.01s.04.03.01,0Z"/><path class="b" d="M71.11,59.13s-.1-.07-.16-.1c.02.02.07.05.16.1Z"/><path class="b" d="M71.1,59.02s.08.03.11.04c.02-.03.01-.06-.11-.04Z"/><path class="b" d="M70.74,58.97c.08,0,.14.04.21.06-.02-.02-.03-.03-.02-.04-.04,0-.09-.01-.18-.02Z"/><path class="b" d="M70.54,80.46s.02,0,.03.01c.09-.12.04-.09-.03-.01Z"/><polygon class="b" points="57.84 65.6 57.84 65.59 57.83 65.59 57.84 65.6"/><path class="b" d="M57.72,66.02c-.1-.3-.03-.37.11-.42l-.56-.3c.15.25.3.49.45.72Z"/><path class="b" d="M60.16,78.8l-.13-.31c.44-.1.57.12.5-.25-.37.55-.9-.47-1.3.03l-.06-.22s.07.01.1.05c-.08-.47-.5.23-.81-.14-.08-.15-.1-.3.03-.28l-.37-.12c-.07-.08.03-.15.1-.07-.14-.11-.29-.22-.43-.34h.02c-.13,0-.36-.02-.47-.05-.02-.17.1,0,.14-.08l-.32-.13c.06-.2.35-.12.46.05.34-.65-.31-.07-.35-.79.08.06.14.12.23.17.19-.36-.02-.46.01-.83-.07.11-.16.84-.47.67,0-.1-.05-.21-.26-.29.21-.13.04-.23-.06-.41l.28-.14c-.18-.15-.31-.06-.5-.11-.09-.24.11-.39.27-.53-.13-.37-.24.41-.49,0,0-.36-.22-.52-.52-.86.05-.26.2-.01.26-.12l-.29-.14c0-.05.07-.05.11-.06-.14-.15-.31.06-.46-.2-.38-.02.39-.66-.03-.95.08-.09.2.02.32-.02-.32-.45-.23-.38-.58-.78l.21-.34c-.23.25-.54-.08-.73-.41-.13.09-.24.16-.28.22-.05-.17-.08-.34-.12-.52.06-.06.16,0,.28.1-.02-.03-.04-.07-.06-.1.14-.16.31-.05.47.09-.07.05-.14.1-.22.15.18.14.38.26.56.24-.03-.03-.06-.09-.07-.15.05.03.09.06.13.04.04-.01-.03-.06-.1-.15l.36-.07-.14-.04.29-.54c-.23-.45-.72-.98-.58-1.71.18.25.39.18.67.29-.38.07-.05.53-.18.85.08-.17.21-.09.25-.03-.05-.22-.1-.45-.11-.67.23.09.22-.06.37-.18-.5-.05-.17-.56-.17-.84.16.06.28.18.12.44.47-.15-.34-.64.1-.81-.03.07-.07.1,0,.16-.06-.23.25-.57.33-.4-.01.02-.03.04-.03.07.15-.2.36-.52.48-.84.14-.31.22-.59.08-.76.05.03.36.36.41.44-.19-.52-.38-1.08-.5-1.63.22.3,1.07.65.94,1.09.12-.05.26-.12.34-.39-.09.02-.52-.2-.47-.31.51.05.3-.02.81-.05-.15.03-.44-.47-.28-.59.03.08.4.4.38.49v-.74c-.04.16.29.37.47.42-.11-.05.31-.27.39-.38l-.25.02c.49-.26-.04-.95.45-1.27,0,.14.26.67.54.58-.06-.3-.26-1.46.11-1.94l.17.1.28-.35c-.05.49-.2,1.62-.29,2.11.24,0,.15.13.4-.04.17.08-.02.28-.09.34.21-.09.42-.19.64-.27-.19-.28.32-.54.17-.77-.18.23-.36.43-.52.67-.21-.28-.07-1.04.44-1.23.18.06.17.58.23.67,0-.13.33-.42.41-.36-.04.08-.08.17-.12.25.3-.01.25-.58.68-.42.12-.03.48.27.42.08-.3-.29-.78-1.36-.74-1.68.05,0,.77.11.96.25.28.22-.07.77.17.96-.02-.09.05-.23.08-.28.14.04.04.28.28.16-.05-.34.54-.14.04-.31.23-.17.29-.03.59-.11-.15-.19.1-.78.37-.94,0,.09.09.18.13.23.56-.11.9.04,1.41-.04.06.07.32.14.23.3.07-.07.13-.19.29-.21.33.28-.35.06-.09.4,0-.2.39-.29.61-.42-.08-.3-.54-.03-.75.11-.04-.42.33-.87.9-1.1.46-.13.2.26.28.2.85.09.76-.71,1.47-.38.26.3-.03.53.02.73-.37.07-.55-.19-.8-.2l.3.14c-.12.08-.36.14-.49.06.11.12.46.15.86.17.4.06.85.12,1.15.26.13-.08.33-.12.26-.25-.07,0-.14,0-.21,0-.15-.25.43-.22.19-.37.3-.09.67-.26,1.04-.06v.31c.02-.09-.21-.23-.34-.16.2-.1.49.52.77.2l-.22-.28c.31-.07.75-.27,1.08-.07-.07-.33-.09,0-.24-.4.09.48-.91-.29-.68.26-.16-.47-.41-.27-.68-.69,0,.1.08.21-.21.1-.02.03-.06.06-.08.07h-.02s.01,0,.01,0c-.02.01-.02.01,0,0,.06.06.11.12.13.18-.19.19-.66.08-.84.2-.17-.07.09-.1,0-.22l-.27.15c0-.22-.44-.42,0-.5l-.39-.06c-.22-.16-.53-.23-.74-.14-.18-.05-.48.23-.31.06l-.61.12v-.06c-.61,0-1.21.39-1.93.09-.19.08-.39.18-.73.16l-.1-.18c-.25.1-.81-.03-.88.19-.19-.22-.52-.19-.85-.07-.32.13-.65.31-.89.34l.06.24c-.31.07-.57.26-.89.5l.11.2c-.24.29-.85.17-1.31.45,0-.09.12-.13.23-.13-.39-.08-.66.15-.89.4-.23.27-.43.54-.77.54-.08.14-.18.17-.3.18.01,0,.02-.02.02-.03-.01,0-.03.02-.05.03-.07,0-.15,0-.23.02.08,0,.15,0,.2,0-.09.07-.21.19-.3.34l-.2-.15s-.02.02-.03.03c-.18.03-.04.17.14.26-.04.08-.07.16-.08.24-.34-.22-.26.35-.65.16.05.23-.52.67-.29,1.03-.04-.04-.1-.02-.03-.08-.17.08-.32.19-.35.38l-.27-.15.03.56c-.3.05-.45.06-.46-.28-.12.66-.2.46-.22,1.05l-.14-.14c-.1.15-.06.52-.25.51-.25.06-.53.46-.83.95-.26.51-.56,1.07-.88,1.51.61,0-.41.37,0,.55-.15.01-.26.14-.33-.06,0,.55-.41.74-.12,1.18-.15.04-.17-.15-.26-.11.01.05.08.19,0,.23-.09.04-.11-.1-.15-.2-.06.57.36.68.74.76-.22.24-.21.39.03.59-.13.08-.27.24-.3-.1-.03.18-.2,1.15.12,1.16-.09.06,0,.26.04.3.03.41,0,.45.08.85l.04-.12c.39.1.14.31.26.62h-.04c-.07.79.16.28.12,1.07l.21-.12c.51-.12-.08.72.3,1.03l.05-.19c.26.12-.33.89-.26,1.15-.01.07-.1-.04-.17-.09.05.73.3-.07.61.29-.09.16-.43.13-.27.42-.02.23.96.47,1.01.98.04-.16.08-.31.29-.21.23.23.25,1.01.76.92,0,.05,0,.09-.03.12.25.11.73.42.99.33-.16.39.2.57.56.68.36.1.69.18.5.5.22.13.45.24.69.34l-.05.06c.42.27.66.19.88.1.08.09-.02.12-.05.16.6.4.69.42,1.37.26l-.02.25c.19-.1.88.7,1.65.53-.01.03-.04.07-.1.09.42-.05.85.2,1.25.33.4.14.76.21.93-.24l.52-.2c-.65-.09.11-.38-.15-.54.25-.04.64.29.33.33l-.05-.05c-.13.47.81.19.8.48,1.3-.04,2.61-.02,3.83-.29l-.23-.32c.14-.02.28-.06.41-.09.13.05.22.23-.08.3.21.15.45-.32.43-.4.62-.04-.1.47.08.43l.23-.1-.07-.02c.15-.2.12-.36.47-.45.24-.02.19.16.28.14,0,.02.04.02.14-.04l.52-.18-.31-.18c.17-.22.47-.18.12-.38.55.35,1.88-.71,2.12-.72.17-.36.46-.51.8-.74-.12.01-.35-.22-.05-.39.29.6.69-.14,1.21.03-.4-.07.71-.74.1-.8.25-.16.18.17.46.13.33-.67,1.22-1.03,1.68-1.82-.06-.06-.26-.02-.25-.25.22-.03.41-.09.62-.15.06-.18-.34-.41.09-.52-.09,0-.22,0-.18-.11.63-.63.91-1.51,1.16-2.36.09-.44.2-.87.33-1.3.09-.44.29-.87.48-1.32-.17.24-.19.07-.19-.11-.04.12-.21,0-.33.01l.33-.75c-.33-.12-.11-.8-.43-.84l.08.22c-.4-.25-.77.51-1.25.48.46.3-.6.79-.02,1.29-.11.1-.14-.1-.26-.05.19.13.21.29.09.56l-.05-.04c0,.39-.13.65-.25.92-.11.27-.28.53-.5.9l.24.02c-.09.16-.17.17-.26.23.26.33.2-.48.5-.16-.49.07-.55,1.23-1.1,1.13-.15.24.28.06.13.3h-.17s.12.15.12.15c-.13.15-.33.13-.44.07.04-.03.04-.13.05-.17-.27.11-.3.6-.41.63.08-.05.16-.11.24-.17-.35.72-1.09,1.32-1.47,2.04l.12.04c-.32.54-.41.25-.88.71v-.04c-.03.17-.14.32-.29.41.06-.2-.39-.02-.3-.27-.4.55-.16.31-.3.9l-.18-.1c-.04.22,0,.3-.27.52.15-.28-.32-.13-.16-.47-.78-.03-.72.83-1.26.44-.08.6.65,0,.54.17.21.08-.07.47-.3.51-.22.08-.61-.45-1.11-.24.05-.02.04-.06.09-.07-.23-.04-.32.31-.63.18-.04.33-.32.08-.24.47l.46-.24c-.24.18-.37.71-.91.63.02-.08.13-.23.21-.31-.16-.07-.24.16-.41.07-.05-.37.58-.25.78-.63-.19-.12-.47.44-.44,0-.06.6-.53.08-.79.55l-.03-.23s-.14.18-.25.2l.13-.34c-.24.32-.6-.09-.85.08.58-.09.18.27.46.39-.69.43-.52-.55-1.3-.32.1-.05.43.08.27.22-.16-.03-.37-.09-.48-.21-.53.07.1.24-.12.39-.2-.28-.26.13-.5.23v-.24c-.64-.13-.17.52-.74.32l.24-.32-.29.07.07-.27c-.32.19-.42.13-.72.05.06.17-.07.44-.35.41-.18-.16.13-.21-.27-.23.11-.14.22-.31.37-.07.02-.08.1-.14.12-.21-.18-.19-.49-.1-.63-.11.05.02.11.04.14.07l-.61.26c-.08-.1,0-.16.09-.22-.12.02-.21.1-.38.09.08-.18.1-.38.34-.42l-.55.11c-.02-.09-.22-.28-.13-.34-.25-.15-.78.19-1.11-.06-.03.03-.08.05-.17.06-.34-.14-.53-.51-1.04-.41-.03-.14-.06-.27-.08-.41-.33-.08.11.55-.45.41-.41-.08,0-.33-.08-.48-.25.08-.74.22-.9-.23.14,0,.19.1.3.14ZM57.04,76.17c.09.04.3.08.21.21-.27.09-.2-.05-.21-.21ZM55.11,70.22c.07.07.02.16-.08.26,0-.08.01-.17.08-.26ZM69.46,59h-.01c-.21-.1-.13-.06.01,0ZM69.89,59.15s.05-.06.03-.1c-.04.06-.14.05-.25.02.03.07.08.12.21.08ZM72.3,81.58l-.1-.03c.15-.14.13-.06.1.03Z"/><path class="b" d="M55.34,70.99s-.09.02-.13.03c.04.04.08.04.13-.03Z"/><path class="b" d="M62.56,79.72s.01,0,.01,0c.01-.01.02-.02.03-.04l-.04.03Z"/><path class="b" d="M63.75,61.77c-.09,0-.14-.04-.19-.07.01.06.06.09.19.07Z"/><path class="b" d="M72.31,59.19c-.1,0-.2-.02-.3-.02.14.02.17.09.23.15,0-.06-.02-.15.06-.13Z"/><path class="b" d="M74.08,61.4s.07.03.12.02l.04-.1c-.15-.07-.29-.04-.16.08Z"/><path class="b" d="M72.35,60.03c-.03.2.15.18.35.2-.01,0-.02,0-.03,0,.14-.25-.09-.22-.31-.19Z"/><path class="b" d="M72.74,60.24c.06,0,.12.02.17.05.06-.1-.06-.04-.17-.05Z"/><path class="b" d="M70.47,59.09c.09.06.1-.25.14-.16.14-.24-.68.23-.14.16Z"/><polygon class="b" points="72.31 60.71 72.32 60.45 72.16 60.61 72.31 60.71"/><path class="b" d="M70.92,60.18l.28.13s.05-.06.1-.07c-.18-.05-.37-.14-.38-.06Z"/><path class="b" d="M71.3,60.24c.09.02.18.04.25,0-.05,0-.16-.02-.25,0Z"/><path class="b" d="M71.9,60.66l-.07-.08c-.06-.03-.13-.05-.2-.07.09.04.18.09.27.14Z"/><path class="b" d="M67.71,59.88l-.32.09c-.03.09.06.13.18.09.08-.06.2-.1.14-.18Z"/><path class="b" d="M68.68,60.57c-.08-.05-.09-.11-.13-.19l-.02.31.15-.11Z"/><path class="b" d="M67.77,60.63c-.03.09-.44.27-.05.23.03-.09.34-.17.05-.23Z"/><polygon class="b" points="63.03 61.12 63.1 61.09 62.92 60.62 63.03 61.12"/><path class="b" d="M60,64.08c.35-.11-.12-.3.22-.37,0-.15-.28.06-.27-.08-.1.23-.23.24.05.45Z"/><path class="b" d="M59.95,63.63s.03-.08.04-.13c-.03.06-.04.1-.04.13Z"/><polygon class="b" points="81.32 69.18 81.39 68.89 81.24 69.09 81.32 69.18"/><path class="b" d="M80.88,68.71l.31-.11-.31-.11c.02.06.06.17,0,.23Z"/><path class="b" d="M57.26,75.33l-.08.03c-.05.07-.03.11.01.2l.06-.23Z"/><polygon class="b" points="58.9 77.61 58.87 77.57 58.76 77.85 58.9 77.61"/><path class="b" d="M61.12,78.6c-.08-.05-.21-.05-.3-.1.21.05.16.44.3.1Z"/><path class="b" d="M29.28,19.67v53.54c0,.15-.03.29-.08.42-.17.46-.61.79-1.13.79h-1.12c-.66,0-1.21-.54-1.21-1.2V19.67c0-.4.21-.77.52-.97.19-.15.43-.23.69-.23h1.12c.67,0,1.21.55,1.21,1.2Z"/><path class="b" d="M30.47,19.4c0,.35.2.22.24.27-.09-.63-.3-.24-.24-.27Z"/><path class="b" d="M26.73,17.76l.04-.09c-.17.09-.32.18-.46.31.13-.09.27-.16.42-.22Z"/><path class="b" d="M25,20.42c.18-.15.15-.47.13-.83-.03-.35.05-.78.28-.99l.12-.03c-.02-.13-.02-.27-.01-.4-.28.29-.48.74-.5,1.16-.02.42.03.84-.03,1.09Z"/><path class="b" d="M24.24,21.84c.14-.09.12.31.04-.33-.01.03-.02.04-.03.06,0,.06,0,.14,0,.27Z"/><path class="b" d="M24.25,21.57c0-.28-.12.18,0,0h0Z"/><path class="b" d="M24.32,22.86l-.12-.37c-.08.08-.1.41-.16.28.07.38.15.3.28.09Z"/><path class="b" d="M24.58,23.21l-.05-.19s-.05.08.05.19Z"/><path class="b" d="M24.42,22.61l.11.41c.06-.05.17-.06-.04-.19.1.03,0-.05-.07-.22Z"/><path class="b" d="M24.47,22.38c.08-.21.13-.48.25-.1-.05-.71-.3-.6-.25.1Z"/><path class="b" d="M25.37,20.55l.1-.29-.12-.29c.06.16-.1.62.01.59Z"/><path class="b" d="M24.14,25.16c.08.02.2-.12.3-.15l-.09-.27c-.05.14-.1.41-.21.42Z"/><path class="b" d="M24.44,25.01l.13.41c.02-.36-.05-.43-.13-.41Z"/><polygon class="b" points="24.97 23.28 24.7 22.61 24.98 23.41 24.97 23.28"/><polygon class="b" points="24.13 26.72 23.96 26.49 24.22 26.9 24.13 26.72"/><path class="b" d="M24.16,27.76c-.14-.17-.24.23-.33.05.03.28.15.52.26.74-.06-.23-.05-.47.07-.79Z"/><path class="b" d="M24.25,28.91c-.03-.11-.1-.23-.16-.36.03.12.08.24.16.36Z"/><path class="b" d="M24.53,26.12s-.16.09-.21.32l.21-.16s0-.1,0-.16Z"/><path class="b" d="M24.53,26.27h0c0,.18-.01.3-.01.35,0-.04,0-.15.02-.35Z"/><path class="b" d="M24.53,26.07v.04s.03-.02,0-.04Z"/><path class="b" d="M24.78,24.35c.12.24.25.74.43.26-.14-.17-.25.1-.43-.26Z"/><path class="b" d="M24.8,25.88l.05-.43c-.06,0-.14.09-.2-.03l.15.47Z"/><polygon class="b" points="24.86 26.09 24.8 25.88 24.78 26.04 24.86 26.09"/><path class="b" d="M24.45,28.17c.09.19.1.39.11.62.04-.25.06-.5.06-.75-.07-.03-.19-.14-.18.12Z"/><path class="b" d="M24.51,27.25v.04s.04-.05,0-.04Z"/><polygon class="b" points="24.56 31.07 24.6 31.03 24.57 31.03 24.56 31.07"/><path class="b" d="M24.67,28c.04-.19-.01-.3-.08-.4.02.14.04.29.04.45.03.02.05.02.04-.04Z"/><path class="b" d="M24.35,29.55c.04-.1.08-.21.12-.32-.07.09-.17.29-.12.32Z"/><path class="b" d="M24.46,27.35v-.03c-.05.06-.03.05,0,.03Z"/><path class="b" d="M24.46,27.35c.03.1.08.17.13.25-.02-.11-.04-.22-.07-.31-.01.02-.04.05-.06.06Z"/><path class="b" d="M25.92,31.76c-.2-.03-.38-.52-.17-.95-.15-.42-.79-.14-1.15.22.09.01.16.01.28.44.11-.15.25-.95.43-.59.1.57-.07.47-.17.74.24-.23.36.72.71.6l-.13-.5c.06,0,.15.17.2.03Z"/><path class="b" d="M24.62,30.22l-.02-.18c-.03.2-.11.35-.27.61.1.29.17.35.23.37l.03-.87.03.06Z"/><path class="b" d="M24.6,29.25c.21.14.3.56.53.3-.01-.52-.18-.36-.27-.67.05.84-.12-.24-.24.36-.04-.16-.05-.31-.06-.45-.03.15-.06.3-.1.43v-.02s.01,0,.01,0h0s.04-.05.03,0v.02s.06.02.08.04c-.04.24-.06.04-.08-.04-.01,0-.02,0-.03-.01h0s.12.84.12.84c.03-.18.02-.4,0-.79Z"/><path class="b" d="M25.67,25.05s-.03.02-.05.03c.03.05.04.07.05-.03Z"/><path class="b" d="M25.54,25.39c-.03-.06-.12-.11-.09-.31.06-.17.1,0,.17,0-.06-.12-.15-.42-.26-.04l.03.06c-.07.34-.34.77-.37.71.19-.1.33-.19.52-.41Z"/><path class="b" d="M25.12,27.35l.1.7.18-.35-.11.02c.04-.4-.09-.31-.18-.36Z"/><polygon class="b" points="24.46 31.15 24.23 31.06 24.55 31.46 24.46 31.15"/><polygon class="b" points="24.49 32.06 24.29 32.02 24.41 32.26 24.49 32.06"/><path class="b" d="M28.1,68.17l-.06-.2c.02.1.04.16.06.2Z"/><path class="b" d="M28.09,69.65l.1.04c-.05-.07-.09-.1-.1-.04Z"/><path class="b" d="M24.51,54.3c-.18.3-.47.63-.25.6l.21-.09c-.04-.21-.01-.37.03-.5Z"/><path class="b" d="M25.79,69.53l.07-.09c-.07-.07-.14-.14-.21-.2.04.09.09.19.14.29Z"/><path class="b" d="M26.68,69.74l-.14.39c.05-.09.09-.21.14-.39Z"/><path class="b" d="M27.88,60.07l-.22-.24c0,.37.11.21.22.24Z"/><path class="b" d="M24.56,41.33c-.08.26-.12.46-.13.64.12-.31.31-.56.13-.64Z"/><path class="b" d="M30.38,68.75c-.04-.13-.08-.18-.13-.18.04.13.08.2.13.18Z"/><path class="b" d="M24.44,42.72s.03-.09.05-.14c-.04-.19-.06-.38-.05-.61-.09.23-.15.49,0,.74Z"/><path class="b" d="M28.05,30.71s.01-.05.03-.07c-.03,0-.03.02-.03.07Z"/><path class="b" d="M30.22,22.16c.01.08.01.22.02.35.01-.06.01-.17-.02-.35Z"/><path class="b" d="M24.39,35.7c-.01-.19-.02-.03,0,0h0Z"/><path class="b" d="M25.24,34.77s.05.07.1.08c-.05-.02-.08-.04-.1-.08Z"/><path class="b" d="M25.77,44.63v.02c.04-.06.03-.05,0-.02Z"/><path class="b" d="M24.49,35.41c-.03.07-.05.16-.06.25.02-.04.04-.11.06-.25Z"/><path class="b" d="M24.39,35.45c0-.07.01-.12.02-.17-.04-.02-.06,0-.02.17Z"/><path class="b" d="M24.4,35.97c0-.11,0-.21.02-.31-.01.04-.03.05-.03.04,0,.06,0,.14.01.27Z"/><path class="b" d="M28.63,46.44s.01-.02.02-.04c-.09-.19-.07-.11-.02.04Z"/><polygon class="b" points="26.74 59.3 26.73 59.27 26.72 59.3 26.74 59.3"/><path class="b" d="M26.9,59.98c-.27-.29-.23-.46-.18-.68l-.62.23.8.46Z"/><path class="b" d="M28.04,64.62l-.19.48c-.32-.58-.21-1.01-.48-.55.67.07.07,1.88.74,1.95l-.14.32c0-.09-.03-.11-.03-.2-.32.62.49.46.39,1.26-.05.28-.15.47-.23.28l.17.62c-.01.18-.13.14-.12-.04l.05.95h-.02c.11.13.27.43.34.58-.1.24-.07-.12-.16-.06l.16.52c-.17.21-.34-.22-.32-.58-.67.49.17.44-.22,1.49l-.09-.5c-.38.32-.24.71-.48,1.27.12-.13.6-1.12.77-.55-.05.15-.07.4.06.65-.24,0-.18.1-.17.25l-.32-.13c.07.12.24.21.33.39-.14.14-.37-.07-.52-.25-.07,0,0,.09.1.18.09.09.23.2.08.28-.12-.04-.3-.05-.24,0,.01.03-.17.14-.39.19-.12-.18.14-.17.13-.29-.09.07-.2.12-.31.15-.03-.03.04-.09.08-.12-.17-.03-.28.28-.51.08-.18.08-.13-.19,0-.41.06-.11.12-.21.14-.3.02-.08,0-.32-.1-.45.09-.15.19.07.32.03-.26-.84-.19-.72-.54-1.41l.21-.59c-.24.43-.52-.12-.75-.6-.11.15-.22.28-.26.37l-.17-.77c.05-.09.16-.02.29.11-.03-.05-.05-.1-.08-.14.12-.28.3-.13.48.06-.06.09-.13.18-.2.28.19.19.41.37.59.33-.04-.05-.07-.15-.09-.25.05.05.1.08.13.06.03-.03-.04-.11-.12-.23l.35-.18-.14-.04.22-1.01c-.36-.72-.88-1.35-1.02-2.5.26.28.42.06.73.08-.32.31.14.89.07,1.48.03-.31.18-.24.23-.16l-.3-1.06c.25.02.19-.23.29-.5-.5.21-.33-.79-.48-1.22.17-.03.34.08.3.6.37-.58-.58-.75-.27-1.32,0,.13-.02.2.06.25-.15-.3-.03-1.03.11-.86v.13c.06-.85,0-2.6-.41-2.72.05,0,.51.11.59.16l-1.42-1.52c.36.13,1.22-.38,1.43.33.05-.2.11-.45-.02-.88-.05.14-.52.35-.56.16.4-.52.22-.36.56-1-.08.21-.64-.02-.63-.35.08.05.56-.03.62.09l-.56-.82c.1.2.47.04.63-.15-.11.08.01-.71-.04-.92l-.13.35c.08-.92-.78-.91-.75-1.83.12.11.71.27.78-.19-.29-.21-1.37-.94-1.59-1.75l.16-.16-.19-.62c.43.39,1.33,1.47,1.68,2.06.13-.35.19-.1.18-.61.15-.18.23.28.24.43l.1-1.2c-.33.05-.33-.92-.61-.87l.34,1.31c-.33.05-.94-.76-.89-1.61.13-.22.59.16.7.14-.11-.11-.22-.81-.14-.89l.18.36c.13-.47-.44-.77-.12-1.34.02-.2.43-.59.23-.62-.38.32-1.55.38-1.84.17.03-.07.36-1.03.55-1.26.3-.32.71.49.97.21-.09-.01-.2-.19-.24-.27.08-.21.28.09.24-.36-.34-.07.03-.91-.29-.21-.1-.44.07-.47.05-.98-.22.16-.74-.46-.84-.9.09.03.2-.07.25-.12.03-.9.18-1.38.19-2.22.08-.08.18-.48.33-.31-.06-.12-.17-.23-.18-.49.29-.5.05.58.4.2-.2-.03-.27-.67-.39-1.04-.3.11-.06.85.06,1.22-.42,0-.86-.64-1.05-1.52-.1-.7.27-.3.21-.42.07-1.31-.73-1.12-.43-2.2.27-.43.53-.02.72-.12.1.57-.17.87-.16,1.26l.13-.47c.09.18.16.56.08.77.24-.36.05-2.21.27-3.23-.09-.18-.18-.49-.29-.34l.04.32c-.21.29-.3-.6-.4-.2-.15-.43-.39-.91-.27-1.51l.3-.11c-.09.01-.18.39-.09.56-.13-.25.41-.93.01-1.2l-.21.42c-.15-.43-.47-.96-.38-1.5-.3.24.03.12-.32.5.44-.33-.02,1.37.44.84-.41.39-.17.68-.52,1.19.1-.02.19-.18.14.27.03.02.07.07.09.1,0,.01,0,.02,0,.03v-.02s.03.02.02,0c.04-.11.1-.19.15-.23.23.22.22.94.34,1.18-.05.27-.11-.11-.22.03l.18.36c-.22.04-.37.71-.5.08v.57c-.13.33-.18.79-.09,1.07-.05.27.25.67.07.44l.14.89h-.06c-.03.88.37,1.81-.03,2.81.06.29.12.6.06,1.09l-.19.1c.07.38-.19,1.14,0,1.3-.52.41-.11,1.84-.2,2.5l.25.03c-.01.46.06.9.16,1.47l.22-.03c.18.49-.16,1.26-.14,2.04-.08-.05-.06-.25-.01-.39-.5.93.36,1.95,0,2.79.08.21.05.36,0,.51,0-.02,0-.04-.01-.05,0,.02,0,.05,0,.09-.04.09-.08.19-.12.29.05-.09.1-.17.12-.24,0,.16.03.41.09.65l-.24.1s0,.03,0,.06c-.09.24.11.19.29.06.04.12.09.23.14.32-.38.19.13.63-.28.89.2.16.15,1.21.57,1.33-.05,0-.08.08-.08-.05-.05.27-.1.53.02.77l-.3.11.41.58c-.18.35-.29.5-.53.15.36.85.14.69.49,1.41l-.2-.04c0,.26.27.67.11.83-.37.58-.05,2.86-.4,4.35.58-.29-.26.69.19.75-.14.09-.21.29-.33.05.13.76-.22,1.14.16,1.66-.14.09-.2-.16-.28-.09.03.06.12.24.04.32-.08.08-.11-.11-.17-.23.02.77.44.85.84.91-.19.39-.16.59.1.87-.13.14-.26.36-.31-.12-.02.27-.19,1.65.13,1.68-.08.08-.02.38.01.45-.01.3-.02.47-.03.63,0,.2-.02.44.02.83.01-.08.02-.15.04-.23.4.19.06.6.44,1.1h-.04c.33.64.58.63.71.68.17.02.24.09.97.26-.05-.08-.03-.16-.05-.24.03-.13.22-.17.3-.17.05,0,.11.01.18.03.12.02.23.05.32.07.39.13.96.14,1.21-.21-.1.03-.21.04-.32.05.13-.17.46-.2.8-.34.36-.12.62-.4.73-.64.07-.1.02.2,0,.38.09-.15.12-.29.2-.38.02-.11.03-.18.03-.24,0-.11-.05-.13-.11-.15-.13-.03-.27-.03-.31-.53.08-.09.19-.02.28-.01.04,0,.09-.01.12-.08.03-.07.05-.19.06-.28.14-.23-.54-1.32-.22-1.94-.13.14-.26.27-.36-.04-.05-.48.49-1.3.08-1.73.04-.06.07-.08.1-.09-.11-.37-.17-1.19-.4-1.42.82-.34-.4-2.29.36-2.28l-.04-1.13.08.03c.05-.72-.13-.98-.31-1.23.05-.17.12-.05.16-.03.15-1.06.12-1.16-.26-2.05l.25-.09c-.14-.24.38-1.53.1-2.56.03.01.08.03.11.11-.29-1.17.68-2.79-.21-3.22l-.22-.77c-.07.99-.39-.15-.54.26-.05-.39.27-1.01.32-.53l-.04.08c.47.18.17-1.24.48-1.21-.02-1.96.23-3.87.25-5.7l-.36.21.02-.64c.08-.17.28-.23.27.23.21-.24-.17-.77-.25-.78.15-.89.42.35.43.07l-.03-.37-.04.08c-.15-.3-.3-.33-.29-.88.07-.35.22-.18.24-.31.03,0,.04-.05.01-.21l.03-.81-.29.32c-.14-.36.01-.76-.31-.39.5-.55.18-3.01.33-3.34-.21-.5-.2-.99-.18-1.61-.06.15-.38.24-.34-.28.66.19.29-.97.77-1.39-.32.38-.08-1.5-.53-.9.05-.44.25-.03.4-.36-.26-1.05.17-2.31.08-3.6-.09-.02-.22.2-.35-.08l.44-.68c-.04-.26-.5-.24-.2-.7-.07.07-.18.16-.21,0,.42-2.54-.35-5.18.45-7.76-.17.35-.19.12-.19-.15-.04.17-.22,0-.33.03l.33-1.08c-.33-.2-.02-1.16-.34-1.27l.06.34c-.37-.45-.82.64-1.3.57.42.51-.62,1.34-.02,2.18-.1.18-.15-.16-.26-.06.2.21.25.47.15.94l-.05-.05c.05,1.33-.15,1.9-.28,3.39l.23-.11c-.03.32-.1.39-.16.54.36.37.02-.9.41-.57-.48.43,0,2.26-.55,2.55,0,.49.27-.14.27.35l-.15.13.19.12c-.03.32-.21.49-.34.5.01-.08-.03-.22-.05-.31-.17.42.06,1.18,0,1.33l.09-.47c.14,1.35-.06,2.99.24,4.3l.11-.1c.2.99-.12.8-.03,1.89l-.03-.04c.11.22.17.51.15.81-.13-.28-.25.52-.4.16.22,1.08.17.53.58,1.25l-.18.16c.17.24.25.26.3.81-.16-.45-.28.35-.49-.15-.4,1.14.41,1.7-.18,2.22.51.53.28-.99.39-.7.17-.25.38.43.33.79-.01.37-.65.62-.64,1.54,0-.09-.04-.1-.03-.19-.13.34.18.67-.04,1.1.31.24-.02.55.37.62l-.09-.84c.1.48.56.93.34,1.71-.08-.06-.18-.3-.24-.46-.12.23.08.44-.04.68-.39-.07-.09-1.03-.38-1.54-.17.25.28.97-.14.71.54.37-.07.91.34,1.53l-.23-.04c.04.1.15.3.14.48l-.3-.33c.26.5-.23.97-.09,1.46,0-1.01.28-.23.45-.66.31,1.25-.61.72-.5,2.12-.03-.19.14-.71.25-.41-.05.27-.14.62-.26.78.05.93.24-.14.39.25-.29.32.12.45.21.86h-.24c-.15,1.06.5.28.31,1.23l-.33-.4.09.5-.27-.1c.2.54.15.71.07,1.24.17-.12.43.07.44.54-.14.32-.23-.18-.19.48-.15-.15-.34-.31-.12-.6-.08-.03-.15-.15-.23-.18-.16.34-.04.86-.04,1.1,0-.09.02-.2.06-.26l.33.96c-.09.15-.16.03-.23-.09.03.19.14.33.16.62-.19-.07-.39-.06-.49-.46l.22.92c-.08.06-.23.47-.3.35-.11.51.38,1.24.23,1.92.04.03.07.11.1.25-.04.63-.28,1.19-.02,1.94l-.35.43c.08.59.44-.58.57.4.11.69-.3.26-.39.5.18.34.53.94.25,1.58-.07-.21-.01-.38-.04-.57ZM28.2,71.86c-.05-.14-.2-.42-.06-.52.27.16.14.28.06.52ZM26.25,68.46c.08.1.04.27-.05.45-.02-.13-.01-.28.05-.45ZM24.59,37.81h.01c-.09.33-.06.22-.01,0ZM24.69,37.16c-.03-.07-.07-.06-.1-.03.06.05.06.19.05.36.06-.05.11-.13.05-.32ZM30.24,44.39l-.06.13c-.07-.29,0-.21.06-.13Z"/><path class="b" d="M26.58,69.71s-.08.05-.13.06c.04.06.09.06.13-.06Z"/><path class="b" d="M27.92,60.12v-.02s-.03-.02-.04-.02l.04.04Z"/><path class="b" d="M26.71,47.22c-.03.13-.08.21-.12.26.06,0,.11-.05.12-.26Z"/><path class="b" d="M24.28,33.71l.06.42c-.01-.2.04-.27.08-.37-.06,0-.14.09-.14-.04Z"/><path class="b" d="M25.76,30.1c-.03-.06,0-.13-.03-.19l-.11.02c0,.26.1.44.14.17Z"/><path class="b" d="M25.08,33.33c.2-.03.13-.29.1-.59,0,.02,0,.03,0,.05-.28-.09-.19.22-.1.53Z"/><path class="b" d="M25.17,32.67c0-.09-.01-.18,0-.27-.11-.03-.02.11,0,.27Z"/><path class="b" d="M24.56,36.33c.05-.14-.26-.09-.17-.16-.26-.15.31.92.17.16Z"/><polygon class="b" points="25.74 33.09 25.49 33.2 25.69 33.36 25.74 33.09"/><path class="b" d="M25.56,35.39l.07-.47s-.07-.05-.08-.12c0,.29-.06.6.02.59Z"/><path class="b" d="M25.54,34.8c0-.15,0-.29-.04-.37,0,.08.01.25.04.37Z"/><polygon class="b" points="25.81 33.73 25.76 33.87 25.74 34.19 25.81 33.73"/><path class="b" d="M25.51,40.4l.07.51c.09.05.14-.09.1-.28-.06-.12-.09-.31-.17-.23Z"/><path class="b" d="M26.19,38.86c-.05.14-.11.15-.19.22l.31.02-.12-.24Z"/><path class="b" d="M26.26,40.35c.09.05.24.74.23.09-.08-.05-.16-.56-.23-.09Z"/><polygon class="b" points="25.87 48.01 25.87 47.88 25.36 47.9 25.87 48.01"/><path class="b" d="M27.08,54.76c.12-.6-.31-.14-.16-.69-.12-.14-.12.44-.23.3.13.36.05.55.39.39Z"/><path class="b" d="M26.69,54.37c-.02-.06-.04-.12-.08-.19.03.11.06.15.08.19Z"/><polygon class="b" points="30.49 20.74 30.6 20.35 30.43 20.6 30.49 20.74"/><path class="b" d="M30.12,19.99l.32-.09-.29-.23c.01.09.04.26-.03.32Z"/><path class="b" d="M27.55,72.55l.08.02c.08.01.09,0,.1-.04-.06.01-.12.02-.18.02Z"/><polygon class="b" points="27.79 67.68 27.78 67.77 28.07 67.6 27.79 67.68"/><path class="b" d="M27.42,63.27c-.01.18.05.39.04.57-.05-.39.32-.62-.04-.57Z"/><path class="b" d="M80.11,10.58v58.94c0,.75-.61,1.37-1.37,1.37h-.8c-.75,0-1.37-.62-1.37-1.37V10.58c0-.66.47-1.22,1.1-1.34.05-.01.1-.02.15-.02.04-.01.08-.01.12-.01h.8c.76,0,1.37.61,1.37,1.37Z"/><path class="b" d="M81.3,10.31c0,.35.2.22.24.28-.08-.63-.3-.25-.24-.28Z"/><path class="b" d="M77.32,8.58l.04-.1c-.18.12-.33.26-.46.42.12-.13.27-.23.42-.32Z"/><path class="b" d="M75.83,11.67c.18-.16.16-.35.12-.75-.05-.39-.08-.86.12-1.15l.12-.06c-.04-.14-.06-.28-.07-.43-.25.38-.34.9-.29,1.38.04.53.06.77.01,1.01Z"/><path class="b" d="M75.07,13.23c.14-.1.12.34.04-.36-.01.04-.02.05-.03.07,0,.06,0,.15,0,.3Z"/><path class="b" d="M75.08,12.93c0-.31-.12.2,0,0h0Z"/><path class="b" d="M75.15,14.35l-.12-.4c-.08.08-.1.44-.16.31.07.42.15.33.28.09Z"/><path class="b" d="M75.41,14.73l-.05-.21s-.05.09.05.21Z"/><path class="b" d="M75.25,14.08l.11.44c.06-.06.17-.06-.04-.2.1.04,0-.05-.07-.24Z"/><path class="b" d="M75.3,13.83c.08-.23.13-.52.25-.11-.05-.77-.3-.66-.25.11Z"/><path class="b" d="M76.2,11.82l.1-.3-.12-.26c.06.13-.1.59.01.57Z"/><path class="b" d="M74.97,16.87c.08.03.2-.14.3-.17l-.09-.3c-.05.15-.1.45-.21.47Z"/><path class="b" d="M75.27,16.71l.13.45c.02-.4-.05-.47-.13-.45Z"/><polygon class="b" points="75.8 14.81 75.53 14.07 75.81 14.95 75.8 14.81"/><polygon class="b" points="74.96 18.58 74.79 18.33 75.05 18.78 74.96 18.58"/><path class="b" d="M74.99,19.72c-.14-.19-.24.26-.33.06.03.31.15.57.26.81-.06-.25-.05-.52.07-.87Z"/><path class="b" d="M75.08,20.98c-.03-.13-.1-.26-.16-.4.03.13.08.27.16.4Z"/><path class="b" d="M75.36,17.92s-.16.1-.21.35l.21-.18c0-.05,0-.11,0-.18Z"/><path class="b" d="M75.36,18.09h0c0,.2-.01.33-.01.39,0-.05,0-.16.02-.39Z"/><path class="b" d="M75.36,17.87v.04s.03-.03,0-.04Z"/><path class="b" d="M75.61,15.98c.12.26.25.81.43.28-.14-.19-.25.12-.43-.28Z"/><path class="b" d="M75.63,17.65l.05-.48c-.06,0-.14.1-.2-.04l.15.51Z"/><polygon class="b" points="75.69 17.89 75.63 17.65 75.61 17.83 75.69 17.89"/><path class="b" d="M75.28,20.17c.09.21.1.43.11.68.04-.27.06-.55.06-.82-.07-.04-.19-.15-.18.14Z"/><path class="b" d="M75.34,19.16v.05s.04-.05,0-.05Z"/><polygon class="b" points="75.39 23.35 75.43 23.31 75.4 23.3 75.39 23.35"/><path class="b" d="M75.5,19.98c.04-.2-.01-.33-.08-.44.02.15.04.31.04.49.03.02.05.02.04-.05Z"/><path class="b" d="M75.18,21.68c.04-.11.08-.23.12-.35-.07.1-.17.32-.12.35Z"/><path class="b" d="M75.29,19.27v-.03c-.05.07-.03.06,0,.03Z"/><path class="b" d="M75.29,19.27c.03.11.08.19.13.27-.02-.12-.04-.24-.07-.34-.01.03-.04.05-.06.07Z"/><path class="b" d="M76.75,24.1c-.2-.04-.38-.57-.17-1.04-.15-.46-.79-.16-1.15.24.09.01.16.01.28.48.11-.16.25-1.04.43-.65.1.62-.07.51-.17.81.24-.26.36.79.71.66l-.13-.55c.06-.01.15.19.2.04Z"/><path class="b" d="M75.45,22.41l-.02-.19c-.03.22-.11.38-.27.67.1.32.17.39.23.41l.03-.95.03.07Z"/><path class="b" d="M75.43,21.35c.21.15.3.62.53.33-.01-.57-.18-.4-.27-.74.05.92-.12-.26-.24.4-.04-.18-.05-.34-.06-.49-.03.16-.06.32-.1.47v-.02s.01,0,.01,0h0s.04-.05.03,0v.02s.06.02.08.04c-.04.27-.06.04-.08-.04-.01,0-.02-.01-.03-.01h0s.12.92.12.92c.03-.19.02-.44,0-.87Z"/><path class="b" d="M76.5,16.75s-.03.03-.05.03c.03.06.04.08.05-.03Z"/><path class="b" d="M76.37,17.13c-.03-.07-.12-.12-.09-.34.06-.19.1,0,.17,0-.06-.13-.15-.46-.26-.05l.03.06c-.07.37-.34.84-.37.78.19-.11.33-.2.52-.45Z"/><path class="b" d="M75.95,19.27l.1.76.18-.39-.11.02c.04-.43-.09-.34-.18-.39Z"/><polygon class="b" points="75.29 23.43 75.06 23.33 75.38 23.77 75.29 23.43"/><polygon class="b" points="75.32 24.43 75.12 24.39 75.24 24.65 75.32 24.43"/><path class="b" d="M78.93,63.73l-.06-.22c.02.11.04.17.06.22Z"/><path class="b" d="M78.92,65.35l.1.04c-.05-.08-.09-.11-.1-.04Z"/><path class="b" d="M75.34,48.8c-.18.33-.47.69-.25.65l.21-.1c-.04-.23-.01-.4.03-.55Z"/><path class="b" d="M76.62,65.49l.07-.1c-.07-.08-.14-.15-.21-.22.04.1.09.2.14.32Z"/><path class="b" d="M77.51,65.72l-.14.43c.05-.1.09-.24.14-.43Z"/><path class="b" d="M78.71,54.86l-.22-.26c0,.41.11.23.22.26Z"/><path class="b" d="M75.39,34.59c-.08.28-.12.51-.13.7.12-.34.31-.61.13-.7Z"/><path class="b" d="M81.21,64.37c-.04-.14-.08-.2-.13-.19.04.14.08.22.13.19Z"/><path class="b" d="M75.27,36.11s.03-.1.05-.15c-.04-.21-.06-.41-.05-.67-.09.25-.15.54,0,.81Z"/><path class="b" d="M78.88,22.68s.01-.05.03-.07c-.03,0-.03.03-.03.07Z"/><path class="b" d="M81.05,13.31c.01.09.01.24.02.38.01-.07.01-.19-.02-.38Z"/><path class="b" d="M75.22,28.42c-.01-.21-.02-.03,0,0h0Z"/><path class="b" d="M76.07,27.4s.05.08.1.08c-.05-.02-.08-.05-.1-.08Z"/><path class="b" d="M76.6,38.2v.02c.04-.06.03-.05,0-.02Z"/><path class="b" d="M75.32,28.1c-.03.08-.05.17-.06.27.02-.04.04-.13.06-.27Z"/><path class="b" d="M75.22,28.15c0-.07.01-.13.02-.18-.04-.03-.06,0-.02.18Z"/><path class="b" d="M75.23,28.71c0-.12,0-.23.02-.34-.01.04-.03.06-.03.05,0,.06,0,.15.01.29Z"/><path class="b" d="M79.46,39.92s.01-.03.02-.05c-.09-.21-.07-.12-.02.05Z"/><polygon class="b" points="77.57 54.27 77.56 54.25 77.55 54.28 77.57 54.27"/><path class="b" d="M77.73,55.03c-.27-.32-.23-.5-.18-.75l-.62.25.8.5Z"/><path class="b" d="M78.87,59.84l-.19.53c-.32-.64-.21-1.1-.48-.61.67.08.07,2.06.74,2.14l-.14.35c0-.1-.03-.12-.03-.22-.32.68.49.51.39,1.38-.05.31-.15.52-.23.31l.17.68c-.01.2-.13.15-.12-.05l.05,1.04h-.02c.11.14.27.48.34.64-.1.26-.07-.13-.16-.06l.16.58c-.17.23-.34-.24-.32-.64-.67.54.17.48-.22,1.64l-.09-.54c-.38.35-.24.77-.48,1.39.12-.15.6-1.23.77-.6-.05.18-.07.41.06.74-.12,0-.16.08-.18.22,0,.07,0,.15,0,.24,0,.03,0,.07.01.11l-.32-.05c.09.11.26.17.37.33-.11.19-.36.01-.53-.14-.06.02,0,.1.12.17.1.07.25.15.11.28-.07,0-.13,0-.19,0-.05,0-.16.01,0,.03.05,0-.12,0-.17,0h0s0,0,0,0h.01s.03.03.03.03h0s0,0,0,0h-.17s.03.02.03.02c.01,0,.07.02.04.03-.08.04-.18.08-.3.09-.14-.19.14-.17.12-.28-.09.06-.2.11-.31.13-.03-.04.04-.09.08-.12-.18-.05-.27.27-.52.04-.18.06-.14-.22,0-.45l.09-.17s.04-.1.05-.21c.02-.19,0-.37-.1-.54.09-.17.19.08.32.03-.26-.92-.19-.79-.54-1.55l.21-.64c-.24.47-.52-.13-.75-.66-.11.17-.22.31-.26.41l-.17-.85c.05-.1.16-.02.29.12-.03-.06-.05-.11-.08-.15.12-.3.3-.15.48.07-.06.1-.13.2-.2.3.19.21.41.4.59.36-.04-.05-.07-.16-.09-.28.05.05.1.09.13.06.03-.03-.04-.12-.12-.26l.35-.19-.14-.05.22-1.11c-.36-.79-.88-1.48-1.02-2.74.26.31.42.07.73.08-.32.34.14.97.07,1.62.03-.34.18-.27.23-.18l-.3-1.16c.25.03.19-.25.29-.55-.5.23-.33-.87-.48-1.34.17-.03.34.08.3.66.37-.64-.58-.82-.27-1.45,0,.14-.02.22.06.27-.15-.33-.03-1.13.11-.94v.14c.06-.93,0-2.84-.41-2.98.05,0,.51.12.59.18l-1.42-1.67c.36.15,1.22-.42,1.43.36.05-.22.11-.5-.02-.97-.05.15-.52.38-.56.17.4-.57.22-.4.56-1.1-.08.23-.64-.03-.63-.38.08.06.56-.03.62.1l-.56-.9c.1.22.47.04.63-.16-.11.09.01-.77-.04-1.01l-.13.38c.08-1.01-.78-1-.75-2,.12.12.71.3.78-.21-.29-.23-1.37-1.03-1.59-1.92l.16-.17-.19-.68c.43.42,1.33,1.61,1.68,2.26.13-.38.19-.11.18-.67.15-.2.23.31.24.48l.1-1.32c-.33.06-.33-1.01-.61-.96l.34,1.43c-.33.06-.94-.83-.89-1.76.13-.24.59.18.7.16-.11-.12-.22-.89-.14-.97l.18.4c.13-.52-.44-.85-.12-1.47.02-.22.43-.64.23-.68-.38.35-1.55.42-1.84.19.03-.08.36-1.13.55-1.38.3-.36.71.53.97.23-.09-.01-.2-.21-.24-.29.08-.23.28.09.24-.4-.34-.08.03-1-.29-.23-.1-.48.07-.51.05-1.08-.22.18-.74-.51-.84-.99.09.03.2-.08.25-.13.03-.99.18-1.52.19-2.44.08-.08.18-.53.33-.34-.06-.13-.17-.25-.18-.54.29-.55.05.63.4.21-.2-.04-.27-.73-.39-1.14-.3.12-.06.93.06,1.34-.42,0-.86-.7-1.05-1.67-.1-.76.27-.33.21-.46.07-1.44-.73-1.22-.43-2.42.27-.47.53-.02.72-.13.1.62-.17.96-.16,1.38l.13-.52c.09.2.16.61.08.84.24-.4.05-2.43.27-3.53-.09-.2-.18-.54-.29-.38l.04.35c-.21.32-.3-.66-.4-.22-.15-.47-.39-1-.27-1.66l.3-.12c-.09.01-.18.43-.09.62-.13-.28.41-1.02.01-1.32l-.21.46c-.15-.47-.47-1.06-.38-1.64-.3.27.03.14-.32.55.44-.36-.02,1.5.44.92-.41.43-.17.74-.52,1.3.1-.02.19-.2.14.29.03.02.07.07.09.11,0,.01,0,.02,0,.03v-.03s.03.02.02-.01c.04-.12.1-.21.15-.25.23.24.22,1.03.34,1.29-.05.29-.11-.12-.22.04l.18.4c-.22.04-.37.78-.5.09v.62c-.13.36-.18.87-.09,1.18-.05.29.25.74.07.48l.14.97h-.06c-.03.97.37,1.98-.03,3.08.06.32.12.66.06,1.2l-.19.11c.07.41-.19,1.24,0,1.42-.52.45-.11,2.01-.2,2.74l.25.03c-.01.5.06.98.16,1.61l.22-.04c.18.54-.16,1.38-.14,2.23-.08-.06-.06-.27-.01-.43-.5,1.01.36,2.14,0,3.06.08.23.05.4,0,.56,0-.02,0-.04-.01-.06,0,.02,0,.06,0,.09-.04.1-.08.21-.12.32.05-.1.1-.19.12-.27,0,.18.03.45.09.71l-.24.11s0,.04,0,.06c-.09.26.11.21.29.07.04.13.09.25.14.35-.38.21.13.69-.28.98.2.18.15,1.32.57,1.46-.05,0-.08.09-.08-.06-.05.29-.1.59.02.85l-.3.12.41.64c-.18.39-.29.55-.53.16.36.93.14.76.49,1.55l-.2-.04c0,.28.27.74.11.91-.37.63-.05,3.14-.4,4.76.58-.32-.26.76.19.82-.14.09-.21.32-.33.06.13.83-.22,1.25.16,1.82-.14.1-.2-.18-.28-.09.03.07.12.26.04.35-.08.08-.11-.12-.17-.25.02.85.44.93.84,1-.19.43-.16.64.1.95-.13.15-.26.4-.31-.13-.02.3-.19,1.81.13,1.84-.08.09-.02.41.01.49-.01.33-.02.51-.03.69,0,.09,0,.18,0,.3,0,.15,0,.32.02.53l.05-.25c.39.25.04.68.44,1.24h-.04c.35.71.63.7.76.76.19.03.26.13,1.08.29l-.04-.12-.02-.06s.08-.04.05-.06c.02-.02-.03-.03-.04-.04l.03-.04s.05-.04.07-.05c.05-.03.12-.04.19-.04h.06s0,0,.02,0c.05,0,.1.01.15.02.09.02.19.03.3.05.43.08,1.03-.08,1.24-.5-.1.05-.21.09-.31.12.11-.21.44-.32.75-.55.32-.22.6-.56.64-.87.05-.13.07.23.07.42.21-.79.09-.89-.02-.88-.12,0-.3.01-.33-.35.17-.14.43.18.46-.32.14-.25-.54-1.44-.22-2.12-.13.15-.26.3-.36-.05-.05-.53.49-1.42.08-1.9.04-.07.07-.09.1-.1-.11-.4-.17-1.31-.4-1.55.82-.37-.4-2.5.36-2.49l-.04-1.24.08.03c.05-.79-.13-1.07-.31-1.35.05-.18.12-.05.16-.03.15-1.16.12-1.27-.26-2.24l.25-.1c-.14-.26.38-1.67.1-2.81.03.01.08.03.11.12-.29-1.28.68-3.06-.21-3.52l-.22-.84c-.07,1.09-.39-.16-.54.29-.05-.43.27-1.11.32-.58l-.04.08c.47.19.17-1.35.48-1.33-.02-2.15.23-4.24.25-6.24l-.36.23.02-.7c.08-.18.28-.25.27.25.21-.26-.17-.84-.25-.85.15-.98.42.38.43.08l-.03-.41-.04.09c-.15-.33-.3-.36-.29-.96.07-.38.22-.2.24-.34.03,0,.04-.05.01-.23l.03-.88-.29.35c-.14-.39.01-.83-.31-.42.5-.6.18-3.29.33-3.66-.21-.55-.2-1.09-.18-1.76-.06.17-.38.27-.34-.31.66.21.29-1.06.77-1.53-.32.42-.08-1.64-.53-.99.05-.48.25-.03.4-.4-.26-1.15.17-2.53.08-3.95-.09-.02-.22.22-.35-.09l.44-.75c-.04-.28-.5-.26-.2-.77-.07.07-.18.18-.21,0,.42-2.78-.35-5.68.45-8.5-.17.38-.19.13-.19-.16-.04.19-.22,0-.33.03l.33-1.18c-.33-.22-.02-1.27-.34-1.39l.06.37c-.37-.5-.82.7-1.3.62.42.56-.62,1.47-.02,2.38-.1.2-.15-.17-.26-.06.2.23.25.51.15,1.03l-.05-.06c.05,1.46-.15,2.08-.28,3.72l.23-.12c-.03.35-.1.43-.16.59.36.4.02-.99.41-.62-.48.47,0,2.48-.55,2.8,0,.54.27-.16.27.38l-.15.14.19.14c-.03.35-.21.53-.34.55.01-.09-.03-.24-.05-.34-.17.46.06,1.3,0,1.46l.09-.52c.14,1.48-.06,3.28.24,4.71l.11-.11c.2,1.09-.12.87-.03,2.07l-.03-.04c.11.24.17.56.15.89-.13-.3-.25.57-.4.17.22,1.18.17.58.58,1.37l-.18.18c.17.27.25.29.3.89-.16-.49-.28.38-.49-.17-.4,1.25.41,1.86-.18,2.44.51.58.28-1.09.39-.76.17-.27.38.48.33.87-.01.4-.65.68-.64,1.69,0-.1-.04-.11-.03-.21-.13.38.18.74-.04,1.2.31.26-.02.6.37.68l-.09-.92c.1.52.56,1.02.34,1.88-.08-.07-.18-.32-.24-.5-.12.25.08.49-.04.75-.39-.07-.09-1.12-.38-1.68-.17.27.28,1.06-.14.78.54.41-.07.99.34,1.68l-.23-.05c.04.11.15.33.14.53l-.3-.36c.26.55-.23,1.07-.09,1.59,0-1.11.28-.25.45-.72.31,1.37-.61.79-.5,2.32-.03-.21.14-.78.25-.45-.05.29-.14.68-.26.86.05,1.02.24-.16.39.28-.29.35.12.5.21.94h-.24c-.15,1.16.5.31.31,1.35l-.33-.44.09.54-.27-.11c.2.59.15.77.07,1.35.17-.13.43.08.44.59-.14.35-.23-.2-.19.53-.15-.16-.34-.34-.12-.66-.08-.03-.15-.16-.23-.2-.16.38-.04.95-.04,1.21,0-.1.02-.22.06-.28l.33,1.05c-.09.17-.16.03-.23-.1.03.21.14.36.16.67-.19-.08-.39-.06-.49-.51l.22,1c-.08.07-.23.51-.3.38-.11.56.38,1.36.23,2.1.04.04.07.12.1.27-.04.69-.28,1.31-.02,2.13l-.35.47c.08.64.44-.63.57.44.11.76-.3.28-.39.55.18.38.53,1.03.25,1.73-.07-.23-.01-.41-.04-.63ZM79.03,67.77c-.05-.15-.2-.46-.06-.57.27.18.14.31.06.57ZM77.08,64.32c.08.11.04.29-.05.49-.02-.14-.01-.31.05-.49ZM75.42,30.73v.02c-.08.34-.04.22,0-.02ZM75.52,30.01c-.03-.07-.07-.07-.1-.04.06.05.06.21.05.39.06-.05.11-.14.05-.36ZM81.07,37.67l-.06.14c-.07-.31,0-.23.06-.14Z"/><path class="b" d="M77.41,65.69s-.08.06-.13.07c.04.06.09.06.13-.07Z"/><path class="b" d="M78.75,54.91v-.02s-.03-.02-.04-.02l.04.05Z"/><path class="b" d="M77.54,41.04c-.03.15-.08.23-.12.28.06,0,.11-.06.12-.28Z"/><path class="b" d="M75.11,26.24l.06.46c-.01-.22.04-.3.08-.41-.06.01-.14.1-.14-.05Z"/><path class="b" d="M76.59,22.28c-.03-.07,0-.14-.03-.21l-.11.02c0,.28.1.48.14.19Z"/><path class="b" d="M75.91,25.82c.2-.04.13-.32.1-.64,0,.02,0,.04,0,.06-.28-.09-.19.25-.1.59Z"/><path class="b" d="M76,25.1c0-.1-.01-.2,0-.3-.11-.04-.02.12,0,.3Z"/><path class="b" d="M75.39,29.11c.05-.15-.26-.1-.17-.18-.26-.17.31,1.01.17.18Z"/><polygon class="b" points="76.57 25.56 76.32 25.67 76.52 25.85 76.57 25.56"/><path class="b" d="M76.39,28.08l.07-.51s-.07-.06-.08-.14c0,.31-.06.66.02.65Z"/><path class="b" d="M76.37,27.44c0-.16,0-.32-.04-.41,0,.09.01.28.04.41Z"/><polygon class="b" points="76.64 26.26 76.59 26.41 76.57 26.77 76.64 26.26"/><path class="b" d="M76.34,33.57l.07.56c.09.06.14-.1.1-.3-.06-.13-.09-.34-.17-.25Z"/><path class="b" d="M77.02,31.89c-.05.15-.11.16-.19.25l.31.02-.12-.26Z"/><path class="b" d="M77.09,33.51c.09.06.24.81.23.1-.08-.06-.16-.61-.23-.1Z"/><polygon class="b" points="76.7 41.9 76.7 41.76 76.19 41.78 76.7 41.9"/><path class="b" d="M77.91,49.3c.12-.66-.31-.16-.16-.75-.12-.15-.12.49-.23.33.13.4.05.61.39.42Z"/><path class="b" d="M77.52,48.88c-.02-.06-.04-.13-.08-.2.03.12.06.17.08.2Z"/><polygon class="b" points="81.32 11.75 81.43 11.33 81.26 11.6 81.32 11.75"/><path class="b" d="M80.95,10.94l.32-.1-.29-.25c.01.1.04.28-.03.35Z"/><path class="b" d="M78.38,68.95l.08.03c.08-.07.09-.17.1-.36l-.18.33Z"/><polygon class="b" points="78.62 63.19 78.61 63.29 78.9 63.11 78.62 63.19"/><path class="b" d="M78.25,58.36c-.01.2.05.43.04.63-.05-.43.32-.68-.04-.63Z"/><path class="b" d="M80.11,12.79v14.19l-3.54.63-47.29,8.42-.42.07c-.95.16-1.86-.47-2.03-1.42l-1.09-6.13v-9.18c0-.4.21-.77.52-.98l1.27-.23,50.14-8.92h.03s.08-.02.12-.02c.04-.01.08-.01.12-.01h.17c.8.04,1.48.62,1.62,1.44l.38,2.14Z"/><path class="b" d="M81.27,12.42c.02.21.21.1.25.12-.11-.34-.3-.11-.25-.12Z"/><path class="b" d="M79.32,8.84l.12-.02c-.25-.08-.5-.12-.74-.12.21.02.42.07.62.14Z"/><path class="b" d="M75.63,8.86c.36.29,1.15-.26,1.74-.24l.11.06.07-.11-.1.02.02-.04.05-.02c.09-.06.19-.12.29-.16l-.21.03.06-.04h-.06s.21-.01.21-.01c-.11,0-.22.02-.33.04h-.04s-.02.02-.02.02h-.03s.12-.02.12-.02c-.65.18-1.42.47-1.89.46Z"/><path class="b" d="M73.79,8.41c.13.12-.35.18.41-.03-.04,0-.05-.01-.08-.02-.07.01-.16.03-.33.05Z"/><path class="b" d="M74.12,8.36c.34-.07-.24-.07,0,0h0Z"/><path class="b" d="M72.57,8.71l.42-.2c-.11-.06-.51-.01-.37-.1-.44.15-.34.21-.05.3Z"/><path class="b" d="M72.2,9.04l.22-.09s-.11-.03-.22.09Z"/><path class="b" d="M72.89,8.76l-.47.19c.07.04.1.16.22-.08-.02.11.06,0,.25-.12Z"/><path class="b" d="M73.17,8.76c.26.03.59.02.17.22.84-.2.67-.42-.17-.22Z"/><path class="b" d="M75.53,9.25l.35.04.27-.17c-.13.08-.66.02-.62.13Z"/><path class="b" d="M69.77,9.03c-.01.08.18.17.23.26l.31-.14c-.18-.02-.51-.01-.55-.12Z"/><path class="b" d="M70.01,9.29l-.47.21c.44-.06.51-.14.47-.21Z"/><polygon class="b" points="72.19 9.44 72.95 9.03 72.03 9.47 72.19 9.44"/><polygon class="b" points="67.9 9.35 68.14 9.13 67.69 9.48 67.9 9.35"/><path class="b" d="M66.66,9.6c.18-.18-.33-.19-.12-.32-.33.09-.6.26-.84.41.27-.11.56-.15.96-.1Z"/><path class="b" d="M65.29,9.94c.13-.06.26-.14.41-.24-.14.06-.28.13-.41.24Z"/><path class="b" d="M68.7,9.61s-.14-.14-.42-.14l.23.17c.06,0,.13-.02.19-.03Z"/><path class="b" d="M68.51,9.65h0c-.21.03-.36.05-.42.06.05,0,.18-.02.43-.06Z"/><path class="b" d="M68.75,9.6s-.03,0-.05,0c.02.02.03.02.05,0Z"/><path class="b" d="M70.87,9.48c-.27.17-.85.4-.23.47.18-.18-.17-.22.23-.47Z"/><path class="b" d="M69.03,9.82l.53-.05c-.02-.05-.13-.12,0-.2l-.53.25Z"/><polygon class="b" points="68.79 9.93 69.03 9.82 68.84 9.84 68.79 9.93"/><path class="b" d="M66.22,9.97c-.21.13-.45.18-.73.25.31-.01.62-.04.91-.1.03-.07.14-.21-.18-.15Z"/><path class="b" d="M67.33,9.83l-.05.02s.06.01.05-.02Z"/><polygon class="b" points="62.74 10.71 62.8 10.74 62.8 10.7 62.74 10.71"/><path class="b" d="M66.45,10.15c.23,0,.36-.07.47-.16-.16.05-.34.1-.53.13-.01.03-.01.05.06.03Z"/><path class="b" d="M64.54,10.17c.12.02.26.04.41.05-.13-.05-.38-.11-.41-.05Z"/><path class="b" d="M67.2,9.81l.03-.02c-.08-.03-.07-.01-.03.02Z"/><path class="b" d="M67.2,9.81c-.11.05-.19.12-.27.18.13-.04.26-.09.36-.14-.03,0-.06-.03-.09-.04Z"/><path class="b" d="M62.15,12.19c0-.2.56-.48,1.11-.37.48-.23.03-.81-.47-1.09,0,.09.01.16-.48.37.2.07,1.19.04.78.3-.66.22-.57.03-.92-.01.33.19-.81.5-.59.83l.58-.23c.02.05-.18.18,0,.2Z"/><path class="b" d="M63.78,10.58l.21-.06c-.25,0-.43-.04-.78-.13-.34.16-.4.24-.41.31l1.05-.16-.07.04Z"/><path class="b" d="M64.94,10.35c-.13.24-.62.42-.27.59.62-.13.4-.25.76-.41-1,.23.27-.17-.48-.16.19-.07.37-.11.53-.15-.19,0-.37,0-.54,0h.03s0,0,0,0h0s.07.04.01.03c0,0-.01,0-.02,0,0,.03-.02.06-.03.09-.3,0-.06-.05.03-.09,0-.01,0-.02,0-.03h0s-.99.29-.99.29c.22,0,.48-.06.95-.17Z"/><path class="b" d="M70.18,10.5s-.04-.03-.04-.04c-.06.04-.08.06.04.04Z"/><path class="b" d="M69.74,10.45c.07-.04.11-.14.36-.16.22.03.02.1.04.17.13-.08.47-.24,0-.26l-.07.04c-.42,0-.98-.17-.92-.21.15.17.28.28.58.42Z"/><path class="b" d="M67.32,10.46l-.82.25.46.11-.04-.11c.48-.04.36-.16.4-.25Z"/><polygon class="b" points="62.63 10.62 62.7 10.38 62.27 10.78 62.63 10.62"/><polygon class="b" points="61.55 10.84 61.55 10.64 61.29 10.81 61.55 10.84"/><path class="b" d="M35.58,33.72l.24-.1c-.11.04-.19.07-.24.1Z"/><path class="b" d="M33.79,34.02l-.03.1c.07-.07.1-.11.03-.1Z"/><path class="b" d="M34.81,15.62c-.39-.12-.84-.32-.76-.12l.15.19c.24-.08.44-.09.61-.08Z"/><path class="b" d="M25.79,27.91l.07-.11c-.07-.09-.14-.17-.21-.25.04.11.09.23.14.35Z"/><path class="b" d="M26.68,28.17c-.04.14-.07.26-.11.31l-.02.06s.02-.03.02-.06c.02-.03.03-.06.05-.09.02-.07.03-.14.05-.22Z"/><path class="b" d="M45.27,31.76l.25-.27c-.45.08-.23.15-.25.27Z"/><path class="b" d="M50.41,12.9c-.32-.03-.58-.02-.79,0,.39.06.73.18.79,0Z"/><path class="b" d="M35.26,36.09c.14-.07.2-.12.19-.17-.15.06-.23.12-.19.17Z"/><path class="b" d="M48.72,13.07c.06,0,.11.01.17.02.22-.08.44-.14.72-.18-.29-.04-.62-.04-.89.16Z"/><path class="b" d="M78.88,25.7s.01-.01.03-.02c-.03-.02-.03,0-.03.02Z"/><path class="b" d="M81.05,15.83c.01.1.01.27.02.43.01-.08.01-.21-.02-.43Z"/><path class="b" d="M57.15,11.53c.23-.05.03-.03,0,0h0Z"/><path class="b" d="M58.42,12.16s-.08.07-.07.12c0-.05.04-.09.07-.12Z"/><path class="b" d="M46.66,14.79h-.02c.08.03.06.03.02,0Z"/><path class="b" d="M57.51,11.56c-.09-.01-.2-.01-.31-.01.05,0,.14.01.31.01Z"/><path class="b" d="M57.45,11.47c.08,0,.14-.01.21-.02.02-.04,0-.06-.21.02Z"/><path class="b" d="M56.83,11.59c.13-.03.26-.04.38-.04-.05,0-.07-.01-.06-.02-.07.01-.16.03-.32.07Z"/><path class="b" d="M61.78,29.59s.03,0,.05.01c.22-.13.12-.1-.05-.01Z"/><polygon class="b" points="29.2 18.88 29.22 18.87 29.19 18.86 29.2 18.88"/><path class="b" d="M28.4,19.19c.31-.33.51-.33.79-.32l-.38-.56-.41.88Z"/><path class="b" d="M39.83,32.9l-.62-.09c.65-.44,1.18-.42.58-.59.03.68-2.25.47-2.22,1.15l-.41-.07c.11-.01.12-.06.23-.07-.8-.18-.47.58-1.45.65-.34,0-.59-.05-.38-.16l-.72.3c-.22.03-.19-.1.03-.12l-1.13.26v-.02c-.14.13-.48.36-.65.46-.31-.04.13-.1.04-.17l-.6.27c-.29-.13.21-.39.65-.44-.7-.56-.49.26-1.83.1l.58-.19c-.45-.31-.89-.09-1.6-.2.18.09,1.45.35.79.64-.2-.02-.46,0-.81.2-.04-.23-.39-.11-.84-.02l-.02-.32c-.47.18-.41.33-.66.52h-.02c-.22-.02-.21-.28-.18-.48-.06-.04-.08.05-.09.17,0,.11.02.27-.19.22-.1-.12-.17-.19-.28-.28-.05-.04-.11-.09-.16-.16-.03-.04-.05-.06-.09-.12-.04-.09-.08-.19-.12-.3.02-.53.21.05.26-.14l-.33-.41c-.01-.11.07-.09.11-.08-.16-.36-.32.02-.51-.56-.37-.1.28-1.31-.24-1.98.06-.2.21.05.32-.02-.44-.97-.34-.83-.83-1.6.03-.23.05-.53.08-.71-.05.11-.11.22-.2.19-.08-.02-.18-.1-.28-.2-.1-.13-.19-.4-.28-.61-.11.19-.22.35-.26.45l-.17-.94c.05-.11.16-.02.29.14-.03-.06-.05-.12-.08-.17.12-.34.3-.16.48.08-.06.11-.13.23-.2.34.19.23.41.45.59.4-.04-.06-.07-.18-.09-.31.05.06.1.1.13.07.03-.03-.04-.13-.12-.28l.35-.21-.14-.05.22-1.23c-.36-.88-.88-1.65-1.02-3.05.26.35.42.07.73.09-.32.38.14,1.08.07,1.81.03-.38.18-.3.23-.2l-.3-1.29c.25.03.19-.27.29-.61-.5.26-.33-.96-.48-1.49.17-.03.34.09.3.74.37-.71-.58-.92-.27-1.61,0,.16-.02.24.06.3-.07-.18-.08-.5-.05-.74.03-.2.09-.27.17-.2v.09c.03-.15,0-.34.05-.53.07-.18.16-.42.39-.44.2-.07.4-.15.55-.24.14-.09.34-.21.34-.32.02.05-.04.52-.09.62l1.58-1.72c-.1.38.67,1.12-.14,1.47.25,0,.57.01,1.06-.2-.18-.02-.51-.44-.29-.51.7.29.47.13,1.3.34-.26-.03-.09-.64.31-.69-.05.09.13.55,0,.63l.88-.72c-.23.14.04.47.29.59-.12-.09.85-.14,1.1-.24l-.44-.05c1.12-.11.96-.97,2.06-1.13-.11.14-.2.76.37.72.21-.33.89-1.55,1.83-1.94l.22.13.71-.32c-.39.51-1.53,1.63-2.19,2.1.44.05.15.17.77.04.25.11-.3.29-.48.33l1.46-.16c-.12-.32,1.05-.53.94-.79l-1.51.62c-.12-.32.74-1.09,1.78-1.22.28.08-.09.62-.05.72.11-.14.93-.39,1.04-.33l-.4.25c.59.02.85-.6,1.6-.41.24-.02.78.3.79.09-.45-.31-.74-1.45-.53-1.77.09.01,1.31.14,1.61.27.44.22-.46.8-.08,1,0-.09.19-.24.28-.29.26.03-.05.3.48.16.03-.35,1.1-.17.21-.33.51-.19.57-.03,1.19-.16-.24-.18.43-.83.94-1.02-.02.09.12.18.19.22,1.09-.16,1.7-.12,2.71-.29.11.06.61.07.43.25.13-.08.25-.22.56-.28.65.18-.69.17-.17.43,0-.2.76-.41,1.18-.61-.19-.27-1.04.13-1.46.32-.08-.41.62-.98,1.64-1.36.82-.25.41.2.55.12,1.59-.21,1.21-.96,2.58-.89.57.17.12.52.27.69-.67.22-1.08.02-1.54.11l.59.02c-.2.13-.65.27-.91.24.48.16,2.67-.43,3.92-.43.2-.13.56-.28.36-.36l-.38.11c-.39-.15.67-.42.17-.43.49-.24,1.03-.58,1.77-.59l.19.27c-.03-.08-.51-.09-.69.03.28-.19,1.19.21,1.45-.24l-.55-.12c.49-.24,1.07-.67,1.74-.69-.35-.24-.14.06-.66-.2.47.36-1.65.27-.93.61-.54-.32-.84-.03-1.52-.26.04.1.25.15-.3.2-.02.03-.07.08-.1.11-.02,0-.02,0-.04,0h.03s-.02.03.01,0c.14.02.25.05.3.1-.23.27-1.09.42-1.36.59-.33.01.11-.14-.08-.21l-.4.25c-.08-.21-.92-.21-.18-.47l-.68.11c-.42-.05-.98,0-1.3.15-.33,0-.77.39-.52.17l-1.04.33-.02-.05c-1.06.16-2.1.75-3.37.57-.34.12-.7.25-1.3.29l-.15-.17c-.44.15-1.4.05-1.56.29-.58-.42-2.23.28-3.04.33v.25c-.54.08-1.05.25-1.72.47l.08.21c-.56.28-1.54.11-2.47.3.05-.09.29-.11.46-.09-1.2-.3-2.28.78-3.36.6-.24.12-.42.13-.61.11.02,0,.04-.01.06-.02-.03,0-.06,0-.1.02-.12-.02-.24-.04-.37-.05.11.03.22.06.32.06-.19.04-.48.12-.76.22l-.16-.21s-.04.01-.07.02c-.3-.04-.21.15-.02.3-.14.06-.26.13-.36.21-.3-.34-.73.26-1.12-.09-.16.23-1.42.41-1.5.85-.02-.05-.11-.06.05-.09-.33,0-.66.02-.93.19l-.19-.27-.63.53c-.46-.11-.66-.18-.27-.48-.96.54-.81.28-1.61.79v-.2c-.12.03-.4.15-.61.24-.22.09-.4.16-.56.12-.13-.01-.3,0-.49.02-.2.03-.38.21-.55.4-.37.41-.45,1.06-.42,1.79,0,1.06-.02,2.18-.19,3.09.58-.35-.26.84.19.91-.14.11-.21.36-.33.06.13.93-.22,1.39.16,2.03-.14.11-.2-.2-.28-.1.03.07.12.29.04.39-.08.09-.11-.14-.17-.28.02.95.44,1.04.84,1.11-.19.48-.16.72.1,1.06-.06.07-.13.22-.19.25-.06.04-.1-.12-.12-.39,0,.09-.02.26-.03.48.02.17.05.37.07.58.03.18.06.36.09.52.07.32.17.57.29.56-.06.12.06.46.11.54.11.73.09.8.25,1.51l.02-.21c.43.22.19.58.34,1.15h-.04c-.02.68.04.81.09.95.03.07.05.14.07.27.02.11,0,.42.1.85.06-.06.12-.13.18-.19.26-.03.3.3.53.71.22.41.73.84,1.26.8-.11-.06-.22-.12-.31-.2.28-.01.6.22,1.05.36.37.14.64.31.86.3.1.03-.13.1-.25.15,1.14.1.09-.33.89-.55.18.14-.12.45.43.39.3.09,1.49-.82,2.29-.63-.19-.1-.37-.2-.01-.36.57-.15,1.65.2,2.1-.29.08.02.11.05.12.08.42-.18,1.41-.43,1.63-.69.55.74,2.68-.88,2.8-.14l1.35-.28-.02.08c.88-.11,1.15-.34,1.43-.57.21.01.08.11.07.15,1.3-.08,1.42-.13,2.42-.69l.15.22c.26-.19,1.9.05,3.1-.45,0,.03-.03.08-.12.13,1.35-.53,3.47.07,3.83-.9l.89-.38c-1.21.14.11-.41-.41-.47.46-.14,1.26.05.69.2l-.1-.03c-.13.5,1.51-.1,1.54.22,2.35-.44,4.69-.6,6.9-.97l-.32-.31.77-.12c.22.05.32.23-.23.31.32.15.89-.33.89-.41,1.1-.05-.35.49-.02.44l.44-.11-.11-.02c.34-.21.34-.37,1-.47.43,0,.25.18.42.17,0,.03.06.03.25-.03l.97-.14-.44-.21c.4-.22.91-.15.41-.39.74.37,3.65-.47,4.07-.39.57-.31,1.16-.41,1.9-.52-.19-.03-.36-.32.28-.4-.12.69,1.21.08,1.81.46-.51-.23,1.79-.4.99-.71.54-.04.08.24.5.32.61-.24,1.31-.32,2.05-.39.37-.04.75-.07,1.14-.11l.29-.04.44-.07c.3-.05.6-.11.89-.17-.03-.08-.46-.14-.08-.34.36.05.75.09,1.18.13l.1-.23c-.04-.55-.5-.71-.2-1.41-.07.1-.18.22-.21-.07.02-.26.04-.52.07-.78l.04-.59c.02-.39.03-.78.03-1.18,0-.79-.03-1.58-.05-2.38-.04-1.59-.03-3.18.36-4.76-.17.43-.19.14-.19-.18-.04.21-.22,0-.33.04l.33-1.32c-.33-.24-.02-1.41-.34-1.55l.06.42c-.37-.55-.82.78-1.3.7.42.62-.62,1.64-.02,2.66-.1.22-.15-.19-.26-.07.2.26.25.57.15,1.15l-.05-.07c.05,1.62-.15,2.32-.28,4.14l.23-.14c-.03.39-.1.47-.16.66.36.45.02-1.1.41-.69-.48.52,0,2.76-.55,3.12,0,.35.27-.06.27.27-.05.02-.1.04-.15.05.06.04.13.09.19.14-.03.22-.21.2-.34.12.01-.03-.03-.12-.05-.16-.07.04-.07.11-.06.2-.1.04-.2.13-.26.11l.28.04c-.14.06-.31.1-.52.15-.44.08-.89.16-1.33.24-.89.17-1.77.35-2.53.64l.14.09c-1.16.41-.98.05-2.27.38l.04-.03c-.24.16-.58.27-.95.32.31-.19-.67-.14-.26-.36-1.26.45-.61.28-1.4.84l-.23-.15c-.26.22-.27.31-.92.47.51-.25-.47-.2.1-.51-1.45-.15-1.97.76-2.71.3-.54.61,1.24.07.9.24.33.11-.46.47-.9.49-.44.07-.86-.51-1.96-.3.11-.02.11-.06.22-.07-.44-.05-.78.32-1.32.2-.23.35-.66.1-.68.5l1-.27c-.56.2-1.02.75-2,.7.06-.09.32-.24.51-.34-.3-.06-.52.17-.83.1.01-.4,1.22-.3,1.78-.71-.33-.11-1.12.49-.88.01-.35.61-1.1.13-1.78.67v-.24c-.1.06-.33.21-.55.24l.34-.37c-.56.36-1.21-.02-1.76.23,1.22-.22.32.23.87.31-1.45.58-.97-.45-2.63-.04.22-.07.88-.01.54.16-.33,0-.77,0-.98-.09-1.11.25.21.21-.24.43-.43-.21-.53.21-1,.39l-.04-.23c-1.3.08-.25.55-1.42.57l.43-.41-.58.19.08-.29c-.61.31-.82.3-1.47.34.18.14,0,.44-.57.55-.41-.07.18-.26-.62-.09.15-.18.32-.4.7-.24.02-.08.15-.18.17-.26-.44-.09-1.04.15-1.33.2.11-.01.25-.02.32,0l-1.1.53c-.2-.06-.07-.15.07-.25-.23.07-.37.2-.71.29.06-.21,0-.4.47-.58l-1.06.41c-.09-.07-.6-.13-.47-.22-.63,0-1.43.64-2.27.63-.04.04-.11.1-.28.15-.77.09-1.48-.02-2.34.4l-.57-.25c-.69.2.77.31-.39.65-.81.26-.36-.24-.67-.28-.38.25-1.04.73-1.85.58.24-.11.45-.09.68-.16ZM31.16,34.6c.16-.08.47-.29.62-.17-.15.3-.32.2-.62.17ZM26.25,26.61c.08.13.04.32-.05.55-.02-.16-.01-.34.05-.55ZM54.65,12.17h-.02c-.39-.01-.25,0,.02,0ZM55.45,12.13c.07-.05.06-.08.02-.11-.04.07-.22.1-.42.12.07.05.18.08.4-.02ZM64.53,30.73l-.16-.03c.33-.13.25-.05.16.03Z"/><path class="b" d="M26.58,28.13s-.08.06-.13.07c.04.07.09.07.13-.07Z"/><path class="b" d="M45.22,31.81h.03s.02-.03.02-.05l-.05.05Z"/><path class="b" d="M43.71,16.28c-.17,0-.26-.03-.33-.07,0,.06.08.09.33.07Z"/><path class="b" d="M59.52,10.99l-.49.15c.24-.05.34-.02.46,0-.02-.05-.13-.12.03-.15Z"/><path class="b" d="M64.12,11.68c.07-.04.15-.03.22-.07l-.04-.11c-.31.06-.51.19-.18.18Z"/><path class="b" d="M60.12,11.69c.07.19.38.07.72-.03-.02,0-.04,0-.06.01.05-.3-.3-.14-.66.02Z"/><path class="b" d="M60.92,11.64c.11-.03.22-.05.32-.06.02-.12-.14,0-.32.06Z"/><path class="b" d="M56.42,11.82c.18.02.06-.27.17-.21.14-.28-1.05.5-.17.21Z"/><polygon class="b" points="60.52 12.29 60.35 12.07 60.19 12.3 60.52 12.29"/><path class="b" d="M57.72,12.61l.57-.03s.05-.08.14-.11c-.35.05-.73.07-.71.14Z"/><path class="b" d="M58.43,12.47c.18-.03.35-.06.44-.12-.1.02-.3.07-.44.12Z"/><polygon class="b" points="59.77 12.5 59.6 12.48 59.2 12.53 59.77 12.5"/><path class="b" d="M51.69,13.63l-.6.18c-.05.09.13.12.35.04.14-.08.36-.16.25-.22Z"/><path class="b" d="M53.66,13.97c-.17-.02-.2-.07-.3-.14l.04.31.27-.17Z"/><path class="b" d="M51.89,14.36c-.05.09-.84.4-.07.24.05-.09.65-.27.07-.24Z"/><polygon class="b" points="42.61 15.61 42.77 15.58 42.66 15.09 42.61 15.61"/><path class="b" d="M34.71,18.25c.75,0,.12-.34.8-.3.15-.15-.56-.03-.4-.16-.41.2-.66.17-.4.46Z"/><path class="b" d="M35.11,17.78c.07-.03.14-.07.21-.12-.12.05-.18.09-.21.12Z"/><polygon class="b" points="81.32 14.1 81.43 13.63 81.26 13.93 81.32 14.1"/><path class="b" d="M80.95,13.19l.32-.11-.29-.28c.01.11.04.31-.03.4Z"/><path class="b" d="M29.75,34.19l-.02.08c.09.07.2.06.42.03l-.39-.11Z"/><polygon class="b" points="36.11 33.31 36 33.32 36.25 33.57 36.11 33.31"/><path class="b" d="M41.35,32c-.22.03-.46.14-.68.16.46-.14.8.18.68-.16Z"/><path class="b" d="M7.67,90.53c-.07.16-.49-.28-.59-.33.29-.13.7.44.59.33Z"/><polygon class="b" points="10.56 89.31 10.34 89.19 11.07 89.27 10.56 89.31"/><path class="b" d="M12.29,87.31c.61.87-.75.61-.78,1.21l.13.21-.76-.39c.47-.34,1.38-.54,1.42-1.03Z"/><path class="b" d="M11.53,84.79c.25.33.46,0-.12.33-.01-.05-.03-.08-.04-.11.04-.04.09-.1.16-.22Z"/><path class="b" d="M11.37,85.01c-.2.19-.13-.36,0,0h0Z"/><path class="b" d="M12.38,84.19l-.51.04c-.13-.21.04-.49-.16-.52.39-.15.52.06.67.48Z"/><path class="b" d="M13.18,84.42l-.24.04c-.05-.09-.05-.15.24-.04Z"/><path class="b" d="M12.44,84.56l.51-.09c.09.15.34.37-.21.06.25.18-.02.04-.3.03Z"/><path class="b" d="M12.4,84.84c.03.3-.03.59.48.55-.57.43-1.05-.12-.48-.55Z"/><path class="b" d="M13.18,87.91l.05.41-.42-.05c.21.02.14-.58.37-.36Z"/><path class="b" d="M13.48,82.12c.18.13.36.48.55.68l-.37.04c-.02-.2.05-.49-.19-.72Z"/><path class="b" d="M14.03,82.81l.55-.06c-.2.3-.38.23-.55.06Z"/><polygon class="b" points="14.09 85.13 13.05 85.11 14.18 85.04 14.09 85.13"/><polygon class="b" points="14.47 80.94 13.94 80.78 14.78 80.98 14.47 80.94"/><path class="b" d="M15.21,80.23c-.43-.15-.38-.64-.7-.68.24-.16.67-.1,1.05-.05-.29.05-.41.27-.36.73Z"/><path class="b" d="M16.16,79.54c-.15.02-.36-.01-.59-.04.15-.03.34-.02.59.04Z"/><path class="b" d="M14.95,82.16c-.08-.11-.3-.38-.26-.65l.36.53s-.06.08-.1.13Z"/><path class="b" d="M15.06,82.05v-.02c.09-.14.16-.24.19-.28-.02.04-.08.13-.19.3Z"/><path class="b" d="M14.93,82.19s.01-.02.02-.03c.04.05.04.07-.02.03Z"/><path class="b" d="M14.36,83.96c.42.05,1.02-.08,1.1.62-.43-.15-.48-.55-1.1-.62Z"/><path class="b" d="M15.38,82.85l-.18.42c-.12-.11-.25-.33-.45-.35l.63-.06Z"/><polygon class="b" points="15.67 82.82 15.38 82.85 15.45 82.69 15.67 82.82"/><path class="b" d="M16.11,80.47c.32.04.47-.1.66-.25-.07.26-.19.5-.35.68-.17-.1-.5-.25-.31-.43Z"/><path class="b" d="M15.64,81.28s.04,0,.05,0c.02.05.02.08-.05,0Z"/><path class="b" d="M18.25,78.53s.04.07.06.1c-.03-.02-.06-.04-.09-.06l.03-.04Z"/><path class="b" d="M16.48,81.02c-.03.22-.22.2-.43.16.14-.06.26-.15.37-.26.08.05.12.08.06.11Z"/><path class="b" d="M16.79,79.26c.03.16.05.31.05.46-.09-.2-.19-.54-.05-.46Z"/><path class="b" d="M15.61,81.11s-.03,0-.04,0c-.06-.13-.02-.08.04,0Z"/><path class="b" d="M15.61,81.11c.13-.01.29.03.44.06-.11.05-.23.09-.36.1-.02-.05-.05-.11-.09-.16Z"/><path class="b" d="M21.69,80.61c-.45-.35-1.17-.33-.98.39-.59.03-1.84-1.41-2.39-2.37.2.15.37.31.9.21.14.32-.07,1.19.56,1.26.59-.23.15-.48.1-.88.39.64,1.25.14,1.96.92l-.6.13c.12.11.43.15.45.35Z"/><path class="b" d="M17.82,79.27l-.17.08c.06-.22-.02-.47-.19-.96.4-.04.6.06.76.17l-.5.7h.1Z"/><path class="b" d="M17.14,79.95c.56.31,1.03.16,1.37.8-.37.36-.63-.07-1.03-.02.66-.52-.42-.05-.29-.73-.19.05-.31.14-.42.23.04-.16.06-.33.07-.51,0,.01.01.03.02.04h0s0,0,0,0c.04.08.06.12.06.06,0,0,.02,0,.02,0,.07.05.14.09.2.13.06-.26-.1-.13-.2-.13-.02-.02-.05-.03-.08-.05,0,0,0,0,0,0l.8-.4c-.05.19-.21.34-.52.59Z"/><path class="b" d="M16.76,85.13c-.02-.06-.06-.08-.09-.11.09,0,.15.03.09.11Z"/><path class="b" d="M16.7,84.63c-.11-.01-.33-.14-.41.05.03.25.23.2.37.34-.2-.02-.61.02-.59-.46h.1c.06-.38-.25-1.21-.35-1.23.36.44.6.77.87,1.3Z"/><path class="b" d="M17.06,82.38l.68-.32.18.62-.23-.23c-.16.38-.41.05-.63-.07Z"/><polygon class="b" points="18.07 78.26 17.51 77.9 18.47 78.21 18.07 78.26"/><polygon class="b" points="18.71 77.64 18.26 77.29 18.68 77.34 18.71 77.64"/><path class="b" d="M57.28,44.17l.26-.05c-.1.04-.18.05-.26.05Z"/><path class="b" d="M56.35,45.3l-.24-.16c.16.05.27.1.24.16Z"/><path class="b" d="M33.22,61.09c-.21-.57-.62-1.37-.16-.92l.41.48c-.22.08-.27.25-.26.44Z"/><path class="b" d="M45.94,52.18c.03.06.06.13.09.19-.21-.09-.4-.17-.58-.24.15.02.32.04.5.05Z"/><path class="b" d="M48.04,53.73l-.05-.56c.05.16.07.34.05.56Z"/><path class="b" d="M63.05,38.57l.64.24c-.25.28-.38-.06-.64-.24Z"/><path class="b" d="M24.92,70.87c-.02-.35.04-.57.13-.73.07.47.31,1.01-.13.73Z"/><path class="b" d="M51.89,40.24c.17-.02.3.03.4.12-.16.03-.3,0-.4-.12Z"/><path class="b" d="M25.53,69.59c.02.08.01.13.02.2-.2.07-.39.16-.51.35-.05-.35,0-.65.48-.55Z"/><path class="b" d="M81.74,16.32s0-.06-.01-.1c.07.05.05.08.01.1Z"/><path class="b" d="M82.53,5.78c-.08.04-.17.14-.26.23,0-.08.08-.15.26-.23Z"/><path class="b" d="M20.88,74.74c-.16.12-.07-.02,0,0h0Z"/><path class="b" d="M22.14,77.07c.08.02.17.05.28.14-.12-.09-.21-.13-.28-.14Z"/><path class="b" d="M29.72,70.73s0,0,0-.01c.06.12.04.1,0,.01Z"/><path class="b" d="M20.9,75.14c-.01-.1,0-.21.02-.31.01.06,0,.16-.02.31Z"/><path class="b" d="M20.71,74.92c-.02.07-.04.12-.06.17-.09-.05-.13-.11.06-.17Z"/><path class="b" d="M21.08,74.56c-.08.08-.12.17-.15.27,0-.06-.02-.09-.05-.1.04-.04.11-.09.2-.18Z"/><path class="b" d="M70.25,26.96s0-.04-.02-.07c.32.03.24.06.02.07Z"/><path class="b" d="M41.38,61.63s-.03,0-.04,0c0-.01,0-.02,0-.04l.04.04Z"/><path class="b" d="M42.18,61.43c-.78-.29-.82-.11-.84.17l-1.21-1.36,2.05,1.19Z"/><path class="b" d="M59.72,41.64l.11.73c1.08.17,1.11-.35,1.41.51-1.52-1.24-1.38,1.27-2.9.04l.1.51c.05-.08.14-.02.19-.1.3,1.08-1.37-.59-1.68.19-.07.31.02.64.32.65l-.77.14c-.09.16.2.35.29.19l-.73.6.05.03c-.32-.1-.88-.19-1.13-.21.06.36.24.05.38.25l-.7.08c.24.49.9.49,1.08.17,1.16,1.65-.66,0-.48,1.54l.51-.21c.63.97.08.99.24,1.87-.19-.34-.59-1.99-1.33-1.88,0,.22-.08.42-.57.39.52.46.2.57-.07.83l.71.59c-.46.13-.8-.21-1.27-.3-.23.4.25.94.64,1.41-.36.64-.54-1.13-1.23-.6-.13.68-.68.75-1.57.92-.03.52.47.32.58.6l-.8-.21c-.05.08.14.21.24.27-.42.05-.71-.59-1.22-.38-.85-.57.46,1.74-.81,1.43.1.29.47.32.71.59-1.12.13-.88.18-2.1.02l.08.84c-.24-.78-1.22-.91-2.04-.99-.15-.33-.29-.62-.34-.78l-.88.25c.05.17.34.32.72.48-.09-.01-.18-.02-.26-.04.08.43.57.67,1.09.87-.08-.19-.16-.39-.25-.58.55.23,1.13.5,1.51.89-.11-.03-.24-.02-.35.02.15.06.27.13.33.21.06.08-.15,0-.41-.05l.66.81-.34-.24-.17,1.18c-1.25-.14-2.81-.68-3.88-.1.75.28.97.76,1.66,1.34-.51-.86.88-.4,1.12-.97-.13.3.24.53.4.57l-1.34.22c.57.46.27.53.32.93-.96-1.11-1.24-.04-1.86-.01.35.34.79.59,1.04.12.44,1.15-1.77-.56-1.44.48.09-.09.08-.19.3-.06-.52-.06-.74.71-.31.86l.09-.09c-.43.75-1.68,1.94-2.69,1.23.11.11,1.19.89,1.41,1.01l-4.11-1.58c.88.59,2.44,2.63,3.35,2.49-.02.25-.05.55-.61.63-.02-.2-.93-1.26-1.12-1.18.55,1.16.24.68.58,1.82-.04-.3-1.43-1.22-1.61-.94.22.12,1.21,1.09,1.42,1.12l-1.76-.46c.35.04,1.06.88,1.29,1.32-.18-.27-.44.55-.7.6l-.06-.51c-.41.85-2.32-.82-2.85-.08.33.14,1.74,1.15,1.59,1.63-.77-.39-3.63-1.93-4.64-1.74l.26.43-.81.11c1.2.53,3.89,1.46,5.05,1.69.06.5.36.44,0,.8.22.43.69.23.81.14l-.57,1.09c-.7-.68-1.33.05-1.91-.52l1.61-.31c-.7-.68-2.57-1.25-3-.5.15.42,1.41,1.01,1.64,1.24-.32-.14-1.01.18-.88.4l.63.07c-.03.59-1.47-.27-1.15.77-.08.19.56,1.26.11.91-.63-.97-3.17-3.27-3.94-3.65.01.1.13,1.47.39,1.99.44.81,1.88,1,2.26,1.69-.21-.17-.57-.25-.7-.26.04.3.68.48.29.73-.79-.59-.53.74-.77-.39-.5.14-.15.48-.52.84-.37-.54-1.93-1.08-2.43-.93.21.15.39.43.47.57-.52.73-.5,1.39-1.04,2.02.13.21.08.71.52.86-.21-.02-.53-.16-.72.02.32.93.48-.34,1,.61-.45-.35-1.03-.02-1.54.02-.59-.67.43-.75.94-.79-.92-.8-2.3-1.16-3.29-.88-.68.32.4.74.19.72-.69,1.12-2.33-.57-2.38.82.31.83,1.15,1.03,1.51,1.47.59-.23.2-.98.47-1.24l-.03.6c.31.03.71-.12.67-.42.29.73-1.34,1.74-1.51,2.92-.31-.04-.72.02-.86-.3l.29-.17c-.28-.63-1.04-.12-1-.61-.61.03-1.45-.06-1.57.62l.59.67c-.19-.18-.14-.64.17-.59-.46-.07.3,1.48-.75.92l-.19-.72c-.62.03-1.67-.19-1.81.39-.5-.76.16-.03-.37-.98.75,1.08.85-1.06,1.51.22-.64-1.07.06-.84-.37-1.88.21.2.3.5.49.07.08.04.19.08.26.1,0-.02,0-.02,0-.04,0,.01,0,.03,0,.04.05.01.05.02,0,.01.03.16.09.33.19.46.65.27,1.1-.27,1.52-.23.07-.29-.33-.14-.47-.45l.63.07c-.47-.45-.35-1.24-1.05-1.02l.35-.44c-.06-.49.13-.92.52-.96.07-.29.98-.03.45-.19l.88-.4-.12-.11c.51-.71,1.98-.64,1.75-2.15.31-.11.66-.21.85-.7l-.36-.44c.39-.15.31-1.22.86-.95-.87-1.3.94-1.59,1.18-2.26l.57.46c.27-.37.71-.56,1.3-.79l.47.45c.72-.02.47-1.24,1.03-1.78-.22-.12-.3.07-.28.27-.5-1.65,2.07-.76,1.81-2.09.31,0,.35-.17.32-.38-.01.01-.03.02-.06.02,0-.02.03-.05.05-.07-.02-.14-.06-.3-.07-.44.06.17.1.32.1.41.12-.11.33-.24.61-.31l-.46-.53s.03-.02.05-.03c-.04-.34.37.08.68.51.16-.02.34,0,.52.04-.72-.88.69-.22-.04-1.2.55.26,1.12-.61,2.13.1-.12-.11-.13-.21-.22-.12.07-.29.14-.58.55-.53l-.59-.67,1.28.35c-.18-.62-.32-.93-1.06-1.12,1.34.05.75-.26,2-.11l-.45-.35c.18-.18,1.03.02.78-.41-.44-1.15,1.75-2.23,1.95-4.01,1.08,1.32-.12-1.01.9-.2-.24-.33-.28-.63-.7-.68.79-.31.26-1.26,1.43-.93-.25-.33-.55-.26-.67-.48.1.01.42.05.29-.17-.13-.21-.32-.14-.53-.16.55-.53,1.53.21,2.44.93-.16-.65.03-.75.78-.46-.2-.35-.34-.78-.76-.51.13-.24.66-1.6,1.37-1.01-.12-.22.19-.33.32-.31.35-.49.33-.58.78-.97v.22c1,.56.52-.21.93-.48l-.1-.06c.11-1.35.6-.1.62-1.52l.48.5c1.19.9-.04-1.3.8-1.39l.15.43c.61.08-.9-2.05-.82-2.43-.05-.14-.23-.05-.38-.03-.07-1.25.76.51,1.36.14-.29-.41-1.04-.7-.82-1.1-.15-.43,2.06.06,1.75-1.02.2.35.39.7.81.65.41-.27-.23-1.91.95-1.45-.04-.11-.1-.2-.17-.26.47-.07,1.16-.56,1.79-.3-1.58-1.83,2.36-.94.69-2.38l.82-.77-.19-.13c.36-.64.92-.48,1.49-.32,0-.22-.24-.27-.34-.33.35-1.08.49-1.1,1.89-1.04l-.48-.54c.47.09.15-1.88,1.45-2.1-.07-.05-.19-.12-.32-.13,1.39-.32.32-3.39,2.56-1.99l.98-.15c-.49.88.95.63,1.01,1.22.37-.19.06-1.27-.35-1l.05.14c-1.14-.76.44-1.24-.28-1.83,1.32-1.42,2-3.33,3.14-4.74l.66.85.37-.52c-.08-.29-.48-.71-.74-.34-.3-.57.88-.24,1.06-.1.26-.95-1.16-.55-1-.77l.3-.23.04.14c.52.06.88.34,1.2-.1.07-.4-.38-.56-.32-.69-.06-.05-.05-.11.11-.18l.46-.66.42.79c.54,0,.46-.59.93.3-.74-1.36,1.56-2.59,1.44-3.13.78.03,1.1-.35,1.44-.85.03.23.68.91.94.44-1.59-1.13,0-1.27-.78-2.51.45.89,1.15-.97,1.75.34.17-.43-.53-.5-.66-1.04,1.25-.29,1.13-2.04,2.17-2.84.2.15.36.57.82.61l-.51-1.34c.26-.11,1.26.79.9-.14.12.19.3.47.47.4.72-2.71,4.14-3.2,4.06-6.65.14.58.33.44.52.26-.02.21.48.41.71.66l-.02-1.43c.85.48.8-.82,1.56-.3l-.35.15c1.11.37,1.39,2.05,2.48,2.91-1.26-.43.5,2.19-1.37,1.66.09.32.44.18.62.46-.58-.23-.84-.12-.95.41l.15.06c-.97.9-.9,1.71-1.58,3.08l-.44-.53c-.14.3-.02.49,0,.72-1.02-.41.54-.71-.54-1.21.77,1.23-1.46,1.7-.45,2.96-.31.37-.5-.63-.82-.25l.24.38-.5-.27c-.14.3.16.78.42,1.02.02-.09.22-.1.3-.14.11.64-.9.77-.87.99l.11-.53c-1.18.74-1.82,2.34-3.33,2.74l-.18-.29c-1.1.35-.25.83-1.17,1.46l.08.02c-.38-.05-.7.06-.86.31.46.04.22.87.77.87-1.18.38-.73.07-2.09-.19l.3.47c-.52-.14-.73-.29-1.19.03.64-.03.39.8,1.17.82.14,1.62-2,.49-1.05,2.01-1.46-.58.02-1.28-.41-1.27-.21-.5-1.12-.4-1.24-.04-.21.29,1.03,1.71.41,2.38.05-.07.14,0,.2-.08.06.51-.82.17-.64.89-.83-.41-.32.44-1.22-.26l.75-.46c-.54.16-1.84-.38-1.86.63.21.11.6.13.83.12.1.39-.46.18-.35.59.91.7.85-.6,1.85-.41.2.5-1.26.18-.15.8-1.43-.76-.44.81-1.75.48l.54.42c-.15,0-.52-.06-.63.09l.88.34c-.9-.12-.13,1.16-.76,1.25.67-.74-.48-.71-.57-1.36-1.5.33.89,1.71-.27,2.54.2-.08.15-.8-.28-.79-.07.29-.1.73.07,1.08-.71.6-.44-.57-1.01-.55.42.78-.55.12-1.02.24l.52.46c-.35,1.08-1.28-.75-1.49.32l.99.34-.51.21.66.44c-.79.02-.79.24-.96.78-.29-.41-1-.78-1.32-.45.1.51.62.3.11.73.43.17.95.41.65-.22.19.13.43.18.61.3.14.57-.48.72-.64.89.04-.09.08-.19.05-.3l-1.35.08c.1.28.34.33.57.38-.18.1-.51-.01-.74.16.48.32.9.71,1.37.59l-1.07.27c.15.21.2.8.44.84-.08.6-1.64.21-1.74,1-.11-.05-.23-.06-.38,0-.31.56-.15,1.43-1.23,1.48l.49.98c-.56.29-.59-1.27-1.52-.79-.69.3.49.76.54,1.13-.61-.08-1.78-.32-1.57.7.28-.03.27-.25.46-.35ZM54.68,46.75c.2,0,.72.08.48-.27-.71-.41-.5-.06-.48.27ZM46.26,53.86c.24.07.26-.12.18-.43-.13.06-.21.19-.18.43ZM22.67,73.54s.02,0,.04.01c0-.41,0-.26-.04-.01ZM22.48,74.23c-.12-.02-.19-.08-.24-.17.16.08.27-.02.34-.18.11.15.15.3-.1.34ZM68.04,22.34l.06.21c.34-.08.15-.14-.06-.21Z"/><path class="b" d="M47.79,53.55c-.06-.11-.15-.2-.25-.29.12.04.23.12.25.29Z"/><path class="b" d="M62.93,38.52s0-.01,0-.02c.04.02.08.04.11.07l-.12-.04Z"/><path class="b" d="M33.48,70.6c.01-.17-.04-.31-.1-.43.13.11.2.25.1.43Z"/><path class="b" d="M19.35,76.02l.41-.19c-.16.13-.09.28-.07.43-.12-.11-.24-.33-.34-.24Z"/><path class="b" d="M20.25,81.55c-.1-.01-.09.09-.2.08l-.23-.23c.18-.18.5-.14.43.15Z"/><path class="b" d="M20.84,77.83c.42.41.1.47-.17.62.01-.01.03-.02.03-.04-.67-.47-.27-.53.14-.58Z"/><path class="b" d="M20.61,78.48c-.08.05-.15.11-.19.19-.27-.19.02-.13.19-.19Z"/><path class="b" d="M21.65,74.59c.02.2-.62-.43-.49-.21-.66-.38,1.28-.09.49.21Z"/><polygon class="b" points="22.15 79.27 21.67 78.72 22.21 78.98 22.15 79.27"/><path class="b" d="M23.24,77.2l-.15.48c-.09-.08-.18-.09-.27-.07.17-.23.26-.56.42-.41Z"/><path class="b" d="M22.82,77.61c-.09.12-.19.22-.33.2.06-.06.19-.17.33-.2Z"/><polygon class="b" points="22.72 78.94 22.7 78.74 22.87 78.46 22.72 78.94"/><path class="b" d="M26.39,73.38l.49-.24c.22.12.25.33.05.4-.21-.02-.4.05-.53-.16Z"/><path class="b" d="M26.89,75.83c-.02-.2-.14-.31-.27-.53l.69.58-.42-.05Z"/><path class="b" d="M28.01,74.86c.22.13,1.02-.08.56.36-.22-.12-.71.12-.56-.36Z"/><polygon class="b" points="32.13 68.4 32.04 68.48 30.94 67.5 32.13 68.4"/><path class="b" d="M39.18,65.67c-.13.68-.78-.49-.8.21-.35-.12.02-.57-.3-.66.51-.03.48-.31,1.1.45Z"/><path class="b" d="M38.08,65.22c-.08,0-.17,0-.29,0,.14-.02.22,0,.29,0Z"/><polygon class="b" points="82.86 4.2 82.88 3.71 83.09 4.22 82.86 4.2"/><path class="b" d="M84.16,4.37l-.65-.68.79.38c-.09.04-.26.11-.14.3Z"/><path class="b" d="M55.4,48.79l-.19-.13c-.15-.21-.1-.28-.01-.45l.2.57Z"/><polygon class="b" points="58.29 44.41 58.25 44.49 57.72 43.81 58.29 44.41"/><path class="b" d="M61.97,41.83c-.09.16-.37.19-.46.35.37-.19-.3-1.08.46-.35Z"/></svg>